<?xml version="1.0" encoding="UTF-8" standalone="no"?><!DOCTYPE svg PUBLIC "-//W3C//DTD SVG 1.1//EN" "http://www.w3.org/Graphics/SVG/1.1/DTD/svg11.dtd"><svg width="100%" height="100%" viewBox="0 0 201 207" version="1.1" xmlns="http://www.w3.org/2000/svg" xmlns:xlink="http://www.w3.org/1999/xlink" xml:space="preserve" xmlns:serif="http://www.serif.com/" style="fill-rule:evenodd;clip-rule:evenodd;stroke-linejoin:round;stroke-miterlimit:2;"><g id="Grupo_57095"><g id="Grupo_57081"><g id="Grupo_56726"><g id="Grupo_56720"><g id="Grupo_56669"><path id="Trazado_102954" d="M60.799,0l2.235,1.268l-15.833,131.532l-2.3,-1.327l-0.032,-122.387l15.93,-9.086Z" style="fill:#737373;fill-rule:nonzero;"/></g><g id="Grupo_56670"><path id="Trazado_102955" d="M63.097,1.327l0.032,122.387l-15.928,9.086l-0.03,-122.386l15.926,-9.087Z" style="fill:#828282;fill-rule:nonzero;"/></g><g id="Grupo_56719"><g id="Grupo_56715"><g id="Grupo_56711"><g id="Grupo_56710"><g id="Grupo_56709"><g id="Grupo_56672"><g id="Grupo_56671"><path id="Trazado_102956" d="M64.481,107.29c-0.023,-0.325 -0.067,-0.653 -0.1,-0.975c-0.033,-0.322 -0.1,-0.667 -0.119,-1l-0,-0.072c-0.424,-1.2 -0.171,-3.128 -0.24,-4.088l2.7,-0.412c0.679,0.576 1.299,1.217 1.851,1.915c0.334,0.27 0.578,0.635 0.7,1.046c0.089,0.476 0.147,0.957 0.176,1.441c0.009,0.452 0.287,0.907 0.3,1.364c0.012,0.419 -0.085,1.049 -0.688,0.784c-0.356,-0.157 -0.428,-1.038 -0.513,-1.346c-0.084,-0.29 -0.2,-0.57 -0.344,-0.836c-0.094,0.078 -0.192,0.15 -0.292,0.221c-0.02,0.227 -0.01,0.457 0.032,0.681c0.008,0.235 0.024,0.464 0.034,0.7c0.009,0.282 -0.085,0.617 0.076,0.869c0.387,0.523 0.714,1.089 0.973,1.686c0.1,0.264 -0.069,0.732 -0.455,0.577c-0.192,-0.076 -0.292,-0.265 -0.424,-0.419c-0.132,-0.154 -0.3,-0.3 -0.441,-0.462c-0.026,-0.028 -0.051,-0.058 -0.079,-0.087c0.084,0.161 0.17,0.311 0.253,0.455c0.144,0.246 0.473,0.671 0.427,1c-0.059,0.454 -0.483,0.464 -0.8,0.18c-0.085,-0.08 -0.161,-0.169 -0.227,-0.266c0.004,0.05 0.004,0.1 0,0.15c-0.009,0.109 -0.116,0.342 -0.28,0.342c-0.107,-0 -0.291,-0.21 -0.351,-0.28c-0.162,-0.185 -0.313,-0.38 -0.484,-0.558c-0.161,-0.162 -0.291,-0.352 -0.383,-0.561c0,0.186 0,0.455 -0.19,0.457c-0.086,-0 -0.216,-0.161 -0.277,-0.217c-0.1,-0.093 -0.174,-0.209 -0.216,-0.339c-0.21,-0.393 -0.387,-0.803 -0.529,-1.225c-0.056,-0.238 -0.087,-0.481 -0.09,-0.725Z" style="fill:#fdcb95;fill-rule:nonzero;"/></g></g><g id="Grupo_56674"><g id="Grupo_56673"><path id="Trazado_102957" d="M62.078,147.378c-0.424,0.462 -2.256,1.982 -2.459,4.134c-0.07,0.726 0.17,1.234 1.639,1.8c1.143,0.441 3.365,-0.732 8.1,-0.575c0.751,0.031 1.496,-0.148 2.15,-0.517c0.902,-0.465 1.533,-1.329 1.7,-2.33c-0.062,-0.693 -0.483,-1.305 -1.109,-1.61c-0.592,-0.272 -1.771,0.124 -3.723,-0.643c-0.972,-0.38 -1.394,-0.17 -2.387,-0.475c-0.407,-0.124 -2.153,-0.909 -2.377,-0.233l-1.534,0.449Z" style="fill:#1e170e;fill-rule:nonzero;"/></g></g><g id="Grupo_56676"><g id="Grupo_56675"><path id="Trazado_102958" d="M67.792,125.314c1.143,-1.326 2.193,-2.729 3.142,-4.2c0.887,-1.187 6.939,2.342 4.309,7.682c0,0 -8.308,13.548 -8.411,19.016c0,0 0.372,2.953 -3.229,2.225c-4.22,-0.857 -1.528,-2.975 -1.347,-4.371c0.424,-3.215 1.241,-15.976 5.536,-20.352Z" style="fill:#fdcb95;fill-rule:nonzero;"/></g></g><g id="Grupo_56678"><g id="Grupo_56677"><path id="Trazado_102959" d="M78.539,150.708c-0.221,0.588 -1.355,2.681 -0.742,4.754c0.207,0.7 0.617,1.079 2.192,1.059c1.225,-0.019 2.849,-1.934 7.3,-3.554c0.707,-0.251 1.331,-0.694 1.8,-1.28c0.666,-0.768 0.929,-1.808 0.71,-2.8c-0.316,-0.62 -0.935,-1.03 -1.629,-1.079c-0.651,-0.032 -1.6,0.775 -3.695,0.792c-0.804,0.108 -1.603,0.257 -2.392,0.447c-0.425,0.034 -2.339,-0.043 -2.294,0.665l-1.25,0.996Z" style="fill:#1e170e;fill-rule:nonzero;"/></g></g><g id="Grupo_56680"><g id="Grupo_56679"><path id="Trazado_102960" d="M76.755,132.136c0.285,-1.722 0.439,-3.462 0.462,-5.207c-0.018,-1.482 7.978,-1.546 8.225,2.032c0,0 -3.13,14.464 -1.978,18.848c0,0 1.748,1.749 1.258,2.535c-0.957,3.453 -5.961,2.176 -5.961,1.166c0,-3.508 -2.752,-13.291 -2.006,-19.374Z" style="fill:#ffd8a5;fill-rule:nonzero;"/></g></g><g id="Grupo_56682"><g id="Grupo_56681"><path id="Trazado_102961" d="M66.444,106.66c0.379,2.802 0.54,5.63 0.482,8.457c0.195,2.501 0.029,5.016 -0.492,7.47c-0.22,1.026 0.886,3.994 5.735,3.994c2.819,0 4.161,-2 4.138,-2.7c-0.041,-1.3 -0.612,-8.989 -0.478,-11.489c0.113,-2.044 0.1,-3.318 0.116,-5.582c-0,0 0.446,-4.917 -4.483,-4.327c-4.929,0.59 -5.09,3.773 -5.018,4.177Z" style="fill:#737373;fill-rule:nonzero;"/></g></g><g id="Grupo_56684"><g id="Grupo_56683"><path id="Trazado_102962" d="M74.241,110.793c0.885,2.7 0.691,5.772 1.366,8.531c0.8,3.277 -0.892,7.232 1.019,10.142c1.3,1.728 3.546,2.474 5.621,1.869c1.513,-0.394 4.011,-1.188 3.195,-4.255c-0.334,-1.257 -0.575,-9.022 -0.792,-11.517c-0.476,-3.514 -1.221,-6.985 -2.228,-10.385c-1.007,-3.4 -0.02,-2.37 -4.886,-1.393c-4.062,0.816 -3.423,6.615 -3.295,7.008Z" style="fill:#828282;fill-rule:nonzero;"/></g></g><g id="Grupo_56686"><g id="Grupo_56685"><path id="Trazado_102963" d="M63.416,75.784c-0.867,5.577 -1.147,11.23 -0.834,16.865c0.062,0.762 4.22,-3.554 4.5,-5.307c0.658,-4.109 2.661,-7.5 3.327,-10.893c1.067,-5.431 0.1,-6.286 -1.9,-6.679c-2,-0.393 -4.028,0.584 -5.093,6.014Z" style="fill:#fdcb95;fill-rule:nonzero;"/></g></g><g id="Grupo_56688"><g id="Grupo_56687"><path id="Trazado_102964" d="M62.553,87.696c-0.517,5.149 1.064,11.082 1.45,14.737c0.072,0.678 3.146,0.426 3.569,-1.17c0.666,-2.51 -0.146,-8.957 0.546,-14.275c0.151,-1.166 -0.573,-2.16 -2.381,-2.3c-1.808,-0.14 -2.817,-0.637 -3.184,3.008Z" style="fill:#fdcb95;fill-rule:nonzero;"/></g></g><g id="Grupo_56690"><g id="Grupo_56689"><path id="Trazado_102965" d="M68.497,69.354c0,-0 1.824,0.007 2.354,2.594c0.367,1.902 0.36,3.858 -0.02,5.757c-0.18,1.059 -2.395,14.6 -4.494,14.335c-2.099,-0.265 -3.662,-0.52 -3.856,-1.623c-0.194,-1.103 -0.762,-22.677 6.016,-21.063Z" style="fill:#ef7320;fill-rule:nonzero;"/></g></g><g id="Grupo_56691"><path id="Trazado_102966" d="M64.146,89.36c0.849,0.304 1.758,0.4 2.652,0.28l0.129,3.51c-0.801,0.195 -1.626,0.275 -2.449,0.237c-1.022,0.136 -1.996,-0.518 -2.255,-1.516c-0.204,-0.296 -0.3,-0.654 -0.27,-1.013l0.366,-0.039c-0.201,-0.179 -0.346,-0.414 -0.415,-0.674c-0.043,-0.265 0.142,-0.582 0.409,-0.572c-0.332,-0.305 -0.522,-0.735 -0.525,-1.186c0,-0.294 0.14,-0.642 0.431,-0.683c0.373,0.804 1.076,1.408 1.927,1.656Z" style="fill:#e06817;fill-rule:nonzero;"/></g><g id="Grupo_56693"><g id="Grupo_56692"><path id="Trazado_102967" d="M77.419,72.659c1.921,0.826 3.603,2.126 4.886,3.777c1.378,1.788 1.3,5.793 1.249,6.319c-0.171,1.7 -0.453,18.428 0.022,19.916c1.666,5.2 0.341,6.779 0.035,7.1c-3.6,3.842 -7.9,1.133 -9.056,0.988c-3.736,-0.464 -9.12,-3.423 -8.8,-5.275c0.592,-3.441 0.752,-18.4 0.391,-20.3c-0.361,-1.9 -2.211,-10.782 0.291,-14.262c0.527,-0.871 1.447,-1.432 2.463,-1.5c3.183,0.369 7.99,3.084 8.519,3.237Z" style="fill:#fe8527;fill-rule:nonzero;"/></g></g><g id="Grupo_56694"><path id="Trazado_102968" d="M70.85,69.852c-0,0 -3.164,1.235 -2.308,3.294c0.856,2.059 2.815,2.887 5.35,3.281c0.729,0.114 3.329,-0.508 6.119,-2.253l-6.482,-3.779l-2.679,-0.543Z" style="fill:#ff8a3b;fill-rule:nonzero;"/></g><g id="Grupo_56697"><g id="Grupo_56696"><g id="Grupo_56695"><path id="Trazado_102969" d="M78.274,84.208c1.18,5.642 2.29,9.791 2.29,12.08c0,0.765 6.116,-0.63 5.678,-2.427c-1.028,-4.209 -0.535,-8.265 -1.273,-11.791c-1.179,-5.646 -2.775,-6.349 -4.766,-5.932c-1.991,0.417 -3.107,2.422 -1.929,8.07Z" style="fill:#ffd8a5;fill-rule:nonzero;"/></g></g></g><g id="Grupo_56706"><g id="Grupo_56699"><g id="Grupo_56698"><path id="Trazado_102970" d="M79.802,58.387c0.168,0.973 0.44,1.926 0.811,2.841c0.169,0.423 0.155,0.897 -0.039,1.309c-0.293,0.758 -0.312,1.596 -0.053,2.367c0.146,1.002 0.03,2.026 -0.339,2.969c-0.218,0.754 -0.334,1.644 -1.021,2.1c-1.7,1.14 -3.624,0.469 -5.346,-0.133c-1.7,-0.6 -1.418,-3.626 -1.95,-5.039c-0.96,-2.555 -0.251,-6.129 2.565,-7.241c1.475,-0.573 3.095,-0.66 4.622,-0.247c0.449,0.173 0.75,1.074 0.75,1.074Z" style="fill:#ffd8a6;fill-rule:nonzero;"/></g></g><g id="Grupo_56701"><g id="Grupo_56700"><path id="Trazado_102971" d="M77.434,68.693c0.108,1.569 -0.049,3.144 -0.464,4.661c-0.58,0.83 -1.54,1.316 -2.553,1.292c-2.18,0.046 -4.7,-1.138 -3.961,-2.944c0.4,-0.972 1.442,-1.932 0.78,-5.871c-0.212,-1.24 6.198,2.862 6.198,2.862Z" style="fill:#ffd8a6;fill-rule:nonzero;"/></g></g><g id="Grupo_56703"><g id="Grupo_56702"><path id="Trazado_102972" d="M71.04,55.932c2.645,-1.791 6.207,-1.548 7.916,0.441c0.597,0.738 0.952,1.643 1.015,2.59c0.3,0.519 -1.149,0.449 -1.5,2.545c-1.794,10.8 -6.846,6.917 -7.01,6.529c-1.3,-3.074 -2.162,-2.37 -2.762,-4.216c-0.9,-2.787 -1.38,-5.373 2.341,-7.889Z" style="fill:#14110a;fill-rule:nonzero;"/></g></g><g id="Grupo_56705"><g id="Grupo_56704"><path id="Trazado_102973" d="M76.774,65.598c0.367,0.943 0.576,1.824 0.99,1.663c0.621,-0.46 0.831,-1.302 0.5,-2c-0.368,-0.944 -0.57,-1.849 -1.015,-1.857c-0.841,-0.018 -0.843,1.249 -0.475,2.194Z" style="fill:#ffd8a6;fill-rule:nonzero;"/></g></g></g><g id="Grupo_56708"><g id="Grupo_56707"><path id="Trazado_102974" d="M80.563,96.285c0.8,4.886 5.492,10.882 6.3,13.146c0.228,0.641 3.588,-1.775 2.861,-3.178c-1.762,-3.821 -2.923,-7.89 -3.443,-12.065c-0.147,-1.111 -0.932,-4.382 -2.716,-4.054c-1.784,0.328 -3.566,2.696 -3.002,6.151Z" style="fill:#ffd8a5;fill-rule:nonzero;"/></g></g></g></g></g><g id="Grupo_56714"><g id="Grupo_56713"><g id="Grupo_56712"><path id="Trazado_102975" d="M86.062,105.079c-0.165,-0.691 2.59,-0.417 3.093,0.5c0.6,0.7 2.866,3.4 2.99,3.624c0.183,0.326 0.344,0.664 0.484,1.011c0.188,0.599 0.201,1.24 0.036,1.846c-0.022,0.55 -0.077,1.098 -0.163,1.641c-0.138,0.409 -0.409,0.777 -0.509,1.186c-0.098,0.337 -0.178,0.679 -0.239,1.025c-0.046,0.2 -0.124,0.391 -0.232,0.566c-0.224,-0.031 -0.424,-0.159 -0.545,-0.35c-0.206,0.07 -0.046,0.119 -0.141,0.318c-0.068,0.144 -0.147,0.441 -0.334,0.364c-0.329,-0.162 -0.524,-0.512 -0.489,-0.877c-0.046,0.1 -0.037,0.223 -0.1,0.317c-0.452,-0.09 -0.781,-0.49 -0.78,-0.951c-0.03,-0.323 0.094,-1.39 0.077,-1.726c-0.082,-0.607 -0.26,-1.197 -0.528,-1.747c-0,0.291 -0.011,0.6 -0.011,0.961c-0.009,0.826 0.5,1.188 -0.211,1.735c-1.379,-1.2 -0.851,-2.87 -1.215,-4.539c-1.032,-1.027 -0.879,-3.63 -1.183,-4.904Z" style="fill:#ffd8a6;fill-rule:nonzero;"/></g></g></g></g><g id="Grupo_56717"><g id="Grupo_56716"><path id="Trazado_102976" d="M79.864,75.457c1.385,-0.306 2.821,0.302 3.563,1.511c1.555,2.134 1.49,4.246 1.716,6.046c0.3,2.394 1.8,11.826 -0.221,12.458c-2.021,0.632 -3.83,0.923 -4.463,0c-0.633,-0.923 -6.104,-18.197 -0.595,-20.015Z" style="fill:#ff8a3b;fill-rule:nonzero;"/></g></g><g id="Grupo_56718"><path id="Trazado_102977" d="M86.667,95.508c0.154,-0.536 -0.032,-1.252 -0.576,-1.378c-0.452,-0.105 -0.866,0.241 -1.257,0.491c-0.894,0.503 -1.907,0.756 -2.932,0.733c-0.379,0.039 -0.762,-0.018 -1.113,-0.167c-0.244,-0.144 -0.461,-0.33 -0.641,-0.549l-0.326,-0.352c-0.22,0.117 -0.359,0.347 -0.359,0.597c0,0.2 0.089,0.39 0.242,0.518c0.061,0.036 0.118,0.077 0.172,0.123c0.113,0.159 0.125,0.369 0.03,0.539c-0.094,0.166 -0.159,0.346 -0.192,0.534c-0.021,0.472 0.576,0.8 0.557,1.271c0.8,0.111 1.621,-0.153 2.427,-0.067c0.243,0.046 0.491,0.067 0.738,0.062c0.216,-0.033 0.426,-0.097 0.623,-0.191c0.548,-0.208 1.071,-0.476 1.559,-0.8c0.492,-0.325 0.86,-0.805 1.048,-1.364Z" style="fill:#ef7320;fill-rule:nonzero;"/></g></g></g><g id="Grupo_56723"><g id="Grupo_56721"><path id="Trazado_102978" d="M102.196,23.113l2.235,1.268l-15.832,131.533l-2.3,-1.327l-0.031,-122.389l15.928,-9.085Z" style="fill:#737373;fill-rule:nonzero;"/></g><g id="Grupo_56722"><path id="Trazado_102979" d="M104.495,24.439l0.032,122.387l-15.928,9.086l-0.032,-122.387l15.928,-9.086Z" style="fill:#828282;fill-rule:nonzero;"/></g></g><g id="Grupo_56724"><path id="Trazado_102980" d="M86.271,32.2l-0,12.908l-39.1,-21.786l-0,-12.908l39.1,21.786Z" style="fill:#002d56;fill-rule:nonzero;"/></g><g id="Grupo_56725"><path id="Trazado_102981" d="M63.097,1.327l39.1,21.785l-15.926,9.087l-39.1,-21.785l15.926,-9.087Z" style="fill:#003760;fill-rule:nonzero;"/></g></g><g id="Grupo_56781"><g id="Grupo_56780"><g id="Grupo_56779"><g id="Grupo_56729"><g id="Grupo_56728"><g id="Grupo_56727"><path id="Trazado_102982" d="M158.396,56.353c-0.159,0.794 3.32,5.356 3.43,9.383c0.048,1.628 3.106,-1.433 2.333,-2.01c-1.311,-0.979 -1.066,-4.074 -1.771,-9.015c-0.306,-2.166 -3.255,-2.003 -3.992,1.642Z" style="fill:#fdcb95;fill-rule:nonzero;"/></g></g></g><g id="Grupo_56737"><g id="Grupo_56731"><g id="Grupo_56730"><path id="Trazado_102983" d="M142.466,111.416l0.605,-0.369c0,-0 -0.262,-1.4 0.759,-1.4c1.021,-0 -1.708,-1.16 -1.708,-1.16l0.344,2.929Z" style="fill-rule:nonzero;"/></g></g><g id="Grupo_56736"><g id="Grupo_56733"><g id="Grupo_56732"><path id="Trazado_102984" d="M143.814,103.89c-3.435,0.874 -1.2,4.729 -2.311,6.684c0.021,0.452 0.644,0.716 0.965,0.86c0.267,-0.944 0.305,-2.89 1.417,-1.121c0.772,1.23 -0.007,2.147 1.185,3.2c1.379,0.879 3.001,1.299 4.633,1.2c0.65,-0.158 -1.257,-3.052 -1.694,-3.635c-0.875,-1.146 -1.399,-2.522 -1.507,-3.96c-0.269,-1.043 -0.247,-2.139 0.063,-3.17l-2.751,-0.058Z" style="fill:#ffd8a6;fill-rule:nonzero;"/></g></g><g id="Grupo_56735"><g id="Grupo_56734"><path id="Trazado_102985" d="M141.503,110.573c1.064,-1.868 -1.3,-5.585 2.157,-6.643c-0.594,0.588 -0.968,1.363 -1.059,2.194c0.154,1.329 0.536,2.622 1.13,3.822c0.479,0.875 1.086,1.673 1.8,2.369c0.713,0.529 1.669,0.604 2.456,0.194c0.581,-0.432 0.615,-0.661 0.268,-1.238c0.507,0.752 2.067,3.35 1.447,3.5c-1.632,0.097 -3.254,-0.323 -4.634,-1.2c-1.194,-1.059 -0.376,-1.932 -1.152,-3.16c-1.113,-1.768 -1.176,0.076 -1.443,1.02c-0.326,-0.142 -0.949,-0.406 -0.97,-0.858Z" style="fill:#3f1833;fill-rule:nonzero;"/></g></g></g></g><g id="Grupo_56745"><g id="Grupo_56739"><g id="Grupo_56738"><path id="Trazado_102986" d="M157.596,114.389l0.557,-0.44c0,0 -0.426,-1.359 0.586,-1.485c1.012,-0.126 -1.833,-0.949 -1.833,-0.949l0.69,2.874Z" style="fill-rule:nonzero;"/></g></g><g id="Grupo_56744"><g id="Grupo_56741"><g id="Grupo_56740"><path id="Trazado_102987" d="M158.043,106.755c-3.307,1.275 -0.63,4.839 -1.5,6.911c0.076,0.45 0.726,0.635 1.06,0.738c0.153,-0.968 -0.041,-2.9 1.275,-1.28c0.913,1.13 0.248,2.132 1.556,3.036c1.474,0.708 3.134,0.932 4.743,0.64c0.628,-0.234 -1.612,-2.883 -2.114,-3.411c-1.004,-1.033 -1.687,-2.336 -1.965,-3.749c-0.392,-1.003 -0.501,-2.095 -0.315,-3.156l-2.74,0.271Z" style="fill:#fdcb95;fill-rule:nonzero;"/></g></g><g id="Grupo_56743"><g id="Grupo_56742"><path id="Trazado_102988" d="M156.539,113.665c0.833,-1.981 -1.958,-5.389 1.351,-6.851c-0.52,0.653 -0.799,1.465 -0.791,2.3c0.31,1.302 0.844,2.54 1.577,3.66c0.255,0.279 1.383,1.841 2.063,2.14c0.772,0.44 1.731,0.401 2.464,-0.1c0.523,-0.5 0.427,-0.726 0.013,-1.258c0.592,0.687 2.67,2.79 1.956,3.3c-0.9,0.638 -3.853,-0.022 -4.743,-0.636c-1.31,-0.909 -0.6,-1.874 -1.518,-3c-1.317,-1.625 -1.16,0.215 -1.313,1.182c-0.333,-0.101 -0.983,-0.287 -1.059,-0.737Z" style="fill:#3f1833;fill-rule:nonzero;"/></g></g></g></g><g id="Grupo_56747"><g id="Grupo_56746"><path id="Trazado_102989" d="M157.013,45.394c0.949,2.449 -0.372,7.084 1.694,9.765c0.962,1.249 4.321,0.528 3.582,-0.934c-0.723,-1.427 -0.326,-7.347 -1.718,-10.938c-1.392,-3.591 -3.332,-4.2 -4.817,-3.6c-1.485,0.6 -0.141,2.116 1.259,5.707Z" style="fill:#002744;fill-rule:nonzero;"/></g></g><g id="Grupo_56749"><g id="Grupo_56748"><path id="Trazado_102990" d="M157.237,87.337c0.356,0.974 0.356,2.044 0,3.018c-0.561,1.769 -0.773,3.631 -0.624,5.481c0.461,2.355 1.55,8.658 1.2,10.129c-0.721,3 -1.053,3.168 -0.2,3.18c0.853,0.012 3.2,-0.818 3.124,-1.459c0.127,-3.03 0.436,-6.05 0.925,-9.043c0.649,-3.357 -0.036,-9.139 0.543,-9.477l-4.968,-1.829Z" style="fill:#fdcb95;fill-rule:nonzero;"/></g></g><g id="Grupo_56751"><g id="Grupo_56750"><path id="Trazado_102991" d="M155.692,74.491c0,0 -3.729,18.02 -4.211,19.506c-0.482,1.486 -3.1,2 -4.515,-0.05c-1.415,-2.05 0.135,-20.555 1.986,-21.245c1.851,-0.69 5.608,-2.383 6.74,1.789Z" style="fill:#ffd8a6;fill-rule:nonzero;"/></g></g><g id="Grupo_56753"><g id="Grupo_56752"><path id="Trazado_102992" d="M146.807,90.974c0.135,0.745 -0.106,1.511 -0.644,2.044c-0.894,0.981 -1.503,2.188 -1.762,3.49c-0.076,1.76 -0.443,6.4 -1.057,7.284c-0.614,0.884 -1.187,2.709 -0.389,3.021c0.798,0.312 2.686,-0.351 2.749,-0.814c0.769,-2.007 1.707,-3.945 2.805,-5.793c1.329,-2.041 1.933,-6.2 2.546,-6.22l-4.248,-3.012Z" style="fill:#ffd8a6;fill-rule:nonzero;"/></g></g><g id="Grupo_56755"><g id="Grupo_56754"><path id="Trazado_102993" d="M161.305,68.582c0,-0 1.17,8.253 1.509,14.164c0.065,1.927 -0.058,3.855 -0.368,5.758c-0.069,1.562 -2.453,2.754 -4.364,1.154c-1.911,-1.6 -5.323,-17.909 -3.725,-19.07c1.598,-1.161 4.745,-5.729 6.948,-2.006Z" style="fill:#fdcb95;fill-rule:nonzero;"/></g></g><g id="Grupo_56757"><g id="Grupo_56756"><path id="Trazado_102994" d="M147.764,67.358c0.122,-1 1.229,2.188 5.11,2.177c3.881,-0.011 5.529,-4.17 5.522,-6.059c0,-0.273 0.6,-2.777 1.886,-2.009c0,0 1.729,3.153 1.879,10.092c0.094,4.32 2.227,24.316 0.227,35.071c-0.387,2.084 -4.492,-0.949 -5.783,1.483c-1.216,2.29 -3.663,-1.873 -6.631,-0.584c-4.137,1.792 -1.071,-0.635 -4.641,-0.635c-2.116,0 -3.725,-4.453 -3.83,-4.966c-0.247,-1.206 5.528,-19.671 4.229,-24.342c-0.413,-1.485 0.887,-8.083 0.887,-9.611c-0,-1.568 0.951,0.943 1.145,-0.617Z" style="fill:#002d56;fill-rule:nonzero;"/></g></g><g id="Grupo_56759"><g id="Grupo_56758"><path id="Trazado_102995" d="M147.812,48.907c0.575,1.32 -2.474,-2.435 -2,-3.921c0.5,-1.554 3.4,-4.084 4.78,-4.719c1.748,-0.614 3.6,-0.875 5.45,-0.768c0.593,-0.035 1.188,0.033 1.758,0.2c1.066,0.393 1.266,3.923 2.15,5.374c1.029,1.687 3.975,4.182 1.421,6.744c-2.315,2.948 -2.632,7.019 -0.8,10.289c3.18,6.345 -1.914,6.786 -3.648,7.37c-2.239,0.752 -5.6,1.619 -7.457,0.03c-2.979,-2.548 -2.588,-4.389 -1.287,-6.662c2.983,-5.224 0.912,-5.706 0.362,-8.5c-1.086,-5.518 -1.238,-6.61 -0.729,-5.437Z" style="fill:#002d56;fill-rule:nonzero;"/></g></g><g id="Grupo_56761"><g id="Grupo_56760"><path id="Trazado_102996" d="M147.363,60.373c2.482,3.423 3.478,8.613 6.06,10.187c4.282,2.606 -1.477,2.755 -2.016,1.97c-0.857,-1.247 -1.337,-1.575 -2.323,-2.851c-1.674,-2.162 -3.852,-5.227 -4.875,-6.873c-1.144,-1.847 1.519,-4.689 3.154,-2.433Z" style="fill:#ffd8a6;fill-rule:nonzero;"/></g></g><g id="Grupo_56763"><g id="Grupo_56762"><path id="Trazado_102997" d="M156.022,42.199c0.63,1.069 1.087,2.231 1.355,3.442c0.347,1.177 0.561,2.389 0.638,3.614c-1.004,-2.055 -2.592,-3.769 -4.565,-4.925c-0.609,-0.408 -1.242,-0.78 -1.894,-1.114c-0.496,-0.304 -0.84,-0.804 -0.947,-1.376c-0.186,-1.035 0.612,-1.313 1.258,-1.61c1.009,-0.459 2.512,-0.573 3.186,0.581c-0.001,0 0.619,0.857 0.969,1.388Z" style="fill:#fdcb95;fill-rule:nonzero;"/></g></g><g id="Grupo_56765"><g id="Grupo_56764"><path id="Trazado_102998" d="M153.898,37.399c0.149,0.315 -0.063,0.826 -0.081,1.228c0.008,0.592 0.088,1.182 0.238,1.755c0.109,0.574 0.376,1.207 0,1.64c-0.632,0.728 -2.637,0.625 -3.26,0.039c-1.091,-1.03 0.135,-2.489 0.433,-3.572c0.123,-0.453 -0.082,-1.343 0.232,-1.661c0.908,-0.918 2.443,0.852 2.827,1.43l-0.389,-0.859Z" style="fill:#fdcb95;fill-rule:nonzero;"/></g></g><g id="Grupo_56774"><g id="Grupo_56767"><g id="Grupo_56766"><path id="Trazado_102999" d="M157.888,27.035c0.754,-0 1.394,2.962 1.441,4.355c0.035,1.17 -0.015,2.479 0.032,3.644c-0.004,1.302 -0.107,2.601 -0.309,3.887c-2.261,-0.346 -4.212,-1.785 -5.211,-3.842l4.047,-8.044Z" style="fill-rule:nonzero;"/></g></g><g id="Grupo_56769"><g id="Grupo_56768"><path id="Trazado_103000" d="M149.271,27.587c1.017,-1.895 3.6,-1.056 5.734,-0.874c2.166,0.187 2.877,1.028 3.19,5c-0.132,1.109 -0.169,2.228 -0.111,3.343c0.111,1.083 -0.732,2.349 -1.077,3.362c-0.208,0.6 -0.194,0.774 -0.874,0.876c-0.614,0.067 -1.235,-0.001 -1.819,-0.2c-1.145,-0.216 -2.222,-0.698 -3.145,-1.409c-0.728,-0.958 -1.171,-2.102 -1.279,-3.3c-0.422,-1.872 -1.574,-5.021 -0.619,-6.798Z" style="fill:#ffd8a6;fill-rule:nonzero;"/></g></g><g id="Grupo_56771"><g id="Grupo_56770"><path id="Trazado_103001" d="M156.182,27.694c-0.052,2.15 -1.242,4.118 -3.122,5.163c0.638,-0.412 0.577,-1.39 0.7,-2.064c-0.509,0.732 -3.341,3.16 -2.544,6.936c0.245,1.159 1.361,2.015 1.828,3.106c-1.455,-0.7 -5,-0.758 -7.309,-5.019c0.393,-1.449 0.601,-2.942 0.621,-4.444c-0.026,-2.6 0.622,-5.671 3.4,-6.361c1.887,-0.387 3.852,0.01 5.44,1.1c0.92,0.616 1.278,1.809 0.849,2.83l0.137,-1.247Z" style="fill:#252525;fill-rule:nonzero;"/></g></g><g id="Grupo_56773"><g id="Grupo_56772"><path id="Trazado_103002" d="M155.79,28.217c0.685,0.195 1.331,0.504 1.912,0.916c0.596,0.317 1.071,0.822 1.351,1.436c-0.152,-0.71 0,-1.5 -0.2,-2.241c-0.286,-1.092 -0.973,-2.038 -1.922,-2.649c-2.06,-1.26 -6.852,-2.131 -6.96,-0.719l5.819,3.257Z" style="fill:#252525;fill-rule:nonzero;"/></g></g></g><g id="Grupo_56776"><g id="Grupo_56775"><path id="Trazado_103003" d="M144.49,49.333c-0.143,2.623 -1.348,9.373 -0.57,12.665c0.362,1.537 4.219,0.628 4.154,-0.676c-0.141,-2.821 1.122,-7.368 1.329,-11.214c0.207,-3.846 -0.055,-5.918 -1.653,-5.982c-1.598,-0.064 -3.05,1.358 -3.26,5.207Z" style="fill:#003760;fill-rule:nonzero;"/></g></g><g id="Grupo_56778"><g id="Grupo_56777"><path id="Trazado_103004" d="M165.607,65.843c-0.409,-0.504 -0.772,-1.045 -1.083,-1.615c-0.141,-0.276 -0.347,-0.515 -0.6,-0.694c-1.242,-0.668 -2.084,1.969 -2.091,2.06c-0.043,0.488 0.042,0.979 0.245,1.425c0.281,0.661 0.635,1.241 0.883,1.88c0.03,0.472 0.16,0.932 0.38,1.351c0.109,0.2 0.29,0.472 0.572,0.385c0.141,-0.043 0.228,-0.187 0.2,-0.332l0.017,0.043c0.047,0.152 0.082,0.794 0.491,0.736c0.087,-0.006 0.169,-0.045 0.228,-0.11c0.03,0.214 0.1,0.4 0.289,0.45c0.285,0.008 0.44,-0.3 0.513,-0.647c0.067,0.01 0.135,-0.001 0.195,-0.032c0.28,-0.116 0.252,-0.438 0.312,-0.685c0.133,-0.319 0.197,-0.662 0.188,-1.007c-0.058,-0.313 -0.177,-0.64 -0.262,-0.963c0.007,-0.222 0.033,-0.443 0.076,-0.661c0.094,-0.587 -0.114,-1.183 -0.553,-1.584Z" style="fill:#fdcb95;fill-rule:nonzero;"/></g></g></g></g></g><g id="Grupo_56819"><g id="Grupo_56816"><g id="Grupo_56815"><g id="Grupo_56810"><g id="Grupo_56783"><g id="Grupo_56782"><path id="Trazado_103005" d="M32.489,110.435c0.369,4.039 4.835,13.151 5.561,14.691c0.278,0.591 3.069,-0.808 2.274,-1.52c-1.309,-1.166 -1.588,-6.582 -2.847,-9.074c-0.352,-0.7 0.164,-2.354 -1.531,-1.943l-3.457,-2.154Z" style="fill:#bf8162;fill-rule:nonzero;"/></g></g><g id="Grupo_56785"><g id="Grupo_56784"><path id="Trazado_103006" d="M32.792,104.183c-0.677,4.248 -0.909,7.076 0.7,7.17c0.6,0.036 3.895,3.216 3.932,1.755c0.089,-3.426 1.159,-6.3 1.329,-9.148c0.27,-4.553 -0.516,-7.31 -2.123,-7.405c-1.607,-0.095 -2.612,2.642 -3.838,7.628Z" style="fill:#bf8162;fill-rule:nonzero;"/></g></g><g id="Grupo_56787"><g id="Grupo_56786"><path id="Trazado_103007" d="M35.485,171.037c0.02,0.504 0.094,1.005 0.221,1.493c0.468,0.553 1.178,0.844 1.9,0.777c0.897,-0.036 1.763,-0.338 2.488,-0.868c0.594,-0.785 3.5,-1.576 4.318,-1.8c0.725,-0.248 1.343,-0.737 1.752,-1.385c0.334,-0.586 0.836,-2.074 -0.076,-2.977c-0.648,-0.638 -2.151,0.569 -3.961,0.643c-4.577,0.183 -6.809,1.778 -6.642,4.117Z" style="fill:#5a2d0e;fill-rule:nonzero;"/></g></g><g id="Grupo_56789"><g id="Grupo_56788"><path id="Trazado_103008" d="M35.904,151.528c0.381,-1.716 -1.115,-19.868 -0.949,-21.791c0.121,-1.422 9.87,-1.1 9.77,2.351c-0,0 -3.833,30.343 -3.141,34.648l0.5,1.441c0.043,0.432 -0.109,0.861 -0.415,1.169c-0.658,0.658 -1.533,1.056 -2.462,1.119c-1.337,0.224 -4.058,-0.073 -4.241,-1.414c-0.6,-5.854 -0.284,-11.766 0.938,-17.523Z" style="fill:#2d2d2d;fill-rule:nonzero;"/></g></g><g id="Grupo_56791"><g id="Grupo_56790"><path id="Trazado_103009" d="M44.163,175.972c0.048,0.503 0.149,0.999 0.3,1.481c0.497,0.527 1.219,0.782 1.937,0.683c0.894,-0.083 1.745,-0.429 2.443,-0.994c0.551,-0.813 3.416,-1.743 4.222,-2.011c0.711,-0.284 1.304,-0.802 1.682,-1.468c0.3,-0.606 0.729,-2.115 -0.225,-2.965c-0.678,-0.61 -2.12,0.671 -3.924,0.833c-4.567,0.406 -6.716,2.111 -6.435,4.441Z" style="fill:#5a2d0e;fill-rule:nonzero;"/></g></g><g id="Grupo_56793"><g id="Grupo_56792"><path id="Trazado_103010" d="M48.055,118.687c2.581,2.275 8.322,5.479 9.82,6.29c0.574,0.312 1.994,-2.468 0.932,-2.571c-1.744,-0.166 -5.176,-4.366 -7.665,-5.629c-0.7,-0.354 -1.262,-1.994 -2.385,-0.66l-0.702,2.57Z" style="fill:#db9a79;fill-rule:nonzero;"/></g></g><g id="Grupo_56795"><g id="Grupo_56794"><path id="Trazado_103011" d="M42.468,155.58c0.236,-1.74 -2.78,-19.7 -2.777,-21.632c0,-1.426 9.744,-1.921 9.932,1.524c0,0 -1.27,30.559 -0.217,34.792l0.62,1.39c0.081,0.426 -0.034,0.867 -0.312,1.2c-0.604,0.709 -1.442,1.178 -2.361,1.323c-1.314,0.333 -4.05,0.266 -4.345,-1.057c-1.091,-5.783 -1.273,-11.701 -0.54,-17.54Z" style="fill:#3d3d3d;fill-rule:nonzero;"/></g></g><g id="Grupo_56798"><g id="Grupo_56796"><path id="Trazado_103012" d="M34.656,123.173c1.554,-3.854 3.895,-1.692 4.154,-4.129c0.062,-3.099 -0.328,-6.191 -1.159,-9.177c-0.992,-5.723 -3.814,-8.974 -1.512,-12.775c0.32,-0.529 -0.034,-1.059 0.587,-1.218c0.265,-0.172 0.56,-0.293 0.869,-0.355c0.309,-0.062 0.651,0.151 1.2,0.348c-0.081,0.015 -0.16,0.035 -0.238,0.06c2.66,0.569 5.183,1.651 7.428,3.187c0.443,0.223 0.828,0.545 1.126,0.941c0.217,0.21 0.417,0.436 0.6,0.676c1.679,2.268 -0.125,9.918 -0.831,12.68c-0.496,2.712 -0.408,5.499 0.257,8.175c0.543,2.728 1.125,3.916 1.61,6.667c0.427,2.367 0.715,4.756 0.862,7.157l0.007,0.066c0.018,0.467 0,0.935 -0.054,1.4c-2.616,0.893 -6.633,-0.669 -7.678,-1.081c-4.794,-1.892 -5.346,-2.4 -6.684,-3.611c-2.169,-1.976 -1.571,-6.465 -0.544,-9.011Z" style="fill:#3d3d3d;fill-rule:nonzero;"/></g><g id="Grupo_56797"><path id="Trazado_103013" d="M38.799,95.863c0.037,-0.113 -0.034,0.133 0,0Z" style="fill:#3d3d3d;fill-rule:nonzero;"/></g></g><g id="Grupo_56801"><g id="Grupo_56799"><path id="Trazado_103014" d="M38.799,95.863c0.037,-0.113 -0.034,0.133 0,0Z" style="fill:#cc8e69;fill-rule:nonzero;"/></g><g id="Grupo_56800"><path id="Trazado_103015" d="M35.111,122.021c0.589,-1.741 0.973,-3.544 1.145,-5.373c1.395,-6.041 -3.53,-16.414 -1.123,-19.765c0.4,-0.507 0.961,-0.864 1.59,-1.01c0.265,-0.172 0.56,-0.293 0.869,-0.355c0.309,-0.062 0.651,0.151 1.2,0.348c-0.081,0.015 -0.16,0.035 -0.238,0.06c2.66,0.569 5.183,1.651 7.428,3.187c0.443,0.223 0.828,0.545 1.126,0.941c0.217,0.21 0.417,0.436 0.6,0.676c1.679,2.268 -0.125,9.918 -0.831,12.68c-0.496,2.712 -0.408,5.499 0.257,8.175c0.133,0.777 0.314,1.545 0.543,2.3c-0.266,0.976 -1.049,1.73 -2.034,1.959c-5.57,1.598 -10.711,-1.56 -10.532,-3.823Z" style="fill:#cc8e69;fill-rule:nonzero;"/></g></g><g id="Grupo_56803"><g id="Grupo_56802"><path id="Trazado_103016" d="M45.271,108.744c0.889,4.471 1.811,10.454 3.389,10.14c0.591,-0.117 2.592,-1.291 2.257,-2.714c-0.779,-3.338 -0.472,-6.393 -1.027,-9.186c-0.89,-4.473 -2.271,-6.435 -3.85,-6.121c-1.579,0.314 -1.661,3.409 -0.769,7.881Z" style="fill:#db9a79;fill-rule:nonzero;"/></g></g><g id="Grupo_56805"><g id="Grupo_56804"><path id="Trazado_103017" d="M46.767,84.305c0.162,0.936 0.425,1.853 0.783,2.733c0.125,0.577 -0.283,2.761 -0.088,3.537c0.139,0.965 0.026,1.949 -0.328,2.857c-0.118,0.757 -0.46,1.461 -0.982,2.021c-0.748,0.638 -3.565,-0.337 -5.226,-0.912c-1.64,-0.575 -1.281,-2.7 -1.792,-4.064c-0.922,-2.458 -0.239,-5.894 2.469,-6.965c1.418,-0.551 2.975,-0.635 4.444,-0.239c0.433,0.166 -0.6,0.567 -1,1.032l1.72,-0Z" style="fill:#ffd8a5;fill-rule:nonzero;"/></g></g><g id="Grupo_56807"><g id="Grupo_56806"><path id="Trazado_103018" d="M44.199,94.834c-0.649,1.05 -0.909,2.296 -0.735,3.518c-0.107,0.937 -0.935,1.639 -1.877,1.593c-2.1,0.043 -4.521,-1.1 -3.81,-2.833c0.384,-0.934 1.387,-1.857 0.748,-5.648c-0.198,-1.19 5.674,3.37 5.674,3.37Z" style="fill:#ffd8a5;fill-rule:nonzero;"/></g></g><g id="Grupo_56809"><g id="Grupo_56808"><path id="Trazado_103019" d="M38.499,81.526c3.5,-1.206 5.812,-1.073 7.452,0.842c0.576,0.709 0.918,1.579 0.98,2.49c0.285,0.5 -1.11,0.431 -1.444,2.447c-1.724,10.394 -6.585,6.654 -6.743,6.28c-1.246,-2.955 -2.079,-2.279 -2.653,-4.056c-0.872,-2.677 -1.019,-6.514 2.408,-8.003Z" style="fill:#5a2d0e;fill-rule:nonzero;"/></g></g></g><g id="Grupo_56812"><g id="Grupo_56811"><path id="Trazado_103020" d="M44.946,81.527c2.017,1.014 2.909,3.452 2.024,5.528c-1.51,3.749 -1.558,2.979 -1.616,4.085c-0.058,1.106 -1.888,-2.449 -1.888,-2.649l1.48,-6.964Z" style="fill:#5a2d0e;fill-rule:nonzero;"/></g></g><g id="Grupo_56814"><g id="Grupo_56813"><path id="Trazado_103021" d="M45.092,91.677c0.012,-0.43 -0.108,-0.853 -0.342,-1.214c-0.357,-0.387 -0.753,-0.19 -0.906,0.282c-0.075,0.366 -0.095,0.741 -0.059,1.113c-0,0.3 0.3,2.492 1.308,1.247l-0.001,-1.428Z" style="fill:#ffd8a5;fill-rule:nonzero;"/></g></g></g></g><g id="Grupo_56818"><g id="Grupo_56817"><path id="Trazado_103022" d="M62.764,126.703c0.426,0.373 0.842,0.266 0.811,0.88c-1.238,0.189 -1.872,-0.829 -2.9,-1.378c-1,0.083 -2.282,-1.152 -3.081,-1.557c-0.434,-0.221 0.555,-2.163 1.254,-2.018c0.629,0 3.423,0.645 3.592,0.676c0.252,0.051 0.501,0.116 0.745,0.195c0.394,0.169 0.732,0.446 0.974,0.8c0.243,0.305 0.582,0.483 0.783,0.809c0.153,0.253 0.221,0.56 0.394,0.794c0.131,0.201 0.273,0.395 0.427,0.579c0.083,0.112 0.148,0.236 0.192,0.368c-0.114,0.104 -0.27,0.152 -0.423,0.129c-0.056,0.141 0.04,0.079 0.1,0.216c0.045,0.1 0.164,0.268 0.039,0.333c-0.228,0.1 -0.495,0.048 -0.669,-0.129c0.029,0.064 0.1,0.114 0.119,0.189c-0.248,0.195 -0.602,0.187 -0.842,-0.018c-0.179,-0.125 -0.68,-0.661 -0.862,-0.8l-0.653,-0.068Z" style="fill:#ffd8a6;fill-rule:nonzero;"/></g></g></g><g id="Grupo_56855"><g id="Grupo_56854"><g id="Grupo_56821"><g id="Grupo_56820"><path id="Trazado_103023" d="M2.13,187.92c-0.219,0.582 -1.345,2.659 -0.736,4.715c0.206,0.695 1.025,0.8 2.174,1.05c1.188,0.263 2.191,-1.56 3.031,-1.748c1.446,-0.486 2.854,-1.08 4.211,-1.776c0.675,-0.298 1.283,-0.729 1.788,-1.267c0.657,-0.762 0.917,-1.791 0.7,-2.774c-0.313,-0.616 -0.927,-1.024 -1.616,-1.073c-0.644,-0.031 -1.584,0.77 -3.664,0.785c-0.797,0.108 -1.589,0.256 -2.371,0.444c-0.422,0.035 -2.32,-0.041 -2.276,0.662l-1.241,0.982Z" style="fill:#1e170e;fill-rule:nonzero;"/></g></g><g id="Grupo_56823"><g id="Grupo_56822"><path id="Trazado_103024" d="M2.097,146.385c-0.023,-0.323 -0.067,-0.648 -0.1,-0.97c-0.033,-0.322 -0.1,-0.66 -0.117,-0.989l-0,-0.072c-0.421,-1.186 -0.17,-3.1 -0.238,-4.055l2.673,-0.408c0.674,0.571 1.289,1.207 1.837,1.9c0.331,0.268 0.573,0.63 0.694,1.038c0.088,0.473 0.146,0.951 0.174,1.431c0.01,0.446 0.285,0.9 0.3,1.35c0.012,0.416 -0.085,1.043 -0.682,0.779c-0.352,-0.157 -0.426,-1.031 -0.509,-1.334c-0.084,-0.288 -0.199,-0.566 -0.342,-0.829c-0.093,0.077 -0.19,0.15 -0.29,0.219c-0.02,0.226 -0.009,0.453 0.032,0.676c0.008,0.234 0.023,0.46 0.032,0.695c0.009,0.28 -0.083,0.612 0.077,0.862c0.384,0.52 0.707,1.081 0.965,1.673c0.093,0.261 -0.069,0.725 -0.453,0.572c-0.191,-0.075 -0.289,-0.263 -0.419,-0.417c-0.13,-0.154 -0.293,-0.3 -0.437,-0.458c-0.026,-0.028 -0.051,-0.057 -0.079,-0.085c0.084,0.158 0.168,0.308 0.251,0.449c0.144,0.246 0.47,0.668 0.425,0.994c-0.059,0.45 -0.48,0.46 -0.79,0.178c-0.085,-0.079 -0.161,-0.168 -0.226,-0.264c0.003,0.05 0.003,0.1 0,0.15c-0.01,0.108 -0.115,0.339 -0.279,0.34c-0.106,0 -0.288,-0.21 -0.347,-0.277c-0.162,-0.185 -0.311,-0.378 -0.48,-0.556c-0.16,-0.16 -0.29,-0.349 -0.381,-0.556c0,0.185 0,0.451 -0.188,0.454c-0.086,0 -0.214,-0.16 -0.275,-0.215c-0.099,-0.092 -0.173,-0.208 -0.214,-0.337c-0.208,-0.39 -0.384,-0.797 -0.526,-1.216c-0.055,-0.237 -0.085,-0.479 -0.088,-0.722Z" style="fill:#ffd8a6;fill-rule:nonzero;"/></g></g><g id="Grupo_56825"><g id="Grupo_56824"><path id="Trazado_103025" d="M4.855,144.684c0.491,2.78 0.2,5.579 0.479,8.386c0.331,3.329 0.964,7.866 0.45,10.259c-0.218,1.018 2.531,2.587 4.394,2.464c1.075,-0.072 3.742,-0.3 3.6,-1.048c-0.024,-0.965 0.015,-1.93 0.117,-2.89c-0.042,-1.292 0.136,-9.006 0.268,-11.484c0.113,-2.028 0.1,-3.29 0.115,-5.536c-0,0 0.443,-4.878 -4.446,-4.293c-4.889,0.585 -5.049,3.742 -4.977,4.142Z" style="fill:#737373;fill-rule:nonzero;"/></g></g><g id="Grupo_56827"><g id="Grupo_56826"><path id="Trazado_103026" d="M5.67,163.51c0.854,-1.513 1.602,-3.083 2.238,-4.7c0.632,-1.326 7.2,0.927 5.687,6.632c0,0 -5.34,16.925 -4.375,22.262c-0.439,1.24 -1.61,2.081 -2.926,2.1c-1.679,0.182 -4.576,-0.632 -4.672,-2.026c-0.213,-3.204 0.723,-19.176 4.048,-24.268Z" style="fill:#737373;fill-rule:nonzero;"/></g></g><g id="Grupo_56829"><g id="Grupo_56828"><path id="Trazado_103027" d="M16.853,188.376c-0.219,0.583 -1.345,2.659 -0.736,4.716c0.2,0.694 1.025,0.8 2.175,1.049c1.187,0.263 2.192,-1.56 3.03,-1.748c1.446,-0.486 2.854,-1.079 4.211,-1.775c0.675,-0.299 1.284,-0.73 1.789,-1.268c0.658,-0.761 0.92,-1.79 0.706,-2.774c-0.313,-0.615 -0.927,-1.023 -1.616,-1.073c-0.647,-0.031 -1.584,0.77 -3.666,0.785c-1.034,0.007 -1.347,0.358 -2.371,0.444c-0.422,0.035 -2.32,-0.041 -2.276,0.662l-1.246,0.982Z" style="fill:#1e170e;fill-rule:nonzero;"/></g></g><g id="Grupo_56831"><g id="Grupo_56830"><path id="Trazado_103028" d="M12.592,148.785c0.877,2.682 0.685,5.724 1.356,8.463c0.8,3.25 0.619,7.2 2.515,10.09c0.907,1.321 2.482,2.027 4.072,1.824c1.053,-0.22 2.895,-0.8 3.058,-1.539c0.165,-0.953 0.188,-1.925 0.068,-2.884c-0.224,-1.273 -1.134,-8.934 -1.348,-11.408c-0.243,-3.411 -0.78,-6.795 -1.607,-10.114c-0.827,-3.319 -0.02,-2.351 -4.846,-1.381c-4.032,0.808 -3.398,6.56 -3.268,6.949Z" style="fill:#828282;fill-rule:nonzero;"/></g></g><g id="Grupo_56833"><g id="Grupo_56832"><path id="Trazado_103029" d="M15.081,169.953c0.283,-1.707 0.437,-3.434 0.459,-5.164c-0.018,-1.468 7.913,-1.531 8.159,2.017c0,0 -1.909,14.49 -0.767,18.836l0.155,0.726c0.218,0.536 0.182,1.143 -0.1,1.649c-0.425,0.804 -1.157,1.403 -2.029,1.66c-1.35,0.364 -4.279,0.523 -4.6,-0.836c-1.378,-6.195 -1.808,-12.564 -1.277,-18.888Z" style="fill:#828282;fill-rule:nonzero;"/></g></g><g id="Grupo_56835"><g id="Grupo_56834"><path id="Trazado_103030" d="M1.853,114.06c-1.057,5.387 -2.359,12.452 -0.378,12.84c0.743,0.145 3.735,0.362 4.013,-1.379c0.653,-4.072 2.64,-7.436 3.3,-10.8c1.057,-5.385 -0.136,-6.605 -2.116,-6.993c-1.98,-0.388 -3.763,0.943 -4.819,6.332Z" style="fill:#737373;fill-rule:nonzero;"/></g></g><g id="Grupo_56837"><g id="Grupo_56836"><path id="Trazado_103031" d="M0.185,126.949c-0.512,5.107 0.028,14.545 1.821,14.687c0.672,0.054 2.738,0.356 3.157,-1.229c0.661,-2.489 -0.144,-8.884 0.544,-14.16c0.15,-1.154 -0.569,-2.141 -2.364,-2.283c-1.795,-0.142 -2.795,-0.63 -3.158,2.985Z" style="fill:#737373;fill-rule:nonzero;"/></g></g><g id="Grupo_56839"><g id="Grupo_56838"><path id="Trazado_103032" d="M15.742,110.958c1.906,0.82 3.573,2.11 4.847,3.748c1.366,1.772 1.292,5.745 1.238,6.266c-0.169,1.687 -0.8,18 -0.8,19.551c0.008,3.074 0.613,5.727 0.458,6.144c-1.326,3.568 -7.432,2.232 -8.583,2.087c-3.706,-0.462 -9.045,-3.4 -8.728,-5.232c0.587,-3.414 0.745,-18.251 0.388,-20.138c-0.357,-1.887 -2.195,-10.694 0.289,-14.147c0.641,-0.789 1.632,-1.213 2.645,-1.131c3.153,0.362 7.722,2.705 8.246,2.852Z" style="fill:#929191;fill-rule:nonzero;"/></g></g><g id="Grupo_56842"><g id="Grupo_56841"><g id="Grupo_56840"><path id="Trazado_103033" d="M16.59,122.41c1.17,5.6 2.4,13.091 4.371,12.677c0.742,-0.155 3.966,-1.32 3.53,-3.1c-1.019,-4.175 -0.53,-8.2 -1.262,-11.7c-1.17,-5.6 -2.753,-6.3 -4.728,-5.885c-1.975,0.415 -3.08,2.41 -1.911,8.008Z" style="fill:#a0a5ab;fill-rule:nonzero;"/></g></g></g><g id="Grupo_56851"><g id="Grupo_56844"><g id="Grupo_56843"><path id="Trazado_103034" d="M18.104,96.803c0.167,0.965 0.437,1.91 0.805,2.818c0.167,0.42 0.153,0.891 -0.039,1.3c-0.29,0.753 -0.308,1.584 -0.051,2.348c0.144,0.994 0.028,2.009 -0.337,2.945c-0.217,0.748 -0.332,1.631 -1.013,2.085c-1.688,1.13 -3.594,0.464 -5.3,-0.132c-1.706,-0.596 -1.408,-3.6 -1.935,-5c-0.952,-2.534 -0.248,-6.078 2.545,-7.181c1.462,-0.569 3.069,-0.655 4.584,-0.246c0.442,0.168 0.741,1.063 0.741,1.063Z" style="fill:#ffd8a6;fill-rule:nonzero;"/></g></g><g id="Grupo_56846"><g id="Grupo_56845"><path id="Trazado_103035" d="M15.757,107.022c0,-0 -1.2,3.614 -0.46,4.625c0.283,0.391 -1.171,1.254 -2.534,1.282c-2.162,0.044 -4.66,-1.129 -3.927,-2.922c0.395,-0.964 1.428,-1.915 0.772,-5.823c-0.206,-1.227 6.149,2.838 6.149,2.838Z" style="fill:#ffd8a6;fill-rule:nonzero;"/></g></g><g id="Grupo_56848"><g id="Grupo_56847"><path id="Trazado_103036" d="M9.414,94.369c2.624,-1.776 6.156,-1.537 7.851,0.436c0.592,0.731 0.944,1.629 1.006,2.568c0.3,0.516 -1.139,0.443 -1.485,2.523c-1.78,10.716 -6.791,6.861 -6.953,6.475c-1.286,-3.047 -2.145,-2.35 -2.739,-4.182c-0.896,-2.765 -1.371,-5.323 2.32,-7.82Z" style="fill:#61573a;fill-rule:nonzero;"/></g></g><g id="Grupo_56850"><g id="Grupo_56849"><path id="Trazado_103037" d="M15.103,103.954c0.364,0.936 0.57,1.811 0.982,1.65c0.615,-0.457 0.822,-1.292 0.491,-1.983c-0.364,-0.935 -0.565,-1.832 -1.006,-1.842c-0.831,-0.017 -0.833,1.24 -0.467,2.175Z" style="fill:#ffd8a6;fill-rule:nonzero;"/></g></g></g><g id="Grupo_56853"><g id="Grupo_56852"><path id="Trazado_103038" d="M7.906,110.796c0.088,0.683 0.377,1.325 0.829,1.845c0.884,0.942 1.775,0.964 2.994,1.124c1.393,0.148 2.799,-0.119 4.041,-0.768c0.4,-0.194 0.581,-0.44 1.034,-0.491c0.435,-0.003 0.87,0.03 1.3,0.1c-0.652,-0.699 -1.366,-1.338 -2.132,-1.909c-0.177,-0.139 -0.375,-0.25 -0.587,-0.327c-0.333,-0.082 -0.171,-0.1 -0.437,0.133c-0.329,0.349 -0.731,0.622 -1.176,0.8c-1.004,0.343 -2.117,0.133 -2.928,-0.551c-0.687,-0.642 -1.132,-1.502 -1.261,-2.433c-1.484,-0.243 -1.788,1.95 -1.677,2.477Z" style="fill:#a0a5ab;fill-rule:nonzero;"/></g></g></g></g><g id="Grupo_56860"><g id="Grupo_56858"><g id="Grupo_56856"><path id="Trazado_103039" d="M165.096,161.274l5.695,-19.623l-12.448,-7.29l-0.768,0.444l-4.927,2.844l0,16.333l12.448,7.292Z" style="fill:#274361;fill-rule:nonzero;"/></g><g id="Grupo_56857"><path id="Trazado_103040" d="M170.912,157.985l-0,-16.334l-0.768,0.445l-4.927,2.844l-0,16.334l5.695,-3.289Z" style="fill:#1f3749;fill-rule:nonzero;"/></g></g><g id="Grupo_56859"><path id="Trazado_103041" d="M152.652,137.65l12.448,7.29l-0,16.334l-12.448,-7.291l-0,-16.333Z" style="fill:#15283a;fill-rule:nonzero;"/></g></g><g id="Grupo_56883"><g id="Grupo_56862"><g id="Grupo_56861"><path id="Trazado_103042" d="M161.566,181.345c-0.024,0.515 -0.1,1.027 -0.227,1.527c-0.479,0.567 -1.206,0.866 -1.945,0.8c-0.917,-0.037 -1.803,-0.347 -2.544,-0.889c-0.606,-0.8 -3.576,-1.61 -4.415,-1.839c-0.74,-0.256 -1.371,-0.754 -1.792,-1.414c-0.338,-0.6 -0.852,-2.123 0.083,-3.046c0.659,-0.651 2.2,0.584 4.046,0.657c4.684,0.18 6.963,1.81 6.794,4.204Z" style="fill:#1f180f;fill-rule:nonzero;"/></g></g><g id="Grupo_56863"><path id="Trazado_103043" d="M157.368,160.112c1.075,-0.034 2.118,0.379 2.879,1.139c0.078,0.416 0.143,0.831 0.192,1.249c0.623,5.338 -0.9,10.91 -0.206,15.916c0.19,1.374 -2.114,1.831 -3.479,1.6c-0.949,-0.067 -1.844,-0.472 -2.52,-1.142c-0.313,-0.317 -0.468,-0.757 -0.425,-1.2l0.517,-1.473c0.3,-1.876 -0.239,-8.591 -0.958,-15.678c1.319,-0.255 2.657,-0.393 4,-0.411Z" style="fill:#08182d;fill-rule:nonzero;"/></g><g id="Grupo_56865"><g id="Grupo_56864"><path id="Trazado_103044" d="M156.767,184.674c-0.046,0.513 -0.146,1.02 -0.3,1.512c-0.507,0.542 -1.247,0.803 -1.982,0.7c-0.915,-0.083 -1.786,-0.436 -2.5,-1.015c-0.564,-0.831 -3.492,-1.781 -4.317,-2.058c-0.727,-0.291 -1.334,-0.82 -1.721,-1.5c-0.308,-0.617 -0.743,-2.161 0.233,-3.032c0.692,-0.62 2.168,0.686 4.011,0.853c4.667,0.414 6.862,2.157 6.576,4.54Z" style="fill:#1f180f;fill-rule:nonzero;"/></g></g><g id="Grupo_56866"><path id="Trazado_103045" d="M153.755,163.414c1.075,-0.034 2.118,0.379 2.879,1.139c0.077,0.416 0.143,0.831 0.192,1.249c0.623,5.338 -0.9,10.908 -0.207,15.916c0.19,1.374 -2.113,1.831 -3.478,1.6c-0.95,-0.066 -1.844,-0.472 -2.52,-1.142c-0.313,-0.317 -0.468,-0.757 -0.425,-1.2l0.517,-1.473c0.3,-1.876 -0.239,-8.591 -0.959,-15.679c1.319,-0.254 2.658,-0.392 4.001,-0.41Z" style="fill:#002d56;fill-rule:nonzero;"/></g><g id="Grupo_56882"><g id="Grupo_56869"><g id="Grupo_56867"><path id="Trazado_103046" d="M188.061,196.242l-1.227,0.708l-0.169,-1.511c0.339,-6.538 0.83,-21.65 -0.645,-23.128c-1.058,-0.748 -2.579,-1.443 -4.952,-3c-2.248,-1.478 -5.649,-3.719 -6.339,-3.815c-3.015,0.826 -4.081,13.591 -4.93,20.207l-1.2,0.652l-0.331,-1.538c0.68,-5.987 2.411,-20.892 6.463,-20.892c0.921,0 2.9,1.237 7.2,4.072c2.1,1.387 4.364,2.653 5.056,3.114c2.8,1.865 1.417,18.132 1.073,25.136l0.001,-0.005Z" style="fill:#838383;fill-rule:nonzero;"/></g><g id="Grupo_56868"><path id="Trazado_103047" d="M186.834,196.95l-1.369,-0.859c0.339,-6.536 0.831,-21.649 -0.645,-23.128c-1.06,-0.745 -2.582,-1.443 -4.952,-3c-2.251,-1.481 -5.649,-3.72 -6.339,-3.813c-3.015,0.827 -4.083,13.589 -4.932,20.2l-1.531,-0.881c0.678,-5.991 2.411,-20.9 6.463,-20.9c0.918,0 2.9,1.242 7.206,4.076c2.1,1.385 4.359,2.653 5.052,3.115c2.8,1.862 1.395,18.181 1.048,25.187l-0.001,0.003Z" style="fill:#696c6d;fill-rule:nonzero;"/></g></g><g id="Grupo_56872"><g id="Grupo_56871"><g id="Grupo_56870"><path id="Trazado_103048" d="M157.443,170.924c0,0 -4.027,2.451 -0.794,4.945c3.169,2.444 11.63,8.628 16.824,7.094c5.194,-1.534 13.457,-7.38 14.125,-8.156c0.668,-0.776 0.6,-1.978 -2.1,-3.968c-1.941,-1.43 -11.383,-6.631 -11.926,-6.823c-0.543,-0.192 -2.294,-1.221 -5.857,0.652c-3.363,1.764 -10.269,6.255 -10.269,6.255l-0.003,0.001Z" style="fill:#0f120d;fill-rule:nonzero;"/></g></g></g><g id="Grupo_56874"><g id="Grupo_56873"><path id="Trazado_103049" d="M155.063,158.121c0.836,-0.874 2.095,-1.21 3.255,-0.868c8.154,2.9 17.123,5.845 17.123,5.845c2.885,1.265 -1.33,10.051 -2.61,10.293c-6.963,1.32 -15.31,-10.26 -16.875,-10.616c-0.612,-0.136 -0.87,0.053 -1.472,-0.159c-0.597,-3.01 -0.021,-3.639 0.579,-4.495Z" style="fill:#00243a;fill-rule:nonzero;"/></g></g><g id="Grupo_56875"><path id="Trazado_103050" d="M150.508,160.715c0.834,-0.876 2.094,-1.211 3.253,-0.866c8.155,2.9 17.122,5.842 17.122,5.842c2.884,1.267 -1.329,10.05 -2.611,10.294c-6.961,1.321 -15.31,-10.261 -16.873,-10.614c-0.614,-0.139 -0.87,0.051 -1.472,-0.162c-0.596,-3.006 -0.021,-3.639 0.581,-4.494Z" style="fill:#002d56;fill-rule:nonzero;"/></g><g id="Grupo_56879"><g id="Grupo_56876"><path id="Trazado_103051" d="M170.648,206.277l-1.178,0.68l-0.2,-1.46c0.339,-6.534 0.83,-21.65 -0.645,-23.129c-1.058,-0.747 -2.582,-1.442 -4.951,-3c-2.249,-1.484 -5.649,-3.718 -6.339,-3.815c-3.016,0.827 -4.081,13.592 -4.931,20.206l-1.2,0.652l-0.329,-1.537c0.677,-5.99 2.407,-20.9 6.461,-20.9c0.918,0 2.9,1.244 7.2,4.077c2.1,1.383 4.359,2.652 5.054,3.114c2.8,1.862 1.394,18.107 1.05,25.109l0.008,0.003Z" style="fill:#838383;fill-rule:nonzero;"/></g><g id="Grupo_56877"><path id="Rectángulo_7750" d="M156.502,174.196l-1.414,0.818l0.219,0.379l1.415,-0.818l-0.22,-0.379Z" style="fill:#838383;"/></g><g id="Grupo_56878"><path id="Trazado_103052" d="M169.47,206.961l-1.4,-0.805c0.339,-6.537 0.831,-21.652 -0.645,-23.127c-1.058,-0.744 -2.579,-1.442 -4.952,-3c-2.252,-1.481 -5.65,-3.717 -6.339,-3.817c-3.015,0.827 -4.082,13.591 -4.931,20.206l-1.531,-0.883c0.679,-5.988 2.407,-20.894 6.462,-20.894c0.921,0 2.9,1.239 7.206,4.073c2.1,1.384 4.358,2.652 5.053,3.111c2.8,1.865 1.419,18.131 1.074,25.139l0.003,-0.003Z" style="fill:#a4a5a4;fill-rule:nonzero;"/></g></g><g id="Grupo_56880"><path id="Rectángulo_7751" d="M184.711,178.695l-1.285,0.743l0.272,0.47l1.285,-0.743l-0.272,-0.47Z" style="fill:#838383;"/></g><g id="Grupo_56881"><path id="Trazado_103053" d="M179.427,181.879l-1.285,0.743l-0.27,-0.471l1.283,-0.741l0.272,0.469Z" style="fill:#838383;fill-rule:nonzero;"/></g></g></g><g id="Grupo_56886"><g id="Grupo_56884"><path id="Trazado_103054" d="M181.432,73.076l-2.235,1.268l15.833,39.287l2.3,-1.327l0.032,-30.141l-15.93,-9.087Z" style="fill:#737373;fill-rule:nonzero;"/></g><g id="Grupo_56885"><path id="Trazado_103055" d="M179.134,74.403l-0.032,30.142l15.928,9.086l0.032,-30.141l-15.928,-9.087Z" style="fill:#828282;fill-rule:nonzero;"/></g></g><g id="Grupo_56918"><g id="Grupo_56887"><path id="Trazado_103056" d="M200.807,87.331l0,-4.847l-48.581,5.536l0,4.847l19.669,11.356l28.912,-16.892Z" style="fill:#737373;fill-rule:nonzero;"/></g><g id="Grupo_56888"><path id="Trazado_103057" d="M200.807,82.488l-19.67,-11.356l-28.912,16.892l19.669,11.356l28.913,-16.892Z" style="fill:#828282;fill-rule:nonzero;"/></g><g id="Grupo_56889"><path id="Trazado_103058" d="M154.442,87.894l25.988,-15.185l17.152,9.9l-25.99,15.188l-17.15,-9.903Z" style="fill:#0f120d;fill-rule:nonzero;"/></g><g id="Grupo_56917"><g id="Grupo_56890"><path id="Trazado_103059" d="M156.55,87.1c-0.29,0.5 -0.3,1.034 -0.021,1.215l1.087,-1.83c-0.292,-0.174 -0.773,0.106 -1.066,0.615Z" style="fill:#737373;fill-rule:nonzero;"/></g><g id="Grupo_56891"></g><g id="Grupo_56892"><path id="Trazado_103061" d="M156.527,88.316l0.013,0.007l0.007,-0l15.718,9.074l2.121,-1.239l-16.769,-9.68l-1.09,1.838Z" style="fill:#737373;fill-rule:nonzero;"/></g><g id="Grupo_56893"><path id="Trazado_103062" d="M159.226,85.519c-0.291,0.5 -0.3,1.034 -0.022,1.215l1.088,-1.83c-0.292,-0.171 -0.766,0.106 -1.066,0.615Z" style="fill:#737373;fill-rule:nonzero;"/></g><g id="Grupo_56894"></g><g id="Grupo_56895"><path id="Trazado_103064" d="M159.205,86.734l0.013,0.007l0.008,-0l15.732,9.082l2.121,-1.239l-16.783,-9.689l-1.091,1.839Z" style="fill:#737373;fill-rule:nonzero;"/></g><g id="Grupo_56896"><path id="Trazado_103065" d="M162.004,83.939c-0.29,0.5 -0.3,1.034 -0.021,1.215l1.087,-1.83c-0.292,-0.171 -0.769,0.106 -1.066,0.615Z" style="fill:#737373;fill-rule:nonzero;"/></g><g id="Grupo_56897"></g><g id="Grupo_56898"><path id="Trazado_103067" d="M161.982,85.153l0.013,0.007l0.008,-0l15.7,9.061l2.121,-1.239l-16.747,-9.668l-1.095,1.839Z" style="fill:#737373;fill-rule:nonzero;"/></g><g id="Grupo_56899"><path id="Trazado_103068" d="M164.682,82.358c-0.291,0.5 -0.3,1.034 -0.022,1.215l1.087,-1.83c-0.292,-0.171 -0.769,0.106 -1.065,0.615Z" style="fill:#737373;fill-rule:nonzero;"/></g><g id="Grupo_56900"></g><g id="Grupo_56901"><path id="Trazado_103070" d="M164.66,83.572l0.013,0.008l0.008,0l15.71,9.069l2.121,-1.239l-16.761,-9.676l-1.091,1.838Z" style="fill:#737373;fill-rule:nonzero;"/></g><g id="Grupo_56902"></g><g id="Grupo_56903"><path id="Trazado_103072" d="M167.458,80.777c-0.29,0.5 -0.3,1.034 -0.021,1.215l1.087,-1.83c-0.292,-0.171 -0.769,0.104 -1.066,0.615Z" style="fill:#737373;fill-rule:nonzero;"/></g><g id="Grupo_56904"><path id="Trazado_103073" d="M167.436,81.992l0.013,0.008l0.007,0l15.674,9.048l2.121,-1.239l-16.731,-9.647l-1.084,1.83Z" style="fill:#737373;fill-rule:nonzero;"/></g><g id="Grupo_56905"><path id="Trazado_103074" d="M170.135,79.206c-0.29,0.5 -0.3,1.034 -0.021,1.215l1.087,-1.83c-0.292,-0.171 -0.769,0.104 -1.066,0.615Z" style="fill:#737373;fill-rule:nonzero;"/></g><g id="Grupo_56906"></g><g id="Grupo_56907"><path id="Trazado_103076" d="M170.114,80.42l0.013,0.007l0.007,-0l15.681,9.052l2.121,-1.239l-16.732,-9.65l-1.09,1.83Z" style="fill:#737373;fill-rule:nonzero;"/></g><g id="Grupo_56908"><path id="Trazado_103077" d="M172.913,77.624c-0.29,0.5 -0.3,1.034 -0.021,1.215l1.086,-1.833c-0.291,-0.167 -0.768,0.11 -1.065,0.618Z" style="fill:#737373;fill-rule:nonzero;"/></g><g id="Grupo_56909"></g><g id="Grupo_56910"><path id="Trazado_103079" d="M172.89,78.84l0.013,0.008l0.007,-0l15.645,9.031l2.121,-1.239l-16.698,-9.628l-1.088,1.828Z" style="fill:#737373;fill-rule:nonzero;"/></g><g id="Grupo_56911"></g><g id="Grupo_56912"><path id="Trazado_103081" d="M175.589,76.045c-0.29,0.5 -0.3,1.034 -0.021,1.215l1.087,-1.83c-0.294,-0.171 -0.769,0.109 -1.066,0.615Z" style="fill:#737373;fill-rule:nonzero;"/></g><g id="Grupo_56913"><path id="Trazado_103082" d="M175.568,77.259l0.013,0.008l0.008,0l15.659,9.039l2.121,-1.239l-16.71,-9.646l-1.091,1.838Z" style="fill:#737373;fill-rule:nonzero;"/></g><g id="Grupo_56914"><path id="Trazado_103083" d="M178.367,74.464c-0.29,0.5 -0.3,1.034 -0.021,1.215l1.087,-1.83c-0.292,-0.171 -0.769,0.104 -1.066,0.615Z" style="fill:#737373;fill-rule:nonzero;"/></g><g id="Grupo_56915"></g><g id="Grupo_56916"><path id="Trazado_103085" d="M178.344,75.676l0.013,0.007l0.008,-0l15.622,9.019l2.121,-1.239l-16.673,-9.625l-1.091,1.838Z" style="fill:#737373;fill-rule:nonzero;"/></g></g></g><g id="Grupo_56921"><g id="Grupo_56919"><path id="Trazado_103086" d="M171.959,104.258l0,-4.847l-61.128,12.782l0,4.847l19.669,11.356l41.459,-24.138Z" style="fill-rule:nonzero;"/></g><g id="Grupo_56920"><path id="Trazado_103087" d="M171.959,99.411l-19.669,-11.356l-41.458,24.138l19.669,11.356l41.458,-24.138Z" style="fill:#0f120d;fill-rule:nonzero;"/></g></g><g id="Grupo_56924"><g id="Grupo_56922"><path id="Trazado_103088" d="M22.649,164.475l-2.235,1.268l15.833,39.287l2.3,-1.327l0.032,-30.141l-15.93,-9.087Z" style="fill:#737373;fill-rule:nonzero;"/></g><g id="Grupo_56923"><path id="Trazado_103089" d="M20.35,165.802l-0.032,30.142l15.928,9.086l0.032,-30.141l-15.928,-9.087Z" style="fill:#828282;fill-rule:nonzero;"/></g></g><g id="Grupo_56937"><g id="Grupo_56925"><path id="Trazado_103090" d="M121.526,73.249l32.836,18.958l-54.15,31.248l-32.837,-18.959l54.151,-31.247Z" style="fill:#89c540;fill-rule:nonzero;"/></g><g id="Grupo_56926"><path id="Trazado_103091" d="M121.526,73.249l32.836,18.958l-54.15,31.248l-32.837,-18.959l54.151,-31.247Z" style="fill:#d8d8d7;fill-rule:nonzero;"/></g><g id="Grupo_56927"><path id="Trazado_103092" d="M100.212,123.454l-0,59.471l-32.837,-18.96l0,-59.47l32.837,18.959Z" style="fill:#b2b2b2;fill-rule:nonzero;"/></g><g id="Grupo_56928"><path id="Trazado_103093" d="M94.437,123.47l0,24.348l-22.892,-13.217l0,-24.348l22.892,13.217Z" style="fill:#575757;fill-rule:nonzero;"/></g><g id="Grupo_56929"><path id="Trazado_103094" d="M94.4,148.922l0.036,-4.692l-48.617,5.382l0,4.847l19.669,11.356l28.912,-16.893Z" style="fill-rule:nonzero;"/></g><g id="Grupo_56930"><path id="Trazado_103095" d="M74.698,132.829l19.738,11.4l0,-20.759l-19.738,-11.4l0,20.759Z" style="fill:#575757;fill-rule:nonzero;"/></g><g id="Grupo_56931"><path id="Trazado_103096" d="M74.698,132.829l19.738,11.4l0,-20.759l-19.738,-11.4l0,20.759Z" style="fill:#575757;fill-rule:nonzero;"/></g><g id="Grupo_56932"><path id="Trazado_103097" d="M100.211,123.455l0,59.468l54.152,-31.248l0,-59.47l-54.152,31.25Z" style="fill:#c4c3c3;fill-rule:nonzero;"/></g><g id="Grupo_56934"><g id="Grupo_56933"><path id="Trazado_103098" d="M145.354,188.158l0,-31.825l-1.739,-0l0,31.819c0,0.274 0.388,0.5 0.868,0.5c0.48,0 0.871,-0.22 0.871,-0.494Z" style="fill:#a4a5a4;fill-rule:nonzero;"/></g></g><g id="Grupo_56936"><g id="Grupo_56935"><path id="Trazado_103099" d="M120.814,174.041l0,-25.274l-1.739,0l0,25.267c0,0.274 0.388,0.5 0.868,0.5c0.48,0 0.871,-0.219 0.871,-0.493Z" style="fill:#a4a5a4;fill-rule:nonzero;"/></g></g></g><g id="Grupo_56938"><path id="Trazado_103100" d="M94.4,144.075l-19.7,-11.242l-28.879,16.778l19.669,11.356l28.91,-16.892Z" style="fill:#0f120d;fill-rule:nonzero;"/></g><g id="Grupo_56939"><path id="Trazado_103101" d="M94.435,123.47l-1.818,-1.05l-17.92,10.412l19.591,11.31l0.115,-0.067l0.036,-0.323l-0.004,-20.282Z" style="fill:#0f120d;fill-rule:nonzero;"/></g><g id="Grupo_56971"><g id="Grupo_56940"><path id="Trazado_103102" d="M66.698,165.074l0,-4.847l-48.581,5.536l-0,4.847l19.673,11.357l28.908,-16.893Z" style="fill:#737373;fill-rule:nonzero;"/></g><g id="Grupo_56941"><path id="Trazado_103103" d="M66.698,160.23l-19.669,-11.356l-28.912,16.892l19.673,11.354l28.908,-16.89Z" style="fill:#828282;fill-rule:nonzero;"/></g><g id="Grupo_56942"><path id="Trazado_103104" d="M20.334,165.637l25.991,-15.185l17.152,9.9l-25.992,15.188l-17.151,-9.903Z" style="fill:#0f120d;fill-rule:nonzero;"/></g><g id="Grupo_56970"><g id="Grupo_56943"><path id="Trazado_103105" d="M22.443,164.843c-0.291,0.5 -0.3,1.034 -0.022,1.215l1.088,-1.83c-0.293,-0.175 -0.77,0.106 -1.066,0.615Z" style="fill:#737373;fill-rule:nonzero;"/></g><g id="Grupo_56944"></g><g id="Grupo_56945"><path id="Trazado_103107" d="M22.421,166.058l0.013,0.008l0.008,-0l15.718,9.074l2.121,-1.239l-16.769,-9.681l-1.091,1.838Z" style="fill:#737373;fill-rule:nonzero;"/></g><g id="Grupo_56946"><path id="Trazado_103108" d="M25.12,163.261c-0.291,0.5 -0.3,1.034 -0.021,1.215l1.087,-1.829c-0.292,-0.17 -0.77,0.105 -1.066,0.614Z" style="fill:#737373;fill-rule:nonzero;"/></g><g id="Grupo_56947"></g><g id="Grupo_56948"><path id="Trazado_103110" d="M25.098,164.477l0.013,0.007l0.008,0l15.732,9.082l2.121,-1.239l-16.783,-9.689l-1.091,1.839Z" style="fill:#737373;fill-rule:nonzero;"/></g><g id="Grupo_56949"><path id="Trazado_103111" d="M27.897,161.68c-0.291,0.5 -0.3,1.034 -0.022,1.215l1.088,-1.829c-0.293,-0.17 -0.77,0.105 -1.066,0.614Z" style="fill:#737373;fill-rule:nonzero;"/></g><g id="Grupo_56950"></g><g id="Grupo_56951"><path id="Trazado_103113" d="M27.875,162.896l0.013,0.007l0.008,0l15.7,9.061l2.121,-1.239l-16.747,-9.668l-1.095,1.839Z" style="fill:#737373;fill-rule:nonzero;"/></g><g id="Grupo_56952"><path id="Trazado_103114" d="M30.574,160.101c-0.291,0.5 -0.3,1.034 -0.021,1.215l1.087,-1.83c-0.292,-0.171 -0.77,0.106 -1.066,0.615Z" style="fill:#737373;fill-rule:nonzero;"/></g><g id="Grupo_56953"></g><g id="Grupo_56954"><path id="Trazado_103116" d="M30.552,161.315l0.013,0.007l0.007,0l15.71,9.069l2.121,-1.239l-16.761,-9.676l-1.09,1.839Z" style="fill:#737373;fill-rule:nonzero;"/></g><g id="Grupo_56955"></g><g id="Grupo_56956"><path id="Trazado_103118" d="M33.351,158.52c-0.291,0.5 -0.3,1.034 -0.022,1.215l1.088,-1.83c-0.293,-0.171 -0.77,0.106 -1.066,0.615Z" style="fill:#737373;fill-rule:nonzero;"/></g><g id="Grupo_56957"><path id="Trazado_103119" d="M33.33,159.735l0.013,0.007l0.007,-0l15.674,9.048l2.121,-1.239l-16.725,-9.655l-1.09,1.839Z" style="fill:#737373;fill-rule:nonzero;"/></g><g id="Grupo_56958"><path id="Trazado_103120" d="M36.028,156.949c-0.291,0.5 -0.3,1.034 -0.021,1.215l1.087,-1.83c-0.292,-0.171 -0.77,0.106 -1.066,0.615Z" style="fill:#737373;fill-rule:nonzero;"/></g><g id="Grupo_56959"></g><g id="Grupo_56960"><path id="Trazado_103122" d="M36.007,158.163l0.013,0.008l0.008,-0l15.681,9.052l2.121,-1.239l-16.732,-9.659l-1.091,1.838Z" style="fill:#737373;fill-rule:nonzero;"/></g><g id="Grupo_56961"><path id="Trazado_103123" d="M38.805,155.368c-0.29,0.5 -0.294,1.034 -0.021,1.215l1.087,-1.83c-0.292,-0.171 -0.769,0.106 -1.066,0.615Z" style="fill:#737373;fill-rule:nonzero;"/></g><g id="Grupo_56962"></g><g id="Grupo_56963"><path id="Trazado_103125" d="M38.781,156.583l0.013,0.007l0.008,-0l15.644,9.031l2.121,-1.239l-16.7,-9.638l-1.086,1.839Z" style="fill:#737373;fill-rule:nonzero;"/></g><g id="Grupo_56964"></g><g id="Grupo_56965"><path id="Trazado_103127" d="M41.483,153.788c-0.291,0.5 -0.3,1.034 -0.021,1.215l1.087,-1.83c-0.292,-0.171 -0.77,0.108 -1.066,0.615Z" style="fill:#737373;fill-rule:nonzero;"/></g><g id="Grupo_56966"><path id="Trazado_103128" d="M41.465,155.002l0.013,0.007l0.007,-0l15.659,9.039l2.121,-1.239l-16.71,-9.646l-1.09,1.839Z" style="fill:#737373;fill-rule:nonzero;"/></g><g id="Grupo_56967"><path id="Trazado_103129" d="M44.26,152.207c-0.291,0.5 -0.3,1.034 -0.022,1.215l1.087,-1.83c-0.292,-0.171 -0.769,0.106 -1.065,0.615Z" style="fill:#737373;fill-rule:nonzero;"/></g><g id="Grupo_56968"></g><g id="Grupo_56969"><path id="Trazado_103131" d="M44.238,153.419l0.013,0.007l0.008,-0l15.622,9.018l2.121,-1.239l-16.673,-9.625l-1.091,1.839Z" style="fill:#737373;fill-rule:nonzero;"/></g></g></g><g id="Grupo_56976"><g id="Grupo_56973"><g id="Grupo_56972"><path id="Trazado_103132" d="M183.806,143.71l-38.889,22.4l-30.217,-17.35l-0,-2.013l69.105,-5.05l0.001,2.013Z" style="fill:#737373;fill-rule:nonzero;"/></g></g><g id="Grupo_56975"><g id="Grupo_56974"><path id="Trazado_103133" d="M183.806,141.697l-38.889,22.4l-30.217,-17.35l38.889,-22.4l30.217,17.35Z" style="fill:#828282;fill-rule:nonzero;"/></g></g></g><g id="Grupo_56979"><g id="Grupo_56977"><path id="Trazado_103134" d="M160.56,140.547l-16.877,8.685l0,0.685l6.794,3.919l16.876,-9.741l-0,-0.685l-6.793,-2.863Z" style="fill:#1f3749;fill-rule:nonzero;"/></g><g id="Grupo_56978"><path id="Trazado_103135" d="M160.56,139.483l-16.877,9.743l0.917,0.528l5.877,3.393l16.876,-9.743l-6.793,-3.921Z" style="fill:#274361;fill-rule:nonzero;"/></g></g><g id="Grupo_57017"><g id="Grupo_56998"><g id="Grupo_56997"><g id="Grupo_56996"><g id="Grupo_56991"><g id="Grupo_56982"><g id="Grupo_56980"><path id="Trazado_103136" d="M166.706,143.5c-1.85,2.319 -2.236,18.49 1.045,9.775c1.418,-3.77 -2.006,8.95 -2.362,13.7c-0.246,3.262 -0.974,8.606 -0.974,8.606c3.8,1.379 7.5,-0.3 8.729,-0.446c3.964,-0.458 8.748,-4.5 7.984,-6.186c-5.8,-12.825 2.56,-23.659 -1.239,-29.655c-0.692,-0.828 -1.759,-1.251 -2.83,-1.123c-3.373,0.355 -8.413,2.898 -10.353,5.329Z" style="fill:#002d56;fill-rule:nonzero;"/></g><g id="Grupo_56981"><path id="Trazado_103137" d="M164.554,161.543c-0.246,3.262 8.913,8.606 8.913,8.606c3.8,1.38 -2.388,-0.3 -1.158,-0.445l-7.755,-8.161Z" style="fill:#002d56;fill-rule:nonzero;"/></g></g><g id="Grupo_56984"><g id="Grupo_56983"><path id="Trazado_103138" d="M169.58,151.103c-1.557,4.4 -3.7,11.724 -5.256,11.171c-0.579,-0.2 -2.433,-1.683 -1.886,-3.076c1.277,-3.262 1.046,-5.632 1.461,-8.514c0.831,-5.747 2.588,-7.715 4.139,-7.168c1.551,0.547 3.108,2.76 1.542,7.587Z" style="fill:#003760;fill-rule:nonzero;"/></g></g><g id="Grupo_56986"><g id="Grupo_56985"><path id="Trazado_103139" d="M168.925,126.563c-0.166,0.959 -0.434,1.898 -0.8,2.8c-0.129,0.59 0.289,2.82 0.092,3.614c-0.142,0.986 -0.027,1.992 0.336,2.92c0.118,0.774 0.466,1.495 1,2.068c0.767,0.651 3.647,-0.345 5.342,-0.934c1.677,-0.587 1.313,-2.762 1.834,-4.154c0.944,-2.511 0.242,-6.025 -2.525,-7.119c-1.449,-0.567 -3.043,-0.653 -4.545,-0.247c-0.441,0.17 0.613,0.583 1.025,1.057l-1.759,-0.005Z" style="fill:#ffd8a5;fill-rule:nonzero;"/></g></g><g id="Grupo_56988"><g id="Grupo_56987"><path id="Trazado_103140" d="M171.409,136.452c0.381,1.055 0.381,2.21 0,3.265c-0.085,0.854 0.519,1.637 1.367,1.771c1.86,0.427 4.227,-0.132 3.919,-1.809c-0.163,-0.9 -0.885,-1.909 0.393,-5.162c0.397,-1.019 -5.679,1.935 -5.679,1.935Z" style="fill:#ffd8a5;fill-rule:nonzero;"/></g></g><g id="Grupo_56990"><g id="Grupo_56989"><path id="Trazado_103141" d="M177.377,123.723c-3.576,-1.233 -5.939,-1.1 -7.619,0.859c-0.589,0.725 -0.938,1.616 -1,2.548c-0.293,0.51 1.132,0.437 1.475,2.5c1.763,10.628 6.731,6.807 6.891,6.424c1.275,-3.02 2.128,-2.33 2.717,-4.148c0.888,-2.738 1.038,-6.664 -2.464,-8.183Z" style="fill:#0e0b0b;fill-rule:nonzero;"/></g></g></g><g id="Grupo_56993"><g id="Grupo_56992"><path id="Trazado_103142" d="M170.025,124.215c-2.06,1.036 -2.971,3.527 -2.067,5.648c1.54,3.838 1.593,3.048 1.651,4.18c0.058,1.132 1.931,-2.5 1.931,-2.71l-1.515,-7.118Z" style="fill:#0e0b0b;fill-rule:nonzero;"/></g></g><g id="Grupo_56995"><g id="Grupo_56994"><path id="Trazado_103143" d="M170.518,132.881c-0.014,-0.44 0.108,-0.874 0.349,-1.243c0.365,-0.391 0.768,-0.192 0.926,0.29c0.076,0.375 0.096,0.76 0.06,1.141c0,0.3 -0.31,2.548 -1.336,1.273l0.001,-1.461Z" style="fill:#ffd8a5;fill-rule:nonzero;"/></g></g></g></g></g><g id="Grupo_57005"><g id="Grupo_56999"><path id="Trazado_103144" d="M184.189,176.862c0.53,-0.883 0.545,-5.914 0.516,-8.463l1.549,-1.016c0,-0 0.249,9.619 -0.538,10.929c-0.4,0.67 -1.11,1.663 -3.281,0.947l0.475,-1.367c0.84,-0.108 1.027,-0.61 1.279,-1.03Z" style="fill:#838383;fill-rule:nonzero;"/></g><g id="Grupo_57000"><path id="Trazado_103145" d="M182.279,178.567c0.407,-0.181 0.5,-0.546 0.629,-0.947c0.393,-2.803 0.566,-5.633 0.517,-8.463l1.55,-1.019c0,-0 0.246,9.62 -0.538,10.929c-0.4,0.66 -1.473,1.913 -4.584,0.946c0.832,-0.474 1.652,-0.958 2.426,-1.446Z" style="fill:#a4a5a4;fill-rule:nonzero;"/></g><g id="Grupo_57001"><path id="Trazado_103146" d="M178.636,179.58c0.531,-0.886 0.546,-5.918 0.517,-8.465l1.549,-1.018c0,0 0.247,9.62 -0.539,10.929c-0.4,0.672 -1.107,1.664 -3.281,0.95l0.474,-1.37c0.846,-0.11 1.028,-0.613 1.28,-1.026Z" style="fill:#838383;fill-rule:nonzero;"/></g><g id="Grupo_57002"><path id="Trazado_103147" d="M176.728,181.28l0,-0.007c0.407,-0.182 0.5,-0.541 0.629,-0.945c0.393,-2.804 0.566,-5.634 0.515,-8.465l1.551,-1.018c0,0 0.247,9.62 -0.539,10.927c-0.394,0.658 -1.472,1.913 -4.58,0.947c0.829,-0.471 1.651,-0.96 2.424,-1.439Z" style="fill:#a4a5a4;fill-rule:nonzero;"/></g><g id="Grupo_57004"><g id="Grupo_57003"><path id="Trazado_103148" d="M186.532,152.77c-0,-0 4.89,-2.688 4.189,1.6c-0.81,4.935 -0.26,9.694 -3.777,13.034c-3.517,3.34 -11.744,7.129 -12.646,7.306c-0.902,0.177 -2.631,0.782 -2.135,-3.407c0.256,-2.143 1.7,-8.61 1.793,-9.119c0.093,-0.509 0.081,-2.326 3.13,-4.252c2.871,-1.815 9.446,-5.159 9.446,-5.159l-0,-0.003Z" style="fill:#0f120d;fill-rule:nonzero;"/></g></g></g><g id="Grupo_57014"><g id="Grupo_57007"><g id="Grupo_57006"><path id="Trazado_103149" d="M149.935,153.355c-0.805,-0.72 -2,-0.686 -2.281,-1.855c0.5,-0.309 0.553,0.072 1,0.253c0.595,0.144 1.13,0.472 1.529,0.937l-0.248,0.665Z" style="fill:#ffd8a5;fill-rule:nonzero;"/></g></g><g id="Grupo_57009"><g id="Grupo_57008"><path id="Trazado_103150" d="M154.899,154.022c-0.474,-0.03 -1.246,-1.44 -1.6,-1.833c-0.354,-0.393 -0.719,-1.038 -1.226,-1.114c-1.043,0.04 -1.967,0.702 -2.341,1.677c-0.238,1.14 1.617,1.691 2.318,2.225c0.327,0.249 0.748,0.953 1.077,1.1c0.555,0.246 1.081,-0.525 1.417,-0.9c0.244,-0.274 0.622,-0.579 0.469,-1l-0.114,-0.155Z" style="fill:#ffd8a5;fill-rule:nonzero;"/></g></g><g id="Grupo_57011"><g id="Grupo_57010"><path id="Trazado_103151" d="M151.854,151.199c-0.191,-0.085 -0.367,-0.374 -0.484,-0.54c-0.117,-0.207 -0.248,-0.405 -0.393,-0.594c-0.189,-0.271 -0.471,-0.463 -0.793,-0.538c-0.304,-0.108 -0.615,-0.194 -0.931,-0.258c-0.261,-0.007 -0.538,0.075 -0.786,0.047c-0.214,-0.026 -0.408,-0.036 -0.617,-0.081c-0.125,-0.015 -0.251,-0.01 -0.374,0.015c-0.049,0.131 -0.037,0.278 0.032,0.4c-0.1,0.108 -0.077,-0 -0.211,0.017c-0.1,0.011 -0.276,-0.01 -0.289,0.12c-0.019,0.218 0.12,0.421 0.331,0.481c-0.068,0.008 -0.133,-0.021 -0.2,-0.009c-0.095,0.264 0.032,0.56 0.289,0.673c0.162,0.085 0.775,0.245 0.949,0.327c0.325,0.198 0.612,0.454 0.846,0.754c0.239,0.194 0.512,0.343 0.805,0.44c0.151,0.068 0.634,0.2 0.694,0.352l1.132,-1.606Z" style="fill:#ffd8a5;fill-rule:nonzero;"/></g></g><g id="Grupo_57013"><g id="Grupo_57012"><path id="Trazado_103152" d="M153.916,153.374c-0.357,-0.538 -0.305,-1.28 -0.758,-1.9c-0.553,-0.698 -1.042,-1.444 -1.463,-2.228c-0.287,-0.036 -0.437,0.312 -0.4,0.613c0.163,0.551 0.364,1.091 0.6,1.615l2.021,1.9Z" style="fill:#ffd8a5;fill-rule:nonzero;"/></g></g></g><g id="Grupo_57016"><g id="Grupo_57015"><path id="Trazado_103153" d="M164.328,162.275c-4.7,-0.955 -10.071,-5.59 -11.472,-6.622c-0.538,-0.4 1.416,-2.919 1.972,-1.978c0.914,1.538 6.723,2.441 8.972,4.2c0.628,0.488 1.963,0.747 1.216,2.368l-0.688,2.032Z" style="fill:#003760;fill-rule:nonzero;"/></g></g></g><g id="Grupo_57032"><g id="Grupo_57024"><g id="Grupo_57018"><path id="Trazado_103154" d="M150.258,137.259c0.006,-1.551 -2.187,-2.819 -4.9,-2.827c-2.713,-0.008 -4.911,1.239 -4.916,2.792c-0.005,1.553 2.186,2.817 4.9,2.828c2.714,0.011 4.916,-1.243 4.916,-2.793Z" style="fill:#1f3749;fill-rule:nonzero;"/></g><g id="Grupo_57021"><g id="Grupo_57019"><rect id="Rectángulo_7752" x="140.447" y="136.714" width="9.814" height="0.51" style="fill:#1f3749;"/></g><g id="Grupo_57020"><path id="Trazado_103155" d="M150.258,136.731c0.006,-1.552 -2.187,-2.818 -4.9,-2.828c-2.713,-0.01 -4.911,1.243 -4.916,2.793c-0.005,1.55 2.186,2.818 4.9,2.829c2.714,0.011 4.916,-1.244 4.916,-2.794Z" style="fill:#274361;fill-rule:nonzero;"/></g></g><g id="Grupo_57022"><path id="Trazado_103156" d="M144.486,136.715l0,-5.564l1.548,-0l0,4.626l-0.732,1.4l-0.816,-0.462Z" style="fill:#152b3f;fill-rule:nonzero;"/></g><g id="Grupo_57023"><path id="Trazado_103157" d="M145.3,137.179l0,-5.52l1.548,0l0,4.625l-1.548,0.895Z" style="fill:#1f3749;fill-rule:nonzero;"/></g></g><g id="Grupo_57031"><g id="Grupo_57030"><g id="Grupo_57025"><path id="Trazado_103158" d="M136.694,125.686l16.929,-9.775l0.841,0.486l-0,14.22l-16.929,9.775l-0.841,-0.485l-0,-14.221Z" style="fill:#274361;fill-rule:nonzero;"/></g><g id="Grupo_57026"><path id="Trazado_103159" d="M137.535,126.171l16.929,-9.774l-0,14.22l-16.929,9.775l0,-14.221Z" style="fill:#1f3749;fill-rule:nonzero;"/></g><g id="Grupo_57027"><path id="Trazado_103160" d="M153.602,130.121l-0,-12.23l-15.2,8.779l-0,12.23l15.2,-8.779Z" style="fill:#bed5ef;fill-rule:nonzero;"/></g><g id="Grupo_57028"><path id="Trazado_103161" d="M145.172,133.282l0,-3.993l-4.964,2.866l0,3.992l4.964,-2.865Z" style="fill:#c08733;fill-rule:nonzero;"/></g><g id="Grupo_57029"><path id="Trazado_103162" d="M152.828,128.963l-0,-5.755l-7.152,4.129l-0,5.753l7.152,-4.127Z" style="fill:#53b6dd;fill-rule:nonzero;"/></g></g></g></g><g id="Grupo_57046"><g id="Grupo_57038"><g id="Grupo_57034"><g id="Grupo_57033"><path id="Trazado_103163" d="M38.223,160.102l2.415,-12.113l-2.415,-1.321l-14.834,8.564l-0,13.435l2.414,1.321l12.42,-9.886Z" style="fill:#44280f;fill-rule:nonzero;"/></g></g><g id="Grupo_57035"><path id="Trazado_103164" d="M24.504,169.276l1.3,0.711l12.42,-9.885l2.406,-12.067l-1.291,-0.706l-14.834,8.564l-0.001,13.383Z" style="fill:#2b1809;fill-rule:nonzero;"/></g><g id="Grupo_57037"><g id="Grupo_57036"><path id="Trazado_103165" d="M40.637,161.423l0,-13.434l-14.832,8.565l0,13.434l14.832,-8.565Z" style="fill:#6c3916;fill-rule:nonzero;"/></g></g></g><g id="Grupo_57040"><g id="Grupo_57039"><path id="Trazado_103166" d="M30.069,153.387c-0.482,-0 -1.223,-0.711 -1.223,-0.711c-0.4,-1.867 0.583,-3.774 2.337,-4.53c0.884,-0.583 1.98,-0.754 3,-0.468c0.982,0.371 1.534,1.862 1.652,2.254c0.137,0.454 -0.2,0.624 -0.762,0.851c-0,-0 -0.567,-1.662 -0.805,-1.662l-0.617,0.479c-0.042,-0.11 -0.169,0.14 -0.238,0.113c-0.107,-0.041 -0.5,-0.015 -1.227,0.362c-0.953,0.558 -1.432,1.683 -1.174,2.757c-0.239,0.291 -0.574,0.488 -0.944,0.555c-0.093,0.025 0.093,-0 0.001,-0Z" style="fill-rule:nonzero;"/></g></g><g id="Grupo_57041"><path id="Trazado_103167" d="M35.077,150.782l-1.75,-1.184l1.481,-0.14l0.269,1.324Z" style="fill-rule:nonzero;"/></g><g id="Grupo_57043"><g id="Grupo_57042"><path id="Trazado_103168" d="M33.171,147.736c0.214,-0.1 -0,0 0.644,-0.1c0.378,-0.062 0.992,0.4 0.992,0.4c-0.151,-0.516 -0.126,-1.33 -0.874,-1.823c-0.242,-0.159 -0.84,-0.379 -1.1,-0.507c-0.789,-0.429 -1.537,-0.929 -2.235,-1.494c-0.543,1.051 -0.954,2.359 -1.522,2.615c-0.158,0.072 -0.3,-0.488 -0.506,-0.536c0.337,0.973 -0.044,3.482 2,5.169c0.328,0.298 0.804,0.371 1.207,0.187c0.31,-0.2 0.528,-0.088 -0.094,-0.783c0.18,0.213 0.682,0.68 1.092,0.441c0.291,-0.17 0.065,-0.5 -0.019,-0.672c0.157,0.176 0.31,0.5 0.784,0.321c0.235,-0.089 0.508,-0.332 0.189,-0.582c0.186,0.149 0.42,0.226 0.658,0.216c0.66,-0.176 0.3,-1.162 -0.5,-1.857c0.005,0.005 -0.923,-0.895 -0.716,-0.995Z" style="fill:#ffd8a5;fill-rule:nonzero;"/></g></g><g id="Grupo_57045"><g id="Grupo_57044"><path id="Trazado_103169" d="M20.419,135.895c2.423,4.27 6.386,10.856 8.15,11.2c0.224,0.069 0.456,0.103 0.69,0.103c1.293,0 2.356,-1.063 2.356,-2.356c0,-0.213 -0.029,-0.426 -0.086,-0.632c-0.847,-2.315 -4.61,-7.531 -6.982,-12.033c-0.52,-0.984 -1,-3.139 -2.546,-2.22c-1.398,0.675 -2.29,2.097 -2.29,3.649c0,0.817 0.247,1.615 0.708,2.289Z" style="fill:#a0a5ab;fill-rule:nonzero;"/></g></g></g><g id="Grupo_57067"><g id="Grupo_57047"><path id="Trazado_103170" d="M67.89,149.545c0,-0 6.407,2.272 21.325,-6.941c0,0 0.567,0.045 0.347,-2.421c-0.22,-2.466 -0.121,-2.417 -1.9,-3.659c-1.779,-1.242 -10.4,-6.688 -11.131,-6.2c-0.526,0.35 -10.729,5.87 -12.156,8.353c-1.301,2.262 -4.125,8.62 3.515,10.868Z" style="fill:#79b84f;fill-rule:nonzero;"/></g><g id="Grupo_57048"><path id="Trazado_103171" d="M89.561,140.184c0.013,-0.803 -0.126,-1.601 -0.408,-2.352c-3.235,3.059 -15.09,8.735 -18.121,7.829c-6.511,-1.949 -7.707,-4.548 -7.707,-4.548l-0.056,0c-0.954,2.841 -1.044,6.764 4.621,8.431c0,0 6.407,2.272 21.325,-6.941c-0.001,0.002 0.566,0.047 0.346,-2.419Z" style="fill:#72a742;fill-rule:nonzero;"/></g><g id="Grupo_57049"><path id="Trazado_103172" d="M78.8,139.779c-0,-0 3.351,-1.5 4.08,-2.6c0.487,-0.687 0.331,-1.652 -0.348,-2.151c-0.279,-0.239 -7.1,-4.2 -7.613,-4.3c-0.9,-0.164 -4.149,2.062 -4.656,2.643c-0.212,0.442 -0.224,0.955 -0.035,1.407c0.172,0.395 7.936,5.628 8.572,5.001Z" style="fill:#72a742;fill-rule:nonzero;"/></g><g id="Grupo_57050"><path id="Trazado_103173" d="M78.792,139.782l0.006,0c-0,0 3.351,-1.5 4.079,-2.6c0.487,-0.687 0.331,-1.652 -0.348,-2.151c-0.026,-0.022 -0.12,-0.083 -0.243,-0.16l-3.494,-0l0,4.911Z" style="fill:#689b32;fill-rule:nonzero;"/></g><g id="Grupo_57051"><path id="Trazado_103174" d="M82.53,135.031c-0.279,-0.239 -7.1,-4.2 -7.613,-4.3c-0.9,-0.163 -4.115,2.039 -4.645,2.633c0.511,0.6 7.908,5.566 8.527,4.95c0,-0 3.351,-1.5 4.08,-2.6c0.032,-0.055 0.061,-0.112 0.087,-0.17c-0.117,-0.193 -0.264,-0.366 -0.436,-0.513Z" style="fill:#9aca47;fill-rule:nonzero;"/></g><g id="Grupo_57052"><path id="Trazado_103175" d="M79.451,137.356c-2.52,-1.866 -5.196,-3.51 -8,-4.914c-0.147,0.106 -0.288,0.21 -0.409,0.307c1.258,0.532 7.359,4.02 8.139,4.862c0.364,0.32 0.456,0.855 0.219,1.277l0.423,-0.244c0.112,-0.271 0.101,-0.578 -0.03,-0.841c-0.097,-0.161 -0.212,-0.311 -0.342,-0.447Z" style="fill:#353535;fill-rule:nonzero;"/></g><g id="Grupo_57058"><g id="Grupo_57053"><path id="Trazado_103176" d="M67.604,148.479l0.392,-0.9l-0.392,-0.232c-0.782,0.52 -1.753,0.673 -2.657,0.419c-1.283,-0.4 -1.545,-1.121 -1.51,-1.686l0,1.454c0,-0 1.064,2.728 4.167,0.945Z" style="fill:#575757;fill-rule:nonzero;"/></g><g id="Grupo_57054"><path id="Trazado_103177" d="M63.761,145.414c-0.437,0.131 -0.709,0.576 -0.626,1.025c0.052,0.477 0.156,0.946 0.31,1.4l0.341,-0.2c0,-0 -0.441,-0.827 0,-1.189l-0.025,-1.036Z" style="fill:#575757;fill-rule:nonzero;"/></g><g id="Grupo_57055"><path id="Trazado_103178" d="M64.028,145.625l-0.266,-0.211c-0.364,0.297 -0.507,0.79 -0.36,1.236c0.251,0.421 0.359,0.912 0.309,1.4l0.342,-0.2c-0,-0 -0.441,-0.826 -0,-1.188l-0.025,-1.037Z" style="fill:#575757;fill-rule:nonzero;"/></g><g id="Grupo_57056"><path id="Trazado_103179" d="M67.995,148.712l0,-1.129c-0.774,0.548 -1.744,0.743 -2.67,0.539c-1.425,-0.361 -2.078,-0.911 -2.2,-1.859l0.208,1.4c0.066,0.25 0.197,0.478 0.381,0.66c1.126,1.172 2.962,1.338 4.281,0.389Z" style="fill:#828282;fill-rule:nonzero;"/></g><g id="Grupo_57057"><path id="Trazado_103180" d="M63.336,147.663c-0.171,-0.446 -0.242,-0.924 -0.208,-1.4c0.085,-0.666 -0.187,0.585 0.416,1.113l-0.208,0.287Z" style="fill:#828282;fill-rule:nonzero;"/></g></g><g id="Grupo_57059"><path id="Trazado_103181" d="M72.681,144.434c0,0 3.352,-1.5 4.079,-2.6c0.487,-0.687 0.331,-1.652 -0.348,-2.151c-0.669,-0.423 -1.396,-0.747 -2.158,-0.962c-0.9,-0.164 -4.148,2.062 -4.654,2.643c-0.212,0.442 -0.224,0.955 -0.035,1.407c0.179,0.393 2.483,2.294 3.116,1.663Z" style="fill:#72a742;fill-rule:nonzero;"/></g><g id="Grupo_57060"><path id="Trazado_103182" d="M72.237,139.495l0,5.046c0.156,0.032 0.319,-0.006 0.444,-0.105c0.125,-0.099 3.352,-1.5 4.079,-2.6c0.487,-0.687 0.331,-1.652 -0.348,-2.151c-0.343,-0.229 -0.708,-0.423 -1.09,-0.578l-2.361,-0c-0.234,0.113 -0.476,0.244 -0.724,0.388Z" style="fill:#689b32;fill-rule:nonzero;"/></g><g id="Grupo_57061"><path id="Trazado_103183" d="M72.682,143.059c-0,0 3.352,-1.5 4.079,-2.6c0.041,-0.069 0.078,-0.141 0.11,-0.214c-0.119,-0.213 -0.274,-0.403 -0.458,-0.563c-0.669,-0.423 -1.396,-0.747 -2.158,-0.962c-0.9,-0.164 -4.148,2.062 -4.654,2.643c-0.01,0.011 -0.013,0.035 -0.022,0.048c0.217,0.419 2.476,2.273 3.103,1.648Z" style="fill:#9aca47;fill-rule:nonzero;"/></g><g id="Grupo_57062"><path id="Trazado_103184" d="M73.252,142.575c-0.073,-0.127 -0.171,-0.238 -0.286,-0.328c-0.442,-0.319 -0.904,-0.609 -1.383,-0.87c-0.369,-0.258 -0.754,-0.492 -1.154,-0.7c-0.132,0.1 -0.251,0.189 -0.359,0.275c0.498,0.188 0.971,0.436 1.409,0.738c0.447,0.263 0.876,0.555 1.284,0.876c0.296,0.302 0.402,0.745 0.274,1.148l0.355,-0.2c0.015,-0.041 0.194,-0.36 -0.14,-0.939Z" style="fill:#353535;fill-rule:nonzero;"/></g><g id="Grupo_57063"><path id="Trazado_103185" d="M67.672,140.988c0,0 3.352,-1.5 4.079,-2.6c0.487,-0.687 0.331,-1.652 -0.348,-2.151c-0.669,-0.423 -1.396,-0.747 -2.158,-0.962c-0.9,-0.163 -4.148,2.063 -4.654,2.643c-0.212,0.442 -0.224,0.955 -0.035,1.407c0.179,0.391 2.483,2.291 3.116,1.663Z" style="fill:#72a742;fill-rule:nonzero;"/></g><g id="Grupo_57064"><path id="Trazado_103186" d="M67.373,135.963l0,5.144c0.112,-0.002 0.218,-0.046 0.3,-0.122c0.082,-0.076 3.352,-1.5 4.079,-2.6c0.487,-0.687 0.331,-1.652 -0.348,-2.151c-0.665,-0.42 -1.386,-0.743 -2.142,-0.958l-0.25,-0c-0.58,0.139 -1.133,0.371 -1.639,0.687Z" style="fill:#689b32;fill-rule:nonzero;"/></g><g id="Grupo_57065"><path id="Trazado_103187" d="M71.404,136.236c-0.669,-0.423 -1.396,-0.747 -2.158,-0.962c-0.9,-0.163 -4.148,2.063 -4.654,2.643c-0.018,0.032 -0.032,0.065 -0.044,0.1c0,0.009 0.006,0.022 0.009,0.03c0.178,0.392 2.482,2.293 3.115,1.662c0,-0 3.352,-1.5 4.079,-2.6c0.051,-0.083 0.096,-0.171 0.134,-0.261c-0.121,-0.232 -0.284,-0.44 -0.481,-0.612Z" style="fill:#9aca47;fill-rule:nonzero;"/></g><g id="Grupo_57066"><path id="Trazado_103188" d="M68.243,139.127c-0.073,-0.127 -0.17,-0.238 -0.286,-0.328c-0.443,-0.319 -0.905,-0.609 -1.383,-0.871c-0.369,-0.258 -0.755,-0.492 -1.154,-0.7c-0.132,0.1 -0.251,0.189 -0.359,0.275c0.498,0.188 0.971,0.436 1.409,0.738c0.448,0.263 0.877,0.556 1.284,0.877c0.296,0.302 0.402,0.745 0.274,1.148l0.355,-0.206c0.015,-0.037 0.194,-0.355 -0.14,-0.933Z" style="fill:#353535;fill-rule:nonzero;"/></g></g><g id="Grupo_57078"><g id="Grupo_57075"><g id="Grupo_57068"><path id="Trazado_103189" d="M156.722,90.328l0,0.015c0,0.042 0.003,0.084 0.008,0.126c0.006,0.042 0.013,0.083 0.023,0.124c0.007,0.027 0.016,0.054 0.025,0.081l0.006,0.018l0.008,0.026c0.016,0.043 0.034,0.084 0.055,0.125c0.021,0.044 0.046,0.087 0.073,0.131l0.031,0.043l0.019,0.027c0.017,0.022 0.031,0.046 0.049,0.068c0.043,0.053 0.089,0.104 0.138,0.152c0.02,0.02 0.047,0.039 0.069,0.059c0.022,0.02 0.04,0.037 0.062,0.055c0.022,0.018 0.049,0.046 0.078,0.068c0.096,0.073 0.196,0.14 0.3,0.2l9.472,5.469c0.139,0.079 0.283,0.149 0.432,0.208c0.05,0.02 0.105,0.035 0.158,0.054c0.1,0.034 0.191,0.07 0.293,0.1l0.028,0.007l0.075,0.018c0.082,0.02 0.162,0.041 0.246,0.057c0.059,0.012 0.121,0.02 0.181,0.03l0.058,0.009l0.045,0.008c0.084,0.011 0.168,0.021 0.253,0.029c0.085,0.008 0.142,0.01 0.215,0.013l0.019,-0c0.074,-0 0.149,0.006 0.223,0.007c0.074,0.001 0.144,-0 0.217,-0l0.117,-0l0.1,-0.006c0.072,-0.006 0.142,-0.012 0.213,-0.02c0.071,-0.008 0.142,-0.018 0.213,-0.029c0.076,-0.012 0.15,-0.026 0.224,-0.04c0.074,-0.014 0.158,-0.035 0.235,-0.054l0.044,-0.013l0.053,-0.016c0.054,-0.015 0.109,-0.029 0.162,-0.047c0.1,-0.033 0.2,-0.069 0.3,-0.11l5.195,-2.159c0.866,-0.36 1.313,-0.921 1.315,-1.487l0.007,-2.563c-0,0.565 -0.45,1.125 -1.314,1.487l-5.195,2.158c-0.151,0.062 -0.305,0.115 -0.462,0.158l-0.051,0.016c-0.165,0.044 -0.332,0.08 -0.5,0.107c-0.172,0.027 -0.347,0.044 -0.521,0.054l-0.041,-0c-0.175,0.009 -0.35,0.01 -0.525,-0l-0.011,-0c-0.172,-0.009 -0.343,-0.026 -0.512,-0.05l-0.058,-0.01c-0.145,-0.022 -0.289,-0.053 -0.427,-0.087l-0.074,-0.017c-0.111,-0.03 -0.217,-0.069 -0.322,-0.106c-0.053,-0.019 -0.107,-0.034 -0.158,-0.054c-0.149,-0.059 -0.293,-0.128 -0.432,-0.208l-9.471,-5.469c-0.133,-0.076 -0.258,-0.165 -0.375,-0.264l-0.062,-0.054c-0.094,-0.084 -0.18,-0.178 -0.255,-0.28l-0.02,-0.028c-0.07,-0.1 -0.126,-0.209 -0.166,-0.324l-0.006,-0.017c-0.037,-0.112 -0.056,-0.228 -0.057,-0.346l-0.022,2.551Z" style="fill:#9b4a26;fill-rule:nonzero;"/></g><g id="Grupo_57070"><g id="Grupo_57069"><path id="Trazado_103190" d="M157.669,89.077c-1.157,-0.667 -1.258,-1.734 -0.23,-2.467l4,-2.849c1.44,-0.849 3.22,-0.9 4.706,-0.134l10.668,6.16c1.394,0.8 1.209,2.134 -0.376,2.8l-5.195,2.158c-1.331,0.522 -2.824,0.451 -4.1,-0.195l-9.473,-5.473Z" style="fill:#aa5d37;fill-rule:nonzero;"/></g></g><g id="Grupo_57072"><g id="Grupo_57071"><path id="Trazado_103191" d="M167.511,94.673l-9.82,-5.669c2.848,-0.914 5.945,-0.668 8.614,0.682c2.34,1.351 2.743,3.401 1.206,4.987Z" style="fill:#bb6d3f;fill-rule:nonzero;"/></g></g><g id="Grupo_57073"><path id="Trazado_103192" d="M162.654,88.459l0,0.5l3.621,2.091l2.522,-1.456l0,-0.5l-6.143,-0.635Z" style="fill:#969696;fill-rule:nonzero;"/></g><g id="Grupo_57074"><path id="Trazado_103193" d="M165.177,87.003l-2.522,1.456l3.621,2.091l2.522,-1.456l-3.621,-2.091Z" style="fill:#bababa;fill-rule:nonzero;"/></g></g><g id="Grupo_57077"><g id="Grupo_57076"><path id="Trazado_103194" d="M164.436,94.481c0.201,0.349 0.141,0.793 -0.144,1.078c-1.191,1.01 -2.941,1.052 -4.179,0.1c-0.778,-0.39 -1.349,-1.099 -1.564,-1.942c-0.074,-0.628 0.133,-1.259 0.566,-1.72c0.303,-0.395 0.872,-0.478 1.275,-0.186c0.224,0.162 0.358,0.423 0.358,0.7c-0,0.189 -0.063,0.373 -0.178,0.524l-0.068,0.086c-0.06,0.074 -0.2,0.249 -0.191,0.309c0.015,0.094 0.2,0.363 0.761,0.724c1.27,0.809 1.953,0.151 1.961,0.144c0.167,-0.167 0.394,-0.262 0.631,-0.262c0.237,0 0.464,0.095 0.631,0.262c0.054,0.055 0.102,0.116 0.141,0.183Z" style="fill:#592511;fill-rule:nonzero;"/></g></g></g><g id="Grupo_57080"><g id="Grupo_57079"><path id="Trazado_103195" d="M156.195,75.062c0.356,0.442 0.783,0.411 0.645,1.009c-1.253,-0.031 -1.77,-0.754 -2.688,-1.477c-0.994,-0.092 -2.045,-1.532 -2.761,-2.072c-0.388,-0.294 1,-2.422 1.659,-2.156c0.62,0.107 3.257,1.234 3.418,1.293c0.239,0.093 0.473,0.201 0.7,0.322c0.359,0.237 0.643,0.57 0.819,0.962c0.228,0.298 0.438,0.609 0.629,0.932c0.107,0.276 0.121,0.592 0.249,0.852c0.094,0.221 0.2,0.436 0.319,0.644c0.062,0.126 0.104,0.261 0.124,0.4c-0.131,0.082 -0.291,0.101 -0.438,0.053c-0.079,0.128 0.027,0.084 0.063,0.229c0.027,0.105 0.114,0.294 -0.02,0.336c-0.241,0.058 -0.495,-0.039 -0.635,-0.244c0.016,0.068 0.075,0.13 0.083,0.206c-0.278,0.149 -0.626,0.081 -0.827,-0.163c-0.153,-0.155 -0.554,-0.771 -0.709,-0.94l-0.63,-0.186Z" style="fill:#ffd8a6;fill-rule:nonzero;"/></g></g></g><g id="Grupo_57082"><path id="Trazado_103196" d="M176.544,126.889c-0,0 -1.142,-2.612 2.69,-2.677c2.673,-0.046 2.338,3.213 0.933,3.747c-1.264,0.539 -2.741,0.185 -3.623,-0.869l-0,-0.201Z" style="fill:#1e1715;fill-rule:nonzero;"/></g><g id="Grupo_57083"><path id="Trazado_103197" d="M35.928,88.98c0.611,1.641 0.124,1.815 0.2,3.176c0.039,0.626 0.265,1.225 0.65,1.72c-0.296,0.772 -0.19,1.642 0.282,2.321c-0.4,0.407 -0.625,0.956 -0.625,1.527c-0,0.658 0.298,1.282 0.811,1.695c-0.632,1.168 -0.256,2.644 0.858,3.366c0.984,-0.015 1.918,-0.441 2.576,-1.173c0.186,-0.243 0.287,-0.54 0.287,-0.846c0,-0.541 -0.316,-1.034 -0.807,-1.261c0.573,-0.434 0.911,-1.114 0.911,-1.833c0,-0.606 -0.239,-1.188 -0.665,-1.618c0.913,-0.724 1.446,-1.827 1.446,-2.992c0,-1.767 -1.226,-3.314 -2.946,-3.717l-2.978,-0.365Z" style="fill:#5a2d0e;fill-rule:nonzero;"/></g><g id="Grupo_57084"><path id="Trazado_103198" d="M38.102,101.654c-1.883,2.054 -1.936,5.226 -0.123,7.342c0.407,-0.957 0.941,-1.855 1.587,-2.67c0.858,-1.547 -0.302,-3.336 -1.464,-4.672Z" style="fill:#5a2d0e;fill-rule:nonzero;"/></g><g id="Grupo_57085"><path id="Trazado_103199" d="M38.324,103.191c-0.911,0.458 -1.409,1.474 -1.213,2.475c-0.695,-0.175 -1.446,-0.579 -1.568,-1.285c-0.113,-0.658 0.284,-0.673 0.817,-1.075c0.397,-0.319 0.867,-0.537 1.367,-0.633c0.895,-0.108 1.78,0.285 2.3,1.021c0.502,0.738 0.664,1.657 0.446,2.523l-1.337,0.412c-0.097,0.039 -0.202,0.052 -0.305,0.037c-0.216,-0.054 -0.292,-0.315 -0.331,-0.535c-0.094,-0.541 -0.188,-1.082 -0.283,-1.623c-0.094,-0.541 -0.274,-1.183 -0.8,-1.339l0.907,0.022Z" style="fill:#608e2f;fill-rule:nonzero;"/></g><g id="Grupo_57086"><path id="Trazado_103200" d="M37.412,101.86c-0.09,-0.514 -0.233,-1.016 -0.427,-1.5c-0.207,-0.264 -0.435,-0.663 -0.768,-0.63c-0.584,0.059 -0.969,1.523 -1.1,2.1c-0.141,0.622 -0.28,1.03 0.234,1.409c0.5,0.367 1.814,-0.307 2.375,-0.567c0.561,-0.26 -0.314,-0.208 0.215,0.112c0.479,0.291 0.794,2.243 1.35,2.311c0.441,0.055 0.794,-0.341 1.059,-0.7c0.254,-0.302 0.453,-0.647 0.587,-1.018c0.133,-0.378 0.057,-0.799 -0.2,-1.107c-0.443,-0.343 -1.058,-0.371 -1.53,-0.069c-0.488,0.249 0.032,-0.121 -0.48,0.073l-1.315,-0.414Z" style="fill:#72a742;fill-rule:nonzero;"/></g><g id="Grupo_57087"><path id="Trazado_103201" d="M37.829,103.699c0.459,0.054 0.536,0.151 0.819,-0.213c0.238,-0.305 0.633,-0.848 0.393,-1.151c-0.272,-0.276 -0.608,-0.482 -0.977,-0.6c-0.369,-0.178 -0.787,-0.23 -1.188,-0.148c-0.391,0.1 -0.327,0.275 -0.606,0.8c-0.174,0.371 -0.016,0.82 0.352,1c0.377,0.184 0.788,0.29 1.207,0.312Z" style="fill:#79b84f;fill-rule:nonzero;"/></g><g id="Grupo_57088"><path id="Trazado_103202" d="M89.153,137.831c-3.235,3.059 -15.09,8.735 -18.121,7.829l-0.145,-0.047l-0,4.153c3.232,-0.183 9.176,-1.51 18.328,-7.162c-0,0 0.567,0.045 0.347,-2.421c0.012,-0.803 -0.126,-1.601 -0.409,-2.352Z" style="fill:#689b32;fill-rule:nonzero;"/></g><g id="Grupo_57089"><path id="Trazado_103203" d="M25.806,156.553c0,0 5.191,1.61 8.613,1.351c2.06,-0.154 6.6,-9.71 6.22,-9.916l-14.833,8.565Z" style="fill:#7c421a;fill-rule:nonzero;"/></g><g id="Grupo_57094"><g id="Grupo_57091"><g id="Grupo_57090"><path id="Trazado_103204" d="M35.58,158.265l0.452,-2.269l-0.452,-0.247l-2.778,1.6l0,2.516l0.452,0.247l2.326,-1.847Z" style="fill:#db8f16;fill-rule:nonzero;"/></g></g><g id="Grupo_57093"><g id="Grupo_57092"><path id="Trazado_103205" d="M36.032,158.512l0,-2.516l-2.778,1.6l0,2.516l2.778,-1.6Z" style="fill:#b27200;fill-rule:nonzero;"/></g></g></g></g></svg>