<svg xmlns="http://www.w3.org/2000/svg" xmlns:xlink="http://www.w3.org/1999/xlink" width="65" height="65" viewBox="0 0 65 65">
  <defs>
    <clipPath id="clip-path">
      <rect id="Rectángulo_7753" data-name="Rectángulo 7753" width="65" height="65" transform="translate(211 4522)" fill="#8c6df2" stroke="#707070" stroke-width="1"/>
    </clipPath>
  </defs>
  <g id="Enmascarar_grupo_56" data-name="Enmascarar grupo 56" transform="translate(-211 -4522)" clip-path="url(#clip-path)">
    <g id="apoyo" transform="translate(211 4522)">
      <g id="Grupo_57098" data-name="Grupo 57098">
        <g id="Grupo_57097" data-name="Grupo 57097">
          <path id="Trazado_103206" data-name="Trazado 103206" d="M21.667,0A16.25,16.25,0,0,0,5.417,16.25V28.167A7.592,7.592,0,0,0,13,35.75h1.083V33.583H13a5.423,5.423,0,0,1-5.417-5.417V16.25a14.083,14.083,0,1,1,28.167,0V28.167a5.423,5.423,0,0,1-5.417,5.417H29.25V35.75h1.083a7.592,7.592,0,0,0,7.583-7.583V16.25A16.25,16.25,0,0,0,21.667,0Z" fill="#8c6df2"/>
        </g>
      </g>
      <g id="Grupo_57100" data-name="Grupo 57100">
        <g id="Grupo_57099" data-name="Grupo 57099">
          <path id="Trazado_103207" data-name="Trazado 103207" d="M8.928,51.056,9.72,49.81,7.89,48.648,7.1,49.9a10.8,10.8,0,0,0,.447,12.223V65H9.712V61.75a1.083,1.083,0,0,0-.237-.677A8.631,8.631,0,0,1,8.928,51.056Z" fill="#8c6df2"/>
        </g>
      </g>
      <g id="Grupo_57102" data-name="Grupo 57102">
        <g id="Grupo_57101" data-name="Grupo 57101">
          <path id="Trazado_103208" data-name="Trazado 103208" d="M59.583,0H45.5a5.423,5.423,0,0,0-5.417,5.417V16.25A5.423,5.423,0,0,0,45.5,21.667h2.167V26a1.083,1.083,0,0,0,.668,1,1.069,1.069,0,0,0,.415.082,1.083,1.083,0,0,0,.766-.317l5.1-5.1h4.968A5.423,5.423,0,0,0,65,16.25V5.417A5.423,5.423,0,0,0,59.583,0Zm3.25,16.25a3.25,3.25,0,0,1-3.25,3.25H54.167a1.083,1.083,0,0,0-.766.317l-3.567,3.567v-2.8A1.083,1.083,0,0,0,48.75,19.5H45.5a3.25,3.25,0,0,1-3.25-3.25V5.417a3.25,3.25,0,0,1,3.25-3.25H59.583a3.25,3.25,0,0,1,3.25,3.25Z" fill="#8c6df2"/>
        </g>
      </g>
      <g id="Grupo_57104" data-name="Grupo 57104">
        <g id="Grupo_57103" data-name="Grupo 57103">
          <rect id="Rectángulo_7760" data-name="Rectángulo 7760" width="7.583" height="2.167" transform="translate(45.5 5.417)" fill="#8c6df2"/>
        </g>
      </g>
      <g id="Grupo_57106" data-name="Grupo 57106">
        <g id="Grupo_57105" data-name="Grupo 57105">
          <rect id="Rectángulo_7761" data-name="Rectángulo 7761" width="4.333" height="2.167" transform="translate(55.25 5.417)" fill="#8c6df2"/>
        </g>
      </g>
      <g id="Grupo_57108" data-name="Grupo 57108">
        <g id="Grupo_57107" data-name="Grupo 57107">
          <rect id="Rectángulo_7762" data-name="Rectángulo 7762" width="14.083" height="2.167" transform="translate(45.5 9.75)" fill="#8c6df2"/>
        </g>
      </g>
      <g id="Grupo_57110" data-name="Grupo 57110">
        <g id="Grupo_57109" data-name="Grupo 57109">
          <rect id="Rectángulo_7763" data-name="Rectángulo 7763" width="7.583" height="2.167" transform="translate(45.5 14.083)" fill="#8c6df2"/>
        </g>
      </g>
      <g id="Grupo_57112" data-name="Grupo 57112">
        <g id="Grupo_57111" data-name="Grupo 57111">
          <path id="Trazado_103209" data-name="Trazado 103209" d="M36.235,49.9l-.792-1.248-1.83,1.161.792,1.248a8.629,8.629,0,0,1-.547,10.015,1.083,1.083,0,0,0-.237.677V65h2.167V62.119A10.8,10.8,0,0,0,36.235,49.9Z" fill="#8c6df2"/>
        </g>
      </g>
      <g id="Grupo_57114" data-name="Grupo 57114">
        <g id="Grupo_57113" data-name="Grupo 57113">
          <path id="Trazado_103210" data-name="Trazado 103210" d="M63.917,36.833h-9.75A7.583,7.583,0,0,0,46.6,44.108l-3.265,5.878V45.5a7.592,7.592,0,0,0-7.583-7.583H31.79l-.029-.023-.02.023H29.25a2.167,2.167,0,0,1-2.167-2.167V33.2A10.834,10.834,0,0,0,32.5,23.833V15.167a10.856,10.856,0,0,0-1.3-5.142,1.083,1.083,0,0,0-1.408-.466L11.455,18.187a1.083,1.083,0,0,0-.622.98v4.666A10.834,10.834,0,0,0,16.25,33.2V35.75a2.167,2.167,0,0,1-2.167,2.167h-6.5A7.592,7.592,0,0,0,0,45.5V65H2.167V45.5a5.423,5.423,0,0,1,5.417-5.417h3.447l9.755,13.631a1.083,1.083,0,0,0,.867.453h.014a1.084,1.084,0,0,0,.867-.433l10.292-13.65H35.75A5.423,5.423,0,0,1,41.167,45.5v8.667a1.083,1.083,0,0,0,2.03.525L48.3,45.5h6.211L43.952,65h2.465L56.983,45.5h.433A7.592,7.592,0,0,0,65,37.917,1.083,1.083,0,0,0,63.917,36.833ZM13,23.833V19.855l16.728-7.872a8.667,8.667,0,0,1,.606,3.183v8.667a8.667,8.667,0,0,1-17.333,0Zm8.689,27.421-3.343-4.671H25.21Zm5.16-6.838H16.792l-3.1-4.333h.393a4.333,4.333,0,0,0,4.333-4.333V34.167a10.825,10.825,0,0,0,6.5,0V35.75a4.333,4.333,0,0,0,4.333,4.333h.867Zm30.567-1.083H48.858A5.425,5.425,0,0,1,54.167,39h8.558A5.425,5.425,0,0,1,57.417,43.333Z" fill="#8c6df2"/>
        </g>
      </g>
    </g>
  </g>
</svg>
