<svg xmlns="http://www.w3.org/2000/svg" xmlns:xlink="http://www.w3.org/1999/xlink" width="65" height="65" viewBox="0 0 65 65">
  <defs>
    <clipPath id="clip-path">
      <rect id="Rectángulo_7861" data-name="Rectángulo 7861" width="65" height="65" transform="translate(1052 1855)" fill="#5038a1"/>
    </clipPath>
  </defs>
  <g id="Enmascarar_grupo_67" data-name="Enmascarar grupo 67" transform="translate(-1052 -1855)" clip-path="url(#clip-path)">
    <g id="robar-datos" transform="translate(1052.804 1855)">
      <path id="Trazado_104898" data-name="Trazado 104898" d="M59.522,40.123H46.02A2.66,2.66,0,0,0,43.37,42.6H15.617A3.315,3.315,0,0,0,12.3,45.968a30.7,30.7,0,0,0,1.518,9.34c1.511,4.372,4.04,7.418,7.517,9.052a6.678,6.678,0,0,0,5.7,0c4.244-2,7.142-6.224,8.381-12.229a33.578,33.578,0,0,0,.657-6.988h7.288V45.2a2.662,2.662,0,0,0,2.659,2.659h13.5a3.87,3.87,0,0,0,0-7.74ZM28.089,49.256a25.982,25.982,0,0,1-7.8.016c-.117-1.727-.118-3.2-.1-4.128h8c.021.927.021,2.39-.1,4.112Zm4.074,5.186a20.131,20.131,0,0,1-2.346.831,37.275,37.275,0,0,0,.635-3.883q1.338-.3,2.655-.736a23.962,23.962,0,0,1-.944,3.789Zm-5.1,1.416a20.565,20.565,0,0,1-5.758,0,31.719,31.719,0,0,1-.762-3.986,28.237,28.237,0,0,0,7.294-.014,31.89,31.89,0,0,1-.774,4Zm-2.875,6.054a12.662,12.662,0,0,1-2-3.4c.666.058,1.334.088,2,.088s1.33-.03,1.993-.087a12.748,12.748,0,0,1-1.993,3.4ZM15.269,50.689q1.314.427,2.653.725a37.163,37.163,0,0,0,.633,3.859,20.084,20.084,0,0,1-2.343-.829,24.022,24.022,0,0,1-.942-3.755Zm.349-5.545h2.027c-.02.865-.022,2.123.058,3.607a26.5,26.5,0,0,1-2.776-.871c-.056-.738-.08-1.4-.088-1.948a.778.778,0,0,1,.78-.788Zm2.074,12.521q.811.239,1.636.416a20.237,20.237,0,0,0,1.168,2.8,11.685,11.685,0,0,1-2.8-3.219Zm10.186,3.218a20.235,20.235,0,0,0,1.168-2.8q.826-.179,1.64-.417a11.688,11.688,0,0,1-2.808,3.22Zm5.567-13.042a26.457,26.457,0,0,1-2.773.883c.078-1.472.076-2.721.056-3.58h2.8c.007.676-.007,1.609-.087,2.7Zm26.078-2.517H46.02a.12.12,0,0,1-.12-.12V42.782a.12.12,0,0,1,.12-.12h13.5a1.331,1.331,0,1,1,0,2.662Zm0,0" fill="#5038a1"/>
      <path id="Trazado_104899" data-name="Trazado 104899" d="M23.763,38.878l3.691-9.7a3.759,3.759,0,0,0-2.173-4.845l-16.5-6.28A3.752,3.752,0,0,0,3.938,20.23l-3.691,9.7A3.753,3.753,0,0,0,2.42,34.771l16.5,6.281a3.759,3.759,0,0,0,4.844-2.174ZM6.95,20.457a1.2,1.2,0,0,1,.929-.027l16.5,6.28a1.218,1.218,0,0,1,.7,1.569l-.114.3-1.949-.742a1.269,1.269,0,1,0-.9,2.372l1.949.742L23.4,32.691,4.631,25.546,5.295,23.8l7.09,2.7a1.269,1.269,0,0,0,.9-2.372l-7.09-2.7.114-.3a1.207,1.207,0,0,1,.639-.676ZM2.62,30.829l1.108-2.91L22.5,35.064l-1.108,2.91a1.218,1.218,0,0,1-1.569.7L3.324,32.4a1.215,1.215,0,0,1-.7-1.568Zm0,0" fill="#5038a1"/>
      <path id="Trazado_104900" data-name="Trazado 104900" d="M28.351,32.757a8.375,8.375,0,1,0,8.374-8.374,8.384,8.384,0,0,0-8.374,8.374Zm14.21,0a5.836,5.836,0,1,1-5.836-5.835A5.842,5.842,0,0,1,42.561,32.757Zm0,0" fill="#5038a1"/>
      <path id="Trazado_104901" data-name="Trazado 104901" d="M36.429,28.882a2.8,2.8,0,0,0-1.551.694,1.994,1.994,0,0,0-.611,1.543c0,1.319,1.056,1.8,2.162,2.227V35.1a2.349,2.349,0,0,1-.919-.427c-.49-.346-.85-.548-1.216-.049-.449.613-.185,1.157.476,1.557a3.368,3.368,0,0,0,1.659.454v.27c0,.186.222.292.411.292.171,0,.411-.126.411-.292v-.313a2.682,2.682,0,0,0,1.551-.767,2.206,2.206,0,0,0,.578-1.589c0-1.4-1.041-1.906-2.129-2.335V30.319c.632.053.971.4,1.265.4.421,0,.67-.525.67-.9,0-.75-1.19-.941-1.935-.969V28.6c0-.156-.246-.269-.411-.269a.508.508,0,0,0-.292.08c-.182.123-.1.241-.119.471Zm.108,2.756q-.692-.292-.692-.681,0-.465.692-.606Zm.606,2q.659.313.659.767,0,.53-.659.681Zm0,0" fill="#5038a1"/>
      <path id="Trazado_104902" data-name="Trazado 104902" d="M13.636,17.752l16.513,6.3A3.214,3.214,0,0,0,34.3,22.193l2.845-7.456a2.907,2.907,0,0,0-1.678-3.748L28.025,8.15a.451.451,0,0,1-.261-.582h0l.415-1.086a2.986,2.986,0,0,0-1.727-3.856L20.09.2a2.986,2.986,0,0,0-3.856,1.726L11.778,13.6a3.22,3.22,0,0,0,1.858,4.151Zm.514-3.246L18.605,2.829a.449.449,0,0,1,.579-.259L25.548,5a.448.448,0,0,1,.259.579c-.167.653-1.042,1.825-.35,3.374a2.971,2.971,0,0,0,1.664,1.572l7.442,2.839a.365.365,0,0,1,.211.471l-2.845,7.457a.676.676,0,0,1-.874.391l-16.513-6.3a.679.679,0,0,1-.391-.874Zm0,0" fill="#5038a1"/>
      <path id="Trazado_104903" data-name="Trazado 104903" d="M17.724,28.171h0a1.27,1.27,0,1,0-1.273-1.27,1.268,1.268,0,0,0,1.273,1.27Zm0,0" fill="#5038a1"/>
    </g>
  </g>
</svg>
