<svg xmlns="http://www.w3.org/2000/svg" xmlns:xlink="http://www.w3.org/1999/xlink" width="65" height="65" viewBox="0 0 65 65">
  <defs>
    <clipPath id="clip-path">
      <rect id="Rectángulo_7754" data-name="Rectángulo 7754" width="65" height="65" transform="translate(841 4522)" fill="#8c6df2" stroke="#707070" stroke-width="1"/>
    </clipPath>
  </defs>
  <g id="Enmascarar_grupo_57" data-name="Enmascarar grupo 57" transform="translate(-841 -4522)" clip-path="url(#clip-path)">
    <g id="sistema" transform="translate(841 4522)">
      <g id="Grupo_57116" data-name="Grupo 57116">
        <g id="Grupo_57115" data-name="Grupo 57115">
          <path id="Trazado_103211" data-name="Trazado 103211" d="M63.917,56.333H62.833V22.75a1.083,1.083,0,0,0-1.083-1.083H3.25A1.083,1.083,0,0,0,2.167,22.75V56.333H1.083A1.083,1.083,0,0,0,0,57.417v2.167A5.423,5.423,0,0,0,5.417,65H59.583A5.423,5.423,0,0,0,65,59.583V57.417A1.083,1.083,0,0,0,63.917,56.333ZM4.333,23.833H60.667v32.5h-19.5a1.1,1.1,0,0,0-.767.318L38.551,58.5h-12.1L24.6,56.652a1.1,1.1,0,0,0-.767-.318H4.333Zm58.5,35.75a3.25,3.25,0,0,1-3.25,3.25H5.417a3.25,3.25,0,0,1-3.25-3.25V58.5H23.385l1.849,1.849a1.083,1.083,0,0,0,.766.317H39a1.083,1.083,0,0,0,.766-.317L41.615,58.5H62.833Z" fill="#8c6df2"/>
          <path id="Trazado_103212" data-name="Trazado 103212" d="M23.918,46.892,36.977,34.92l13,7.571,9.606-9.608V24.917H5.417V49.882l10.86-8.45ZM7.583,45.451V27.083H57.417v4.9l-7.79,7.792L36.689,32.247,23.749,44.108l-7.526-5.376Z" fill="#8c6df2"/>
          <path id="Trazado_103213" data-name="Trazado 103213" d="M15.167,20.583A1.083,1.083,0,0,0,16.25,19.5V17.168l3.765-.628a1.083,1.083,0,0,0,.876-.827,11.693,11.693,0,0,1,1.487-3.6,1.083,1.083,0,0,0-.037-1.207l-2.218-3.1,1.767-1.767,3.1,2.218A1.083,1.083,0,0,0,26.2,8.3a11.691,11.691,0,0,1,3.595-1.487,1.083,1.083,0,0,0,.827-.876l.633-3.765h2.5l.628,3.765a1.083,1.083,0,0,0,.827.876A11.693,11.693,0,0,1,38.8,8.3a1.083,1.083,0,0,0,1.207-.037l3.1-2.218,1.767,1.767-2.218,3.1a1.083,1.083,0,0,0-.037,1.207,11.69,11.69,0,0,1,1.487,3.595,1.083,1.083,0,0,0,.876.827l3.765.628V19.5a1.083,1.083,0,1,0,2.167,0V16.25a1.083,1.083,0,0,0-.9-1.068l-3.97-.665a13.936,13.936,0,0,0-1.207-2.925l2.341-3.273a1.083,1.083,0,0,0-.116-1.4L43.994,3.856a1.083,1.083,0,0,0-1.4-.115L39.325,6.085A13.941,13.941,0,0,0,36.4,4.875L35.736.9A1.083,1.083,0,0,0,34.667,0H30.333a1.083,1.083,0,0,0-1.068.9L28.6,4.875a13.936,13.936,0,0,0-2.925,1.207L22.406,3.744a1.083,1.083,0,0,0-1.4.115L17.942,6.926a1.083,1.083,0,0,0-.115,1.4l2.341,3.27a13.94,13.94,0,0,0-1.21,2.925l-3.974.664a1.083,1.083,0,0,0-.9,1.069V19.5A1.083,1.083,0,0,0,15.167,20.583Z" fill="#8c6df2"/>
          <path id="Trazado_103214" data-name="Trazado 103214" d="M39,18.417a1.083,1.083,0,0,0,2.167,0,8.667,8.667,0,1,0-17.333,0,1.083,1.083,0,0,0,2.167,0,6.5,6.5,0,1,1,13,0Z" fill="#8c6df2"/>
          <path id="Trazado_103215" data-name="Trazado 103215" d="M28.167,18.417a1.083,1.083,0,0,0,2.167,0,2.167,2.167,0,1,1,4.333,0,1.083,1.083,0,0,0,2.167,0,4.333,4.333,0,1,0-8.667,0Z" fill="#8c6df2"/>
          <path id="Trazado_103216" data-name="Trazado 103216" d="M59.583,54.167V36.833H57.417v16.25H55.25V41.167H53.083V53.083H50.917V44.417H48.75v8.667H46.583V42.25H44.417V53.083H42.25v-13H40.083v13H37.917V37.917H35.75V53.083H33.583V42.25H31.417V53.083H29.25v-6.5H27.083v6.5H24.917V48.75H22.75v4.333H20.583v-6.5H18.417v6.5H16.25V45.5H14.083v7.583H11.917V48.75H9.75v4.333H7.583V52H5.417v3.25H59.583Z" fill="#8c6df2"/>
        </g>
      </g>
    </g>
  </g>
</svg>
