<svg xmlns="http://www.w3.org/2000/svg" xmlns:xlink="http://www.w3.org/1999/xlink" width="65" height="65" viewBox="0 0 65 65">
  <defs>
    <clipPath id="clip-path">
      <rect id="Rectángulo_7860" data-name="Rectángulo 7860" width="65" height="65" transform="translate(642 1855)" fill="#5038a1"/>
    </clipPath>
  </defs>
  <g id="Enmascarar_grupo_66" data-name="Enmascarar grupo 66" transform="translate(-642 -1855)" clip-path="url(#clip-path)">
    <g id="retraso" transform="translate(639.833 1852.834)">
      <path id="Trazado_104892" data-name="Trazado 104892" d="M6.5,32.5H8.667v2.167H6.5Z" fill="#5038a1"/>
      <path id="Trazado_104893" data-name="Trazado 104893" d="M6.5,36.833H8.667V45.5H6.5Z" fill="#5038a1"/>
      <path id="Trazado_104894" data-name="Trazado 104894" d="M63.916,2.167H61.749V5.8a10.741,10.741,0,0,0-10.833,0V2.167H48.749V7.443a10.833,10.833,0,1,0,15.166,0Zm1.083,13A8.667,8.667,0,1,1,56.332,6.5,8.667,8.667,0,0,1,65,15.166Z" fill="#5038a1"/>
      <path id="Trazado_104895" data-name="Trazado 104895" d="M56.311,13.8,52.649,11.05l-1.3,1.733,4.333,3.25a1.083,1.083,0,0,0,1.327-.021l5.417-4.333L61.072,9.987Z" fill="#5038a1"/>
      <path id="Trazado_104896" data-name="Trazado 104896" d="M27.083,32.5H29.25v2.167H27.083Z" fill="#5038a1"/>
      <path id="Trazado_104897" data-name="Trazado 104897" d="M65.741,61.3,63.789,60,60.832,47.429a8.066,8.066,0,0,0-10.5-5.819l2.619-7.858a2.6,2.6,0,0,0-2.469-3.419h-5A3.233,3.233,0,0,0,42.4,32.558l-3.171,9.513a2.572,2.572,0,0,0,.442,2.458l-1.227,2.25-1.134-1.635a8.217,8.217,0,0,0-5.881-3.5,4.324,4.324,0,0,0,2.151-3.728v-.779l1.346-.336a1.083,1.083,0,0,0,.765-1.394L33.91,30.054a3.788,3.788,0,0,0-1.41-7.3H26a6.5,6.5,0,0,0-6.476,6.032,4.285,4.285,0,0,0-2.19-.616H13V22.55a3.25,3.25,0,1,0-2.167,0v5.616H6.5A4.338,4.338,0,0,0,2.167,32.5V63.916A3.242,3.242,0,0,0,8.467,65h6.9a3.242,3.242,0,0,0,6.3-1.083v-19.3c.418,1.338.782,2.38.964,2.884a8.182,8.182,0,0,0,.965,6.819l4.862,7.5a11.633,11.633,0,0,0,8.454,5.256h.011a12.3,12.3,0,0,0,1.341.082,11.732,11.732,0,0,0,10.148-5.886l4.336-7.592,2.078,7.276s0,0,0,.008l1.546,5.41a1.083,1.083,0,0,0,1.041.785h6.55A3.2,3.2,0,0,0,65.741,61.3ZM6.5,63.916a1.083,1.083,0,0,1-2.167,0v-3.25a1.083,1.083,0,0,1,2.167,0Zm4.333-1.083H8.667V60.666a3.254,3.254,0,0,0-3.25-3.25,3.213,3.213,0,0,0-1.083.2V32.5A2.169,2.169,0,0,1,6.5,30.333h4.333Zm1.083-42.249A1.083,1.083,0,1,1,13,19.5,1.083,1.083,0,0,1,11.916,20.583ZM19.5,63.916a1.083,1.083,0,0,1-2.167,0v-3.25a1.083,1.083,0,0,1,2.167,0Zm0-30.333V57.615a3.213,3.213,0,0,0-1.083-.2,3.254,3.254,0,0,0-3.25,3.25v2.167H13v-32.5h4.333A2.169,2.169,0,0,1,19.5,32.5Zm24.959-.344a1.073,1.073,0,0,1,1.019-.739h5a.427.427,0,0,1,.351.183.42.42,0,0,1,.062.384l-2.96,8.881a4.224,4.224,0,0,0-6.152-.682ZM37.784,52.518,42.705,43.5a2.081,2.081,0,0,1,3.658,1.983l-3.806,7.068a7.261,7.261,0,0,1-8.566,3.441,7.413,7.413,0,0,1-3.272-2.206l-.3-.336,3.163-3.163,2.484,2.484a1.083,1.083,0,0,0,1.717-.247Zm-8.806-.695-2.359-2.654a2.071,2.071,0,0,1,3.012-2.841l2.421,2.421Zm6.554-5.446,1.755,2.53-.71,1.3L31.163,44.8a4.19,4.19,0,0,0-1.557-.976c.056-.009.11-.023.166-.03a6.088,6.088,0,0,1,5.759,2.585ZM21.666,29.25A4.338,4.338,0,0,1,26,24.916h6.5a1.625,1.625,0,1,1,0,3.25H24.916a1.082,1.082,0,0,0-.846.406l-1.416,1.77a3.211,3.211,0,0,0-.981.188Zm.276,7.469c.26.067,1.891.114,1.891.114V34.666H22.75a1.073,1.073,0,0,1-1.056-.951v-.257A1.073,1.073,0,0,1,22.75,32.5h1.083l1.6-2.167h6.282l1.55,4.65-1.032.257a1.083,1.083,0,0,0-.82,1.051v1.625a2.169,2.169,0,0,1-2.167,2.167H24.916v2.167h2.392a8.434,8.434,0,0,0-1.209.625A8.262,8.262,0,0,0,24,44.806,55.859,55.859,0,0,1,21.942,36.719ZM36.384,64.806a9.456,9.456,0,0,1-6.106-4.155l-4.861-7.5a6.075,6.075,0,0,1-.973-3.355,4.2,4.2,0,0,0,.555.817l4.1,4.612a9.577,9.577,0,0,0,4.243,2.834,9.3,9.3,0,0,0,6.083-.156Zm20.3-5.223-2.559-8.964a1.083,1.083,0,0,0-1.982-.24L46.532,60.2A9.562,9.562,0,0,1,38.67,64.99l4.008-9.1a9.24,9.24,0,0,0,1.787-2.313l3.806-7.068a4.232,4.232,0,0,0,.456-1.416,5.935,5.935,0,0,1,10,2.836l2.741,11.658ZM63.965,65H58.233l-.929-3.25h5.2l2.034,1.356A1.034,1.034,0,0,1,63.965,65Z" fill="#5038a1"/>
    </g>
  </g>
</svg>
