<svg xmlns="http://www.w3.org/2000/svg" xmlns:xlink="http://www.w3.org/1999/xlink" width="65" height="65" viewBox="0 0 65 65">
  <defs>
    <clipPath id="clip-path">
      <rect id="Rectángulo_7756" data-name="Rectángulo 7756" width="65" height="65" transform="translate(211 4721)" fill="#8c6df2" stroke="#707070" stroke-width="1"/>
    </clipPath>
  </defs>
  <g id="Enmascarar_grupo_58" data-name="Enmascarar grupo 58" transform="translate(-211 -4721)" clip-path="url(#clip-path)">
    <g id="maleta_1_" data-name="maleta (1)" transform="translate(211.127 4721.127)">
      <g id="Grupo_57118" data-name="Grupo 57118">
        <g id="Grupo_57117" data-name="Grupo 57117">
          <path id="Trazado_103217" data-name="Trazado 103217" d="M6.373,49.165a1.083,1.083,0,1,0,0,2.167,1.083,1.083,0,1,0,0-2.167Z" fill="#8c6df2"/>
          <path id="Trazado_103218" data-name="Trazado 103218" d="M10.706,49.165a1.083,1.083,0,1,0,0,2.167,1.083,1.083,0,1,0,0-2.167Z" fill="#8c6df2"/>
          <path id="Trazado_103219" data-name="Trazado 103219" d="M15.04,49.165a1.083,1.083,0,1,0,1.083,1.083A1.023,1.023,0,0,0,15.04,49.165Z" fill="#8c6df2"/>
          <path id="Trazado_103220" data-name="Trazado 103220" d="M19.373,49.165a1.083,1.083,0,1,0,1.083,1.083A1.023,1.023,0,0,0,19.373,49.165Z" fill="#8c6df2"/>
          <path id="Trazado_103221" data-name="Trazado 103221" d="M23.706,49.165a1.083,1.083,0,1,0,1.083,1.083A1.023,1.023,0,0,0,23.706,49.165Z" fill="#8c6df2"/>
          <path id="Trazado_103222" data-name="Trazado 103222" d="M28.04,49.165a1.083,1.083,0,1,0,1.083,1.083A1.023,1.023,0,0,0,28.04,49.165Z" fill="#8c6df2"/>
          <path id="Trazado_103223" data-name="Trazado 103223" d="M32.373,49.165a1.083,1.083,0,1,0,1.083,1.083A1.023,1.023,0,0,0,32.373,49.165Z" fill="#8c6df2"/>
          <path id="Trazado_103224" data-name="Trazado 103224" d="M36.706,49.165a1.083,1.083,0,1,0,1.083,1.083A1.023,1.023,0,0,0,36.706,49.165Z" fill="#8c6df2"/>
          <path id="Trazado_103225" data-name="Trazado 103225" d="M41.04,49.165a1.083,1.083,0,1,0,1.083,1.083A1.023,1.023,0,0,0,41.04,49.165Z" fill="#8c6df2"/>
          <path id="Trazado_103226" data-name="Trazado 103226" d="M45.373,49.165a1.083,1.083,0,1,0,1.083,1.083A1.023,1.023,0,0,0,45.373,49.165Z" fill="#8c6df2"/>
          <path id="Trazado_103227" data-name="Trazado 103227" d="M49.706,49.165a1.083,1.083,0,1,0,1.083,1.083A1.023,1.023,0,0,0,49.706,49.165Z" fill="#8c6df2"/>
          <path id="Trazado_103228" data-name="Trazado 103228" d="M54.04,49.165a1.083,1.083,0,1,0,1.083,1.083A1.023,1.023,0,0,0,54.04,49.165Z" fill="#8c6df2"/>
          <path id="Trazado_103229" data-name="Trazado 103229" d="M58.373,49.165a1.083,1.083,0,1,0,1.083,1.083A1.023,1.023,0,0,0,58.373,49.165Z" fill="#8c6df2"/>
          <path id="Trazado_103230" data-name="Trazado 103230" d="M59.456,44.831H57.29V20.023A5.527,5.527,0,0,0,51.873,14.5H42.03a6.523,6.523,0,0,0-6.407-5.417h-6.5A6.523,6.523,0,0,0,22.716,14.5H12.981a5.548,5.548,0,0,0-5.525,5.525V44.831H5.29a5.417,5.417,0,1,0,0,10.833H59.456a5.417,5.417,0,1,0,0-10.833ZM29.015,11.248h6.5A4.323,4.323,0,0,1,39.74,14.5H24.9A4.39,4.39,0,0,1,29.015,11.248ZM9.623,20.023a3.375,3.375,0,0,1,3.358-3.358H47.106l-3.25,3.25H39.848a1.17,1.17,0,0,0-.758.325L32.7,26.74a1.047,1.047,0,0,0,0,1.517l4.333,4.333a.983.983,0,0,0,.758.325,1.17,1.17,0,0,0,.758-.325l6.5-5.958a.983.983,0,0,0,.325-.758V21.431l4.767-4.767h1.625a3.375,3.375,0,0,1,3.358,3.358V44.831H9.623Zm33.583,2.058v3.25L37.79,30.315,34.973,27.5l5.308-5.417h2.925ZM59.456,53.5H5.29a3.25,3.25,0,0,1,0-6.5H59.456a3.25,3.25,0,1,1,0,6.5Z" fill="#8c6df2"/>
        </g>
      </g>
    </g>
  </g>
</svg>
