<svg xmlns="http://www.w3.org/2000/svg" width="125" height="125" viewBox="0 0 125 125">
  <g id="Grupo_61494" data-name="Grupo 61494" transform="translate(-265 -6072)">
    <g id="Elipse_4101" data-name="Elipse 4101" transform="translate(265 6072)" fill="#fff" stroke="#ffb74d" stroke-width="1">
      <circle cx="62.5" cy="62.5" r="62.5" stroke="none"/>
      <circle cx="62.5" cy="62.5" r="62" fill="none"/>
    </g>
    <g id="demora" transform="translate(287.5 6095.5)">
      <path id="Trazado_103287" data-name="Trazado 103287" d="M72.912,48H14V58.246a2.561,2.561,0,0,0,2.561,2.561H70.351a2.561,2.561,0,0,0,2.561-2.561Z" transform="translate(2.947 11.93)" fill="#6c696f"/>
      <path id="Trazado_103288" data-name="Trazado 103288" d="M70.491,61.588H16.7a3.2,3.2,0,0,1-3.2-3.2V48.14a.64.64,0,0,1,.64-.64H73.053a.64.64,0,0,1,.64.64V58.386A3.2,3.2,0,0,1,70.491,61.588ZM14.781,48.781v9.605A1.921,1.921,0,0,0,16.7,60.307H70.491a1.921,1.921,0,0,0,1.921-1.921V48.781Z" transform="translate(2.807 11.789)" fill="#212a41"/>
      <path id="Trazado_103289" data-name="Trazado 103289" d="M4,48H57.789V58.246a2.561,2.561,0,0,1-2.561,2.561H6.561A2.561,2.561,0,0,1,4,58.246Z" transform="translate(0.14 11.93)" fill="#4e4b51"/>
      <path id="Trazado_103290" data-name="Trazado 103290" d="M55.368,61.588H6.7a3.2,3.2,0,0,1-3.2-3.2V48.14a.64.64,0,0,1,.64-.64H57.93a.64.64,0,0,1,.64.64V58.386A3.2,3.2,0,0,1,55.368,61.588ZM4.781,48.781v9.605A1.921,1.921,0,0,0,6.7,60.307H55.368a1.921,1.921,0,0,0,1.921-1.921V48.781Z" transform="translate(0 11.789)" fill="#212a41"/>
      <path id="Trazado_103291" data-name="Trazado 103291" d="M39.982,37.222H36.14a.64.64,0,1,1,0-1.281h3.842a.64.64,0,1,1,0,1.281Z" transform="translate(8.982 8.545)" fill="#212a41"/>
      <path id="Trazado_103292" data-name="Trazado 103292" d="M59.737,40.4H41.807L35.4,34H29v6.4l7.684,7.684H59.737a3.842,3.842,0,0,0,3.842-3.842h0A3.842,3.842,0,0,0,59.737,40.4Z" transform="translate(7.158 8)" fill="#e0e0e0"/>
      <path id="Trazado_103293" data-name="Trazado 103293" d="M59.877,48.868H36.825a.64.64,0,0,1-.453-.187L28.687,41a.64.64,0,0,1-.187-.453v-6.4a.64.64,0,0,1,.64-.64h6.4a.64.64,0,0,1,.453.187L42.212,39.9H59.877a4.482,4.482,0,1,1,0,8.965ZM37.09,47.588H59.877a3.2,3.2,0,1,0,0-6.4H41.947A.64.64,0,0,1,41.494,41l-6.215-6.217h-5.5v5.5Z" transform="translate(7.018 7.86)" fill="#212a41"/>
      <path id="Trazado_103294" data-name="Trazado 103294" d="M52.053,40.4H37.965l-6.4-6.4H29v6.484a2.562,2.562,0,0,0,.922,1.969l6.762,5.635H52.053a3.842,3.842,0,0,0,3.842-3.842h0A3.842,3.842,0,0,0,52.053,40.4Z" transform="translate(7.158 8)" fill="#c2c2c2"/>
      <path id="Trazado_103295" data-name="Trazado 103295" d="M52.193,48.868H36.825a.64.64,0,0,1-.41-.149l-6.763-5.635a3.2,3.2,0,0,1-1.153-2.46V34.14a.64.64,0,0,1,.64-.64H31.7a.64.64,0,0,1,.453.187L38.371,39.9H52.193a4.482,4.482,0,1,1,0,8.965ZM37.057,47.588H52.193a3.2,3.2,0,1,0,0-6.4H38.106A.64.64,0,0,1,37.652,41l-6.215-6.217H29.781v5.844a1.908,1.908,0,0,0,.692,1.475Z" transform="translate(7.017 7.86)" fill="#212a41"/>
      <path id="Trazado_103296" data-name="Trazado 103296" d="M37.192,45.513a.64.64,0,0,1-.411-.149l-6.05-5.041a.64.64,0,0,1-.231-.493V36.969a.64.64,0,0,1,1.281,0v2.561l5.821,4.85a.64.64,0,0,1-.41,1.132Z" transform="translate(7.579 8.654)" fill="#e0e0e0"/>
      <path id="Trazado_103297" data-name="Trazado 103297" d="M46.053,45.842H26.932A2.561,2.561,0,0,1,24.8,44.7L23,42H42.121a2.561,2.561,0,0,1,2.131,1.141Z" transform="translate(5.474 10.246)" fill="#c2c2c2"/>
      <path id="Trazado_103298" data-name="Trazado 103298" d="M46.193,46.623H27.072A3.2,3.2,0,0,1,24.408,45.2l-1.8-2.7a.64.64,0,0,1,.533-1H42.261a3.2,3.2,0,0,1,2.664,1.425l1.8,2.7a.64.64,0,0,1-.533,1ZM24.338,42.781l1.136,1.706a1.921,1.921,0,0,0,1.6.856H45l-1.136-1.706a1.921,1.921,0,0,0-1.6-.856Z" transform="translate(5.333 10.105)" fill="#212a41"/>
      <path id="Trazado_103299" data-name="Trazado 103299" d="M55.246,39H45v3.842H59.088A3.842,3.842,0,0,0,55.246,39Z" transform="translate(11.649 9.404)" fill="#b7c0d7"/>
      <path id="Trazado_103300" data-name="Trazado 103300" d="M59.228,43.623H45.14a.64.64,0,0,1-.64-.64V39.14a.64.64,0,0,1,.64-.64H55.386a4.482,4.482,0,0,1,4.482,4.482.64.64,0,0,1-.64.64ZM45.781,42.342H58.524a3.2,3.2,0,0,0-3.138-2.561H45.781Z" transform="translate(11.509 9.263)" fill="#212a41"/>
      <path id="Trazado_103301" data-name="Trazado 103301" d="M47.561,39H45v3.842h6.4A3.842,3.842,0,0,0,47.561,39Z" transform="translate(11.649 9.404)" fill="#99a2b9"/>
      <path id="Trazado_103302" data-name="Trazado 103302" d="M51.544,43.623h-6.4a.64.64,0,0,1-.64-.64V39.14a.64.64,0,0,1,.64-.64H47.7a4.482,4.482,0,0,1,4.482,4.482.64.64,0,0,1-.64.64Zm-5.763-1.281h5.059A3.2,3.2,0,0,0,47.7,39.781H45.781Z" transform="translate(11.509 9.263)" fill="#212a41"/>
      <path id="Trazado_103303" data-name="Trazado 103303" d="M32.263,37.222H27.14a.64.64,0,1,1,0-1.281h5.123a.64.64,0,1,1,0,1.281Z" transform="translate(6.456 8.545)" fill="#212a41"/>
      <path id="Trazado_103304" data-name="Trazado 103304" d="M6.14,58.465a.64.64,0,0,1-.64-.64V50.14a.64.64,0,0,1,1.281,0v7.684A.64.64,0,0,1,6.14,58.465Z" transform="translate(0.561 12.351)" fill="#6c696f"/>
      <path id="Trazado_103305" data-name="Trazado 103305" d="M44.14,58.465a.64.64,0,0,1-.64-.64V50.14a.64.64,0,0,1,1.281,0v7.684A.64.64,0,0,1,44.14,58.465Z" transform="translate(11.228 12.351)" fill="#302d33"/>
      <path id="Trazado_103306" data-name="Trazado 103306" d="M48.14,58.465a.64.64,0,0,1-.64-.64V50.14a.64.64,0,0,1,1.281,0v7.684A.64.64,0,0,1,48.14,58.465Z" transform="translate(12.351 12.351)" fill="#8a878d"/>
      <path id="Trazado_103307" data-name="Trazado 103307" d="M58.14,58.465a.64.64,0,0,1-.64-.64V50.14a.64.64,0,0,1,1.281,0v7.684A.64.64,0,0,1,58.14,58.465Z" transform="translate(15.158 12.351)" fill="#4e4b51"/>
      <path id="Trazado_103308" data-name="Trazado 103308" d="M18.684,51.93H11L12.281,34H17.4Z" transform="translate(2.105 8)" fill="#e0e0e0"/>
      <path id="Trazado_103309" data-name="Trazado 103309" d="M18.825,52.711H11.141a.64.64,0,0,1-.64-.686l1.281-17.93a.64.64,0,0,1,.64-.594h5.123a.64.64,0,0,1,.64.594l1.281,17.93a.64.64,0,0,1-.64.686Zm-7-1.281h6.309l-1.19-16.649H13.018Z" transform="translate(1.965 7.86)" fill="#212a41"/>
      <path id="Trazado_103310" data-name="Trazado 103310" d="M23.93,37.368H8.561L6,32.246V22H26.491V32.246Z" transform="translate(0.702 4.632)" fill="#b7c0d7"/>
      <path id="Trazado_103311" data-name="Trazado 103311" d="M24.07,38.149H8.7a.64.64,0,0,1-.572-.353L5.568,32.673a.656.656,0,0,1-.068-.287V22.14a.64.64,0,0,1,.64-.64H26.632a.64.64,0,0,1,.64.64V32.386a.656.656,0,0,1-.068.287L24.643,37.8A.64.64,0,0,1,24.07,38.149ZM9.1,36.868H23.674l2.317-4.634V22.781H6.781v9.454Z" transform="translate(0.561 4.491)" fill="#212a41"/>
      <rect id="Rectángulo_7776" data-name="Rectángulo 7776" width="5.123" height="5.123" transform="translate(14.386 21.509)" fill="#e0e0e0"/>
      <path id="Trazado_103312" data-name="Trazado 103312" d="M17.263,23.9H12.14a.64.64,0,0,1-.64-.64V18.14a.64.64,0,0,1,.64-.64h5.123a.64.64,0,0,1,.64.64v5.123A.64.64,0,0,1,17.263,23.9Zm-4.482-1.281h3.842V18.781H12.781Z" transform="translate(2.246 3.368)" fill="#212a41"/>
      <path id="Trazado_103313" data-name="Trazado 103313" d="M14.14,20.465a.64.64,0,0,1-.64-.64V12.14a.64.64,0,1,1,1.281,0v7.684A.64.64,0,0,1,14.14,20.465Z" transform="translate(2.807 1.684)" fill="#212a41"/>
      <path id="Trazado_103314" data-name="Trazado 103314" d="M8.14,32.465a.64.64,0,0,1-.64-.64V24.14a.64.64,0,1,1,1.281,0v7.684A.64.64,0,0,1,8.14,32.465Z" transform="translate(1.123 5.053)" fill="#d5def5"/>
      <path id="Trazado_103315" data-name="Trazado 103315" d="M20.14,32.465a.64.64,0,0,1-.64-.64V24.14a.64.64,0,1,1,1.281,0v7.684A.64.64,0,0,1,20.14,32.465Z" transform="translate(4.491 5.053)" fill="#99a2b9"/>
      <path id="Trazado_103316" data-name="Trazado 103316" d="M26.632,30.781H6.14a.64.64,0,0,1,0-1.281H26.632a.64.64,0,1,1,0,1.281Z" transform="translate(0.561 6.737)" fill="#212a41"/>
      <path id="Trazado_103317" data-name="Trazado 103317" d="M26.632,26.781H6.14a.64.64,0,1,1,0-1.281H26.632a.64.64,0,1,1,0,1.281Z" transform="translate(0.561 5.614)" fill="#212a41"/>
      <circle id="Elipse_4139" data-name="Elipse 4139" cx="12.807" cy="12.807" r="12.807" transform="translate(38.719 6.14)" fill="#db8e11"/>
      <path id="Trazado_103318" data-name="Trazado 103318" d="M43.947,32.395A13.447,13.447,0,1,1,57.395,18.947,13.447,13.447,0,0,1,43.947,32.395Zm0-25.614A12.167,12.167,0,1,0,56.114,18.947,12.167,12.167,0,0,0,43.947,6.781Z" transform="translate(7.579)" fill="#212a41"/>
      <circle id="Elipse_4140" data-name="Elipse 4140" cx="12.807" cy="12.807" r="12.807" transform="translate(42.561 6.14)" fill="#f9ac2f"/>
      <path id="Trazado_103319" data-name="Trazado 103319" d="M46.947,32.395A13.447,13.447,0,1,1,60.395,18.947,13.447,13.447,0,0,1,46.947,32.395Zm0-25.614A12.167,12.167,0,1,0,59.114,18.947,12.167,12.167,0,0,0,46.947,6.781Z" transform="translate(8.421)" fill="#212a41"/>
      <path id="Trazado_103320" data-name="Trazado 103320" d="M44.14,27.026a.64.64,0,0,1,0-1.281,9.616,9.616,0,0,0,9.605-9.605.64.64,0,1,1,1.281,0A10.9,10.9,0,0,1,44.14,27.026Z" transform="translate(11.228 2.807)" fill="#db8e11"/>
      <path id="Trazado_103321" data-name="Trazado 103321" d="M36.14,19.026a.64.64,0,0,1-.64-.64A10.9,10.9,0,0,1,46.386,7.5a.64.64,0,1,1,0,1.281,9.616,9.616,0,0,0-9.605,9.605A.64.64,0,0,1,36.14,19.026Z" transform="translate(8.982 0.561)" fill="#ffca4d"/>
      <path id="Trazado_103322" data-name="Trazado 103322" d="M40.141,23.588a.64.64,0,0,1-.453-1.094l4.936-4.935V10.14a.64.64,0,0,1,1.281,0v7.684a.64.64,0,0,1-.187.453L40.594,23.4A.64.64,0,0,1,40.141,23.588Z" transform="translate(10.105 1.123)" fill="#212a41"/>
    </g>
  </g>
</svg>
