<svg xmlns="http://www.w3.org/2000/svg" xmlns:xlink="http://www.w3.org/1999/xlink" width="65" height="65" viewBox="0 0 65 65">
  <defs>
    <clipPath id="clip-path">
      <rect id="Rectángulo_7757" data-name="Rectángulo 7757" width="65" height="65" transform="translate(841 4924)" fill="#8c6df2" stroke="#707070" stroke-width="1"/>
    </clipPath>
  </defs>
  <g id="Enmascarar_grupo_61" data-name="Enmascarar grupo 61" transform="translate(-841 -4924)" clip-path="url(#clip-path)">
    <g id="Storage" transform="translate(839.952 4922.952)">
      <path id="Trazado_103235" data-name="Trazado 103235" d="M60.806,19.919H45.081V10.484a1.048,1.048,0,0,0-1.048-1.048H23.065a1.048,1.048,0,0,0-1.048,1.048v9.435H6.29a5.248,5.248,0,0,0-5.242,5.242V52.419A5.248,5.248,0,0,0,6.29,57.661H60.806a5.248,5.248,0,0,0,5.242-5.242V25.161A5.248,5.248,0,0,0,60.806,19.919Zm-17.823-6.29H24.113v-2.1H42.984Zm-18.871,2.1H42.984v4.194H24.113ZM63.952,52.419a3.149,3.149,0,0,1-3.145,3.145H6.29a3.149,3.149,0,0,1-3.145-3.145V25.161A3.149,3.149,0,0,1,6.29,22.016H60.806a3.149,3.149,0,0,1,3.145,3.145Z" fill="#8c6df2"/>
      <path id="Trazado_103236" data-name="Trazado 103236" d="M15.726,51.371H6.29a1.048,1.048,0,0,0,0,2.1h9.435a1.048,1.048,0,1,0,0-2.1Z" fill="#8c6df2"/>
      <path id="Trazado_103237" data-name="Trazado 103237" d="M19.919,51.371H18.871a1.048,1.048,0,1,0,0,2.1h1.048a1.048,1.048,0,1,0,0-2.1Z" fill="#8c6df2"/>
      <path id="Trazado_103238" data-name="Trazado 103238" d="M33.548,26.21A11.532,11.532,0,1,0,45.081,37.742,11.532,11.532,0,0,0,33.548,26.21Zm0,20.968a9.435,9.435,0,1,1,9.435-9.435,9.435,9.435,0,0,1-9.435,9.435Z" fill="#8c6df2"/>
      <path id="Trazado_103239" data-name="Trazado 103239" d="M37.742,35.645v-2.1a4.194,4.194,0,0,0-8.387,0v2.1a1.048,1.048,0,0,0-1.048,1.048v6.29a1.048,1.048,0,0,0,1.048,1.048h8.387a1.048,1.048,0,0,0,1.048-1.048v-6.29A1.048,1.048,0,0,0,37.742,35.645Zm-6.29-2.1a2.1,2.1,0,0,1,4.194,0v2.1H31.452Zm5.242,8.387H30.4V37.742h6.29Z" fill="#8c6df2"/>
    </g>
  </g>
</svg>
