<svg xmlns="http://www.w3.org/2000/svg" width="125" height="125" viewBox="0 0 125 125">
  <g id="Grupo_57178" data-name="Grupo 57178" transform="translate(5125 5113)">
    <g id="Elipse_4137" data-name="Elipse 4137" transform="translate(-5125 -5113)" fill="#fff" stroke="#ffdc72" stroke-width="1">
      <circle cx="62.5" cy="62.5" r="62.5" stroke="none"/>
      <circle cx="62.5" cy="62.5" r="62" fill="none"/>
    </g>
    <g id="paquete-danado" transform="translate(-5101.841 -5092.516)">
      <circle id="Elipse_4142" data-name="Elipse 4142" cx="14.776" cy="14.776" r="14.776" transform="translate(48.352 0.768)" fill="#f9677f"/>
      <path id="Trazado_103337" data-name="Trazado 103337" d="M64.854,52.131A14.779,14.779,0,0,1,51.292,31.485L6.158,39.227a4.4,4.4,0,0,0-3.35,6l8.424,22.6a6.574,6.574,0,0,1,.24,3.8L5.932,95.23a4.492,4.492,0,0,0,4.479,4.479H68.266a4.493,4.493,0,0,0,4.479-4.479V49.844A14.7,14.7,0,0,1,64.854,52.131Z" transform="translate(-1.725 -21.81)" fill="#bf6132"/>
      <circle id="Elipse_4143" data-name="Elipse 4143" cx="11.192" cy="11.192" r="11.192" transform="translate(51.937 4.353)" fill="#fc3850"/>
      <path id="Trazado_103338" data-name="Trazado 103338" d="M201.344,34.8a1.844,1.844,0,0,1-1.844-1.844V28.344a1.844,1.844,0,1,1,3.688,0v4.609A1.844,1.844,0,0,1,201.344,34.8Z" transform="translate(-138.189 -18.357)" fill="#edf4fc"/>
      <path id="Trazado_103339" data-name="Trazado 103339" d="M200,62.69V63a1.69,1.69,0,1,0,3.38,0V62.69a1.69,1.69,0,1,0-3.38,0Z" transform="translate(-138.535 -42.255)" fill="#edf4fc"/>
      <path id="Trazado_103340" data-name="Trazado 103340" d="M95.285,37.345l4.579,26.7L85.743,66.465l-4.579-26.7,14.121-2.422Z" transform="translate(-56.216 -25.869)" fill="#fcac27"/>
      <path id="Trazado_103341" data-name="Trazado 103341" d="M104.571,38.534l6.929-1.188,4.579,26.7-6.929,1.188Z" transform="translate(-72.431 -25.87)" fill="#facb35"/>
      <path id="Trazado_103342" data-name="Trazado 103342" d="M40.527,136.951a.768.768,0,0,1-.541-1.313l2.429-2.41a.768.768,0,0,1,1.082,1.091l-2.429,2.41a.767.767,0,0,1-.541.223Z" transform="translate(-27.535 -92.132)"/>
      <path id="Trazado_103343" data-name="Trazado 103343" d="M42.714,154.9a.768.768,0,0,1-.015-1.536l3.421-.067h.015a.768.768,0,0,1,.015,1.536l-3.421.067Z" transform="translate(-29.049 -106.188)"/>
      <path id="Trazado_103344" data-name="Trazado 103344" d="M44.185,169.944a.766.766,0,0,1-.527-.21l-2.489-2.348a.768.768,0,0,1,1.054-1.118l2.489,2.348a.768.768,0,0,1-.527,1.327Z" transform="translate(-28.344 -115.03)"/>
      <path id="Trazado_103345" data-name="Trazado 103345" d="M170.373,31.089a15.545,15.545,0,1,1,15.545-15.544A15.562,15.562,0,0,1,170.373,31.089Zm0-29.553a14.008,14.008,0,1,0,14.008,14.008A14.024,14.024,0,0,0,170.373,1.536Z" transform="translate(-107.245)"/>
      <path id="Trazado_103346" data-name="Trazado 103346" d="M66.542,98.745H8.686A5.253,5.253,0,0,1,3.439,93.5a.767.767,0,0,1,.02-.175L9,69.721a5.81,5.81,0,0,0-.212-3.356L.364,43.761a5.316,5.316,0,0,1,.328-4.522,5.15,5.15,0,0,1,3.612-2.5L49.437,29a.768.768,0,0,1,.835,1.063,14.007,14.007,0,0,0,20.338,17.4.768.768,0,0,1,1.179.649V93.5A5.253,5.253,0,0,1,66.542,98.745ZM4.976,93.583a3.715,3.715,0,0,0,3.71,3.626H66.542A3.715,3.715,0,0,0,70.252,93.5V49.438a15.548,15.548,0,0,1-21.883-18.7L4.563,38.253a3.619,3.619,0,0,0-2.54,1.753,3.734,3.734,0,0,0-.22,3.219l8.424,22.6a7.345,7.345,0,0,1,.268,4.244Z" transform="translate(0 -20.078)"/>
      <path id="Trazado_103347" data-name="Trazado 103347" d="M178.453,35.585a11.96,11.96,0,1,1,11.96-11.96A11.974,11.974,0,0,1,178.453,35.585Zm0-22.384a10.424,10.424,0,1,0,10.424,10.424A10.436,10.436,0,0,0,178.453,13.2Z" transform="translate(-115.324 -8.08)"/>
      <path id="Trazado_103348" data-name="Trazado 103348" d="M199.612,33.833A2.615,2.615,0,0,1,197,31.221V26.612a2.612,2.612,0,0,1,5.224,0v4.609A2.615,2.615,0,0,1,199.612,33.833Zm0-8.3a1.077,1.077,0,0,0-1.076,1.076v4.609a1.076,1.076,0,1,0,2.151,0V26.612A1.077,1.077,0,0,0,199.612,25.536Z" transform="translate(-136.457 -16.625)"/>
      <path id="Trazado_103349" data-name="Trazado 103349" d="M199.958,63.724a2.461,2.461,0,0,1-2.458-2.458v-.307a2.458,2.458,0,0,1,4.917,0v.307A2.461,2.461,0,0,1,199.958,63.724Zm0-3.688a.923.923,0,0,0-.922.922v.307a.922.922,0,1,0,1.844,0v-.307A.923.923,0,0,0,199.958,60.036Z" transform="translate(-136.803 -40.523)"/>
      <path id="Trazado_103350" data-name="Trazado 103350" d="M84.01,65.5a.768.768,0,0,1-.756-.638l-4.579-26.7a.769.769,0,0,1,.627-.887l14.121-2.422a.769.769,0,0,1,.887.627l4.579,26.7a.769.769,0,0,1-.627.887L84.141,65.489A.758.758,0,0,1,84.01,65.5ZM80.319,38.662l4.32,25.183,12.607-2.162L92.926,36.5Z" transform="translate(-54.484 -24.136)"/>
      <path id="Trazado_103351" data-name="Trazado 103351" d="M107.418,64.267a.768.768,0,0,1-.756-.638l-4.58-26.7a.769.769,0,0,1,.627-.887l6.929-1.189a.769.769,0,0,1,.887.627l4.579,26.7a.769.769,0,0,1-.627.887l-6.929,1.188a.8.8,0,0,1-.131.011Zm-3.692-26.839,4.32,25.183,5.414-.928L109.141,36.5Z" transform="translate(-70.699 -24.137)"/>
    </g>
  </g>
</svg>
