<svg id="peligroso" xmlns="http://www.w3.org/2000/svg" width="102.23" height="101.218" viewBox="0 0 102.23 101.218">
  <path id="Trazado_101549" data-name="Trazado 101549" d="M89.274,17.711V79.419a10,10,0,0,1-10.059,9.953H18.059A10,10,0,0,1,8,79.419V17.711A10,10,0,0,1,18.059,7.758H79.216a10,10,0,0,1,10.059,9.953Zm0,0" transform="translate(-6.378 -6.184)" fill="#73d7f9"/>
  <path id="Trazado_101550" data-name="Trazado 101550" d="M112.993,17.714V79.422a10,10,0,0,1-10.059,9.953H47.813a10,10,0,0,1-10.059-9.953V17.714A10,10,0,0,1,47.813,7.762h55.122A10,10,0,0,1,112.993,17.714Zm0,0" transform="translate(-30.096 -6.187)" fill="#5fcdff"/>
  <path id="Trazado_101551" data-name="Trazado 101551" d="M160.008,7.957v24.1a2.012,2.012,0,0,1-3.146,1.644l-3.967-2.679a2.017,2.017,0,0,0-2.269,0l-5.979,4.037a2.02,2.02,0,0,1-2.269,0L136.4,31.02a2.017,2.017,0,0,0-2.269,0l-1.078.728L130.162,33.7a2.012,2.012,0,0,1-3.146-1.644V7.758h32.977Zm0,0" transform="translate(-101.252 -6.185)" fill="#35b1fc"/>
  <path id="Trazado_101552" data-name="Trazado 101552" d="M183.727,7.957v24.1a2.012,2.012,0,0,1-3.146,1.644l-3.967-2.679a2.017,2.017,0,0,0-2.269,0l-5.979,4.037a2.02,2.02,0,0,1-2.269,0l-5.979-4.037a2.017,2.017,0,0,0-2.269,0l-1.078.728V7.759h26.942Zm0,0" transform="translate(-124.971 -6.185)" fill="#3193f3"/>
  <path id="Trazado_101553" data-name="Trazado 101553" d="M335.379,7.758h-6.035A10,10,0,0,1,339.4,17.71V79.419a10,10,0,0,1-10.059,9.952h6.035a10,10,0,0,0,10.059-9.952V17.711a10,10,0,0,0-10.059-9.953Zm0,0" transform="translate(-262.541 -6.184)" fill="#30b6ff"/>
  <path id="Trazado_101554" data-name="Trazado 101554" d="M267.458,231.316a28.376,28.376,0,0,1-25.549,28.107,27.973,27.973,0,0,1-3.018.159,28.268,28.268,0,1,1,0-56.532,27.977,27.977,0,0,1,3.018.159,28.376,28.376,0,0,1,25.549,28.106Zm0,0" transform="translate(-167.663 -161.864)" fill="#ffefee"/>
  <path id="Trazado_101555" data-name="Trazado 101555" d="M291.177,231.938a28.376,28.376,0,0,1-25.549,28.107,29.055,29.055,0,0,1-3.018-.478,28.206,28.206,0,0,1,0-55.259,29.027,29.027,0,0,1,3.018-.478,28.377,28.377,0,0,1,25.549,28.107Zm0,0" transform="translate(-191.382 -162.487)" fill="#ffe2e2"/>
  <path id="Trazado_101556" data-name="Trazado 101556" d="M379.728,231.938a28.376,28.376,0,0,1-25.549,28.107,29.056,29.056,0,0,1-3.018-.478,28.206,28.206,0,0,0,0-55.259,29.025,29.025,0,0,1,3.018-.478,28.377,28.377,0,0,1,25.549,28.107Zm0,0" transform="translate(-279.932 -162.487)" fill="#ffcfcf"/>
  <path id="Trazado_101557" data-name="Trazado 101557" d="M265.875,7.758H259.84l.016.2V31.748l2.889,1.951a2.012,2.012,0,0,0,3.146-1.644V7.957Zm0,0" transform="translate(-207.135 -6.184)" fill="#307fed"/>
  <path id="Trazado_101558" data-name="Trazado 101558" d="M314.855,360.415,306.077,360l-6.5,11.257a17.966,17.966,0,0,0,21.7.288Zm0,0" transform="translate(-238.812 -286.976)" fill="#ff4a73"/>
  <path id="Trazado_101559" data-name="Trazado 101559" d="M363.083,263.816l-6.462,11.2,4.235,7.93H373.89a17.729,17.729,0,0,0,.182-2.551A18,18,0,0,0,363.083,263.816Zm0,0" transform="translate(-284.285 -210.304)" fill="#ff4a73"/>
  <path id="Trazado_101560" data-name="Trazado 101560" d="M276.33,263.816a18,18,0,0,0-10.99,16.576,17.487,17.487,0,0,0,.15,2.316h12.945l4.357-7.7Zm0,0" transform="translate(-211.52 -210.304)" fill="#ff4a73"/>
  <path id="Trazado_101561" data-name="Trazado 101561" d="M338.153,324.28a5.408,5.408,0,1,1-5.408-5.409A5.408,5.408,0,0,1,338.153,324.28Zm0,0" transform="translate(-260.94 -254.192)" fill="#f973a3"/>
  <g id="Grupo_54755" data-name="Grupo 54755">
    <path id="Trazado_101562" data-name="Trazado 101562" d="M67.152,285.008H43.623a1.623,1.623,0,0,0,0,3.245H67.152a1.623,1.623,0,1,0,0-3.245Zm0,0" transform="translate(-33.481 -227.198)" fill="#5f266d"/>
    <path id="Trazado_101563" data-name="Trazado 101563" d="M67.152,323.008H43.623a1.623,1.623,0,0,0,0,3.245H67.152a1.623,1.623,0,1,0,0-3.245Zm0,0" transform="translate(-33.481 -257.49)" fill="#5f266d"/>
    <path id="Trazado_101564" data-name="Trazado 101564" d="M53.765,363.008H43.623a1.623,1.623,0,1,0,0,3.245H53.765a1.623,1.623,0,1,0,0-3.245Zm0,0" transform="translate(-33.481 -289.377)" fill="#5f266d"/>
    <path id="Trazado_101565" data-name="Trazado 101565" d="M85.191,43.478V11.765A11.778,11.778,0,0,0,73.427,0H11.765A11.778,11.778,0,0,0,0,11.765V74.644A11.778,11.778,0,0,0,11.765,86.408H45.7a30.419,30.419,0,1,0,39.487-42.93ZM27.586,3.245h30.02V27.151L51.828,23.2a1.623,1.623,0,0,0-1.83,0l-7.4,5.054L35.2,23.2a1.623,1.623,0,0,0-1.831,0l-5.778,3.947ZM11.765,83.163a8.528,8.528,0,0,1-8.519-8.519V11.765a8.528,8.528,0,0,1,8.519-8.519H24.34v26.98a1.624,1.624,0,0,0,2.538,1.34l7.4-5.054,7.4,5.054a1.625,1.625,0,0,0,1.83,0l7.4-5.054,7.4,5.054a1.625,1.625,0,0,0,2.539-1.34V3.245H73.428a8.529,8.529,0,0,1,8.519,8.519V42.111C56.905,33.229,33.129,58.8,44.018,83.163ZM71.8,97.972a27.18,27.18,0,1,1,27.18-27.18A27.211,27.211,0,0,1,71.8,97.972Zm0,0" fill="#5f266d"/>
    <path id="Trazado_101566" data-name="Trazado 101566" d="M333.623,36.253H338.9a.406.406,0,0,1,.406.406V51.94a1.623,1.623,0,0,0,3.245,0V36.659a3.656,3.656,0,0,0-3.651-3.651h-5.274a1.623,1.623,0,0,0,0,3.245Zm0,0" transform="translate(-264.658 -26.313)" fill="#5f266d"/>
    <path id="Trazado_101567" data-name="Trazado 101567" d="M370.287,152.344a1.623,1.623,0,0,0-1.623,1.623v4.057a1.623,1.623,0,1,0,3.245,0v-4.057A1.622,1.622,0,0,0,370.287,152.344Zm0,0" transform="translate(-293.885 -121.443)" fill="#5f266d"/>
    <path id="Trazado_101568" data-name="Trazado 101568" d="M284.551,255.946a1.624,1.624,0,0,0-2.039.683l-5.588,9.682-5.588-9.683a1.625,1.625,0,0,0-2.039-.683,19.6,19.6,0,0,0-11.815,20.6,1.623,1.623,0,0,0,1.608,1.407h10.84l-5.45,9.44a1.624,1.624,0,0,0,.406,2.09,19.572,19.572,0,0,0,23.667.315,1.623,1.623,0,0,0,.441-2.117l-5.482-9.492h11.212a1.623,1.623,0,0,0,1.606-1.388,19.6,19.6,0,0,0-11.78-20.856Zm-7.25,14.3a3.785,3.785,0,1,1-4.163,3.768A3.784,3.784,0,0,1,277.3,270.248Zm-7.373,4.462h-9.35a16.351,16.351,0,0,1,8.7-15.163l4.679,8.106A7.026,7.026,0,0,0,269.928,274.71ZM285.427,288a16.348,16.348,0,0,1-17.4-.251l4.684-8.113a6.984,6.984,0,0,0,8.045.273Zm7.831-13.05h-9.372a7.008,7.008,0,0,0-3.99-7.293l4.679-8.106A16.352,16.352,0,0,1,293.259,274.945Zm0,0" transform="translate(-205.12 -203.928)" fill="#5f266d"/>
  </g>
</svg>
