<svg xmlns="http://www.w3.org/2000/svg" xmlns:xlink="http://www.w3.org/1999/xlink" width="582.171" height="580.774" viewBox="0 0 582.171 580.774">
  <defs>
    <linearGradient id="linear-gradient" y1="0.5" x2="1" y2="0.5" gradientUnits="objectBoundingBox">
      <stop offset="0" stop-color="#821868"/>
      <stop offset="1" stop-color="#a077ec"/>
    </linearGradient>
  </defs>
  <g id="Grupo_54754" data-name="Grupo 54754" transform="translate(-59.342 -55.376)">
    <g id="Grupo_54750" data-name="Grupo 54750" transform="translate(59.342 55.376)">
      <path id="Trazado_101534" data-name="Trazado 101534" d="M413.188,149.366,316.35,55.376V75.361C202.892,88.61,109.836,169.614,78.856,276.724l88.83-46.944,38.768,78.978a150.525,150.525,0,0,1,109.9-100.3v34.9Z" transform="translate(-48.371 -55.376)" fill="url(#linear-gradient)"/>
      <path id="Trazado_101535" data-name="Trazado 101535" d="M482.988,432.962l-101-14.455,14.888-85.7a149.714,149.714,0,0,1-143.022,9.144L269.7,320.141,136.11,339.261l23.1,132.96,16.675-22.952a280.776,280.776,0,0,0,307.106-16.306Z" transform="translate(-16.182 93.478)" fill="#ffdc72"/>
      <path id="Trazado_101536" data-name="Trazado 101536" d="M509.865,281.348a280.079,280.079,0,0,0-16.639-95.336l-48.374,98.546-70.243-37.12A149.882,149.882,0,0,1,335.228,386.6L316.6,360.956l-23.1,132.96,133.589,19.12-14.111-19.421A280.8,280.8,0,0,0,509.865,281.348Z" transform="translate(72.306 18.069)" fill="#5038a1"/>
      <path id="Trazado_101537" data-name="Trazado 101537" d="M514.9,236.144C471.493,136.656,372.189,66.936,256.892,66.936q-6.978,0-13.876.344l20.581,131.2A150.149,150.149,0,0,1,388.856,277.1L353.921,288.45,473.236,351.5,532.7,230.361Z" transform="translate(43.922 -48.877)" fill="#ffb74d"/>
      <path id="Trazado_101538" data-name="Trazado 101538" d="M413.188,149.366,316.35,55.376V75.361C202.892,88.61,109.836,169.614,78.856,276.724l88.83-46.944,38.768,78.978a150.525,150.525,0,0,1,109.9-100.3v34.9Z" transform="translate(-48.371 -55.376)" fill="#8c6df2"/>
      <path id="Trazado_101539" data-name="Trazado 101539" d="M270.634,412.273a149.839,149.839,0,0,1-60.447-120.245c0-4.3.192-8.558.548-12.768l27.387,8.9L178.657,167.015,59.342,230.069l24.666,8.014a281.621,281.621,0,0,0-5.21,53.945c0,93.811,46.162,177.033,116.952,228.181L179.27,425.35Z" transform="translate(-59.342 7.389)" fill="#4f5eeb"/>
      <path id="Trazado_101540" data-name="Trazado 101540" d="M301.667,410.877c1-18.465,4.152-36.892,4.33-55.384a148.926,148.926,0,0,1-52.14-13.546L269.7,320.141,136.11,339.261l23.1,132.96,16.675-22.952A279.618,279.618,0,0,0,317,487.3c.547,0,1.089-.014,1.633-.017C304.06,464.735,300.241,437.271,301.667,410.877Z" transform="translate(-16.182 93.478)" fill="#ffdc72"/>
    </g>
    <g id="Grupo_54751" data-name="Grupo 54751" transform="translate(340.206 114.727)">
      <text id="_01" data-name="01" transform="translate(18 52)" fill="#fff" font-size="55" font-family="BebasNeue-Regular, Bebas Neue" opacity="0.5" style="mix-blend-mode: overlay;isolation: isolate"><tspan x="-22" y="0">01</tspan></text>
    </g>
    <path id="Trazado_107583" data-name="Trazado 107583" d="M-10.8.54c5.832,0,9.018-3.456,9.018-9.5V-28.836c0-6.048-3.186-9.5-9.018-9.5s-9.018,3.456-9.018,9.5V-8.964C-19.818-2.916-16.632.54-10.8.54Zm0-5.4c-1.89,0-3.078-1.026-3.078-3.726V-29.214c0-2.7,1.188-3.726,3.078-3.726s3.078,1.026,3.078,3.726V-8.586C-7.722-5.886-8.91-4.86-10.8-4.86ZM2.106,0H19.278V-5.4H7.992v-.81c0-2.646.918-4.536,4.482-8.316,5.508-5.832,7.344-9.828,7.344-14.31,0-6.048-3.024-9.5-8.856-9.5s-8.856,3.456-8.856,9.5v3.672H7.722v-4.05c0-2.7,1.188-3.726,3.078-3.726s3.078.918,3.078,4.32c0,3.51-1.3,6.372-5.832,11.178C3.618-12.8,2.106-9.5,2.106-4.1Z" transform="translate(562.662 305.336)" fill="#fff" opacity="0.5" style="mix-blend-mode: overlay;isolation: isolate"/>
    <path id="Trazado_107585" data-name="Trazado 107585" d="M-10.8.54c5.832,0,9.018-3.456,9.018-9.5V-28.836c0-6.048-3.186-9.5-9.018-9.5s-9.018,3.456-9.018,9.5V-8.964C-19.818-2.916-16.632.54-10.8.54Zm0-5.4c-1.89,0-3.078-1.026-3.078-3.726V-29.214c0-2.7,1.188-3.726,3.078-3.726s3.078,1.026,3.078,3.726V-8.586C-7.722-5.886-8.91-4.86-10.8-4.86ZM10.638.54c5.832,0,8.856-3.294,8.856-9.342V-12.15c0-3.834-1.188-6.588-4.374-7.776v-.108c2.916-1.08,4.212-3.564,4.212-7.614V-29c0-6.048-3.024-9.342-8.694-9.342s-8.694,3.348-8.694,9.4v2H7.56V-29.43c0-2.484,1.134-3.51,2.862-3.51s2.97,1.08,2.97,3.78v2.754c0,3.024-1.35,4-3.564,4H7.668v5.4h2c2.7,0,3.888,1.3,3.888,4.806v3.078c0,3.348-1.188,4.266-3.078,4.266S7.4-5.886,7.4-8.586v-3.348H1.782v3.078C1.782-2.808,4.806.54,10.638.54Z" transform="translate(500.882 540.215)" fill="#fff" opacity="0.5" style="mix-blend-mode: overlay;isolation: isolate"/>
    <path id="Trazado_107578" data-name="Trazado 107578" d="M-10.4.52c5.616,0,8.684-3.328,8.684-9.152V-27.768c0-5.824-3.068-9.152-8.684-9.152s-8.684,3.328-8.684,9.152V-8.632C-19.084-2.808-16.016.52-10.4.52Zm0-5.2c-1.82,0-2.964-.988-2.964-3.588V-28.132c0-2.6,1.144-3.588,2.964-3.588s2.964.988,2.964,3.588V-8.268C-7.436-5.668-8.58-4.68-10.4-4.68ZM11.7,0h5.72V-6.6h2.7v-5.2h-2.7V-36.4H11.18L.78-11.8v5.2H11.7ZM5.98-11.8,11.6-26h.1v14.2Z" transform="translate(255.122 548.457)" fill="#fff" opacity="0.5" style="mix-blend-mode: overlay;isolation: isolate"/>
    <path id="Trazado_107580" data-name="Trazado 107580" d="M-10.8.54c5.832,0,9.018-3.456,9.018-9.5V-28.836c0-6.048-3.186-9.5-9.018-9.5s-9.018,3.456-9.018,9.5V-8.964C-19.818-2.916-16.632.54-10.8.54Zm0-5.4c-1.89,0-3.078-1.026-3.078-3.726V-29.214c0-2.7,1.188-3.726,3.078-3.726s3.078,1.026,3.078,3.726V-8.586C-7.722-5.886-8.91-4.86-10.8-4.86ZM10.908.54c5.832,0,8.856-3.456,8.856-9.5V-17.5c0-5.562-2.214-8.64-6.588-8.64a5.579,5.579,0,0,0-5.13,2.754H7.938L8.424-32.4H18.792v-5.4H3.132L2.052-16.686H7.668v-.324c0-2.7,1.188-3.726,3.078-3.726s3.078,1.026,3.078,3.726v8.478c0,2.7-1.188,3.672-3.078,3.672S7.668-5.832,7.668-8.532v-3.4H2.052v2.97C2.052-2.916,5.076.54,10.908.54Z" transform="translate(161.034 322.09)" fill="#fff" opacity="0.5" style="mix-blend-mode: overlay;isolation: isolate"/>
    <path id="Trazado_107581" data-name="Trazado 107581" d="M5.4-9.8H1.162V0H3.43V-2.7H5.4C8.022-2.7,9.66-4.06,9.66-6.244S8.022-9.8,5.4-9.8ZM5.278-4.55H3.43v-3.4H5.278c1.386,0,2.086.63,2.086,1.708S6.664-4.55,5.278-4.55ZM13.2-6.538v-.994H11.116V0H13.3V-3.556a1.851,1.851,0,0,1,2-2.1c.168,0,.308.014.49.028V-7.644A3.04,3.04,0,0,0,13.2-6.538Zm11.2,2.8a3.729,3.729,0,0,0-3.92-3.906,3.835,3.835,0,0,0-4.018,3.878c0,2.24,1.694,3.878,4.3,3.878A3.945,3.945,0,0,0,23.87-1.106l-1.162-1.26a2.553,2.553,0,0,1-1.89.728A2.008,2.008,0,0,1,18.662-3.15h5.7C24.374-3.332,24.4-3.57,24.4-3.738ZM20.5-5.992a1.79,1.79,0,0,1,1.848,1.568h-3.71A1.783,1.783,0,0,1,20.5-5.992ZM30.31-7.644a2.926,2.926,0,0,0-2.366.98v-.868H25.858V2.716h2.184V-.8a2.924,2.924,0,0,0,2.268.91,3.658,3.658,0,0,0,3.752-3.878A3.658,3.658,0,0,0,30.31-7.644ZM29.932-1.68a1.9,1.9,0,0,1-1.918-2.086,1.9,1.9,0,0,1,1.918-2.086A1.9,1.9,0,0,1,31.85-3.766,1.9,1.9,0,0,1,29.932-1.68Zm8.5-5.964a5.79,5.79,0,0,0-3.248.91l.784,1.526a3.622,3.622,0,0,1,2.17-.7c1.176,0,1.736.546,1.736,1.484H38.136c-2.3,0-3.234.924-3.234,2.254,0,1.3,1.05,2.282,2.814,2.282a2.472,2.472,0,0,0,2.3-1.05V0h2.044V-4.3C42.056-6.58,40.726-7.644,38.43-7.644Zm-.168,6.286c-.77,0-1.232-.364-1.232-.91,0-.5.322-.882,1.344-.882h1.5v.77A1.609,1.609,0,0,1,38.262-1.358Zm7.854-5.18v-.994H44.03V0h2.184V-3.556a1.851,1.851,0,0,1,2-2.1c.168,0,.308.014.49.028V-7.644A3.04,3.04,0,0,0,46.116-6.538ZM53-7.644a5.79,5.79,0,0,0-3.248.91l.784,1.526a3.622,3.622,0,0,1,2.17-.7c1.176,0,1.736.546,1.736,1.484H52.71c-2.3,0-3.234.924-3.234,2.254,0,1.3,1.05,2.282,2.814,2.282a2.472,2.472,0,0,0,2.3-1.05V0H56.63V-4.3C56.63-6.58,55.3-7.644,53-7.644Zm-.168,6.286c-.77,0-1.232-.364-1.232-.91,0-.5.322-.882,1.344-.882h1.5v.77A1.609,1.609,0,0,1,52.836-1.358ZM62.328.112a3.494,3.494,0,0,0,3.374-1.9l-1.694-.924A1.853,1.853,0,0,1,62.314-1.68,1.927,1.927,0,0,1,60.34-3.766a1.927,1.927,0,0,1,1.974-2.086,1.878,1.878,0,0,1,1.694,1.036l1.694-.91a3.46,3.46,0,0,0-3.374-1.918,3.894,3.894,0,0,0-4.2,3.878A3.894,3.894,0,0,0,62.328.112Zm5.726-8.694a1.256,1.256,0,0,0,1.358-1.26,1.226,1.226,0,0,0-1.358-1.176A1.248,1.248,0,0,0,66.7-9.8,1.248,1.248,0,0,0,68.054-8.582ZM66.962,0h2.184V-7.532H66.962Zm6.5-8.5h1.708L77.7-10.514H75.348Zm1.3,8.61a3.866,3.866,0,0,0,4.13-3.878,3.866,3.866,0,0,0-4.13-3.878,3.878,3.878,0,0,0-4.144,3.878A3.878,3.878,0,0,0,74.76.112Zm0-1.792a1.911,1.911,0,0,1-1.932-2.086A1.911,1.911,0,0,1,74.76-5.852a1.9,1.9,0,0,1,1.918,2.086A1.9,1.9,0,0,1,74.76-1.68ZM84.924-7.644a3.3,3.3,0,0,0-2.492.994v-.882H80.346V0H82.53V-3.724c0-1.386.756-2.03,1.806-2.03.966,0,1.526.56,1.526,1.778V0h2.184V-4.312C88.046-6.608,86.7-7.644,84.924-7.644ZM6.5,6.612v3.654a2.894,2.894,0,0,0-2.254-.91A3.661,3.661,0,0,0,.476,13.234a3.661,3.661,0,0,0,3.766,3.878,2.9,2.9,0,0,0,2.352-.98V17H8.68V6.612ZM4.62,15.32a1.911,1.911,0,0,1-1.932-2.086A1.911,1.911,0,0,1,4.62,11.148a1.908,1.908,0,0,1,1.918,2.086A1.908,1.908,0,0,1,4.62,15.32Zm13.454-2.058a3.729,3.729,0,0,0-3.92-3.906,3.835,3.835,0,0,0-4.018,3.878c0,2.24,1.694,3.878,4.3,3.878a3.945,3.945,0,0,0,3.108-1.218l-1.162-1.26a2.553,2.553,0,0,1-1.89.728,2.008,2.008,0,0,1-2.156-1.512h5.7C18.046,13.668,18.074,13.43,18.074,13.262Zm-3.906-2.254a1.79,1.79,0,0,1,1.848,1.568h-3.71A1.783,1.783,0,0,1,14.168,11.008ZM19.53,17h2.184V6.612H19.53ZM33.936,6.486H31.584L29.694,8.5H31.4Zm-3.192,2.87a5.79,5.79,0,0,0-3.248.91l.784,1.526a3.622,3.622,0,0,1,2.17-.7c1.176,0,1.736.546,1.736,1.484H30.45c-2.3,0-3.234.924-3.234,2.254,0,1.3,1.05,2.282,2.814,2.282a2.472,2.472,0,0,0,2.3-1.05V17H34.37V12.7C34.37,10.42,33.04,9.356,30.744,9.356Zm-.168,6.286c-.77,0-1.232-.364-1.232-.91,0-.5.322-.882,1.344-.882h1.5v.77A1.609,1.609,0,0,1,30.576,15.642Zm7.854-5.18V9.468H36.344V17h2.184V13.444a1.851,1.851,0,0,1,2-2.1c.168,0,.308.014.49.028V9.356A3.04,3.04,0,0,0,38.43,10.462Zm11.2,2.8a3.729,3.729,0,0,0-3.92-3.906,3.835,3.835,0,0,0-4.018,3.878c0,2.24,1.694,3.878,4.3,3.878A3.945,3.945,0,0,0,49.1,15.894l-1.162-1.26a2.553,2.553,0,0,1-1.89.728A2.008,2.008,0,0,1,43.89,13.85h5.7C49.6,13.668,49.63,13.43,49.63,13.262Zm-3.906-2.254a1.79,1.79,0,0,1,1.848,1.568h-3.71A1.783,1.783,0,0,1,45.724,11.008Zm8.19-1.652a5.79,5.79,0,0,0-3.248.91l.784,1.526a3.622,3.622,0,0,1,2.17-.7c1.176,0,1.736.546,1.736,1.484H53.62c-2.3,0-3.234.924-3.234,2.254,0,1.3,1.05,2.282,2.814,2.282a2.472,2.472,0,0,0,2.3-1.05V17H57.54V12.7C57.54,10.42,56.21,9.356,53.914,9.356Zm-.168,6.286c-.77,0-1.232-.364-1.232-.91,0-.5.322-.882,1.344-.882h1.5v.77A1.609,1.609,0,0,1,53.746,15.642Z" transform="translate(191.302 195.792)" fill="#fff"/>
    <path id="Trazado_107582" data-name="Trazado 107582" d="M8.484,0h2.38L6.482-9.8H4.242L-.126,0H2.2l.868-2.1h4.55ZM3.794-3.822,5.348-7.574,6.9-3.822ZM15.932-1.9a1.472,1.472,0,0,1-.882.28.878.878,0,0,1-.938-.994V-5.684h1.876v-1.68H14.112V-9.2H11.928v1.834H10.766v1.68h1.162V-2.59a2.483,2.483,0,0,0,2.814,2.7A3.121,3.121,0,0,0,16.52-.364Zm8.96-1.834a3.729,3.729,0,0,0-3.92-3.906,3.835,3.835,0,0,0-4.018,3.878c0,2.24,1.694,3.878,4.3,3.878A3.945,3.945,0,0,0,24.36-1.106L23.2-2.366a2.553,2.553,0,0,1-1.89.728A2.008,2.008,0,0,1,19.152-3.15h5.7C24.864-3.332,24.892-3.57,24.892-3.738ZM20.986-5.992a1.79,1.79,0,0,1,1.848,1.568h-3.71A1.783,1.783,0,0,1,20.986-5.992Zm9.94-1.652a3.3,3.3,0,0,0-2.492.994v-.882H26.348V0h2.184V-3.724c0-1.386.756-2.03,1.806-2.03.966,0,1.526.56,1.526,1.778V0h2.184V-4.312C34.048-6.608,32.7-7.644,30.926-7.644ZM39.746.112a3.494,3.494,0,0,0,3.374-1.9l-1.694-.924A1.853,1.853,0,0,1,39.732-1.68a1.927,1.927,0,0,1-1.974-2.086,1.927,1.927,0,0,1,1.974-2.086,1.878,1.878,0,0,1,1.694,1.036l1.694-.91a3.46,3.46,0,0,0-3.374-1.918,3.894,3.894,0,0,0-4.2,3.878A3.894,3.894,0,0,0,39.746.112Zm5.726-8.694a1.256,1.256,0,0,0,1.358-1.26,1.226,1.226,0,0,0-1.358-1.176A1.248,1.248,0,0,0,44.114-9.8,1.248,1.248,0,0,0,45.472-8.582ZM44.38,0h2.184V-7.532H44.38Zm6.5-8.5h1.708l2.534-2.016H52.766Zm1.3,8.61a3.866,3.866,0,0,0,4.13-3.878,3.866,3.866,0,0,0-4.13-3.878,3.878,3.878,0,0,0-4.144,3.878A3.878,3.878,0,0,0,52.178.112Zm0-1.792a1.911,1.911,0,0,1-1.932-2.086,1.911,1.911,0,0,1,1.932-2.086A1.9,1.9,0,0,1,54.1-3.766,1.9,1.9,0,0,1,52.178-1.68ZM62.342-7.644a3.3,3.3,0,0,0-2.492.994v-.882H57.764V0h2.184V-3.724c0-1.386.756-2.03,1.806-2.03.966,0,1.526.56,1.526,1.778V0h2.184V-4.312C65.464-6.608,64.12-7.644,62.342-7.644ZM78.778-3.738a3.729,3.729,0,0,0-3.92-3.906A3.835,3.835,0,0,0,70.84-3.766c0,2.24,1.694,3.878,4.3,3.878a3.945,3.945,0,0,0,3.108-1.218l-1.162-1.26a2.553,2.553,0,0,1-1.89.728A2.008,2.008,0,0,1,73.038-3.15h5.7C78.75-3.332,78.778-3.57,78.778-3.738ZM74.872-5.992A1.79,1.79,0,0,1,76.72-4.424H73.01A1.783,1.783,0,0,1,74.872-5.992Zm9.94-1.652a3.3,3.3,0,0,0-2.492.994v-.882H80.234V0h2.184V-3.724c0-1.386.756-2.03,1.806-2.03.966,0,1.526.56,1.526,1.778V0h2.184V-4.312C87.934-6.608,86.59-7.644,84.812-7.644ZM5.46,5.356a2.924,2.924,0,0,0-2.268.91V2.612H1.008V13H3.094v-.868a2.926,2.926,0,0,0,2.366.98A3.658,3.658,0,0,0,9.212,9.234,3.658,3.658,0,0,0,5.46,5.356ZM5.082,11.32A1.9,1.9,0,0,1,3.164,9.234,1.9,1.9,0,0,1,5.082,7.148,1.9,1.9,0,0,1,7,9.234,1.9,1.9,0,0,1,5.082,11.32Zm8.5-5.964a5.79,5.79,0,0,0-3.248.91l.784,1.526a3.622,3.622,0,0,1,2.17-.7c1.176,0,1.736.546,1.736,1.484H13.286c-2.3,0-3.234.924-3.234,2.254,0,1.3,1.05,2.282,2.814,2.282a2.472,2.472,0,0,0,2.3-1.05V13h2.044V8.7C17.206,6.42,15.876,5.356,13.58,5.356Zm-.168,6.286c-.77,0-1.232-.364-1.232-.91,0-.5.322-.882,1.344-.882h1.5v.77A1.609,1.609,0,0,1,13.412,11.642ZM23.758,5.356a3.3,3.3,0,0,0-2.492.994V5.468H19.18V13h2.184V9.276c0-1.386.756-2.03,1.806-2.03.966,0,1.526.56,1.526,1.778V13H26.88V8.688C26.88,6.392,25.536,5.356,23.758,5.356ZM34.426,2.612V6.266a2.894,2.894,0,0,0-2.254-.91,3.661,3.661,0,0,0-3.766,3.878,3.661,3.661,0,0,0,3.766,3.878,2.9,2.9,0,0,0,2.352-.98V13H36.61V2.612ZM32.55,11.32a1.911,1.911,0,0,1-1.932-2.086,1.931,1.931,0,1,1,3.85,0A1.908,1.908,0,0,1,32.55,11.32Zm9.114-5.964a5.79,5.79,0,0,0-3.248.91L39.2,7.792a3.622,3.622,0,0,1,2.17-.7c1.176,0,1.736.546,1.736,1.484H41.37c-2.3,0-3.234.924-3.234,2.254,0,1.3,1.05,2.282,2.814,2.282a2.472,2.472,0,0,0,2.3-1.05V13H45.29V8.7C45.29,6.42,43.96,5.356,41.664,5.356ZM41.5,11.642c-.77,0-1.232-.364-1.232-.91,0-.5.322-.882,1.344-.882h1.5v.77A1.609,1.609,0,0,1,41.5,11.642Zm8.3,1.47c2.254,0,3.556-.994,3.556-2.394,0-2.968-4.55-1.722-4.55-3.01,0-.392.42-.7,1.4-.7a4.325,4.325,0,0,1,2.17.56L53.1,6.014a6.193,6.193,0,0,0-2.9-.658c-2.2,0-3.486,1.008-3.486,2.436,0,3.01,4.55,1.75,4.55,2.982,0,.42-.378.686-1.386.686a5.153,5.153,0,0,1-2.618-.728L46.536,12.3A6.466,6.466,0,0,0,49.8,13.112Zm14.35-10.5V6.266a2.894,2.894,0,0,0-2.254-.91,3.661,3.661,0,0,0-3.766,3.878,3.661,3.661,0,0,0,3.766,3.878,2.9,2.9,0,0,0,2.352-.98V13h2.086V2.612ZM62.272,11.32A1.911,1.911,0,0,1,60.34,9.234a1.931,1.931,0,1,1,3.85,0A1.908,1.908,0,0,1,62.272,11.32ZM75.726,9.262a3.729,3.729,0,0,0-3.92-3.906,3.835,3.835,0,0,0-4.018,3.878c0,2.24,1.694,3.878,4.3,3.878a3.945,3.945,0,0,0,3.108-1.218l-1.162-1.26a2.553,2.553,0,0,1-1.89.728A2.008,2.008,0,0,1,69.986,9.85h5.7C75.7,9.668,75.726,9.43,75.726,9.262ZM71.82,7.008a1.79,1.79,0,0,1,1.848,1.568h-3.71A1.783,1.783,0,0,1,71.82,7.008ZM8.386,22.262a3.729,3.729,0,0,0-3.92-3.906A3.835,3.835,0,0,0,.448,22.234c0,2.24,1.694,3.878,4.3,3.878a3.945,3.945,0,0,0,3.108-1.218l-1.162-1.26a2.553,2.553,0,0,1-1.89.728A2.008,2.008,0,0,1,2.646,22.85h5.7C8.358,22.668,8.386,22.43,8.386,22.262ZM4.48,20.008a1.79,1.79,0,0,1,1.848,1.568H2.618A1.783,1.783,0,0,1,4.48,20.008Zm10.92-1.54v.868a2.9,2.9,0,0,0-2.352-.98,3.661,3.661,0,0,0-3.766,3.878,3.661,3.661,0,0,0,3.766,3.878A2.894,2.894,0,0,0,15.3,25.2v3.514h2.184V18.468ZM13.426,24.32a1.911,1.911,0,0,1-1.932-2.086,1.931,1.931,0,1,1,3.85,0A1.908,1.908,0,0,1,13.426,24.32Zm11.48-5.852v3.724c0,1.386-.728,2.03-1.736,2.03-.966,0-1.526-.56-1.526-1.82V18.468H19.46v4.256c0,2.324,1.33,3.388,3.22,3.388A3.047,3.047,0,0,0,25.018,25.1V26H27.09V18.468Zm5.306-1.05a1.256,1.256,0,0,0,1.358-1.26,1.226,1.226,0,0,0-1.358-1.176,1.225,1.225,0,1,0,0,2.436ZM29.12,26H31.3V18.468H29.12Zm8.666-7.644a2.926,2.926,0,0,0-2.366.98v-.868H33.334V28.716h2.184V25.2a2.924,2.924,0,0,0,2.268.91,3.658,3.658,0,0,0,3.752-3.878A3.658,3.658,0,0,0,37.786,18.356Zm-.378,5.964a1.9,1.9,0,0,1-1.918-2.086,1.925,1.925,0,1,1,3.836,0A1.9,1.9,0,0,1,37.408,24.32Zm8.5-5.964a5.79,5.79,0,0,0-3.248.91l.784,1.526a3.622,3.622,0,0,1,2.17-.7c1.176,0,1.736.546,1.736,1.484H45.612c-2.3,0-3.234.924-3.234,2.254,0,1.3,1.05,2.282,2.814,2.282a2.472,2.472,0,0,0,2.3-1.05V26h2.044V21.7C49.532,19.42,48.2,18.356,45.906,18.356Zm-.168,6.286c-.77,0-1.232-.364-1.232-.91,0-.5.322-.882,1.344-.882h1.5v.77A1.609,1.609,0,0,1,45.738,24.642ZM52.7,17.418a1.256,1.256,0,0,0,1.358-1.26A1.226,1.226,0,0,0,52.7,14.982a1.225,1.225,0,1,0,0,2.436Zm-1.75,11.41a2.613,2.613,0,0,0,2.842-2.842V18.468H51.6V26c0,.742-.35,1.092-.9,1.092a1.6,1.6,0,0,1-.924-.266L49.2,28.408A3.181,3.181,0,0,0,50.946,28.828Zm12.236-6.566a3.729,3.729,0,0,0-3.92-3.906,3.835,3.835,0,0,0-4.018,3.878c0,2.24,1.694,3.878,4.3,3.878a3.945,3.945,0,0,0,3.108-1.218l-1.162-1.26a2.553,2.553,0,0,1-1.89.728,2.008,2.008,0,0,1-2.156-1.512h5.7C63.154,22.668,63.182,22.43,63.182,22.262Zm-3.906-2.254a1.79,1.79,0,0,1,1.848,1.568h-3.71A1.783,1.783,0,0,1,59.276,20.008Z" transform="translate(450.449 181.131)" fill="#fff"/>
    <path id="Trazado_107584" data-name="Trazado 107584" d="M1.162,0H5.614c3.206,0,5.4-1.932,5.4-4.9s-2.2-4.9-5.4-4.9H1.162ZM3.43-1.862V-7.938H5.5A2.925,2.925,0,0,1,8.722-4.9,2.925,2.925,0,0,1,5.5-1.862ZM16.156.112a3.866,3.866,0,0,0,4.13-3.878,3.866,3.866,0,0,0-4.13-3.878,3.878,3.878,0,0,0-4.144,3.878A3.878,3.878,0,0,0,16.156.112Zm0-1.792a1.911,1.911,0,0,1-1.932-2.086,1.911,1.911,0,0,1,1.932-2.086,1.9,1.9,0,0,1,1.918,2.086A1.9,1.9,0,0,1,16.156-1.68ZM25.382.112a3.494,3.494,0,0,0,3.374-1.9l-1.694-.924A1.853,1.853,0,0,1,25.368-1.68a1.927,1.927,0,0,1-1.974-2.086,1.927,1.927,0,0,1,1.974-2.086,1.878,1.878,0,0,1,1.694,1.036l1.694-.91a3.46,3.46,0,0,0-3.374-1.918,3.894,3.894,0,0,0-4.2,3.878A3.894,3.894,0,0,0,25.382.112ZM35.42-7.532v3.724c0,1.386-.728,2.03-1.736,2.03-.966,0-1.526-.56-1.526-1.82V-7.532H29.974v4.256c0,2.324,1.33,3.388,3.22,3.388A3.047,3.047,0,0,0,35.532-.9V0H37.6V-7.532Zm13.86-.112a3.387,3.387,0,0,0-2.716,1.232,2.811,2.811,0,0,0-2.478-1.232,3.05,3.05,0,0,0-2.366.98v-.868H39.634V0h2.184V-3.78c0-1.344.686-1.974,1.652-1.974.91,0,1.428.56,1.428,1.778V0h2.184V-3.78c0-1.344.686-1.974,1.666-1.974.882,0,1.428.56,1.428,1.778V0H52.36V-4.312C52.36-6.608,51.072-7.644,49.28-7.644Zm12.5,3.906a3.729,3.729,0,0,0-3.92-3.906,3.835,3.835,0,0,0-4.018,3.878c0,2.24,1.694,3.878,4.3,3.878A3.945,3.945,0,0,0,61.25-1.106l-1.162-1.26a2.553,2.553,0,0,1-1.89.728A2.008,2.008,0,0,1,56.042-3.15h5.7C61.754-3.332,61.782-3.57,61.782-3.738ZM57.876-5.992a1.79,1.79,0,0,1,1.848,1.568h-3.71A1.783,1.783,0,0,1,57.876-5.992Zm9.94-1.652a3.3,3.3,0,0,0-2.492.994v-.882H63.238V0h2.184V-3.724c0-1.386.756-2.03,1.806-2.03.966,0,1.526.56,1.526,1.778V0h2.184V-4.312C70.938-6.608,69.594-7.644,67.816-7.644ZM77.182-1.9a1.472,1.472,0,0,1-.882.28.878.878,0,0,1-.938-.994V-5.684h1.876v-1.68H75.362V-9.2H73.178v1.834H72.016v1.68h1.162V-2.59a2.483,2.483,0,0,0,2.814,2.7A3.121,3.121,0,0,0,77.77-.364Zm4.858-5.74a5.79,5.79,0,0,0-3.248.91l.784,1.526a3.622,3.622,0,0,1,2.17-.7c1.176,0,1.736.546,1.736,1.484H81.746c-2.3,0-3.234.924-3.234,2.254,0,1.3,1.05,2.282,2.814,2.282a2.472,2.472,0,0,0,2.3-1.05V0h2.044V-4.3C85.666-6.58,84.336-7.644,82.04-7.644Zm-.168,6.286c-.77,0-1.232-.364-1.232-.91,0-.5.322-.882,1.344-.882h1.5v.77A1.609,1.609,0,0,1,81.872-1.358ZM91.364.112a3.494,3.494,0,0,0,3.374-1.9l-1.694-.924A1.853,1.853,0,0,1,91.35-1.68a1.927,1.927,0,0,1-1.974-2.086A1.927,1.927,0,0,1,91.35-5.852a1.878,1.878,0,0,1,1.694,1.036l1.694-.91a3.46,3.46,0,0,0-3.374-1.918,3.894,3.894,0,0,0-4.2,3.878A3.894,3.894,0,0,0,91.364.112ZM97.09-8.582a1.256,1.256,0,0,0,1.358-1.26,1.226,1.226,0,0,0-1.358-1.176A1.248,1.248,0,0,0,95.732-9.8,1.248,1.248,0,0,0,97.09-8.582ZM96,0h2.184V-7.532H96Zm6.5-8.5H104.2l2.534-2.016h-2.352Zm1.3,8.61a3.866,3.866,0,0,0,4.13-3.878,3.866,3.866,0,0,0-4.13-3.878,3.878,3.878,0,0,0-4.144,3.878A3.878,3.878,0,0,0,103.8.112Zm0-1.792a1.911,1.911,0,0,1-1.932-2.086A1.911,1.911,0,0,1,103.8-5.852a1.9,1.9,0,0,1,1.918,2.086A1.9,1.9,0,0,1,103.8-1.68ZM113.96-7.644a3.3,3.3,0,0,0-2.492.994v-.882h-2.086V0h2.184V-3.724c0-1.386.756-2.03,1.806-2.03.966,0,1.526.56,1.526,1.778V0h2.184V-4.312C117.082-6.608,115.738-7.644,113.96-7.644ZM8.386,9.262a3.729,3.729,0,0,0-3.92-3.906A3.835,3.835,0,0,0,.448,9.234c0,2.24,1.694,3.878,4.3,3.878a3.945,3.945,0,0,0,3.108-1.218l-1.162-1.26a2.553,2.553,0,0,1-1.89.728A2.008,2.008,0,0,1,2.646,9.85h5.7C8.358,9.668,8.386,9.43,8.386,9.262ZM4.48,7.008A1.79,1.79,0,0,1,6.328,8.576H2.618A1.783,1.783,0,0,1,4.48,7.008ZM14.9,4.418a1.256,1.256,0,0,0,1.358-1.26A1.226,1.226,0,0,0,14.9,1.982,1.248,1.248,0,0,0,13.538,3.2,1.248,1.248,0,0,0,14.9,4.418ZM13.8,13h2.184V5.468H13.8ZM22.6,5.356A3.3,3.3,0,0,0,20.1,6.35V5.468H18.018V13H20.2V9.276c0-1.386.756-2.03,1.806-2.03.966,0,1.526.56,1.526,1.778V13h2.184V8.688C25.718,6.392,24.374,5.356,22.6,5.356Zm10.878.112v.966a3.023,3.023,0,0,0-2.492-1.078A3.586,3.586,0,0,0,27.216,9a3.586,3.586,0,0,0,3.766,3.64,3.1,3.1,0,0,0,2.38-.938v.322c0,1.358-.672,2.058-2.212,2.058a4.5,4.5,0,0,1-2.66-.854l-.868,1.568a6.2,6.2,0,0,0,3.7,1.036c2.716,0,4.228-1.288,4.228-4.088V5.468Zm-2.058,5.376A1.852,1.852,0,1,1,33.39,9,1.841,1.841,0,0,1,31.416,10.844Zm8.246-4.382V5.468H37.576V13H39.76V9.444a1.851,1.851,0,0,1,2-2.1c.168,0,.308.014.49.028V5.356A3.04,3.04,0,0,0,39.662,6.462Zm11.2,2.8a3.729,3.729,0,0,0-3.92-3.906,3.835,3.835,0,0,0-4.018,3.878c0,2.24,1.694,3.878,4.3,3.878a3.945,3.945,0,0,0,3.108-1.218l-1.162-1.26a2.553,2.553,0,0,1-1.89.728A2.008,2.008,0,0,1,45.122,9.85h5.7C50.834,9.668,50.862,9.43,50.862,9.262ZM46.956,7.008A1.79,1.79,0,0,1,48.8,8.576h-3.71A1.783,1.783,0,0,1,46.956,7.008Zm7.9,6.1c2.254,0,3.556-.994,3.556-2.394,0-2.968-4.55-1.722-4.55-3.01,0-.392.42-.7,1.4-.7a4.325,4.325,0,0,1,2.17.56l.728-1.554a6.193,6.193,0,0,0-2.9-.658c-2.2,0-3.486,1.008-3.486,2.436,0,3.01,4.55,1.75,4.55,2.982,0,.42-.378.686-1.386.686a5.153,5.153,0,0,1-2.618-.728L51.59,12.3A6.466,6.466,0,0,0,54.852,13.112Zm8.484,0a3.887,3.887,0,1,0-4.144-3.878A3.866,3.866,0,0,0,63.336,13.112Zm0-1.792A1.911,1.911,0,0,1,61.4,9.234a1.931,1.931,0,1,1,3.85,0A1.9,1.9,0,0,1,63.336,11.32ZM78.372,2.612V6.266a2.894,2.894,0,0,0-2.254-.91,3.661,3.661,0,0,0-3.766,3.878,3.661,3.661,0,0,0,3.766,3.878,2.9,2.9,0,0,0,2.352-.98V13h2.086V2.612ZM76.5,11.32a1.911,1.911,0,0,1-1.932-2.086,1.931,1.931,0,1,1,3.85,0A1.908,1.908,0,0,1,76.5,11.32ZM89.95,9.262a3.729,3.729,0,0,0-3.92-3.906,3.835,3.835,0,0,0-4.018,3.878c0,2.24,1.694,3.878,4.3,3.878a3.945,3.945,0,0,0,3.108-1.218l-1.162-1.26a2.553,2.553,0,0,1-1.89.728A2.008,2.008,0,0,1,84.21,9.85h5.7C89.922,9.668,89.95,9.43,89.95,9.262ZM86.044,7.008a1.79,1.79,0,0,1,1.848,1.568h-3.71A1.783,1.783,0,0,1,86.044,7.008ZM2.1,17.418a1.256,1.256,0,0,0,1.358-1.26A1.226,1.226,0,0,0,2.1,14.982a1.225,1.225,0,1,0,0,2.436ZM1.008,26H3.192V18.468H1.008ZM9.8,18.356a3.3,3.3,0,0,0-2.492.994v-.882H5.222V26H7.406V22.276c0-1.386.756-2.03,1.806-2.03.966,0,1.526.56,1.526,1.778V26h2.184V21.688C12.922,19.392,11.578,18.356,9.8,18.356Zm7.49-.042c0-.742.35-1.092.994-1.092a1.529,1.529,0,0,1,.882.266l.574-1.582a3.1,3.1,0,0,0-1.666-.406,2.629,2.629,0,0,0-2.912,2.8v.336H14v1.68h1.162V26h2.184V20.316h1.876v-1.68H17.29Zm6.51,7.8a3.886,3.886,0,1,0,0-7.756,3.887,3.887,0,1,0,0,7.756Zm0-1.792a1.911,1.911,0,0,1-1.932-2.086,1.931,1.931,0,1,1,3.85,0A1.9,1.9,0,0,1,23.8,24.32Zm7.672-4.858v-.994H29.386V26H31.57V22.444a1.851,1.851,0,0,1,2-2.1c.168,0,.308.014.49.028V18.356A3.04,3.04,0,0,0,31.472,19.462ZM45.01,18.356a3.387,3.387,0,0,0-2.716,1.232,2.811,2.811,0,0,0-2.478-1.232,3.05,3.05,0,0,0-2.366.98v-.868H35.364V26h2.184V22.22c0-1.344.686-1.974,1.652-1.974.91,0,1.428.56,1.428,1.778V26h2.184V22.22c0-1.344.686-1.974,1.666-1.974.882,0,1.428.56,1.428,1.778V26H48.09V21.688C48.09,19.392,46.8,18.356,45.01,18.356Zm8.078,0a5.79,5.79,0,0,0-3.248.91l.784,1.526a3.622,3.622,0,0,1,2.17-.7c1.176,0,1.736.546,1.736,1.484H52.794c-2.3,0-3.234.924-3.234,2.254,0,1.3,1.05,2.282,2.814,2.282a2.472,2.472,0,0,0,2.3-1.05V26h2.044V21.7C56.714,19.42,55.384,18.356,53.088,18.356Zm-.168,6.286c-.77,0-1.232-.364-1.232-.91,0-.5.322-.882,1.344-.882h1.5v.77A1.609,1.609,0,0,1,52.92,24.642Zm9.492,1.47a3.494,3.494,0,0,0,3.374-1.9l-1.694-.924A1.853,1.853,0,0,1,62.4,24.32a1.927,1.927,0,0,1-1.974-2.086A1.927,1.927,0,0,1,62.4,20.148a1.878,1.878,0,0,1,1.694,1.036l1.694-.91a3.46,3.46,0,0,0-3.374-1.918,3.89,3.89,0,1,0,0,7.756Zm5.726-8.694a1.256,1.256,0,0,0,1.358-1.26,1.226,1.226,0,0,0-1.358-1.176,1.225,1.225,0,1,0,0,2.436ZM67.046,26H69.23V18.468H67.046Zm6.5-8.5H75.25l2.534-2.016H75.432Zm1.3,8.61A3.887,3.887,0,1,0,70.7,22.234,3.866,3.866,0,0,0,74.844,26.112Zm0-1.792a1.911,1.911,0,0,1-1.932-2.086,1.931,1.931,0,1,1,3.85,0A1.9,1.9,0,0,1,74.844,24.32Zm10.164-5.964a3.3,3.3,0,0,0-2.492.994v-.882H80.43V26h2.184V22.276c0-1.386.756-2.03,1.806-2.03.966,0,1.526.56,1.526,1.778V26H88.13V21.688C88.13,19.392,86.786,18.356,85.008,18.356Z" transform="translate(507.662 426.095)" fill="#fff"/>
    <path id="Trazado_107586" data-name="Trazado 107586" d="M4.382.168c2.8,0,4.158-1.4,4.158-3.038,0-3.6-5.7-2.352-5.7-4.158,0-.616.518-1.12,1.862-1.12a5.535,5.535,0,0,1,2.716.77L8.12-9.1a6.574,6.574,0,0,0-3.4-.868c-2.786,0-4.13,1.386-4.13,3.052,0,3.64,5.7,2.38,5.7,4.214,0,.6-.546,1.05-1.89,1.05A5.764,5.764,0,0,1,1.162-2.674L.392-.966A6.985,6.985,0,0,0,4.382.168ZM17.318-3.738A3.729,3.729,0,0,0,13.4-7.644,3.835,3.835,0,0,0,9.38-3.766c0,2.24,1.694,3.878,4.3,3.878a3.945,3.945,0,0,0,3.108-1.218l-1.162-1.26a2.553,2.553,0,0,1-1.89.728A2.008,2.008,0,0,1,11.578-3.15h5.7C17.29-3.332,17.318-3.57,17.318-3.738ZM13.412-5.992A1.79,1.79,0,0,1,15.26-4.424H11.55A1.783,1.783,0,0,1,13.412-5.992Zm11.06-1.54v.966A3.023,3.023,0,0,0,21.98-7.644,3.586,3.586,0,0,0,18.214-4,3.586,3.586,0,0,0,21.98-.364,3.1,3.1,0,0,0,24.36-1.3V-.98c0,1.358-.672,2.058-2.212,2.058a4.5,4.5,0,0,1-2.66-.854L18.62,1.792a6.2,6.2,0,0,0,3.7,1.036c2.716,0,4.228-1.288,4.228-4.088V-7.532ZM22.414-2.156A1.841,1.841,0,0,1,20.426-4a1.841,1.841,0,0,1,1.988-1.848A1.829,1.829,0,0,1,24.388-4,1.829,1.829,0,0,1,22.414-2.156ZM33.978-7.532v3.724c0,1.386-.728,2.03-1.736,2.03-.966,0-1.526-.56-1.526-1.82V-7.532H28.532v4.256c0,2.324,1.33,3.388,3.22,3.388A3.047,3.047,0,0,0,34.09-.9V0h2.072V-7.532Zm5.306-1.05a1.256,1.256,0,0,0,1.358-1.26,1.226,1.226,0,0,0-1.358-1.176A1.248,1.248,0,0,0,37.926-9.8,1.248,1.248,0,0,0,39.284-8.582ZM38.192,0h2.184V-7.532H38.192Zm13.86-7.644a3.387,3.387,0,0,0-2.716,1.232,2.811,2.811,0,0,0-2.478-1.232,3.05,3.05,0,0,0-2.366.98v-.868H42.406V0H44.59V-3.78c0-1.344.686-1.974,1.652-1.974.91,0,1.428.56,1.428,1.778V0h2.184V-3.78c0-1.344.686-1.974,1.666-1.974.882,0,1.428.56,1.428,1.778V0h2.184V-4.312C55.132-6.608,53.844-7.644,52.052-7.644Zm6.132-.938a1.256,1.256,0,0,0,1.358-1.26,1.226,1.226,0,0,0-1.358-1.176A1.248,1.248,0,0,0,56.826-9.8,1.248,1.248,0,0,0,58.184-8.582ZM57.092,0h2.184V-7.532H57.092ZM68.684-3.738a3.729,3.729,0,0,0-3.92-3.906,3.835,3.835,0,0,0-4.018,3.878c0,2.24,1.694,3.878,4.3,3.878a3.945,3.945,0,0,0,3.108-1.218L66.99-2.366a2.553,2.553,0,0,1-1.89.728A2.008,2.008,0,0,1,62.944-3.15h5.7C68.656-3.332,68.684-3.57,68.684-3.738ZM64.778-5.992a1.79,1.79,0,0,1,1.848,1.568h-3.71A1.783,1.783,0,0,1,64.778-5.992Zm9.94-1.652a3.3,3.3,0,0,0-2.492.994v-.882H70.14V0h2.184V-3.724c0-1.386.756-2.03,1.806-2.03.966,0,1.526.56,1.526,1.778V0H77.84V-4.312C77.84-6.608,76.5-7.644,74.718-7.644ZM84.084-1.9a1.472,1.472,0,0,1-.882.28.878.878,0,0,1-.938-.994V-5.684H84.14v-1.68H82.264V-9.2H80.08v1.834H78.918v1.68H80.08V-2.59a2.483,2.483,0,0,0,2.814,2.7,3.121,3.121,0,0,0,1.778-.476ZM89.25.112a3.866,3.866,0,0,0,4.13-3.878,3.866,3.866,0,0,0-4.13-3.878,3.878,3.878,0,0,0-4.144,3.878A3.878,3.878,0,0,0,89.25.112Zm0-1.792a1.911,1.911,0,0,1-1.932-2.086A1.911,1.911,0,0,1,89.25-5.852a1.9,1.9,0,0,1,1.918,2.086A1.9,1.9,0,0,1,89.25-1.68Z" transform="translate(301.754 578.078)" fill="#12263f"/>
    <path id="Trazado_107579" data-name="Trazado 107579" d="M3.416-1.82V-4.088h4.55V-5.852H3.416V-7.98H8.568V-9.8H1.162V0H8.75V-1.82ZM14.98-7.644a3.3,3.3,0,0,0-2.492.994v-.882H10.4V0h2.184V-3.724c0-1.386.756-2.03,1.806-2.03.966,0,1.526.56,1.526,1.778V0H18.1V-4.312C18.1-6.608,16.758-7.644,14.98-7.644ZM24.346-1.9a1.472,1.472,0,0,1-.882.28.878.878,0,0,1-.938-.994V-5.684H24.4v-1.68H22.526V-9.2H20.342v1.834H19.18v1.68h1.162V-2.59a2.483,2.483,0,0,0,2.814,2.7,3.121,3.121,0,0,0,1.778-.476Zm3.906-4.634v-.994H26.166V0H28.35V-3.556a1.851,1.851,0,0,1,2-2.1c.168,0,.308.014.49.028V-7.644A3.04,3.04,0,0,0,28.252-6.538Zm11.2,2.8a3.729,3.729,0,0,0-3.92-3.906,3.835,3.835,0,0,0-4.018,3.878c0,2.24,1.694,3.878,4.3,3.878A3.945,3.945,0,0,0,38.92-1.106l-1.162-1.26a2.553,2.553,0,0,1-1.89.728A2.008,2.008,0,0,1,33.712-3.15h5.7C39.424-3.332,39.452-3.57,39.452-3.738ZM35.546-5.992a1.79,1.79,0,0,1,1.848,1.568h-3.71A1.783,1.783,0,0,1,35.546-5.992Zm11.06-1.54v.966a3.023,3.023,0,0,0-2.492-1.078A3.586,3.586,0,0,0,40.348-4a3.586,3.586,0,0,0,3.766,3.64,3.1,3.1,0,0,0,2.38-.938V-.98c0,1.358-.672,2.058-2.212,2.058a4.5,4.5,0,0,1-2.66-.854l-.868,1.568a6.2,6.2,0,0,0,3.7,1.036c2.716,0,4.228-1.288,4.228-4.088V-7.532ZM44.548-2.156A1.841,1.841,0,0,1,42.56-4a1.841,1.841,0,0,1,1.988-1.848A1.829,1.829,0,0,1,46.522-4,1.829,1.829,0,0,1,44.548-2.156Zm9.2-5.488a5.79,5.79,0,0,0-3.248.91l.784,1.526a3.622,3.622,0,0,1,2.17-.7c1.176,0,1.736.546,1.736,1.484H53.452c-2.3,0-3.234.924-3.234,2.254,0,1.3,1.05,2.282,2.814,2.282a2.472,2.472,0,0,0,2.3-1.05V0h2.044V-4.3C57.372-6.58,56.042-7.644,53.746-7.644Zm-.168,6.286c-.77,0-1.232-.364-1.232-.91,0-.5.322-.882,1.344-.882h1.5v.77A1.609,1.609,0,0,1,53.578-1.358Z" transform="translate(114.414 426.096)" fill="#fff"/>
    <path id="Trazado_101541" data-name="Trazado 101541" d="M201.488,126.9v10.3h-23.2V126.9a5.969,5.969,0,0,1,4.545-5.835,9.011,9.011,0,0,0,14.111,0A5.967,5.967,0,0,1,201.488,126.9Zm-11.6-21.936a8.051,8.051,0,1,0,8.052,8.05A8.049,8.049,0,0,0,189.888,104.963Z" transform="translate(77.454 27.878)" fill="#fff" style="mix-blend-mode: overlay;isolation: isolate"/>
    <path id="Trazado_101542" data-name="Trazado 101542" d="M108.114,286.714h-4.2V274.508h4.2Zm5.332,0h-4.2v-8.555h4.2Zm5.332,0h-4.2V270.22h4.2Zm5.332,0h-4.2V265.063h4.2Z" transform="translate(25.061 117.889)" fill="#fff" style="mix-blend-mode: overlay;isolation: isolate"/>
    <path id="Trazado_101543" data-name="Trazado 101543" d="M396.508,276.235a7.758,7.758,0,0,0-14.411-3.654,6.218,6.218,0,0,0-9.719,6.624,4.3,4.3,0,0,0,.106,8.6h21.679a6.024,6.024,0,0,0,2.345-11.573Z" transform="translate(173.631 119.991)" fill="#fff" style="mix-blend-mode: overlay;isolation: isolate"/>
    <path id="Trazado_101544" data-name="Trazado 101544" d="M255.125,386.45a14.24,14.24,0,1,1,14.24-14.241A14.256,14.256,0,0,1,255.125,386.45Zm-3.181-12.384c.272,5.954,1.748,9.281,2.675,10.062l.508.43.506-.43c.926-.786,2.4-4.112,2.671-10.062l.036-.822h-6.432Zm8.442-.069a28.934,28.934,0,0,1-1.414,8.356l-.623,1.728,1.681-.744a12.132,12.132,0,0,0,7.094-9.183l.147-.911h-6.853Zm-17.259.158a12.134,12.134,0,0,0,7.092,9.183l1.681.744-.623-1.728A28.961,28.961,0,0,1,249.861,374l-.033-.751h-6.85Zm15.846-12.09a28.913,28.913,0,0,1,1.414,8.355l.031.753h6.853l-.147-.911a12.126,12.126,0,0,0-7.1-9.181l-1.678-.742Zm-4.354-1.775c-.926.781-2.4,4.107-2.675,10.061l-.036.822h6.432l-.036-.822c-.272-5.949-1.745-9.275-2.671-10.061l-.506-.43Zm-4.4.79a12.129,12.129,0,0,0-7.092,9.181l-.148.911h6.85l.033-.753a28.991,28.991,0,0,1,1.415-8.355l.623-1.728Z" transform="translate(102.066 170.121)" fill="#12263f" style="mix-blend-mode: overlay;isolation: isolate"/>
    <g id="Grupo_54753" data-name="Grupo 54753" transform="translate(450.956 127.56)" style="mix-blend-mode: overlay;isolation: isolate">
      <path id="Trazado_101545" data-name="Trazado 101545" d="M329.759,117.891a8.887,8.887,0,1,0-3.427,3.428l-1.215-1.214a7.271,7.271,0,1,1,3.427-3.427Z" transform="translate(-308.278 -99.838)" fill="#fff"/>
      <path id="Trazado_101546" data-name="Trazado 101546" d="M328.324,126.529a12.117,12.117,0,1,1,6.646-6.646,2.358,2.358,0,0,1,.275.209l.961.961a13.732,13.732,0,1,0-6.711,6.713l-.961-.961A2.107,2.107,0,0,1,328.324,126.529Z" transform="translate(-310.021 -101.582)" fill="#fff"/>
      <path id="Trazado_101547" data-name="Trazado 101547" d="M321.974,110.108a1.925,1.925,0,0,1,.145.177c.058.048.122.089.177.144l1.95,1.95a4.04,4.04,0,1,0-3.427,3.427l-1.95-1.948c-.055-.056-.1-.119-.144-.178s-.122-.089-.178-.144a2.424,2.424,0,0,1,3.427-3.427Z" transform="translate(-306.534 -98.095)" fill="#fff"/>
      <path id="Trazado_101548" data-name="Trazado 101548" d="M333.193,120.327l-3.855-3.856a.809.809,0,0,0-.8-.2l-2.073.612-6.586-6.586a.808.808,0,1,0-1.144,1.142l6.588,6.586-.614,2.075a.809.809,0,0,0,.2.8l3.856,3.856a.808.808,0,0,0,1.347-.342l.625-2.115,2.115-.625a.8.8,0,0,0,.341-.2.805.805,0,0,0,0-1.142Z" transform="translate(-305.257 -96.817)" fill="#fff"/>
    </g>
  </g>
</svg>
