<svg xmlns="http://www.w3.org/2000/svg" width="117.228" height="149" viewBox="0 0 117.228 149">
  <g id="Page-1" transform="translate(-0.397)">
    <g id="_048---Hand-Luggage-Checked" data-name="048---Hand-Luggage-Checked" transform="translate(0.397 0)">
      <g id="Icons_copy" transform="translate(2.483 2.483)">
        <path id="Shape" d="M84.724,109.367H13.85a8.582,8.582,0,0,1-8.518-9.536l.075-.571L8.486,72.117l3.477-30.669A29.8,29.8,0,0,1,41.588,15h15.4A29.8,29.8,0,0,1,86.611,41.448l3.477,30.669L93.167,99.26l.075.571a8.582,8.582,0,0,1-8.518,9.536Z" transform="translate(6.843 22.25)" fill="#e0d6ff"/>
        <path id="Shape-2" data-name="Shape" d="M66.807,99.831l-.074-.571L63.653,72.117,60.176,41.448A29.8,29.8,0,0,0,30.55,15H23.1A29.8,29.8,0,0,1,52.726,41.448L56.2,72.117,59.282,99.26l.075.571a8.582,8.582,0,0,1-8.518,9.536h7.45a8.582,8.582,0,0,0,8.518-9.536Z" transform="translate(33.278 22.25)" fill="#8c6df2"/>
        <path id="Rectangle-path" d="M20,5H34.9V29.833H20Z" transform="translate(28.68 7.417)" fill="#8c6df2"/>
        <path id="Shape-3" data-name="Shape" d="M58.7,6.208a6.188,6.188,0,0,1-6.208,6.208H20.208A6.208,6.208,0,1,1,20.208,0H52.492A6.208,6.208,0,0,1,58.7,6.208Z" transform="translate(19.78 0)" fill="#e8edfc"/>
        <path id="Shape-4" data-name="Shape" d="M33.95,0H26.5a6.208,6.208,0,1,1,0,12.417h7.45A6.208,6.208,0,0,0,33.95,0Z" transform="translate(38.322 0)" fill="#cad9fc"/>
        <g id="Grupo_57182" data-name="Grupo 57182" transform="translate(0 94.367)">
          <path id="Shape-5" data-name="Shape" d="M15.726,38,12.647,65.143A12.469,12.469,0,0,1,2.515,55.11L.478,43.861A4.967,4.967,0,0,1,5.371,38Z" transform="translate(-0.397 -38)" fill="#8c6df2"/>
          <path id="Shape-6" data-name="Shape" d="M54.678,43.861,52.641,55.11A12.469,12.469,0,0,1,42.509,65.143L39.43,38H49.785a4.967,4.967,0,0,1,4.892,5.861Z" transform="translate(57.501 -38)" fill="#8c6df2"/>
          <path id="Shape-7" data-name="Shape" d="M26.383,53v7.45a4.982,4.982,0,0,1-4.967,4.967h-7.45A4.982,4.982,0,0,1,9,60.45V53Z" transform="translate(12.363 -15.75)" fill="#8c6df2"/>
          <path id="Shape-8" data-name="Shape" d="M47.383,53v7.45a4.982,4.982,0,0,1-4.967,4.967h-7.45A4.982,4.982,0,0,1,30,60.45V53Z" transform="translate(43.513 -15.75)" fill="#8c6df2"/>
        </g>
        <path id="Shape-9" data-name="Shape" d="M27.26,68.195,12.9,53.833a2.483,2.483,0,0,1,0-3.511l5.267-5.267a2.483,2.483,0,0,1,3.511,0l7.636,7.636L54.706,29.653a2.483,2.483,0,0,1,3.509.151L63.249,35.3A2.483,2.483,0,0,1,63.1,38.8l-32.4,29.465a2.483,2.483,0,0,1-3.434-.075Z" transform="translate(17.069 43.017)" fill="#e8edfc"/>
      </g>
      <g id="Icons_copy_2" transform="translate(2.483 2.483)">
        <path id="Shape-10" data-name="Shape" d="M27.658,0h-7.45a6.208,6.208,0,1,0,0,12.417h7.45A6.208,6.208,0,0,1,27.658,0Z" transform="translate(19.78)" fill="#fff"/>
        <path id="Shape-11" data-name="Shape" d="M26.727,87.667h7.45A4.982,4.982,0,0,1,29.211,82.7V75.25A8.62,8.62,0,0,1,20.1,65.143,12.469,12.469,0,0,1,9.965,55.11L7.928,43.861A4.967,4.967,0,0,1,12.821,38H5.371A4.967,4.967,0,0,0,.478,43.861L2.515,55.11A12.469,12.469,0,0,0,12.647,65.143,8.62,8.62,0,0,0,21.761,75.25V82.7A4.982,4.982,0,0,0,26.727,87.667Z" transform="translate(-0.397 56.367)" fill="#fff"/>
        <path id="Shape-12" data-name="Shape" d="M47.371,5h-7.45c0,27.587.112,24.833-.248,24.833A29.8,29.8,0,0,0,10.047,56.281L6.57,86.95h7.45L17.5,56.281A29.8,29.8,0,0,1,47.123,29.833C47.483,29.833,47.371,32.587,47.371,5Z" transform="translate(8.759 7.417)" fill="#fff"/>
      </g>
      <g id="Layer_12">
        <path id="Rectangle-path-2" data-name="Rectangle-path" d="M0,0H19.867V4.967H0Z" transform="matrix(0.113, -0.994, 0.994, 0.113, 16.613, 85.628)" fill="#fff"/>
        <g id="Grupo_57183" data-name="Grupo 57183">
          <path id="Shape-13" data-name="Shape" d="M12.471,32.382A2.483,2.483,0,1,0,9.725,34.57a2.483,2.483,0,0,0,2.747-2.188Z" transform="translate(10.168 43.935)" fill="#5038a1"/>
          <path id="Shape-14" data-name="Shape" d="M115.467,114.4l2.039-11.252a7.45,7.45,0,0,0-7.338-8.781h-8.135L98.8,65.888a32.246,32.246,0,0,0-29.86-28.534V17.383h6.208A8.692,8.692,0,0,0,75.152,0H42.869a8.692,8.692,0,1,0,0,17.383h6.208V37.354A32.246,32.246,0,0,0,19.225,65.888a2.483,2.483,0,1,0,4.932.564A27.317,27.317,0,0,1,51.312,42.217h15.4A27.317,27.317,0,0,1,93.854,66.452l6.581,57.921v.06l.045.4a6.092,6.092,0,0,1-6.039,6.782H23.581a6.092,6.092,0,0,1-6.057-6.782l.047-.4v-.057l4.341-38.186a2.484,2.484,0,0,0-4.937-.561l-.988,8.736H7.854a7.462,7.462,0,0,0-7.338,8.786l2.041,11.259a15.022,15.022,0,0,0,10.015,11.493,10.845,10.845,0,0,0,9.188,10.485v5.16a7.45,7.45,0,0,0,7.45,7.45h7.45a7.45,7.45,0,0,0,7.45-7.45v-4.967h29.8v4.967a7.45,7.45,0,0,0,7.45,7.45h7.45a7.45,7.45,0,0,0,7.45-7.45v-5.16a10.845,10.845,0,0,0,9.188-10.485A15.032,15.032,0,0,0,115.467,114.4ZM39.144,8.692a3.725,3.725,0,0,1,3.725-3.725H75.152a3.725,3.725,0,1,1,0,7.45H42.869a3.725,3.725,0,0,1-3.725-3.725Zm14.9,28.558V17.383h9.933V37.25Zm-46.6,76.268L5.405,102.276a2.483,2.483,0,0,1,.544-2.056,2.451,2.451,0,0,1,1.9-.887h7.569l-2.429,21.379a10.033,10.033,0,0,1-5.553-7.194Zm31.7,28.032a2.483,2.483,0,0,1-2.483,2.483h-7.45a2.483,2.483,0,0,1-2.483-2.483v-4.967H39.144Zm52.15,0a2.483,2.483,0,0,1-2.483,2.483h-7.45a2.483,2.483,0,0,1-2.483-2.483v-4.967H91.294Zm13.733-20.838L102.6,99.333h7.569a2.483,2.483,0,0,1,2.449,2.938l-2.034,11.235a10.038,10.038,0,0,1-5.555,7.207Z" transform="translate(-0.397 0)" fill="#5038a1"/>
          <path id="Shape-15" data-name="Shape" d="M25.917,45.783a4.967,4.967,0,0,0-7.023,0L13.627,51.05a4.967,4.967,0,0,0,0,7.023L27.985,72.432a4.967,4.967,0,0,0,6.864.161l32.4-29.472a4.967,4.967,0,0,0,.305-7.02L62.521,30.61a4.967,4.967,0,0,0-7.008-.313L31.879,51.743Zm3.827,24.9L31.5,68.923ZM58.861,33.967l5.034,5.483L31.5,68.92,17.138,54.562l5.267-5.267,7.636,7.634a2.483,2.483,0,0,0,3.425.082Z" transform="translate(17.069 43.016)" fill="#5038a1"/>
          <path id="Shape-16" data-name="Shape" d="M34.175,19A22.35,22.35,0,0,0,11.967,38.824a2.483,2.483,0,0,0,2.185,2.749,2.22,2.22,0,0,0,.283.017,2.483,2.483,0,0,0,2.463-2.2A17.383,17.383,0,0,1,34.175,23.967a2.483,2.483,0,1,0,0-4.967Z" transform="translate(16.74 28.183)" fill="#5038a1"/>
        </g>
      </g>
    </g>
  </g>
</svg>
