<svg xmlns="http://www.w3.org/2000/svg" xmlns:xlink="http://www.w3.org/1999/xlink" width="128" height="119" viewBox="0 0 128 119">
  <defs>
    <clipPath id="clip-path">
      <rect id="Rectángulo_7680" data-name="Rectángulo 7680" width="128" height="119" transform="translate(390 6182.994)" fill="#ffdc72" stroke="#707070" stroke-width="1"/>
    </clipPath>
  </defs>
  <g id="Enmascarar_grupo_50" data-name="Enmascarar grupo 50" transform="translate(-390 -6182.994)" clip-path="url(#clip-path)">
    <g id="equipajes" transform="translate(385.733 6176.361)">
      <g id="Grupo_54728" data-name="Grupo 54728">
        <g id="Grupo_54719" data-name="Grupo 54719">
          <g id="Grupo_54717" data-name="Grupo 54717">
            <path id="Trazado_101459" data-name="Trazado 101459" d="M87.467,34.133A4.267,4.267,0,0,1,83.2,29.867V21.333H49.067a4.267,4.267,0,0,1,0-8.533h38.4a4.267,4.267,0,0,1,4.267,4.267v12.8A4.267,4.267,0,0,1,87.467,34.133Z" fill="#a5c3dc"/>
          </g>
          <g id="Grupo_54718" data-name="Grupo 54718">
            <path id="Trazado_101460" data-name="Trazado 101460" d="M49.067,34.133A4.267,4.267,0,0,1,44.8,29.867v-12.8a4.267,4.267,0,1,1,8.533,0v12.8A4.267,4.267,0,0,1,49.067,34.133Z" fill="#d7e6f0"/>
          </g>
        </g>
        <g id="Grupo_54720" data-name="Grupo 54720">
          <path id="Trazado_101461" data-name="Trazado 101461" d="M21.333,29.867H115.2a8.533,8.533,0,0,1,8.533,8.533V93.911a8.533,8.533,0,0,1-8.533,8.533H21.333A8.533,8.533,0,0,1,12.8,93.911V38.4a8.533,8.533,0,0,1,8.533-8.533Z" fill="#faa019"/>
        </g>
        <g id="Grupo_54721" data-name="Grupo 54721">
          <path id="Trazado_101462" data-name="Trazado 101462" d="M42.667,29.867H115.2a8.533,8.533,0,0,1,8.533,8.533V93.911a8.533,8.533,0,0,1-8.533,8.533H42.667a8.533,8.533,0,0,1-8.533-8.533V38.4a8.533,8.533,0,0,1,8.533-8.533Z" fill="#f06423"/>
        </g>
        <g id="Grupo_54722" data-name="Grupo 54722">
          <path id="Trazado_101463" data-name="Trazado 101463" d="M93.867,29.867H102.4v72.578H93.867Z" transform="translate(196.267 132.311) rotate(180)" fill="#e1322d"/>
        </g>
        <g id="Grupo_54723" data-name="Grupo 54723">
          <path id="Trazado_101464" data-name="Trazado 101464" d="M55.467,29.867H64v72.578H55.467Z" transform="translate(119.467 132.311) rotate(180)" fill="#e1322d"/>
        </g>
        <g id="Grupo_54724" data-name="Grupo 54724">
          <path id="Trazado_101465" data-name="Trazado 101465" d="M64,61.867H55.467A4.267,4.267,0,0,1,51.2,57.6V49.2a4.267,4.267,0,0,1,4.267-4.267H64A4.267,4.267,0,0,1,68.267,49.2v8.4A4.267,4.267,0,0,1,64,61.867Z" fill="#d7e6f0"/>
        </g>
        <g id="Grupo_54725" data-name="Grupo 54725">
          <path id="Trazado_101466" data-name="Trazado 101466" d="M55.467,49.067H64V57.6H55.467Z" fill="#e1322d"/>
        </g>
        <g id="Grupo_54726" data-name="Grupo 54726">
          <path id="Trazado_101467" data-name="Trazado 101467" d="M102.4,61.867H93.867A4.267,4.267,0,0,1,89.6,57.6V49.2a4.267,4.267,0,0,1,4.267-4.267H102.4a4.267,4.267,0,0,1,4.267,4.267v8.4A4.267,4.267,0,0,1,102.4,61.867Z" fill="#d7e6f0"/>
        </g>
        <g id="Grupo_54727" data-name="Grupo 54727">
          <path id="Trazado_101468" data-name="Trazado 101468" d="M93.867,49.067H102.4V57.6H93.867Z" fill="#e1322d"/>
        </g>
      </g>
      <g id="Grupo_54731" data-name="Grupo 54731">
        <g id="Grupo_54729" data-name="Grupo 54729">
          <circle id="Elipse_4119" data-name="Elipse 4119" cx="21.333" cy="21.333" r="21.333" transform="translate(4.267 44.822)" fill="#d7e6f0"/>
        </g>
        <g id="Grupo_54730" data-name="Grupo 54730">
          <path id="Trazado_101469" data-name="Trazado 101469" d="M21.333,78.955a4.266,4.266,0,0,1-3.017-1.25l-6.4-6.4a4.267,4.267,0,1,1,6.034-6.034l3.383,3.383L33.605,56.383a4.267,4.267,0,0,1,6.034,6.034L24.35,77.706a4.266,4.266,0,0,1-3.017,1.25Z" fill="#faa019"/>
        </g>
      </g>
      <g id="Grupo_54732" data-name="Grupo 54732">
        <path id="Trazado_101470" data-name="Trazado 101470" d="M123.733,119.467H12.8a8.533,8.533,0,1,1,0-17.067H123.733a8.533,8.533,0,1,1,0,17.067Z" fill="#555a6e"/>
      </g>
      <g id="Grupo_54733" data-name="Grupo 54733">
        <path id="Trazado_101471" data-name="Trazado 101471" d="M123.733,119.467H55.467a8.533,8.533,0,1,1,0-17.067h68.267a8.533,8.533,0,1,1,0,17.067Z" fill="#463c4b"/>
      </g>
      <g id="Grupo_54734" data-name="Grupo 54734">
        <circle id="Elipse_4120" data-name="Elipse 4120" cx="4.267" cy="4.267" r="4.267" transform="translate(51.2 106.667)" fill="#87a5be"/>
      </g>
      <g id="Grupo_54735" data-name="Grupo 54735">
        <circle id="Elipse_4121" data-name="Elipse 4121" cx="4.267" cy="4.267" r="4.267" transform="translate(68.267 106.667)" fill="#87a5be"/>
      </g>
      <g id="Grupo_54736" data-name="Grupo 54736">
        <circle id="Elipse_4122" data-name="Elipse 4122" cx="4.267" cy="4.267" r="4.267" transform="translate(85.333 106.667)" fill="#87a5be"/>
      </g>
      <g id="Grupo_54737" data-name="Grupo 54737">
        <circle id="Elipse_4123" data-name="Elipse 4123" cx="4.267" cy="4.267" r="4.267" transform="translate(102.4 106.667)" fill="#87a5be"/>
      </g>
      <g id="Grupo_54738" data-name="Grupo 54738">
        <circle id="Elipse_4124" data-name="Elipse 4124" cx="4.267" cy="4.267" r="4.267" transform="translate(119.467 106.667)" fill="#87a5be"/>
      </g>
    </g>
  </g>
</svg>
