<svg xmlns="http://www.w3.org/2000/svg" xmlns:xlink="http://www.w3.org/1999/xlink" width="128" height="119" viewBox="0 0 128 119">
  <defs>
    <clipPath id="clip-path">
      <rect id="Rectángulo_7682" data-name="Rectángulo 7682" width="128" height="119" transform="translate(390 6545.994)" fill="#ffdc72" stroke="#707070" stroke-width="1"/>
    </clipPath>
  </defs>
  <g id="Enmascarar_grupo_52" data-name="Enmascarar grupo 52" transform="translate(-390 -6545.994)" clip-path="url(#clip-path)">
    <g id="equipaje_3_" data-name="equipaje (3)" transform="translate(385.733 6536.827)">
      <path id="Trazado_101496" data-name="Trazado 101496" d="M78.008,17.475v3.091a1.067,1.067,0,0,1-1.067,1.067H62.44a1.067,1.067,0,0,1-1.067-1.067V14.384a1.067,1.067,0,0,1,1.067-1.067h14.5a1.067,1.067,0,0,1,1.067,1.067Z" fill="#b9c8db"/>
      <path id="Trazado_101497" data-name="Trazado 101497" d="M56.044,32.685h-3.2V17.475a1.6,1.6,0,0,1,1.6-1.6h6.93v3.2h-5.33Z" fill="#b0b5ca"/>
      <path id="Trazado_101498" data-name="Trazado 101498" d="M86.538,32.685h-3.2V19.075H78.007v-3.2h6.931a1.6,1.6,0,0,1,1.6,1.6Z" fill="#b0b5ca"/>
      <path id="Trazado_101499" data-name="Trazado 101499" d="M117.8,105.081a1.594,1.594,0,0,1-1.131-.469l-7.28-7.28a1.6,1.6,0,1,1,2.263-2.263l7.28,7.28a1.6,1.6,0,0,1-1.131,2.731Z" fill="#ccd3df"/>
      <path id="Trazado_101500" data-name="Trazado 101500" d="M97.414,114.9v5.443H89.1V115.08S96.968,115.019,97.414,114.9Z" fill="#e5f5fd"/>
      <path id="Trazado_101501" data-name="Trazado 101501" d="M130.819,109.579a4.942,4.942,0,1,1-6.989,6.989l-9.525-9.525,6.989-6.989Z" fill="#49c160"/>
      <path id="Trazado_101502" data-name="Trazado 101502" d="M126.5,113.9l-9.525-9.525-2.667,2.667,9.525,9.525a4.942,4.942,0,0,0,8.058-1.6A4.939,4.939,0,0,1,126.5,113.9Z" fill="#52ce67"/>
      <path id="Trazado_101503" data-name="Trazado 101503" d="M96.027,31.915H43.355a5.545,5.545,0,0,0-5.544,5.543V71.9h1.872a4.483,4.483,0,0,1,4.373,4.584V80.08h6.229V72.112a5.543,5.543,0,0,1,5.545-5.544H81.478a20.681,20.681,0,0,1,20.093-4.912v-24.2a5.545,5.545,0,0,0-5.543-5.544ZM89.1,56.171a2.773,2.773,0,0,1-2.773,2.773H53.059a2.773,2.773,0,0,1-2.773-2.773V45.083a2.773,2.773,0,0,1,2.773-2.773H86.323A2.773,2.773,0,0,1,89.1,45.083Z" fill="#c24e38"/>
      <path id="Trazado_101504" data-name="Trazado 101504" d="M45.016,71.9H43.144V37.459a5.545,5.545,0,0,1,5.543-5.544H43.355a5.545,5.545,0,0,0-5.544,5.543V71.9h1.872a4.483,4.483,0,0,1,4.373,4.584V80.08h5.333V76.488A4.483,4.483,0,0,0,45.016,71.9Z" fill="#ed6337"/>
      <path id="Trazado_101505" data-name="Trazado 101505" d="M57.174,108.734H8.64a4.481,4.481,0,0,1-4.373-4.584v15.283a4.481,4.481,0,0,0,4.373,4.584H57.174a4.484,4.484,0,0,0,4.373-4.584V104.15A4.483,4.483,0,0,1,57.174,108.734Z" fill="#67b5f4"/>
      <path id="Trazado_101506" data-name="Trazado 101506" d="M27.955,103.843v8.595a4.952,4.952,0,1,0,9.9,0v-8.595Z" fill="#c24e38"/>
      <path id="Trazado_101507" data-name="Trazado 101507" d="M33.405,115.939a4.935,4.935,0,0,1-1.451-3.5v-8.595h-4v8.595a4.947,4.947,0,0,0,6.952,4.528,4.96,4.96,0,0,1-1.5-1.026Z" fill="#ed6337"/>
      <path id="Trazado_101508" data-name="Trazado 101508" d="M10.4,119.432v-10.7H8.64a4.481,4.481,0,0,1-4.373-4.584v15.283a4.481,4.481,0,0,0,4.373,4.584h6.133A4.481,4.481,0,0,1,10.4,119.432Z" fill="#99d6ff"/>
      <path id="Trazado_101509" data-name="Trazado 101509" d="M57.174,80.08H8.64a4.483,4.483,0,0,0-4.373,4.584V104.15a4.481,4.481,0,0,0,4.373,4.584H27.955v-4.891h9.9v4.891H57.174a4.483,4.483,0,0,0,4.373-4.584V84.664A4.484,4.484,0,0,0,57.174,80.08Z" fill="#50a6ea"/>
      <path id="Trazado_101510" data-name="Trazado 101510" d="M10.4,104.15V84.664a4.483,4.483,0,0,1,4.373-4.584H8.64a4.483,4.483,0,0,0-4.373,4.584V104.15a4.481,4.481,0,0,0,4.373,4.584h6.133A4.481,4.481,0,0,1,10.4,104.15Z" fill="#67b5f4"/>
      <path id="Trazado_101511" data-name="Trazado 101511" d="M89.1,45.083V56.171a2.773,2.773,0,0,1-2.773,2.773H53.059a2.773,2.773,0,0,1-2.773-2.773V45.083a2.773,2.773,0,0,1,2.773-2.773H86.323A2.773,2.773,0,0,1,89.1,45.083Z" fill="#ed6337"/>
      <path id="Trazado_101512" data-name="Trazado 101512" d="M97.414,114.9a5.551,5.551,0,0,1-1.387.176H89.1V101.12a20.791,20.791,0,0,0,12.475.28v8.136a5.544,5.544,0,0,1-4.158,5.368Z" fill="#c24e38"/>
      <path id="Trazado_101513" data-name="Trazado 101513" d="M81.144,96.163a20.7,20.7,0,0,1,0-29.269c.109-.109.221-.219.333-.325H55.83a5.543,5.543,0,0,0-5.544,5.545V80.08h6.888a4.484,4.484,0,0,1,4.373,4.584V115.08H89.1V101.12a20.609,20.609,0,0,1-7.952-4.957Z" fill="#ed6337"/>
      <g id="_Group_" data-name=" Group ">
        <g id="_Path_4" data-name=" Path 4">
          <path id="Trazado_101514" data-name="Trazado 101514" d="M45.656,80.08h-3.2V76.489A2.888,2.888,0,0,0,39.683,73.5H26.129a2.888,2.888,0,0,0-2.773,2.985V80.08h-3.2V76.489A6.088,6.088,0,0,1,26.129,70.3H39.683a6.088,6.088,0,0,1,5.973,6.185Z" fill="#b0b5ca"/>
        </g>
      </g>
      <path id="Trazado_101515" data-name="Trazado 101515" d="M110.411,66.894a20.7,20.7,0,1,1-29.267,0c.109-.109.221-.219.333-.325a20.685,20.685,0,0,1,28.933.325Z" fill="#e5f5fd"/>
      <path id="Trazado_101516" data-name="Trazado 101516" d="M94.43,101.12a20.7,20.7,0,0,1-7.952-34.227c.109-.109.221-.219.333-.325A20.594,20.594,0,0,1,98.441,61a20.651,20.651,0,0,0-16.964,5.563c-.112.107-.224.216-.333.325A20.693,20.693,0,0,0,98.454,102.05a20.7,20.7,0,0,1-4.024-.93Z" fill="#b9c8db"/>
      <g id="Grupo_54740" data-name="Grupo 54740">
        <path id="Trazado_101517" data-name="Trazado 101517" d="M95.256,67.16c-4.171,0-6.682,2.317-6.682,3.939a1.584,1.584,0,0,0,1.583,1.584c1.467,0,1.313-2.395,4.982-2.395,2.743,0,4.442,1.429,4.442,3.9,0,3.167-2.626,4.712-4.133,6.1-1.043.965-2.086,2.472-2.086,6.334,0,1.351.464,1.777,1.506,1.777,1.236,0,1.622-.579,1.622-1.2,0-2.51.039-3.9,1.7-5.407,1.274-1.313,4.789-3.708,4.789-7.995,0-3.746-2.82-6.643-7.724-6.643Z" fill="#ed6337"/>
        <path id="Trazado_101518" data-name="Trazado 101518" d="M94.909,91.261a2.317,2.317,0,1,0,2.318,2.317,2.317,2.317,0,0,0-2.318-2.317Z" fill="#ed6337"/>
      </g>
    </g>
  </g>
</svg>
