<svg xmlns="http://www.w3.org/2000/svg" width="143.082" height="117.065" viewBox="0 0 143.082 117.065">
  <g id="Grupo_54707" data-name="Grupo 54707" transform="translate(-217.504 -324.482)">
    <path id="Trazado_101283" data-name="Trazado 101283" d="M249.968,366.056l-7.506-3.518-.469,1.173,7.506,3.518.469-1.173Z" transform="translate(-4.552 -7.073)" fill="#fff" fill-rule="evenodd"/>
    <path id="Trazado_101284" data-name="Trazado 101284" d="M250.7,352.44a2.885,2.885,0,0,0-1.877.234,4.083,4.083,0,0,0-2.111,1.642,4.291,4.291,0,0,0,1.173,6.1,4.749,4.749,0,0,0,6.1-1.172,4.29,4.29,0,0,0,.234-4.457l-.7,1.173a4.634,4.634,0,0,1-.47,2.58,3.226,3.226,0,0,1-5.394-3.519,2.863,2.863,0,0,1,2.346-1.407l.7-1.173Z" transform="translate(-5.279 -5.186)" fill="#fff" fill-rule="evenodd"/>
    <path id="Trazado_101285" data-name="Trazado 101285" d="M262.954,349l-6.1-2.58V347.6l1.641.7-1.641,1.642v2.814l.7,1.642.938-.939-1.172-2.58,2.111-2.111,2.58,1.173.938-.939Zm-6.1-2.58-2.112-1.173-.938.939,3.05,6.568v-2.814l-1.408-3.05,1.408.7v-1.172Z" transform="translate(-6.748 -3.86)" fill="#fff" fill-rule="evenodd"/>
    <path id="Trazado_101286" data-name="Trazado 101286" d="M268.984,338.484a4.454,4.454,0,0,0-3.519-1.877v1.172a3.181,3.181,0,0,1,2.58,1.408,3.328,3.328,0,0,1-.469,4.457,3.779,3.779,0,0,1-2.111.7v1.172a4.92,4.92,0,0,0,2.58-.938,4.394,4.394,0,0,0,1.877-3.284v-.469a4.168,4.168,0,0,0-.938-2.346Zm-3.519-1.877a3.527,3.527,0,0,0-2.58.938,5.284,5.284,0,0,0-1.877,3.284v.469a7.018,7.018,0,0,0,.938,2.345,4.454,4.454,0,0,0,3.519,1.877v-1.172a5.59,5.59,0,0,1-2.58-1.408,3.316,3.316,0,0,1,2.58-5.161v-1.172Z" transform="translate(-8.086 -2.254)" fill="#fff" fill-rule="evenodd"/>
    <path id="Trazado_101287" data-name="Trazado 101287" d="M277.247,336.647c-.234.234-.234.234-.469.234v.469h.7a1.625,1.625,0,0,0,.7-2.345,1.419,1.419,0,0,0-1.408-.7v.469c.469.235.7.235.938.7a.856.856,0,0,1-.469,1.172Zm-.469.234c-.234-.234-.7-.234-.938-.7,0-.469,0-.938.469-1.172a.818.818,0,0,0,.469-.235V334.3h-.7a1.823,1.823,0,0,0-.7,2.345,1.419,1.419,0,0,0,1.408.7v-.469Z" transform="translate(-10.721 -1.825)" fill="#fff" fill-rule="evenodd"/>
    <path id="Trazado_101288" data-name="Trazado 101288" d="M292.16,329.519a4.507,4.507,0,0,0-4.222-3.284v1.173a3.081,3.081,0,0,1,3.049,2.346c.234,1.408,0,3.518-2.111,3.988h-.938v1.172h1.172a5.107,5.107,0,0,0,3.284-4.222v-.234c0-.234-.234-.7-.234-.938Zm-4.222-3.284a2.115,2.115,0,0,0-1.173.234,4.52,4.52,0,0,0-3.284,3.988v.469c0,.235.234.469.234.7a4.507,4.507,0,0,0,4.223,3.284v-1.172a2.866,2.866,0,0,1-3.05-2.346A3.15,3.15,0,0,1,287,327.408h.939v-1.173Z" transform="translate(-12.263 -0.326)" fill="#fff" fill-rule="evenodd"/>
    <path id="Trazado_101289" data-name="Trazado 101289" d="M303.664,332.716l-3.753-8.21h-.234v2.112l1.173,2.58-1.173.234V330.6l1.642-.234,1.172,2.345Zm-3.988-8.21h-.938l-2.581,8.679h1.408l.7-2.581h1.408v-1.172h-.938l.7-3.284h0l.234.47v-2.112Z" transform="translate(-14.62 -0.005)" fill="#fff" fill-rule="evenodd"/>
    <path id="Trazado_101290" data-name="Trazado 101290" d="M314.974,327.082a5.415,5.415,0,0,0-1.172-1.642,4.366,4.366,0,0,0-2.58-.939,4.415,4.415,0,0,0-4.691,3.988,4.611,4.611,0,0,0,4.222,4.692,4,4,0,0,0,3.752-1.877l-1.407-.234a3.011,3.011,0,0,1-2.345.939,3.057,3.057,0,0,1-2.815-3.519,2.851,2.851,0,0,1,3.284-2.814,3.054,3.054,0,0,1,2.346,1.173l1.407.234Z" transform="translate(-16.548)" fill="#fff" fill-rule="evenodd"/>
    <path id="Trazado_101291" data-name="Trazado 101291" d="M319.228,334.391l1.876-8.21-1.173-.234-1.876,8.21,1.173.234Z" transform="translate(-18.69 -0.272)" fill="#fff" fill-rule="evenodd"/>
    <path id="Trazado_101292" data-name="Trazado 101292" d="M327.462,332.412h.234a1.673,1.673,0,0,1,.7,1.408,1.778,1.778,0,0,1-.938.469v.7a1.286,1.286,0,0,0,1.407-.939,1.426,1.426,0,0,0-.938-2.111.819.819,0,0,0-.469-.234v.7Zm-.235,1.877c-.7-.234-.938-.7-.7-1.172s.469-.7.939-.7v-.7a1.764,1.764,0,0,0-1.642,1.173,1.894,1.894,0,0,0,.938,2.111h.7v-.7Z" transform="translate(-20.122 -1.343)" fill="#fff" fill-rule="evenodd"/>
    <path id="Trazado_101293" data-name="Trazado 101293" d="M332.748,339.269,336.971,332l1.173.7L334.86,338.1l6.8-3.284,1.173.7-4.457,7.271-.938-.7,3.284-5.629h0l-7.037,3.518-.938-.7Z" transform="translate(-21.421 -1.397)" fill="#fff" fill-rule="evenodd"/>
    <path id="Trazado_101294" data-name="Trazado 101294" d="M346.425,349.233l.235-5.395,5.395-1.173-1.173-.938-5.16,1.173h0l2.58-3.284-.938-.7-5.395,6.568.938.7,2.815-3.284h0l-.234,5.395.938.938Z" transform="translate(-23.134 -2.682)" fill="#fff" fill-rule="evenodd"/>
    <path id="Trazado_101295" data-name="Trazado 101295" d="M353.882,354.88l3.284-6.1-.939-.939-2.346.939v1.408l1.642-.7h0l-1.642,2.58v2.815Zm-.938,1.877.938-1.877V352.3l-1.407-1.641,1.407-.469v-1.408l-5.864,2.346.7.938,2.58-.938,2.111,2.345-1.408,2.346.939.939Z" transform="translate(-24.259 -4.342)" fill="#fff" fill-rule="evenodd"/>
    <path id="Trazado_101296" data-name="Trazado 101296" d="M362.654,364.121A5.479,5.479,0,0,0,365,360.368v-.234a3.782,3.782,0,0,0-.7-2.112,4.507,4.507,0,0,0-3.752-2.11v1.172a2.873,2.873,0,0,1,2.814,1.642,3.223,3.223,0,0,1-1.173,4.222,3.388,3.388,0,0,1-1.641.469v1.173a5.608,5.608,0,0,0,2.111-.469Zm-2.111-8.21a4.525,4.525,0,0,0-2.346.7,5.025,5.025,0,0,0-2.111,3.519v.234a7.465,7.465,0,0,0,.7,2.111,4.508,4.508,0,0,0,3.753,2.111v-1.173a3.064,3.064,0,0,1-2.815-1.408,3.225,3.225,0,0,1,1.173-4.457,3.389,3.389,0,0,1,1.642-.469v-1.172Z" transform="translate(-25.759 -5.842)" fill="#fff" fill-rule="evenodd"/>
    <path id="Trazado_101297" data-name="Trazado 101297" d="M243.589,421.615l3.753-1.877L245,415.048l-1.408.938v-1.173l1.877-.7,3.049,6.1-4.926,2.58v-1.172Zm-3.752-3.753,2.111,4.691,1.641-.938v1.172l-2.58,1.173-.234-.7.469-.469-2.346-4.457h-.469l-.469-.7,5.629-2.815v1.173l-3.752,1.877Z" transform="translate(-3.802 -16.659)" fill="#fff" fill-rule="evenodd"/>
    <path id="Trazado_101298" data-name="Trazado 101298" d="M240.841,418.29l.7-.469.938,1.876,1.173-.7-.7-1.407.7-.234.7,1.173.7-.235-.7-1.642.7-.235,1.876,3.753-.469.469-.938-1.407-.7.234.469,1.407-.469.234-.938-1.173-.938.469.7,1.407-.235.469-.469.235-2.111-4.222Z" transform="translate(-4.338 -17.088)" fill="#fff" fill-rule="evenodd"/>
    <path id="Trazado_101299" data-name="Trazado 101299" d="M244.01,421.546v.469l.469.235.469-.7-.235-.234h-.469l-.235.234Z" transform="translate(-4.927 -17.998)" fill="#fff" fill-rule="evenodd"/>
    <path id="Trazado_101300" data-name="Trazado 101300" d="M243.722,429.078v-.469l5.63-4.457a.44.44,0,0,1,.7,0c.234.234,1.642,2.111,1.642,2.111s-2.111.7-2.58.938a.5.5,0,0,0-.47.47c-.234.469-.234.938-.938,1.407s-.938.47-1.408.234a2.9,2.9,0,0,1-.7-.469l.469-.7a.9.9,0,0,0,1.408.234,1.411,1.411,0,0,0,.234-.939c.234-.234.234-.7.7-.938a5.139,5.139,0,0,0,1.877-.7l-.7-.939-5.4,4.692-.469-.47Z" transform="translate(-4.873 -18.493)" fill="#fff" fill-rule="evenodd"/>
    <path id="Trazado_101301" data-name="Trazado 101301" d="M246.027,431s2.346,0,2.814-.47a3.392,3.392,0,0,1,.469.7l-.234.234-3.049.469V431Z" transform="translate(-5.302 -19.712)" fill="#fff" fill-rule="evenodd"/>
    <path id="Trazado_101302" data-name="Trazado 101302" d="M247.019,431.979l.469.469c0,.235.469,0,.7-.234.469-.234,2.58-1.876,2.58-1.876l-1.408-1.408.7-.7s2.814,3.519,3.049,3.753c.234,0,.234.469,0,.7v.234l-.469-.234-1.407-1.642s-2.581,2.346-3.05,2.58-.7.234-.938,0l-.939-.938.7-.7Z" transform="translate(-5.355 -19.283)" fill="#fff" fill-rule="evenodd"/>
    <path id="Trazado_101303" data-name="Trazado 101303" d="M250.711,433.124l-.938,2.815.938.234.938-2.815-.938-.234Z" transform="translate(-5.998 -20.194)" fill="#fff" fill-rule="evenodd"/>
    <path id="Trazado_101304" data-name="Trazado 101304" d="M252.942,427.778l.235-.7h.234l2.58,3.049v.234l-.469.235-.469-.235-2.111-2.58Z" transform="translate(-6.587 -19.069)" fill="#fff" fill-rule="evenodd"/>
    <path id="Trazado_101305" data-name="Trazado 101305" d="M270.516,444.361v1.173h.7v-1.173Z" transform="translate(-9.854 -22.282)" fill="#fff" fill-rule="evenodd"/>
    <path id="Trazado_101306" data-name="Trazado 101306" d="M264.89,445.574h.234c.7-1.172.938-1.407.7-1.876a3.39,3.39,0,0,0-.7-.47.727.727,0,0,1-.234.47v-1.642c.234.234.469.234.7.469l.469-.469.7.469-.47.469c.235,0,.235.234.47.234.234.235.234.47.234.939.469.234,3.049,1.877,3.283,2.111.469.234.469.234.469.7a.861.861,0,0,1-.7.234c-.234-.234-2.814-1.877-3.518-2.346l-1.642,2.346v-1.642Zm0,3.988h.234A11.314,11.314,0,0,0,267,447.216c.234-.234.234,0,.469.234.234,0,.234.235,0,.235a8.859,8.859,0,0,1-1.642,2.58c-.469.7,0,1.172.7,1.642.7.7,1.407-.47,1.407-.47l-.7-.7c0,.234,0,.234-.234.234-.234.234-.469,0-.234-.469.234-.234,1.407-2.111,1.876-2.58.235-.7,0-.939,0-.939l-1.876-1.172s-1.408,2.111-1.877,2.58v1.172Zm-.7-4.457c.234.234.47.469.7.469v1.642l-1.173,1.642.234.469a9.332,9.332,0,0,0,.939-.7v.938c-.7.7-.7.939-.7.939l-.469-.234-.469-.7h-.234l-.7-.234v-.938h.7a12.475,12.475,0,0,0,1.642-2.111c-.235,0-.7-.469-.939-.7l-.234.235a8.548,8.548,0,0,1-2.345,2.58l-.7-.7a13.7,13.7,0,0,0,2.58-2.346l-.234-.234c-.469-.234-.469,0-.234-.469s.234-.469.469-.469l.469.469c0-.234.234-.469.469-.7a8.356,8.356,0,0,1,.939-1.877h0V443.7a3.815,3.815,0,0,0-.7,1.407Z" transform="translate(-7.979 -21.854)" fill="#fff" fill-rule="evenodd"/>
    <path id="Trazado_101307" data-name="Trazado 101307" d="M266.034,444.361l.234.234v.469l-.469.469-.47-.469.7-.7Z" transform="translate(-8.89 -22.282)" fill="#fff" fill-rule="evenodd"/>
    <path id="Trazado_101308" data-name="Trazado 101308" d="M264.017,447.242h.469l-.235,1.173h-.938l.7-1.173Z" transform="translate(-8.515 -22.818)" fill="#fff" fill-rule="evenodd"/>
    <path id="Trazado_101309" data-name="Trazado 101309" d="M277.6,449.333l-.7-.939s-.938,1.408-1.407,1.408a1.82,1.82,0,0,1-.7.234l-.469.469v.7l1.173.469a3.313,3.313,0,0,1-1.173.7c-.469,0-.7,0-.939.469s0,.47.235.7a4.476,4.476,0,0,0,1.877.7c.469,0,1.172-.234.7-.469s-.7-.469-.939-.469-.234-.47,0-.47c.47-.234,2.815-1.641,2.815-1.641l-.7-.7-1.172.7-.7-.47,2.11-1.407Z" transform="translate(-10.367 -23.032)" fill="#fff" fill-rule="evenodd"/>
    <path id="Trazado_101310" data-name="Trazado 101310" d="M272.245,455.6a6.838,6.838,0,0,0,1.877.469,1.627,1.627,0,0,0,1.173,0l-.235.939h-1.172a3.486,3.486,0,0,0-1.408-.234l-.234-.235V455.6Z" transform="translate(-10.175 -24.371)" fill="#fff" fill-rule="evenodd"/>
    <path id="Trazado_101311" data-name="Trazado 101311" d="M280.233,452.937l.469.47.7-1.408-1.172-.469v-.939l2.346,1.173-2.346,5.16V454.58l.234-.7h-.234v-.939Zm0,5.864v0Zm-1.408-6.333,1.408.469v.939l-1.642-.469-.469.7V452l.938-1.877,1.173.469v.939l-.7-.235-.7,1.173Zm1.408,2.111v2.346l-.7,1.173a.729.729,0,0,0,.47.234l.234.234v.234H280c0,.234-.234.234-.7.234a9.854,9.854,0,0,0-1.172-.469v-1.173a1.81,1.81,0,0,0,.7.235l.7-1.408-1.407-.469v-.939l1.642.469.469-.7ZM278.122,452v2.111l-.235.469.235.234v.939l-.47-.47-.7,1.408a9.344,9.344,0,0,1,.938.7h.235v1.173c-1.173-.7-3.284-1.877-3.284-1.877l.469-.7.939.469L278.122,452Z" transform="translate(-10.657 -23.353)" fill="#fff" fill-rule="evenodd"/>
    <path id="Trazado_101312" data-name="Trazado 101312" d="M288.063,453a11.446,11.446,0,0,0-.7,1.642c-.234,0-.938.469-1.172.469-.234.234-.47.469-.47.7a2.364,2.364,0,0,0,.235.7h1.172c.234,0,.469,0,.234.234a3.962,3.962,0,0,1-1.407.7c-.235.234-.7.234-.47.7s.234.469.939.469,2.346.234,2.346.234v-.7a3.131,3.131,0,0,1-1.173-.235c-.234,0-.469-.234,0-.469a13.417,13.417,0,0,0,1.877-1.642l.234-.234a1.751,1.751,0,0,0-.7-.7,1.452,1.452,0,0,0-.469.938,2.339,2.339,0,0,1-.939-.234c-.469-.234-.234-.234,0-.469L289,453.707l-.939-.7Z" transform="translate(-12.624 -23.889)" fill="#fff" fill-rule="evenodd"/>
    <path id="Trazado_101313" data-name="Trazado 101313" d="M292.454,458.433l.7.234.47-2.815-1.173-.234v-.938l2.58.7-1.172,3.988-1.408-.234v-.7Zm-.7-3.05-.469,2.814,1.172.235v.7l-2.346-.469,1.173-4.222,1.172.234v.938l-.7-.234Z" transform="translate(-13.495 -24.157)" fill="#fff" fill-rule="evenodd"/>
    <path id="Trazado_101314" data-name="Trazado 101314" d="M292.125,461.306l.938-.235.938,2.346-.938.469-.938-2.58Z" transform="translate(-13.87 -25.388)" fill="#fff" fill-rule="evenodd"/>
    <path id="Trazado_101315" data-name="Trazado 101315" d="M290.264,461.486l-2.111,1.642-.7-.7a.23.23,0,0,0,.234-.234c.234-.234.234-.47-.234-.47-.234,0-2.814.235-2.814.235v-1.173s2.111.469,2.58.469a2.431,2.431,0,0,0,.939-.234.726.726,0,0,0,.234.469c0,.234,0,.234.469,0l.7-.7.7.7Z" transform="translate(-12.478 -25.335)" fill="#fff" fill-rule="evenodd"/>
    <path id="Trazado_101316" data-name="Trazado 101316" d="M305.057,461.453a.7.7,0,1,0,0-1.407v-.7a1.314,1.314,0,0,1,1.173,1.407,1.109,1.109,0,0,1-1.173,1.173v-.47Zm-.939-.7c0,.469.47.7.939.7v.47c-.939,0-1.408-.47-1.408-1.173a1.352,1.352,0,0,1,1.408-1.407v.7c-.469,0-.939.234-.939.7Z" transform="translate(-16.012 -25.067)" fill="#fff" fill-rule="evenodd"/>
    <path id="Trazado_101317" data-name="Trazado 101317" d="M317.051,462.914a1.777,1.777,0,0,0,.938-.469c-.234-.939-.7-1.173-.938-1.173v-1.641c1.407.234,2.58,2.58,2.58,4.457s-2.111,2.58-2.58,2.58h0v-.7a.859.859,0,0,0,.7-.235,1.671,1.671,0,0,0,.7-1.407v-.939l-1.407.47v-.939Zm-1.173,0h1.173v.939a5.05,5.05,0,0,1-1.877,0V462.68c0-1.408.7-3.049,1.641-3.049h.235v1.641h-.235c-.938,0-.938,1.642-.938,1.642Zm1.173,3.05v.7c-.47,0-1.173-.234-1.408-.234-.469-.234-.234-.234.234-.234a2.554,2.554,0,0,0,1.173-.234Z" transform="translate(-18.154 -25.12)" fill="#fff" fill-rule="evenodd"/>
    <path id="Trazado_101318" data-name="Trazado 101318" d="M319.965,450.4l.469-.469,4.457,6.1a46.592,46.592,0,0,0,8.913-3.519A53.037,53.037,0,0,0,346,444.3a55.5,55.5,0,0,0,10.321-12.9c-1.173-1.642-3.05-3.753-3.05-3.753l-1.407,1.877.234.469,1.172-.7,1.642,1.642a61.061,61.061,0,0,1-4.222,6.1c-2.111,2.58-7.036,7.975-12.432,11.024-5.394,3.283-8.679,4.925-12.666,6.1-2.58-3.05-4.925-6.333-4.925-6.333l-1.173,2.111.47.469Z" transform="translate(-18.957 -19.176)" fill="#fff" fill-rule="evenodd"/>
    <path id="Trazado_101319" data-name="Trazado 101319" d="M355.5,434.085l-4.457,4.691s-.7-.938-.939-5.16c0-.235-.234-.7-.234,0,0,.469-.7,6.8-.7,6.8l1.408.469,4.691-4.925,1.407.938,1.173-.938-2.345-1.877Z" transform="translate(-24.473 -20.216)" fill="#fff" fill-rule="evenodd"/>
    <path id="Trazado_101320" data-name="Trazado 101320" d="M363,437.52a.938.938,0,0,1,1.877,0,.938.938,0,1,1-1.877,0Z" transform="translate(-27.044 -20.836)" fill="#fff" fill-rule="evenodd"/>
    <path id="Trazado_101321" data-name="Trazado 101321" d="M365.017,434.927a.938.938,0,1,1,.938.938,1.009,1.009,0,0,1-.938-.938Z" transform="translate(-27.418 -20.354)" fill="#fff" fill-rule="evenodd"/>
    <path id="Trazado_101322" data-name="Trazado 101322" d="M367.034,427.938Z" transform="translate(-27.793 -19.23)" fill="#fff" fill-rule="evenodd"/>
    <path id="Trazado_101323" data-name="Trazado 101323" d="M359.255,420.6l.938-1.877c1.173.938,6.1,6.333,6.1,6.333l-.7,1.172-5.161-5.394-.469.469-.7-.7Z" transform="translate(-26.348 -17.516)" fill="#fff" fill-rule="evenodd"/>
    <path id="Trazado_101324" data-name="Trazado 101324" d="M289.045,406.871a23.178,23.178,0,0,0,23.221-22.753c-.234-.234-.234-.469-.469-.7H294.674v-.7h15.95a7.261,7.261,0,0,0-3.049-1.408l.234-.469c1.408-2.346,2.58-4.222,3.283-5.161a23.691,23.691,0,0,0-22.048-15.481v-.7A23.925,23.925,0,0,1,311.8,375.44h6.333a30.466,30.466,0,0,0-29.086-22.048v-.939a30.959,30.959,0,0,1,29.789,22.987h40.11c.7,0,.234-.7,1.173,0,.234.234.469.469.469.7h0a1.557,1.557,0,0,1-.939,1.172c-1.172,1.408-4.222,4.457-4.222,4.457h-42.69a14.89,14.89,0,0,0-2.814-1.642l2.111-3.283h46.443c.469,0,.938-.234.938-.469.234-.234-.234-.234-.469-.234H311.563c-.235.469-1.408,2.346-2.815,4.691,10.086,3.752,7.741,14.073,4.457,19a29.041,29.041,0,0,1-24.16,12.9v-.7a28.307,28.307,0,0,0,23.69-12.666c3.05-4.692,3.753-10.556.47-14.544a24.21,24.21,0,0,1-24.16,22.988v-.939Zm-22.752-23.456-.7.7a23.384,23.384,0,0,0,23.456,22.753v.939a24.21,24.21,0,0,1-24.16-22.988c-3.283,3.988-2.58,9.852.47,14.544a28.307,28.307,0,0,0,23.69,12.666v.7a29.784,29.784,0,0,1-24.395-12.9c-3.049-4.926-5.629-15.247,4.692-19a40.841,40.841,0,0,0-3.05-4.691H219.146c-.234,0-.7,0-.7.234a1.378,1.378,0,0,0,1.172.469h46.443l2.111,3.283c-1.173.469-2.111,1.173-3.049,1.642H222.664s-3.283-3.049-4.457-4.457a1.994,1.994,0,0,1-.7-1.172h0c0-.235.234-.47.469-.7.7-.7.47,0,1.173,0h39.875a31.448,31.448,0,0,1,30.023-22.987v.939a30.252,30.252,0,0,0-29.086,22.048h6.333a23.925,23.925,0,0,1,22.752-15.95v.7A23.693,23.693,0,0,0,267,375.674c.47.939,1.877,2.815,3.284,5.161l.234.469a7.261,7.261,0,0,0-3.049,1.408h15.95v.7Z" transform="translate(0 -5.199)" fill="#fff" fill-rule="evenodd"/>
    <path id="Trazado_101325" data-name="Trazado 101325" d="M300.813,389.333v25.332h-.938V389.333h.938Zm3.753-2.111,17.592,17.592-.7.469L304.1,387.925c.234-.234.469-.469.469-.7Zm-.7-7.975,17.592-17.357.469.7L304.566,379.95l-.7-.7Zm-3.988-1.173V352.741h.938v25.332h-.938Zm-3.753,1.877-17.357-17.357.469-.7,17.357,17.357c-.234.234-.234.469-.469.7ZM278.3,404.813l17.592-17.592.7.7L279,405.517l-.7-.7Z" transform="translate(-11.299 -5.253)" fill="#fff" fill-rule="evenodd"/>
    <path id="Trazado_101326" data-name="Trazado 101326" d="M310.042,439.742s-5.394-5.864-11.259-7.506c-5.4-1.407-7.506-1.877-12.432-.7-4.692.938-9.148,2.58-13.37.938-.469,0-.7,0-.469.469.469.235.939.939,1.642,1.408.938.7,3.519,1.408,6.1,1.877a14.678,14.678,0,0,0,7.506-.7c3.752-1.408,5.394-2.346,9.148-2.346,3.988,0,4.457.938,11.259,7.036a17.209,17.209,0,0,0,1.877-.469Z" transform="translate(-10.207 -19.774)" fill="#fff" fill-rule="evenodd"/>
    <path id="Trazado_101327" data-name="Trazado 101327" d="M280.944,428.2a20,20,0,0,0-3.518.938,15.647,15.647,0,0,1-4.692,0c-1.876-.234-4.222-.469-6.1-2.345a36.889,36.889,0,0,1-4.222-5.161c-.234-.234-.234-.469.235,0s1.876,1.642,5.16,2.346a21.55,21.55,0,0,1,7.74,2.58,9.244,9.244,0,0,0,4.692,1.172c-1.642-1.172-2.111-.938-3.284-1.642a10.366,10.366,0,0,1-3.049-3.283,9.015,9.015,0,0,1-1.408-3.988c-.234-.7,0-1.173-.234-1.642,0-.234,0-.7.234-.234a31.1,31.1,0,0,0,2.58,2.346,10.145,10.145,0,0,1,3.05,3.753c.938,1.877.938,2.58,2.58,3.988,1.642,1.173,1.877,1.173,1.173,1.173Z" transform="translate(-8.319 -17.149)" fill="#fff" fill-rule="evenodd"/>
    <path id="Trazado_101328" data-name="Trazado 101328" d="M262.651,395.881H231.923s-3.05-3.283-4.222-4.457c-.469-.469-1.173-1.172-.469-1.876.938-.7.469,0,1.172,0h37.53l-.7.7H228.4c-.234,0-.469,0-.469.234s.469.469.938.469h35.888a10.206,10.206,0,0,0-2.11,4.926Z" transform="translate(-1.753 -12.036)" fill="#fff" fill-rule="evenodd"/>
    <path id="Trazado_101329" data-name="Trazado 101329" d="M270.9,422.367c-.469-.235-4.457-1.408-6.333-2.112a10.8,10.8,0,0,1-5.864-5.16c-1.172-3.049-2.346-5.16-2.346-5.864-.234-.938-.234-.938,0-1.172h.234a16.6,16.6,0,0,0,3.753,4.691c1.408,1.408,3.519,2.58,4.457,3.519a41.952,41.952,0,0,1,3.284,3.049,4.2,4.2,0,0,0,1.642,1.408s-1.642-2.346-2.346-3.519a5.376,5.376,0,0,1-1.407-3.519V409c0-.234.234-.469.469,0,.234.234,1.407,1.877,2.346,3.284a13.567,13.567,0,0,1,1.172,3.988,7.985,7.985,0,0,0,.234,2.345,10.378,10.378,0,0,0,1.173,3.518c.234.47,0,.47-.469.235Z" transform="translate(-7.189 -15.535)" fill="#fff" fill-rule="evenodd"/>
    <path id="Trazado_101330" data-name="Trazado 101330" d="M257.552,407.194s1.641,1.877,2.814,3.05c1.172.938,3.283,2.814,3.518,3.049s.235.234.235-.234c0-.234.234-2.346.234-3.518a12.045,12.045,0,0,0,.234-2.346h-2.58s.7,1.642.938,2.346a1.624,1.624,0,0,1,0,1.172,5.133,5.133,0,0,1-.938-1.877,5.366,5.366,0,0,0-.7-1.642Z" transform="translate(-7.444 -15.374)" fill="#fff" fill-rule="evenodd"/>
    <path id="Trazado_101331" data-name="Trazado 101331" d="M255.817,377.165a13.712,13.712,0,0,1,.7-5.161,17.794,17.794,0,0,1,3.284-6.333c.234-.234.469-.234.469.235-.234.234-.939,1.876-.939,5.863v5.4Z" transform="translate(-7.116 -7.627)" fill="#fff" fill-rule="evenodd"/>
    <path id="Trazado_101332" data-name="Trazado 101332" d="M261.585,378.263a54.982,54.982,0,0,0,3.988-3.988,27.6,27.6,0,0,0,2.346-2.58c.234-.234.469-.469.469,0a29.042,29.042,0,0,1-2.814,6.568Z" transform="translate(-8.193 -8.725)" fill="#fff" fill-rule="evenodd"/>
    <path id="Trazado_101333" data-name="Trazado 101333" d="M261.585,367.518a10.229,10.229,0,0,1,3.049-7.741c.939-.7,1.408-1.408,1.877-1.642.235-.469.7-.469.235,0a19.121,19.121,0,0,0-1.642,4.692,34.774,34.774,0,0,1-1.877,6.8c1.642-2.58,1.642-3.284,4.457-4.925,2.58-1.642,3.988-3.05,4.222-3.753.469-.469.469-.469.469.234a19.443,19.443,0,0,1-3.753,5.864c-2.58,2.346-5.394,4.222-6.333,6.333-.234.469-.469.7-.469,0,0-.939-.234-3.05-.234-5.864Z" transform="translate(-8.193 -6.19)" fill="#fff" fill-rule="evenodd"/>
    <path id="Trazado_101334" data-name="Trazado 101334" d="M266.483,363.019c.234-.469.938-3.753,3.283-5.63,2.111-2.111,4.926-3.049,5.63-3.518.7-.234.7,0,.469.234a29.487,29.487,0,0,0-3.283,4.222c-1.173,1.877-1.877,2.814-3.284,3.283a16.563,16.563,0,0,0-2.346,1.642c-.469.47-.469.47-.469-.234Z" transform="translate(-9.104 -5.445)" fill="#fff" fill-rule="evenodd"/>
    <path id="Trazado_101335" data-name="Trazado 101335" d="M292.125,439.742s5.16-5.864,11.024-7.506c5.4-1.407,7.741-1.877,12.432-.7,4.925.938,9.382,2.58,13.6.938.47,0,.7,0,.234.469a5.3,5.3,0,0,1-1.641,1.408c-.7.7-3.284,1.408-5.864,1.877a15.559,15.559,0,0,1-7.741-.7c-3.752-1.408-5.16-2.346-8.913-2.346-3.988,0-4.691.938-11.259,7.036a17.209,17.209,0,0,1-1.877-.469Z" transform="translate(-13.87 -19.774)" fill="#fff" fill-rule="evenodd"/>
    <path id="Trazado_101336" data-name="Trazado 101336" d="M324.986,428.2a17.173,17.173,0,0,1,3.752.938,14.122,14.122,0,0,0,4.457,0c1.876-.234,4.222-.469,6.1-2.345a45.464,45.464,0,0,0,4.457-5.161c.234-.234,0-.469-.47,0s-1.876,1.642-5.16,2.346a21.965,21.965,0,0,0-7.506,2.58,10.677,10.677,0,0,1-4.691,1.172c1.642-1.172,2.111-.938,3.05-1.642a8.814,8.814,0,0,0,3.283-3.283,9.015,9.015,0,0,0,1.408-3.988v-1.642c.234-.234.234-.7-.234-.234a10.56,10.56,0,0,1-2.346,2.346,10.519,10.519,0,0,0-3.283,3.753,7.408,7.408,0,0,1-2.58,3.988c-1.408,1.173-1.877,1.173-.939,1.173Z" transform="translate(-19.756 -17.149)" fill="#fff" fill-rule="evenodd"/>
    <path id="Trazado_101337" data-name="Trazado 101337" d="M338.913,395.881h30.728l4.457-4.457c.469-.469,1.173-1.172.234-1.876-.7-.7-.469,0-1.173,0H335.63l.7.7h36.826c.235,0,.7,0,.7.234a1.219,1.219,0,0,1-.939.469H337.037a9.821,9.821,0,0,1,1.877,4.926Z" transform="translate(-21.956 -12.036)" fill="#fff" fill-rule="evenodd"/>
    <path id="Trazado_101338" data-name="Trazado 101338" d="M336.355,422.367c.469-.235,4.457-1.408,6.1-2.112s4.691-2.11,5.864-5.16c1.407-3.049,2.58-5.16,2.58-5.864a1.624,1.624,0,0,0,0-1.172h-.234a16.6,16.6,0,0,1-3.753,4.691c-1.642,1.408-3.519,2.58-4.691,3.519l-3.05,3.049a4.2,4.2,0,0,1-1.642,1.408l2.112-3.519a4.585,4.585,0,0,0,1.641-3.519c0-1.641-.234-4.222-.234-4.691,0-.234,0-.469-.234,0a17.206,17.206,0,0,0-2.346,3.284,13.574,13.574,0,0,0-1.173,3.988,7.986,7.986,0,0,1-.234,2.345l-1.172,3.518c-.234.47-.234.47.469.235Z" transform="translate(-21.978 -15.535)" fill="#fff" fill-rule="evenodd"/>
    <path id="Trazado_101339" data-name="Trazado 101339" d="M351.363,407.194a34.874,34.874,0,0,1-2.58,3.05c-1.172.938-3.283,2.814-3.518,3.049s-.47.234-.47-.234a23.2,23.2,0,0,0-.234-3.518v-2.346h2.345s-.469,1.642-.7,2.346a4.1,4.1,0,0,0-.234,1.172,7.9,7.9,0,0,0,1.172-1.877,8.718,8.718,0,0,0,.47-1.642Z" transform="translate(-23.616 -15.374)" fill="#fff" fill-rule="evenodd"/>
    <path id="Trazado_101340" data-name="Trazado 101340" d="M353.893,377.165a18.122,18.122,0,0,0-.938-5.161,12.571,12.571,0,0,0-3.284-6.333c-.234-.234-.469-.234-.234.235.234.234.939,1.876.939,5.863,0,3.519-.235,1.408-.235,5.4Z" transform="translate(-24.505 -7.627)" fill="#fff" fill-rule="evenodd"/>
    <path id="Trazado_101341" data-name="Trazado 101341" d="M347.618,378.263a54.985,54.985,0,0,1-3.988-3.988c-2.111-1.877-2.346-2.345-2.346-2.58-.234-.234-.469-.469-.469,0a38.8,38.8,0,0,0,2.58,6.568Z" transform="translate(-22.92 -8.725)" fill="#fff" fill-rule="evenodd"/>
    <path id="Trazado_101342" data-name="Trazado 101342" d="M346.451,367.518c0-2.58-.469-5.63-2.814-7.741a17.534,17.534,0,0,1-1.877-1.642c-.47-.469-.7-.469-.47,0a16.545,16.545,0,0,1,1.877,4.692,36.271,36.271,0,0,0,1.642,6.8c-1.408-2.58-1.408-3.284-4.222-4.925a13.091,13.091,0,0,1-4.457-3.753c-.234-.469-.469-.469-.234.234a15.4,15.4,0,0,0,3.753,5.864c2.58,2.346,5.16,4.222,6.333,6.333,0,.469.234.7.469,0v-5.864Z" transform="translate(-21.988 -6.19)" fill="#fff" fill-rule="evenodd"/>
    <path id="Trazado_101343" data-name="Trazado 101343" d="M341.838,363.019a9.37,9.37,0,0,0-3.049-5.63c-2.346-2.111-5.161-3.049-5.864-3.518-.47-.234-.7,0-.235.234a33.775,33.775,0,0,1,3.05,4.222c1.408,1.877,2.111,2.814,3.519,3.283a16.562,16.562,0,0,1,2.345,1.642c.234.47.469.47.234-.234Z" transform="translate(-21.362 -5.445)" fill="#fff" fill-rule="evenodd"/>
    <path id="Trazado_101344" data-name="Trazado 101344" d="M264.613,404.813H241.392l-4.457-4.456c-.235-.469-.7-.7-.7-1.173h0c0-.234.234-.469.469-.7.7-.7.47,0,.939,0h26.74v.7h-26.74s-.469,0-.469.235a1.218,1.218,0,0,0,.938.469h26.271a18.28,18.28,0,0,0,.938,4.925h.234a15.779,15.779,0,0,0,1.877,3.988,29.882,29.882,0,0,0,25.1,13.6v.7a30.767,30.767,0,0,1-25.8-13.839,13.058,13.058,0,0,1-2.111-4.457Zm84.207-5.63c0-.234-.234-.469-.469-.7-.939-.7-.47,0-1.173,0H320.672v.7h26.506c.234,0,.7,0,.469.235,0,.234-.469.469-.938.469H320.672a18.818,18.818,0,0,1-1.172,4.925h0a15.777,15.777,0,0,1-1.877,3.988,29.882,29.882,0,0,1-25.1,13.6v.7a30.767,30.767,0,0,0,25.8-13.839,40.175,40.175,0,0,0,2.111-4.457h23.221s3.05-3.284,4.222-4.456c.47-.469.939-.7.939-1.173Z" transform="translate(-3.481 -13.696)" fill="#fff" fill-rule="evenodd"/>
    <path id="Trazado_101345" data-name="Trazado 101345" d="M329.9,375.45c-.469-.469,0-.938.235-1.172.7-.469-.47-.7-.47-1.173-.234,0-.469-.234-.7-.469,0-.469.234-.7,0-.938-.234,0-.469,0-.469-.235a1.41,1.41,0,0,1-.234-.938c-.469-.469-1.642-.7-1.877-1.642.234.234.469.234.469,0-.469,0-.234-.7-.7-.469h-.234c0-.234-.235-.469-.235-.7h-.469c0-.47,0-.7-.469-.939-.234-.234,0-.7,0-1.172a.726.726,0,0,1-.469.234c-.469-.7-.939-1.173-1.173-1.642s-.469-.7-.469-1.173c0,0-.234-.234,0-.234,0-.234.234.234.234,0,0-.7-.7-1.641-1.408-1.407l-1.407.7a4.575,4.575,0,0,1-1.877.234,2.362,2.362,0,0,0-.7.234c-.235.7.469,1.408.7,2.111.234.47.234.939.469,1.408v.234c-.234,0,0,.234,0,.234.234,0,.234.234.469.469v.939a3.253,3.253,0,0,0,.939.7c.469.234.7,0,1.172,0a.23.23,0,0,1,.234.234c.235.7-.469,1.408.235,2.111.234.469.7.234.938.469.234,0,0,.235,0,.47h.939v0c-.47.7.469,1.172.938,1.172.234,0,.234.469.234.469.469.47,1.173.235,1.642.47a2.362,2.362,0,0,1,.234.7.5.5,0,0,0,.469.469c0,.939,1.408.7,2.111.7,0-.47.469-.47.469-1.173l.234.7Z" transform="translate(-18.572 -6.851)" fill="#fff" fill-rule="evenodd"/>
    <path id="Trazado_101346" data-name="Trazado 101346" d="M308.192,358.22c.469.235.234-.469.7-.469.234,0,.469,0,.469-.234v-.234c-.469,0-.7-.469-.939-.234a11.6,11.6,0,0,1-3.049.938v.234a5.524,5.524,0,0,1,1.877.47c.234,0,.469.469.7.469s.7-.7.234-.939Z" transform="translate(-16.333 -6.041)" fill="#fff" fill-rule="evenodd"/>
    <path id="Trazado_101347" data-name="Trazado 101347" d="M305.591,362.8c.469,0,.7-.234.939,0-.234.234,0,.469-.234.7,0,.47-.7.47-.939,0-.234-.234,0-.469.469-.7Z" transform="translate(-16.312 -7.103)" fill="#fff" fill-rule="evenodd"/>
    <path id="Trazado_101348" data-name="Trazado 101348" d="M311.876,362.81c-.234.234-.47,0-.47.234-.234.234,0,.469.235.7v.234s.469,0,.234.234c.469-.234.469-.469.7-.7v-.234h-.234c-.234-.234-.469-.7-.7-.469Z" transform="translate(-17.436 -7.112)" fill="#fff" fill-rule="evenodd"/>
    <path id="Trazado_101349" data-name="Trazado 101349" d="M326.658,379.556a1.066,1.066,0,0,1,0-1.173h.234c0,.469.234.7,0,.939l-.234.234Z" transform="translate(-20.256 -10.019)" fill="#fff" fill-rule="evenodd"/>
    <path id="Trazado_101350" data-name="Trazado 101350" d="M321.745,378.1c-.234.234-.938.469-.938.939-.234,0-.234.234-.469.234a.23.23,0,0,0,.234.234v.469c-.234.234-.469.7-.234.939s.469,0,.938,0a1.044,1.044,0,0,1,.469-1.408.44.44,0,0,0,0-.7c.47,0,.234-.234.234-.469a.23.23,0,0,0-.234-.234v0Z" transform="translate(-19.096 -9.965)" fill="#fff" fill-rule="evenodd"/>
    <path id="Trazado_101351" data-name="Trazado 101351" d="M315.174,369.11c.938-.234,1.407,0,2.345-.234.469,0,.469.7.7.938s.469,0,.7.234a17.692,17.692,0,0,1,1.407,3.05c.234.469.939.938,1.173,1.641,0,.234.469.234.7.47a.726.726,0,0,1-.234.469h.469c0,.469.469.938.7,1.407.234,0,0,.47,0,.7.234,0,.234,0,.234.234v1.642a1.775,1.775,0,0,1-.939-.234V379.2c-.469-.47-1.642-.7-.938-1.173a1.993,1.993,0,0,0,.7-1.173c-.234,0-.469,0-.469-.234-.234-.234,0-.7-.234-.938s-.7-.234-.939-.469,0-.47-.234-.7a5.655,5.655,0,0,1-1.877-1.407c-.234-.235.234-.7,0-1.173-.234-.234-.7-.469-.938-.938,0-.234.234-.234.234-.47v-.469c0-.234-.234,0-.234-.234-.469.234-.939,0-1.173,0a.726.726,0,0,1-.469.234c-.469-.234-.7-.469-.469-.938,0-.234.234-.234.7-.234l-.938.234Z" transform="translate(-18.154 -8.252)" fill="#fff" fill-rule="evenodd"/>
    <path id="Trazado_101352" data-name="Trazado 101352" d="M324.339,375.79h-.234c0,.469.469.469.7.7,0-.47,0-.7-.47-.7Z" transform="translate(-19.814 -9.537)" fill="#fff" fill-rule="evenodd"/>
    <path id="Trazado_101353" data-name="Trazado 101353" d="M325.2,377.412h-.234c.234.234.234.7.469.7.469-.234.234-.7.234-1.172-.234.234-.469.234-.469.469Z" transform="translate(-19.975 -9.751)" fill="#fff" fill-rule="evenodd"/>
    <path id="Trazado_101354" data-name="Trazado 101354" d="M323.858,386.013c.234-.234.234-.7.7-.7.234-.234.469-.469.7-.469,0-.234,0-.7.234-.7.469-.234.234.7.234.939-.7.938-1.172,2.58-2.111,2.111-.7,0-.469-1.173-.469-1.877-.234-.469-.939,0-1.173-.234s.234-.469-.469-.7c.469,0,1.408-.47,1.877,0,.234.234-.234,1.641.7,1.641Z" transform="translate(-19.332 -11.081)" fill="#fff" fill-rule="evenodd"/>
    <path id="Trazado_101355" data-name="Trazado 101355" d="M326.772,385.66c-.234.469,0,.7-.469.938,0,0,.234.47,0,.47s-.234,0-.469.234c.234.234.938.7.938.469.469-.938,1.173-2.111.234-3.049v.7a.819.819,0,0,0-.234.469v-.234Z" transform="translate(-20.136 -11.197)" fill="#fff" fill-rule="evenodd"/>
    <path id="Trazado_101356" data-name="Trazado 101356" d="M327.348,380.634c-.469-.234-.7-.234-.938,0a10.176,10.176,0,0,0,.234,1.173c.234.469-.469,1.172,0,1.407,0,.234.7,0,.7-.234,0-.938.47-1.641,0-2.58h-.469l.469.234Z" transform="translate(-20.243 -10.394)" fill="#fff" fill-rule="evenodd"/>
    <path id="Trazado_101357" data-name="Trazado 101357" d="M315.12,367.957c-.234-.234-.234,0-.234,0,0,.234.234.234.469.469v-.7h-.469l.234.234Z" transform="translate(-18.101 -8.037)" fill="#fff" fill-rule="evenodd"/>
    <path id="Trazado_101358" data-name="Trazado 101358" d="M314.971,387.934a12.514,12.514,0,0,1-12.432,12.432v-.938a11.512,11.512,0,0,0,11.493-11.494,11.715,11.715,0,0,0-11.493-11.728v-.7a12.514,12.514,0,0,1,12.432,12.432ZM302.54,400.365h0a12.364,12.364,0,0,1-12.432-12.432A12.22,12.22,0,0,1,302.54,375.5v.7a11.612,11.612,0,1,0,0,23.222v.938Z" transform="translate(-13.495 -9.483)" fill="#fff" fill-rule="evenodd"/>
    <path id="Trazado_101359" data-name="Trazado 101359" d="M282.917,370.61c-.234-.469.234-.938,0-1.172-.469-.234-.938.234-1.172.469-.234.469.7.469.938.469a.23.23,0,0,1,.234.234Z" transform="translate(-11.934 -8.344)" fill="#fff" fill-rule="evenodd"/>
    <path id="Trazado_101360" data-name="Trazado 101360" d="M302.063,383.6c-.469,0-.469-.469-.7-.7-.47-.234-.7,0-1.173,0l-.234-.234c-.234-.234-.469-.234-.469,0-.469,0-.469.469-.469.7-.234.469-.47.7-.939.7h-.234a2.571,2.571,0,0,1-1.877,0c-.7-.235-1.172-.939-2.111-.939a4,4,0,0,0-2.346,0,.819.819,0,0,1-.469.234.726.726,0,0,0-.469.234c-.47.234-.7,1.173-1.408,1.408a2.051,2.051,0,0,0-1.408,2.111c-.234-.234-.7.234-.7.234a3.336,3.336,0,0,0-.469,1.408,2.974,2.974,0,0,0-.234,1.407c.234.47-.234.939,0,1.642a.864.864,0,0,0,.234.7,2.14,2.14,0,0,1,.7-1.877v-.47c.234-.469,0-.938.234-1.172.469-.234.469-.7.7-1.173h.235c0-.234.234-.234.234-.469a.713.713,0,0,1,.938,0c.469,1.408-.469,3.284,1.173,3.753a7.124,7.124,0,0,0,1.641,1.172,1.291,1.291,0,0,1,1.173.7c0,.469.7.234.7.469.235.469.47.7.47,1.172.234-.234.469-.469.234-.7.234.234.234.7.469.939,0-.939.7-1.408,1.172-1.877.235-.234.47-.234.7-.469a.862.862,0,0,1,.234-.7c.234-.469.7-.7.938-.938s.47-.7.7-.939c-.234,0-.939.234-.7-.234.47-.7.939-.7,1.408-1.407.234,0,0-.47,0-.7a1.552,1.552,0,0,1-1.408.234.325.325,0,0,1,0-.469,10.248,10.248,0,0,1,1.408-1.642c.234-.234.938-.234,1.173-.469.469-.234.234-.7.7-1.172,0-.235,0-.47.234-.47Z" transform="translate(-12.784 -10.782)" fill="#fff" fill-rule="evenodd"/>
    <path id="Trazado_101361" data-name="Trazado 101361" d="M290.583,392.2c-.234.235-.469.47-.7.47a.861.861,0,0,1-.7-.234c0,.469.234.7.234.938-.234.469-.7.469-.469.7s.234.7.7.939c.234,0,0-.234,0-.234h0c0-.469.234-.469.469-.7,0,0-.234-.469,0-.7.234-.469.7-.469.939-.938-.234,0,0-.47-.47-.235Z" transform="translate(-13.266 -12.574)" fill="#fff" fill-rule="evenodd"/>
    <path id="Trazado_101362" data-name="Trazado 101362" d="M288.932,395.67c0,.234-.235.234,0,.469a2.346,2.346,0,0,0,.938,1.173c0-.47-.234-.939,0-1.408-.234,0-.7-.234-.938-.234Z" transform="translate(-13.257 -13.232)" fill="#fff" fill-rule="evenodd"/>
    <path id="Trazado_101363" data-name="Trazado 101363" d="M303.219,390.2c.47.234.234.938.47.938.469.234.7.234.7.7v.235a2.393,2.393,0,0,1-1.173,1.877.726.726,0,0,1-.234.469c-.234.234-.7.234-1.407.234.234.234,0,.234,0,.469-.47,0-1.408,0-1.408-.234-.469-.469.938-1.173,1.173-1.642a8.332,8.332,0,0,0,.938-2.111c0-.234.469-.469.7-.7a1.22,1.22,0,0,1,.939.469h-.234l-.47-.7Z" transform="translate(-15.348 -12.214)" fill="#fff" fill-rule="evenodd"/>
    <path id="Trazado_101364" data-name="Trazado 101364" d="M304.041,395.943h-.7c-.234.234,0,.469,0,.938a1.783,1.783,0,0,0,.939-.469c.234,0,0-.234,0-.469-.235-.234-.47.234-.47.234a.23.23,0,0,1-.234-.234Z" transform="translate(-15.935 -13.27)" fill="#fff" fill-rule="evenodd"/>
    <path id="Trazado_101365" data-name="Trazado 101365" d="M306.424,393.053s-.235-.234-.235,0c-.234.234-.234.234,0,.7h-.234v.234c.47,0,.47-.234.47-.7h.234v-.234Z" transform="translate(-16.44 -12.726)" fill="#fff" fill-rule="evenodd"/>
    <path id="Trazado_101366" data-name="Trazado 101366" d="M282.673,394.122c.469,0,.939-.234,1.408.234a1.977,1.977,0,0,1,.938,1.642,9.836,9.836,0,0,1,.939,3.519c0,.234-.235.469-.235.7-.234.7.47,1.173,1.173,1.408a.325.325,0,0,1,0,.469.23.23,0,0,1,.234.234c0,.234-.234.47-.469.939,0,.234.234.469.234.938.234.234,0,.7.234.939a4.933,4.933,0,0,0,2.58,1.641v.47c-.7.7-1.876.234-2.345.7a2.663,2.663,0,0,1-1.877.7c-.469,0-.7-.7-1.407-.7-.7-.234-1.173-.7-1.642-.7h0a.862.862,0,0,1-.7.234c-.234-.234-.234-.234-.469-.234-.469-.47-.7-.939-1.172-1.173a14.975,14.975,0,0,0-1.642-.469c-.234-.234-.469-.7-.7-.939s-.235-.938-.7-1.172c-.234-.234-.7-.234-1.172-.469V402.8c-.469,0-.7-.235-1.173-.235h.234c-.469,0-.7,0-.938.235a.23.23,0,0,1-.234-.235c.234.47-.234.939,0,1.173-.234-.234.234-.7,0-.938a1.472,1.472,0,0,1-.47-1.877s-.468-.234-.468-.469a2.12,2.12,0,0,0,.234-1.172l.234-.234c.7-.234,1.173.7,1.877.234.235,0,0-.7.47-.7.7-.235,1.172,0,1.876.469,0,0,.235.469.47,0,0-.234.234-.234.469-.234h0c.469-.47.939-.234,1.408-.234a9.513,9.513,0,0,1,0-2.581.23.23,0,0,0,.234-.234,3.332,3.332,0,0,0,.469-1.408c0-.234.469-.234.7-.469a1.472,1.472,0,0,1,1.877.234h-.469Z" transform="translate(-10.282 -12.857)" fill="#fff" fill-rule="evenodd"/>
    <path id="Trazado_101367" data-name="Trazado 101367" d="M304.118,399.1a.819.819,0,0,0-.469.234.749.749,0,0,0,.7.7V399.1c-.235,0-.47-.234-.47,0Z" transform="translate(-16.012 -13.851)" fill="#fff" fill-rule="evenodd"/>
    <path id="Trazado_101368" data-name="Trazado 101368" d="M316.809,394.772a5.767,5.767,0,0,1-.235,2.814c0,.234-.234.7-.469.7-.938.235-1.642.235-2.58.47-.469.234-1.173-.234-1.877,0-.234,0-.7-.234-.938,0-.469.469-.469.7-.939.469v-.469c.47-.234.234-.7.7-1.173s.938-.7.938-1.172c0-.234-.7-.469-.938-.234-.7.234-1.642,1.172-1.173,2.11,0,.235.234.7,0,.939,0,0-.469,0-.469-.234-.234-.469-.7-.469-.939-.939.234.234.469,1.408.234,1.642-.7.47-.938,0-.938-.234,0,0,0-.469.234-.469,0-.234,0-.469-.234-.469-.469-.235-.7,0-1.172.234,0,.234-.47-.234-.7,0-.469.234,0,1.172-.7,1.172-.939.47-.939-.938-.7-1.642,0-.234.47-.234.7-.469.234-.469,0-.938,0-1.407,0-.234.469,0,.469-.234a2.369,2.369,0,0,0-.234-.7c0-.7.938-1.172,1.173-1.642.469-.234.7-.938.938-1.407,0,0-.234-.469,0-.7s.7,0,1.172,0a1.791,1.791,0,0,0,.47-1.172,1.444,1.444,0,0,0-.235-1.642c-.234-.234-.7-.469-.938-.938a4.961,4.961,0,0,1,.7-1.642v-.7c-.7.235-.938-.469-1.172-.469a7.025,7.025,0,0,1-1.877-.938c-.469-.469,0-1.173,0-1.877.234,0,.234,0,.234-.234.7,0,1.173.234,1.642-.234v-.234c.234-.469.938-.7.938-.469.234.234-.234,1.172-.234,1.172,0,.234,0,.234.234.234.234-.234.234.234.234.234.47,0,.47.234.7.469.7.47.469-.938.7-1.407h.234c-.234-.469.234-.7.47-.939,0-.234-.235-.469-.235-.7l.235-.234c.7.7,1.407-.234,2.11-.469.939-.234,1.408.469,1.877.938-.234,0-.234.469-.234.234h0c0,.47-.469.7-.7.939v.234h.469c.469-.234.7-.939,1.173-.7a2.114,2.114,0,0,0,1.172.234.23.23,0,0,0,.234-.234,3.237,3.237,0,0,1,.7.938c0,.234.469.469.469.7.234.7.7.939.938,1.408.469.7,1.173,1.407,1.642,2.111.234.234.234.469,0,.469,0,.234-.469.469-.469.7,0,.47-.469.939-.469,1.408.234.469,0,.938.234,1.408.234.938,1.407.938,2.345.7.234,1.408-1.408,1.877-2.58,1.877,0,.234-.47.234-.47.234-.234.469-.938.234-1.407.469v.234c-.234,0-.234.234-.469.234-.235.235,0,.7,0,.939v-.234Z" transform="translate(-16.036 -10.222)" fill="#fff" fill-rule="evenodd"/>
    <path id="Trazado_101369" data-name="Trazado 101369" d="M308.219,391.636c-.234,0-.234.234,0,.234,0,.234,0,.234.234,0,.234,0,0-.234-.234-.234Z" transform="translate(-16.829 -12.482)" fill="#fff" fill-rule="evenodd"/>
    <path id="Trazado_101370" data-name="Trazado 101370" d="M309,392.5h-.234l.234.234c-.234,0-.7,0-.469.234s.469,0,.939,0v-.234c-.235,0-.47,0-.47-.234Z" transform="translate(-16.908 -12.643)" fill="#fff" fill-rule="evenodd"/>
    <path id="Trazado_101371" data-name="Trazado 101371" d="M321.639,401.685c-.234-.234-.7-.234-.7.234h.234c-.234.234-.234.469,0,.469h.234v-.234c0-.234.234-.234.469-.234,0-.234,0-.234-.234-.234Z" transform="translate(-19.225 -14.321)" fill="#fff" fill-rule="evenodd"/>
    <path id="Trazado_101372" data-name="Trazado 101372" d="M308.877,404.408a1.771,1.771,0,0,0,.939-.235,2.17,2.17,0,0,1,2.814-.469c.7-.469,1.641.234,2.345,0a2.479,2.479,0,0,0,1.642-1.408c.234.47,1.172,1.642.938,2.581a4.425,4.425,0,0,1-.938,2.111c-.47.7,0,1.407.938,1.642.234,0,.469.469.469,1.172a.23.23,0,0,0-.234.234c-.234.234,0,.7,0,1.173v.938c-.234.469-.234.939-.469,1.173a2.464,2.464,0,0,1-2.111,1.172c-.939.234-.469.939-1.408,1.408-.234,0-1.407.469-1.641.234-.7-.234-1.877-.7-2.581-.938a.864.864,0,0,1-.234-.7s0-.234-.234,0a2.974,2.974,0,0,1-.234-1.407c.234-.234.469-.47.234-.7s-.7-.469-.7-.7c-.234-.7-.234-1.408-.7-1.642a9.984,9.984,0,0,0-2.58.469,3.083,3.083,0,0,1-2.814-.7c-.234-.234,0-1.172-.469-1.408a1.773,1.773,0,0,1-.234-.938c-.235-.939-.235-2.58,1.172-2.58a.23.23,0,0,1,.234-.234c.939,0,1.877-.939,2.581-.234,1.172,0,3.049.938,3.518-.47h0l-.234.47Z" transform="translate(-15.611 -14.464)" fill="#fff" fill-rule="evenodd"/>
    <path id="Trazado_101373" data-name="Trazado 101373" d="M324.192,407.194c.47,0,.939,0,.939.47a3.256,3.256,0,0,1,0,2.111c0,.234,0,.7-.234.7-.47.7-1.173.234-1.408-.469a2.571,2.571,0,0,1,0-1.877,1.158,1.158,0,0,0,.7-.234.822.822,0,0,0-.234-.47c0-.234.234-.234.469-.234Z" transform="translate(-19.667 -15.374)" fill="#fff" fill-rule="evenodd"/>
    <path id="Trazado_101374" data-name="Trazado 101374" d="M274.52,406.906c-.469.7.469.7.234,1.173.234-.469-.234-.7-.234-1.173Z" transform="translate(-10.573 -15.32)" fill="#fff" fill-rule="evenodd"/>
    <path id="Trazado_101375" data-name="Trazado 101375" d="M319.443,386.541a18.319,18.319,0,0,1-18.3,18.3v-.7a17.593,17.593,0,0,0,0-35.183v-.939a18.521,18.521,0,0,1,18.3,18.53Zm-18.3,18.3h0a18.521,18.521,0,0,1-18.53-18.3,18.723,18.723,0,0,1,18.53-18.53v.939a17.592,17.592,0,1,0,0,35.183v.7Z" transform="translate(-12.103 -8.091)" fill="#fff" fill-rule="evenodd"/>
    <path id="Trazado_101376" data-name="Trazado 101376" d="M311.171,389.058a7.718,7.718,0,0,1-7.506,7.506v-.7a6.8,6.8,0,1,0,0-13.6v-.7a7.558,7.558,0,0,1,7.506,7.505Zm-7.506,7.506h0a7.558,7.558,0,0,1-7.506-7.506,7.41,7.41,0,0,1,7.506-7.505v.7a6.8,6.8,0,1,0,0,13.6v.7Z" transform="translate(-14.62 -10.608)" fill="#fff" fill-rule="evenodd"/>
    <path id="Trazado_101377" data-name="Trazado 101377" d="M258.826,440.269c.234.234.469.469.7.469.234.234.234.7,0,.7,0,.234-.469.234-.7.234h0v-1.407Zm0-5.161a17.674,17.674,0,0,1,2.111,2.111l.938.939-1.642,1.876-1.407-1.172v-1.172L260,438.861l.7-.938-1.877-1.642v-1.173Zm-1.173,3.988c.469.469.938.938.938,1.173h.235v1.407c-.47-.234-.235-.469-.47-.7a5.271,5.271,0,0,1-1.172-1.173v-1.641a.819.819,0,0,1,.234-.469l-.234-.235v-1.172l1.642,1.408v1.172l-.7-.469c-.234.234-.469.469-.469.7Zm-.469,3.753c.234.234.7-.234.7-.234l.234.938s0,.469-.938.469v-1.172Zm0-8.913v1.641l.469-.469,1.173,1.173v-1.173a17.024,17.024,0,0,1-1.642-1.407v.234Zm0,5.863h0a5.074,5.074,0,0,0-.234,2.581c0,.234,0,.469.234.469v1.172h-.234c-.234,0-.469,0-.469-.234v-5.629a.818.818,0,0,0,.469.234.23.23,0,0,1,.234-.234V439.8Zm-.7-5.16.7-.7v1.641l-.234.234.234.47v1.172l-.7-.7v-2.111Zm0,9.148c-.7-.7-.7-2.345-.7-3.049a3.8,3.8,0,0,1,.7-1.408l-1.642-1.407-1.173,1.407,1.408.469-.469.7-2.815-.47.234-1.172.47-.234,3.988-3.988v2.111l-.47-.234-.469.7c0,.234.469.47.939.939v5.629Z" transform="translate(-6.373 -20.301)" fill="#fff" fill-rule="evenodd"/>
  </g>
</svg>
