<svg xmlns="http://www.w3.org/2000/svg" xmlns:xlink="http://www.w3.org/1999/xlink" width="65" height="65" viewBox="0 0 65 65">
  <defs>
    <clipPath id="clip-path">
      <rect id="Rectángulo_7859" data-name="Rectángulo 7859" width="65" height="65" transform="translate(222 1845)" fill="#5038a1"/>
    </clipPath>
  </defs>
  <g id="Enmascarar_grupo_65" data-name="Enmascarar grupo 65" transform="translate(-222 -1845)" clip-path="url(#clip-path)">
    <g id="queja_1_" data-name="queja (1)" transform="translate(222 1845)">
      <path id="Trazado_104881" data-name="Trazado 104881" d="M46.724,30.565a2.514,2.514,0,0,0,1.79-.741l3.452-3.452h11.1a3.149,3.149,0,0,0,3.145-3.145V8.548A3.149,3.149,0,0,0,63.065,5.4H41.048v-2.1a2.1,2.1,0,0,0-2.1-2.1H10.031a2.083,2.083,0,0,0-1.482.614L1.824,8.548a2.083,2.083,0,0,0-.614,1.482V64.113a2.1,2.1,0,0,0,2.1,2.1H38.952a2.1,2.1,0,0,0,2.1-2.1V55.726H51.1l3.452,3.452a2.531,2.531,0,0,0,4.32-1.79V55.726h4.194a3.149,3.149,0,0,0,3.145-3.145V37.9a3.148,3.148,0,0,0-3.143-3.145H41.048V26.371h3.145v1.663A2.534,2.534,0,0,0,46.724,30.565ZM8.548,4.789v3.76H4.789ZM3.306,64.113V10.645h7.339V3.306H38.952V5.6a3.141,3.141,0,0,0-2.1,2.952V23.226a3.141,3.141,0,0,0,2.1,2.952v8.774a3.141,3.141,0,0,0-2.1,2.952V52.582a3.141,3.141,0,0,0,2.1,2.952v8.579ZM64.113,37.9V52.581a1.05,1.05,0,0,1-1.048,1.048h-6.29v3.76a.451.451,0,0,1-.741.307l-4.067-4.067H40a1.05,1.05,0,0,1-1.048-1.048V37.9A1.05,1.05,0,0,1,40,36.855H63.067A1.048,1.048,0,0,1,64.113,37.9ZM40,24.274a1.05,1.05,0,0,1-1.048-1.048V8.548A1.05,1.05,0,0,1,40,7.5H63.065a1.05,1.05,0,0,1,1.048,1.048V23.226a1.05,1.05,0,0,1-1.048,1.048H51.1l-4.067,4.067a.451.451,0,0,1-.741-.307v-3.76Z" transform="translate(-1.21 -1.21)" fill="#5038a1"/>
      <path id="Trazado_104882" data-name="Trazado 104882" d="M67.285,12.753,65.874,11.2,55.082,21.013l-2.439-2.439-1.482,1.482,3.852,3.852Z" transform="translate(-7.87 -2.542)" fill="#5038a1"/>
      <path id="Trazado_104883" data-name="Trazado 104883" d="M29.113,42.339H6.048v8.387H29.113Zm-2.1,6.29H8.145V44.435H27.016Z" transform="translate(-1.855 -6.694)" fill="#5038a1"/>
      <path id="Trazado_104884" data-name="Trazado 104884" d="M6.048,54.435H29.113v2.1H6.048Z" transform="translate(-1.855 -8.306)" fill="#5038a1"/>
      <path id="Trazado_104885" data-name="Trazado 104885" d="M6.048,59.274H33.306v2.1H6.048Z" transform="translate(-1.855 -8.952)" fill="#5038a1"/>
      <path id="Trazado_104886" data-name="Trazado 104886" d="M6.048,64.113H33.306v2.1H6.048Z" transform="translate(-1.855 -9.597)" fill="#5038a1"/>
      <path id="Trazado_104887" data-name="Trazado 104887" d="M6.048,68.952h6.29v2.1H6.048Z" transform="translate(-1.855 -10.242)" fill="#5038a1"/>
      <path id="Trazado_104888" data-name="Trazado 104888" d="M15.726,68.952h6.29v2.1h-6.29Z" transform="translate(-3.145 -10.242)" fill="#5038a1"/>
      <path id="Trazado_104889" data-name="Trazado 104889" d="M25.4,68.952h6.29v2.1H25.4Z" transform="translate(-4.435 -10.242)" fill="#5038a1"/>
      <path id="Trazado_104890" data-name="Trazado 104890" d="M22.1,8.468A13.629,13.629,0,1,0,35.726,22.1,13.645,13.645,0,0,0,22.1,8.468Zm0,25.161a11.488,11.488,0,0,1-8.339-3.589A9.7,9.7,0,0,1,16.868,26.8L22.1,31.957,27.325,26.8a9.7,9.7,0,0,1,3.111,3.245A11.488,11.488,0,0,1,22.1,33.629ZM17.9,18.952A4.194,4.194,0,1,1,22.1,23.145,4.2,4.2,0,0,1,17.9,18.952Zm.968,6.874a9.2,9.2,0,0,1,6.452,0L22.1,29.011Zm12.95,2.445a11.911,11.911,0,0,0-5.772-4.432,6.29,6.29,0,1,0-7.9,0,11.911,11.911,0,0,0-5.772,4.432,11.532,11.532,0,1,1,19.448,0Z" transform="translate(-2.177 -2.177)" fill="#5038a1"/>
      <path id="Trazado_104891" data-name="Trazado 104891" d="M53.853,57.079l4.5-4.5,4.5,4.5L64.337,55.6l-4.5-4.5,4.5-4.5-1.482-1.482-4.5,4.5-4.5-4.5-1.482,1.482,4.5,4.5-4.5,4.5Z" transform="translate(-8.031 -7.063)" fill="#5038a1"/>
    </g>
  </g>
</svg>
