<svg xmlns="http://www.w3.org/2000/svg" xmlns:xlink="http://www.w3.org/1999/xlink" width="65" height="65" viewBox="0 0 65 65">
  <defs>
    <clipPath id="clip-path">
      <rect id="Rectángulo_7863" data-name="Rectángulo 7863" width="65" height="65" transform="translate(849 2326)" fill="#5038a1"/>
    </clipPath>
  </defs>
  <g id="Enmascarar_grupo_69" data-name="Enmascarar grupo 69" transform="translate(-849 -2326)" clip-path="url(#clip-path)">
    <g id="ouline" transform="translate(841.96 2323.834)">
      <path id="Trazado_104907" data-name="Trazado 104907" d="M23.291,16.249a5.965,5.965,0,0,0-5.958,5.958v31.06a3.255,3.255,0,0,0-2.167,3.064V58.5a3.25,3.25,0,0,0,6.313,1.083H35.748v6.5a1.083,1.083,0,0,0,1.083,1.083H45.5a1.083,1.083,0,0,0,1.083-1.083v-.215A11.917,11.917,0,1,0,52,43.331V22.207a5.965,5.965,0,0,0-5.958-5.958H44.415V8.48a3.25,3.25,0,0,0-1.083-6.313H26A3.25,3.25,0,0,0,24.916,8.48v7.769ZM19.5,58.5a1.083,1.083,0,1,1-2.167,0V56.331a1.083,1.083,0,1,1,2.167,0Zm3.25-1.083H21.666V56.331A3.255,3.255,0,0,0,19.5,53.267V52h1.625a1.627,1.627,0,0,1,1.625,1.625ZM44.415,65h-6.5V59.581h6.5ZM39,57.414V55.789a.542.542,0,0,1,.542-.542h.542a12,12,0,0,0,.2,2.169Zm3.791-2.167a.542.542,0,0,1,.542.542v1.625h-.841a9.79,9.79,0,0,1-.242-2.167Zm-.542-7.583V23.832a1.083,1.083,0,1,1,2.167,0v22.23A12.021,12.021,0,0,0,42.394,48.2a1.08,1.08,0,0,1-.146-.537ZM52,45.5a9.75,9.75,0,1,1-5.416,17.857V58.5A1.083,1.083,0,0,0,45.5,57.414V55.789a2.711,2.711,0,0,0-2.708-2.708h-.3A9.765,9.765,0,0,1,52,45.5ZM26,4.333H43.331a1.083,1.083,0,1,1,0,2.167H26a1.083,1.083,0,1,1,0-2.167ZM42.248,8.666v7.583H40.082V8.666Zm-4.333,0v7.583h-6.5V8.666Zm-8.666,0v7.583H27.082V8.666ZM26,18.416H46.04a3.8,3.8,0,0,1,3.792,3.791V43.529a11.824,11.824,0,0,0-3.25,1.106v-20.8a3.25,3.25,0,1,0-6.5,0V47.665a3.244,3.244,0,0,0,1.149,2.48,11.816,11.816,0,0,0-.951,2.936h-.74a2.711,2.711,0,0,0-2.708,2.708v1.625H24.916V53.623a3.8,3.8,0,0,0-3.791-3.791H19.5V22.207a3.8,3.8,0,0,1,3.791-3.791Z" fill="#5038a1"/>
      <path id="Trazado_104908" data-name="Trazado 104908" d="M34.665,50.914a3.254,3.254,0,0,0,3.25-3.25V23.832a3.25,3.25,0,1,0-6.5,0V47.665A3.254,3.254,0,0,0,34.665,50.914ZM33.582,23.832a1.083,1.083,0,0,1,2.167,0V47.665a1.083,1.083,0,1,1-2.167,0Z" fill="#5038a1"/>
      <path id="Trazado_104909" data-name="Trazado 104909" d="M22.749,47.665a3.25,3.25,0,1,0,6.5,0V23.832a3.25,3.25,0,1,0-6.5,0Zm2.167-23.832a1.083,1.083,0,0,1,2.167,0V47.665a1.083,1.083,0,1,1-2.167,0Z" fill="#5038a1"/>
      <path id="Trazado_104910" data-name="Trazado 104910" d="M51.348,55.031l4.333,3.25a1.083,1.083,0,0,0,1.3-1.733l-3.9-2.925V47.665a1.083,1.083,0,1,0-2.167,0v6.5A1.083,1.083,0,0,0,51.348,55.031Z" fill="#5038a1"/>
    </g>
  </g>
</svg>
