<svg xmlns="http://www.w3.org/2000/svg" xmlns:xlink="http://www.w3.org/1999/xlink" width="65" height="65" viewBox="0 0 65 65">
  <defs>
    <clipPath id="clip-path">
      <rect id="Rectángulo_7862" data-name="Rectángulo 7862" width="65" height="65" transform="translate(432 2326)" fill="#5038a1"/>
    </clipPath>
  </defs>
  <g id="Enmascarar_grupo_68" data-name="Enmascarar grupo 68" transform="translate(-432 -2326)" clip-path="url(#clip-path)">
    <g id="equipaje_4_" data-name="equipaje (4)" transform="translate(432 2326)">
      <path id="Trazado_104904" data-name="Trazado 104904" d="M60.967,3.722H53.5a4.034,4.034,0,0,0-3.966,3.3L43.632,38.863V35.7a4.206,4.206,0,0,0-4.2-4.2H38.15V28.99a3.154,3.154,0,0,0-2.723-3.12V21.124a6.783,6.783,0,0,0-6.775-6.775H26.031V8.066h.578a3.078,3.078,0,0,0,3.075-3.075A5,5,0,0,0,24.692,0H12.67A5,5,0,0,0,7.679,4.991a3.078,3.078,0,0,0,3.075,3.075h.578v6.282H8.71a6.783,6.783,0,0,0-6.776,6.775V47.147a6.742,6.742,0,0,0,1.5,4.25H1.27A1.269,1.269,0,0,0,0,52.667v5.528a1.27,1.27,0,0,0,1.27,1.27H6.416a4.037,4.037,0,1,0,7.5,0H28.756a4.037,4.037,0,1,0,7.5,0H44.66a4.034,4.034,0,0,0,3.966-3.3l8.232-44.377h4.108a4.033,4.033,0,1,0,0-8.067ZM28.834,51.4a1.292,1.292,0,0,0-.182-.014H22a7.4,7.4,0,0,0-6-5.991V40.043A7.4,7.4,0,0,0,22,34.037H35.087a7.4,7.4,0,0,0,6.006,6.005v5.349A7.4,7.4,0,0,0,35.087,51.4ZM19.4,34.037a4.865,4.865,0,0,1-3.408,3.408V35.7a1.664,1.664,0,0,1,1.662-1.662Zm-3.408,15.7V47.989a4.865,4.865,0,0,1,3.4,3.394h-1.95a1.664,1.664,0,0,1-1.454-1.648Zm25.1-1.746v1.746A1.664,1.664,0,0,1,39.431,51.4H37.685a4.866,4.866,0,0,1,3.408-3.408Zm0-12.289v1.746a4.868,4.868,0,0,1-3.408-3.408H39.43A1.664,1.664,0,0,1,41.093,35.7ZM35.611,28.99V31.5H21.476V28.99a.61.61,0,0,1,.61-.61H35a.61.61,0,0,1,.61.61Zm-25.394-24A2.455,2.455,0,0,1,12.67,2.539H24.692a2.455,2.455,0,0,1,2.453,2.452.537.537,0,0,1-.536.536H10.753a.536.536,0,0,1-.536-.536Zm3.653,3.075h9.622v6.282H13.871Zm-9.4,13.057A4.241,4.241,0,0,1,8.71,16.888H28.653a4.241,4.241,0,0,1,4.236,4.236v4.718h-10.8a3.153,3.153,0,0,0-3.149,3.149V31.5h-1.28a4.206,4.206,0,0,0-4.2,4.2V49.735a4.178,4.178,0,0,0,.337,1.648H8.71a4.241,4.241,0,0,1-4.236-4.236Zm7.189,39.838a1.5,1.5,0,1,1-1.5-1.5,1.5,1.5,0,0,1,1.5,1.5Zm22.341,0a1.5,1.5,0,1,1-1.5-1.5A1.5,1.5,0,0,1,34,60.962ZM60.967,9.25H55.8a1.27,1.27,0,0,0-1.248,1.038L46.13,55.7a1.5,1.5,0,0,1-1.469,1.222H2.539V53.936H42.362A1.269,1.269,0,0,0,43.611,52.9L52.036,7.483A1.5,1.5,0,0,1,53.5,6.261h7.462a1.494,1.494,0,0,1,0,2.988Zm0,0" fill="#5038a1"/>
      <path id="Trazado_104905" data-name="Trazado 104905" d="M10.269,23.359H21.625a1.27,1.27,0,0,0,0-2.539H10.269a1.27,1.27,0,1,0,0,2.539Zm0,0" fill="#5038a1"/>
      <path id="Trazado_104906" data-name="Trazado 104906" d="M27.718,23.359a1.27,1.27,0,1,0-.9-.372A1.279,1.279,0,0,0,27.718,23.359Zm0,0" fill="#5038a1"/>
    </g>
  </g>
</svg>
