<svg xmlns="http://www.w3.org/2000/svg" xmlns:xlink="http://www.w3.org/1999/xlink" width="190" height="137" viewBox="0 0 190 137">
  <defs>
    <clipPath id="clip-path">
      <rect id="Rectángulo_7614" data-name="Rectángulo 7614" width="190" height="137" transform="translate(180 5326)" fill="#8c6df2"/>
    </clipPath>
  </defs>
  <g id="Enmascarar_grupo_63" data-name="Enmascarar grupo 63" transform="translate(-180 -5326)" clip-path="url(#clip-path)">
    <g id="camion-de-equipaje" transform="translate(180 5299.5)">
      <path id="Trazado_103255" data-name="Trazado 103255" d="M53.407,124.742H2.783V83.6A18.351,18.351,0,0,1,21.134,65.25H50.1a3.306,3.306,0,0,1,3.306,3.306v56.186Z" fill="#eab14d"/>
      <path id="Trazado_103256" data-name="Trazado 103256" d="M45.2,65.25v59.491h8.2V68.556A3.306,3.306,0,0,0,50.1,65.25Z" fill="#e49542"/>
      <path id="Trazado_103257" data-name="Trazado 103257" d="M29.513,90.674V65.25H21.134A18.351,18.351,0,0,0,2.784,83.6V95.2h22.2A4.529,4.529,0,0,0,29.513,90.674Z" fill="#e4f6ff"/>
      <path id="Trazado_103258" data-name="Trazado 103258" d="M22.32,65.25V90.674A4.529,4.529,0,0,1,17.791,95.2h7.193a4.529,4.529,0,0,0,4.529-4.529V65.25Z" fill="#d3effb"/>
      <path id="Trazado_103259" data-name="Trazado 103259" d="M41.564,65.25H27.229V60.777a4.616,4.616,0,0,1,4.616-4.616h5.1a4.616,4.616,0,0,1,4.616,4.616Z" fill="#dd636e"/>
      <path id="Trazado_103260" data-name="Trazado 103260" d="M99.355,106.7h87.861v18.039H99.355Z" fill="#dfdfdf"/>
      <path id="Trazado_103261" data-name="Trazado 103261" d="M180.833,106.7h6.383v18.039h-6.383Z" fill="#cbcbcb"/>
      <path id="Trazado_103262" data-name="Trazado 103262" d="M88.073,124.742H53.407V102.524h29.7a4.962,4.962,0,0,1,4.962,4.962Z" fill="#dfdfdf"/>
      <path id="Trazado_103263" data-name="Trazado 103263" d="M83.111,102.523H74.979a4.962,4.962,0,0,1,4.962,4.962v17.256h8.132V107.486a4.963,4.963,0,0,0-4.963-4.962Z" fill="#cbcbcb"/>
      <g id="Grupo_57171" data-name="Grupo 57171">
        <circle id="Elipse_4131" data-name="Elipse 4131" cx="9.097" cy="9.097" r="9.097" transform="translate(18.132 115.644)" fill="#365e7d"/>
        <path id="Trazado_103264" data-name="Trazado 103264" d="M27.229,115.644a9.064,9.064,0,0,0-3.407.662,9.1,9.1,0,0,1,0,16.871,9.1,9.1,0,1,0,3.407-17.533Z" fill="#2b4d66"/>
      </g>
      <g id="Grupo_57172" data-name="Grupo 57172">
        <circle id="Elipse_4132" data-name="Elipse 4132" cx="9.097" cy="9.097" r="9.097" transform="translate(61.642 115.644)" fill="#365e7d"/>
        <path id="Trazado_103265" data-name="Trazado 103265" d="M70.74,115.644a9.064,9.064,0,0,0-3.407.662,9.1,9.1,0,0,1,0,16.871,9.1,9.1,0,1,0,3.407-17.533Z" fill="#2b4d66"/>
      </g>
      <path id="Trazado_103266" data-name="Trazado 103266" d="M99.355,92.39h32.956V106.7H99.355Z" fill="#dd636e"/>
      <path id="Trazado_103267" data-name="Trazado 103267" d="M147.735,92.39h39.482V106.7H147.735Z" fill="#eab14d"/>
      <path id="Trazado_103268" data-name="Trazado 103268" d="M132.311,64.058h15.423V106.7H132.311Z" fill="#6bbef6"/>
      <path id="Trazado_103269" data-name="Trazado 103269" d="M160.054,57.483h16.973V92.39H160.054Z" fill="#a2f4c1"/>
      <g id="Grupo_57173" data-name="Grupo 57173">
        <circle id="Elipse_4133" data-name="Elipse 4133" cx="9.097" cy="9.097" r="9.097" transform="translate(112.788 115.644)" fill="#365e7d"/>
        <path id="Trazado_103270" data-name="Trazado 103270" d="M121.885,115.644a9.064,9.064,0,0,0-3.407.662,9.1,9.1,0,0,1,0,16.871,9.1,9.1,0,1,0,3.407-17.533Z" fill="#2b4d66"/>
      </g>
      <g id="Grupo_57174" data-name="Grupo 57174">
        <circle id="Elipse_4134" data-name="Elipse 4134" cx="9.097" cy="9.097" r="9.097" transform="translate(156.298 115.644)" fill="#365e7d"/>
        <path id="Trazado_103271" data-name="Trazado 103271" d="M165.4,115.644a9.064,9.064,0,0,0-3.407.662,9.1,9.1,0,0,1,0,16.871,9.1,9.1,0,1,0,3.407-17.533Z" fill="#2b4d66"/>
      </g>
      <g id="Grupo_57175" data-name="Grupo 57175">
        <path id="Trazado_103272" data-name="Trazado 103272" d="M190,83.938a2.783,2.783,0,1,0-5.566,0v5.669H179.81V57.483a2.783,2.783,0,0,0-2.783-2.783H160.054a2.783,2.783,0,0,0-2.783,2.783V89.607h-6.752V64.058a2.783,2.783,0,0,0-2.783-2.783H132.312a2.783,2.783,0,0,0-2.783,2.783v6.366a2.783,2.783,0,1,0,5.566,0V66.841h9.857v37.078h-9.857V81.553a2.783,2.783,0,1,0-5.566,0v8.054h-27.39V83.938a2.783,2.783,0,1,0-5.566,0v32.045H90.857v-8.5a7.754,7.754,0,0,0-7.745-7.746H77.763V98.111a2.783,2.783,0,0,0-5.566,0V99.74H56.19v-8.8a2.783,2.783,0,0,0-5.566,0v31.014H38.777a11.878,11.878,0,0,0-23.1,0H5.566V97.986H24.984A7.321,7.321,0,0,0,32.3,90.674V68.033H50.1a.523.523,0,0,1,.523.522v11.26a2.783,2.783,0,0,0,5.566,0V68.556A6.1,6.1,0,0,0,50.1,62.467H44.347v-1.69a7.407,7.407,0,0,0-7.4-7.4h-5.1a7.407,7.407,0,0,0-7.4,7.4v1.69H21.134A21.158,21.158,0,0,0,0,83.6v41.14a2.783,2.783,0,0,0,2.783,2.783h12.9a11.878,11.878,0,0,0,23.1,0H59.192a11.878,11.878,0,0,0,23.1,0h5.785a2.783,2.783,0,0,0,2.783-2.783v-3.193h5.716v3.193a2.783,2.783,0,0,0,2.783,2.783h10.982a11.878,11.878,0,0,0,23.1,0h4.643a2.783,2.783,0,1,0,0-5.566h-4.643a11.878,11.878,0,0,0-23.1,0h-8.2V109.486h82.3v12.472h-7.49a11.878,11.878,0,0,0-23.1,0H149.2a2.783,2.783,0,1,0,0,5.566h4.643a11.878,11.878,0,0,0,23.1,0h10.273A2.783,2.783,0,0,0,190,124.742c0-11.077,0-27.439,0-40.8ZM30.012,60.777a1.835,1.835,0,0,1,1.833-1.832h5.1a1.835,1.835,0,0,1,1.832,1.832v1.69H30.012Zm-8.878,7.257h5.6v22.64a1.748,1.748,0,0,1-1.746,1.746H5.566V83.6A15.585,15.585,0,0,1,21.134,68.034Zm6.1,63.022a6.314,6.314,0,1,1,6.314-6.314A6.321,6.321,0,0,1,27.229,131.056Zm43.511,0a6.314,6.314,0,1,1,6.314-6.318v.007a6.321,6.321,0,0,1-6.314,6.31Zm14.55-9.1h-3a11.878,11.878,0,0,0-23.1,0h-3V105.307H83.111a2.182,2.182,0,0,1,2.179,2.179Zm36.6-3.531a6.314,6.314,0,1,1-6.314,6.315,6.321,6.321,0,0,1,6.314-6.315ZM102.138,95.173h27.39v8.746h-27.39ZM165.4,131.056a6.314,6.314,0,1,1,6.314-6.314A6.321,6.321,0,0,1,165.4,131.056Zm-2.559-70.789h11.406v29.34H162.837ZM150.518,95.173h33.915v8.746H150.518Z"/>
        <path id="Trazado_103273" data-name="Trazado 103273" d="M33.892,99.74a2.783,2.783,0,1,0,0,5.566h1.988a2.783,2.783,0,1,0,0-5.566Z"/>
      </g>
    </g>
  </g>
</svg>
