<svg xmlns="http://www.w3.org/2000/svg" xmlns:xlink="http://www.w3.org/1999/xlink" width="65" height="65" viewBox="0 0 65 65">
  <defs>
    <clipPath id="clip-path">
      <rect id="Rectángulo_7759" data-name="Rectángulo 7759" width="65" height="65" transform="translate(211 5125)" fill="#8c6df2" stroke="#707070" stroke-width="1"/>
    </clipPath>
  </defs>
  <g id="Enmascarar_grupo_62" data-name="Enmascarar grupo 62" transform="translate(-211 -5125)" clip-path="url(#clip-path)">
    <g id="maleta_2_" data-name="maleta (2)" transform="translate(211 5125)">
      <g id="Grupo_57120" data-name="Grupo 57120">
        <g id="Grupo_57119" data-name="Grupo 57119">
          <path id="Trazado_103240" data-name="Trazado 103240" d="M29.25,14.083H5.417A5.423,5.423,0,0,0,0,19.5V54.167a5.423,5.423,0,0,0,5.417,5.417H19.5V57.417H5.417a3.254,3.254,0,0,1-3.25-3.25V19.5a3.254,3.254,0,0,1,3.25-3.25H29.25A3.254,3.254,0,0,1,32.5,19.5v1.083h2.167V19.5A5.423,5.423,0,0,0,29.25,14.083Z" fill="#8c6df2"/>
        </g>
      </g>
      <g id="Grupo_57122" data-name="Grupo 57122">
        <g id="Grupo_57121" data-name="Grupo 57121">
          <path id="Trazado_103241" data-name="Trazado 103241" d="M23.833,0h-13a3.25,3.25,0,0,0,0,6.5h13a3.25,3.25,0,1,0,0-6.5Zm0,4.333h-13a1.083,1.083,0,1,1,0-2.167h13a1.083,1.083,0,1,1,0,2.167Z" fill="#8c6df2"/>
        </g>
      </g>
      <g id="Grupo_57124" data-name="Grupo 57124">
        <g id="Grupo_57123" data-name="Grupo 57123">
          <rect id="Rectángulo_7765" data-name="Rectángulo 7765" width="2.167" height="9.75" transform="translate(11.917 5.417)" fill="#8c6df2"/>
        </g>
      </g>
      <g id="Grupo_57126" data-name="Grupo 57126">
        <g id="Grupo_57125" data-name="Grupo 57125">
          <rect id="Rectángulo_7766" data-name="Rectángulo 7766" width="2.167" height="9.75" transform="translate(20.583 5.417)" fill="#8c6df2"/>
        </g>
      </g>
      <g id="Grupo_57128" data-name="Grupo 57128">
        <g id="Grupo_57127" data-name="Grupo 57127">
          <rect id="Rectángulo_7767" data-name="Rectángulo 7767" width="2.167" height="19.5" transform="translate(6.5 32.5)" fill="#8c6df2"/>
        </g>
      </g>
      <g id="Grupo_57130" data-name="Grupo 57130">
        <g id="Grupo_57129" data-name="Grupo 57129">
          <rect id="Rectángulo_7768" data-name="Rectángulo 7768" width="2.167" height="8.667" transform="translate(19.5 20.583)" fill="#8c6df2"/>
        </g>
      </g>
      <g id="Grupo_57132" data-name="Grupo 57132">
        <g id="Grupo_57131" data-name="Grupo 57131">
          <path id="Trazado_103242" data-name="Trazado 103242" d="M4.875,57.417a3.792,3.792,0,1,0,3.792,3.792A3.8,3.8,0,0,0,4.875,57.417Zm0,5.417A1.625,1.625,0,1,1,6.5,61.208,1.627,1.627,0,0,1,4.875,62.833Z" fill="#8c6df2"/>
        </g>
      </g>
      <g id="Grupo_57134" data-name="Grupo 57134">
        <g id="Grupo_57133" data-name="Grupo 57133">
          <rect id="Rectángulo_7769" data-name="Rectángulo 7769" width="2.167" height="31.417" transform="translate(13 20.583)" fill="#8c6df2"/>
        </g>
      </g>
      <g id="Grupo_57136" data-name="Grupo 57136">
        <g id="Grupo_57135" data-name="Grupo 57135">
          <path id="Trazado_103243" data-name="Trazado 103243" d="M11.84,29.93,9.673,24.514a1.082,1.082,0,0,0-.591-.6,1.071,1.071,0,0,0-.842.005L.657,27.171a1.082,1.082,0,0,0-.657,1v6.5A1.082,1.082,0,0,0,1.083,35.75a1.07,1.07,0,0,0,.441-.094l9.75-4.333A1.084,1.084,0,0,0,11.84,29.93ZM2.167,33V28.881L8.073,26.35,9.44,29.767Z" fill="#8c6df2"/>
        </g>
      </g>
      <g id="Grupo_57138" data-name="Grupo 57138">
        <g id="Grupo_57137" data-name="Grupo 57137">
          <rect id="Rectángulo_7770" data-name="Rectángulo 7770" width="2.167" height="5.417" transform="translate(6.5 20.583)" fill="#8c6df2"/>
        </g>
      </g>
      <g id="Grupo_57140" data-name="Grupo 57140">
        <g id="Grupo_57139" data-name="Grupo 57139">
          <rect id="Rectángulo_7771" data-name="Rectángulo 7771" width="2.167" height="8.667" transform="translate(26 20.583)" fill="#8c6df2"/>
        </g>
      </g>
      <g id="Grupo_57142" data-name="Grupo 57142">
        <g id="Grupo_57141" data-name="Grupo 57141">
          <path id="Trazado_103244" data-name="Trazado 103244" d="M29.792,57.417a3.792,3.792,0,1,0,3.792,3.792A3.8,3.8,0,0,0,29.792,57.417Zm0,5.417a1.625,1.625,0,1,1,1.625-1.625A1.627,1.627,0,0,1,29.792,62.833Z" fill="#8c6df2"/>
        </g>
      </g>
      <g id="Grupo_57144" data-name="Grupo 57144">
        <g id="Grupo_57143" data-name="Grupo 57143">
          <path id="Trazado_103245" data-name="Trazado 103245" d="M59.583,27.083H21.667A5.423,5.423,0,0,0,16.25,32.5V54.167a5.423,5.423,0,0,0,5.417,5.417H59.583A5.423,5.423,0,0,0,65,54.167V32.5A5.423,5.423,0,0,0,59.583,27.083Zm3.25,27.083a3.254,3.254,0,0,1-3.25,3.25H21.667a3.254,3.254,0,0,1-3.25-3.25V32.5a3.254,3.254,0,0,1,3.25-3.25H59.583a3.254,3.254,0,0,1,3.25,3.25V54.167Z" fill="#8c6df2"/>
        </g>
      </g>
      <g id="Grupo_57146" data-name="Grupo 57146">
        <g id="Grupo_57145" data-name="Grupo 57145">
          <path id="Trazado_103246" data-name="Trazado 103246" d="M45.5,22.75H35.75a1.083,1.083,0,0,0-1.083,1.083v4.333h2.167v-3.25h7.583v3.25h2.167V23.833A1.083,1.083,0,0,0,45.5,22.75Z" fill="#8c6df2"/>
        </g>
      </g>
      <g id="Grupo_57148" data-name="Grupo 57148">
        <g id="Grupo_57147" data-name="Grupo 57147">
          <path id="Trazado_103247" data-name="Trazado 103247" d="M45.5,18.417H35.75a5.423,5.423,0,0,0-5.417,5.417v4.333H32.5V23.833a3.254,3.254,0,0,1,3.25-3.25H45.5a3.254,3.254,0,0,1,3.25,3.25v4.333h2.167V23.833A5.423,5.423,0,0,0,45.5,18.417Z" fill="#8c6df2"/>
        </g>
      </g>
      <g id="Grupo_57150" data-name="Grupo 57150">
        <g id="Grupo_57149" data-name="Grupo 57149">
          <path id="Trazado_103248" data-name="Trazado 103248" d="M45.3,39.454l-5.417-7.583a1.122,1.122,0,0,0-1.763,0L32.7,39.454a1.083,1.083,0,0,0,.882,1.713H44.416a1.083,1.083,0,0,0,.881-1.713ZM35.688,39,39,34.364,42.311,39Z" fill="#8c6df2"/>
        </g>
      </g>
      <g id="Grupo_57152" data-name="Grupo 57152">
        <g id="Grupo_57151" data-name="Grupo 57151">
          <path id="Trazado_103249" data-name="Trazado 103249" d="M55.86,42.6c-3.408-1.11-6.929.3-7.854,3.132a4.98,4.98,0,0,0,.68,4.333A7.216,7.216,0,0,0,52.5,52.9a7.626,7.626,0,0,0,2.36.38,5.55,5.55,0,0,0,5.5-3.512C61.283,46.929,59.266,43.716,55.86,42.6ZM58.3,49.1c-.555,1.7-2.855,2.484-5.123,1.744A5.05,5.05,0,0,1,50.5,48.881a2.862,2.862,0,0,1-.433-2.472h0a3.376,3.376,0,0,1,3.4-2.023,5.541,5.541,0,0,1,1.718.278C57.456,45.407,58.85,47.394,58.3,49.1Z" fill="#8c6df2"/>
        </g>
      </g>
      <g id="Grupo_57154" data-name="Grupo 57154">
        <g id="Grupo_57153" data-name="Grupo 57153">
          <path id="Trazado_103250" data-name="Trazado 103250" d="M21.125,57.417a3.792,3.792,0,1,0,3.792,3.792A3.8,3.8,0,0,0,21.125,57.417Zm0,5.417a1.625,1.625,0,1,1,1.625-1.625A1.627,1.627,0,0,1,21.125,62.833Z" fill="#8c6df2"/>
        </g>
      </g>
      <g id="Grupo_57156" data-name="Grupo 57156">
        <g id="Grupo_57155" data-name="Grupo 57155">
          <path id="Trazado_103251" data-name="Trazado 103251" d="M60.125,57.417a3.792,3.792,0,1,0,3.792,3.792A3.8,3.8,0,0,0,60.125,57.417Zm0,5.417a1.625,1.625,0,1,1,1.625-1.625A1.627,1.627,0,0,1,60.125,62.833Z" fill="#8c6df2"/>
        </g>
      </g>
      <g id="Grupo_57158" data-name="Grupo 57158">
        <g id="Grupo_57157" data-name="Grupo 57157">
          <rect id="Rectángulo_7772" data-name="Rectángulo 7772" width="2.167" height="8.667" transform="translate(26 49.833)" fill="#8c6df2"/>
        </g>
      </g>
      <g id="Grupo_57160" data-name="Grupo 57160">
        <g id="Grupo_57159" data-name="Grupo 57159">
          <path id="Trazado_103252" data-name="Trazado 103252" d="M27.083,27.083H22.75a1.084,1.084,0,0,0-1.083,1.083v13h2.167V29.25H26V43.333h2.167V28.167A1.084,1.084,0,0,0,27.083,27.083Z" fill="#8c6df2"/>
        </g>
      </g>
      <g id="Grupo_57162" data-name="Grupo 57162">
        <g id="Grupo_57161" data-name="Grupo 57161">
          <rect id="Rectángulo_7773" data-name="Rectángulo 7773" width="2.167" height="11.917" transform="translate(21.667 46.583)" fill="#8c6df2"/>
        </g>
      </g>
      <g id="Grupo_57164" data-name="Grupo 57164">
        <g id="Grupo_57163" data-name="Grupo 57163">
          <rect id="Rectángulo_7774" data-name="Rectángulo 7774" width="2.167" height="7.583" transform="translate(57.417 50.917)" fill="#8c6df2"/>
        </g>
      </g>
      <g id="Grupo_57166" data-name="Grupo 57166">
        <g id="Grupo_57165" data-name="Grupo 57165">
          <path id="Trazado_103253" data-name="Trazado 103253" d="M58.5,27.083H54.167a1.083,1.083,0,0,0-1.083,1.083V43.333H55.25V29.25h2.167V45.5h2.167V28.167A1.083,1.083,0,0,0,58.5,27.083Z" fill="#8c6df2"/>
        </g>
      </g>
      <g id="Grupo_57168" data-name="Grupo 57168">
        <g id="Grupo_57167" data-name="Grupo 57167">
          <rect id="Rectángulo_7775" data-name="Rectángulo 7775" width="2.167" height="6.5" transform="translate(53.083 52)" fill="#8c6df2"/>
        </g>
      </g>
      <g id="Grupo_57170" data-name="Grupo 57170">
        <g id="Grupo_57169" data-name="Grupo 57169">
          <path id="Trazado_103254" data-name="Trazado 103254" d="M30.879,44.563l-13-7.583-1.092,1.873L28.91,45.924,27.72,48.3l-9.83-5.9-1.115,1.858,10.833,6.5a1.089,1.089,0,0,0,.558.155,1.077,1.077,0,0,0,.3-.043,1.088,1.088,0,0,0,.666-.556L31.3,45.984A1.085,1.085,0,0,0,30.879,44.563Z" fill="#8c6df2"/>
        </g>
      </g>
    </g>
  </g>
</svg>
