<svg xmlns="http://www.w3.org/2000/svg" width="125" height="125" viewBox="0 0 125 125">
  <g id="Grupo_61493" data-name="Grupo 61493" transform="translate(-895 -6072)">
    <g id="Elipse_4103" data-name="Elipse 4103" transform="translate(895 6072)" fill="#ffb74d" stroke="#ffb74d" stroke-width="1">
      <circle cx="62.5" cy="62.5" r="62.5" stroke="none"/>
      <circle cx="62.5" cy="62.5" r="62" fill="none"/>
    </g>
    <g id="queja" transform="translate(920.051 6090.484)">
      <path id="Trazado_103274" data-name="Trazado 103274" d="M78.386,176H13.256A3.255,3.255,0,0,0,10,179.256v13.026a3.255,3.255,0,0,0,3.256,3.256H78.386a3.255,3.255,0,0,0,3.256-3.256V179.256A3.255,3.255,0,0,0,78.386,176Zm0,0" transform="translate(-8.372 -147.343)" fill="#eafaff"/>
      <path id="Trazado_103275" data-name="Trazado 103275" d="M95.129,296v30.285a3.255,3.255,0,0,1-3.256,3.256H33.256A3.255,3.255,0,0,1,30,326.285V296Zm0,0" transform="translate(-25.115 -247.804)" fill="#96c8ef"/>
      <path id="Trazado_103276" data-name="Trazado 103276" d="M370,216h6.513v6.513H370Zm0,0" transform="translate(-309.755 -180.83)" fill="#3a5576"/>
      <path id="Trazado_103277" data-name="Trazado 103277" d="M135.591,50.055H90V10h45.591Zm0,0" transform="translate(-75.346 -8.372)" fill="#ffea91"/>
      <path id="Trazado_103278" data-name="Trazado 103278" d="M162.565,359v13.026H130V359Zm0,0" transform="translate(-108.833 -300.546)" fill="#eafaff"/>
      <path id="Trazado_103279" data-name="Trazado 103279" d="M50,216h6.513v6.513H50Zm0,0" transform="translate(-41.859 -180.83)" fill="#3a5576"/>
      <path id="Trazado_103280" data-name="Trazado 103280" d="M181.628,392.257A1.628,1.628,0,1,0,180,390.628,1.629,1.629,0,0,0,181.628,392.257Zm0,0" transform="translate(-150.692 -325.662)"/>
      <path id="Trazado_103281" data-name="Trazado 103281" d="M70.014,27.029H61.873V1.628A1.628,1.628,0,0,0,60.245,0H14.654a1.628,1.628,0,0,0-1.628,1.628v25.4H4.885A4.89,4.89,0,0,0,0,31.913V44.939a4.893,4.893,0,0,0,3.256,4.6V78.481a4.89,4.89,0,0,0,4.885,4.885H66.758a4.89,4.89,0,0,0,4.885-4.885V49.544a4.893,4.893,0,0,0,3.256-4.6V31.913A4.89,4.89,0,0,0,70.014,27.029ZM61.873,36.8h3.256v3.256H61.873ZM16.282,3.256H58.616v36.8H16.282Zm-6.513,36.8V36.8h3.256v3.256ZM66.758,80.109H8.141a1.63,1.63,0,0,1-1.628-1.628V49.824H68.386V78.481A1.63,1.63,0,0,1,66.758,80.109Zm4.885-35.17a1.63,1.63,0,0,1-1.628,1.628H4.885a1.63,1.63,0,0,1-1.628-1.628V31.913a1.63,1.63,0,0,1,1.628-1.628h8.141v3.256H8.141A1.628,1.628,0,0,0,6.513,35.17v6.513a1.628,1.628,0,0,0,1.628,1.628H66.758a1.628,1.628,0,0,0,1.628-1.628V35.17a1.628,1.628,0,0,0-1.628-1.628H61.873V30.285h8.141a1.63,1.63,0,0,1,1.628,1.628Zm0,0"/>
      <path id="Trazado_103282" data-name="Trazado 103282" d="M154.193,349H121.628A1.628,1.628,0,0,0,120,350.628v13.026a1.628,1.628,0,0,0,1.628,1.628h32.565a1.628,1.628,0,0,0,1.628-1.628V350.628A1.628,1.628,0,0,0,154.193,349Zm-1.628,13.026H123.256v-9.769h29.308Zm0,0" transform="translate(-100.461 -292.175)"/>
      <path id="Trazado_103283" data-name="Trazado 103283" d="M221.628,392.257h6.513a1.628,1.628,0,1,0,0-3.257h-6.513a1.628,1.628,0,0,0,0,3.257Zm0,0" transform="translate(-184.179 -325.662)"/>
      <path id="Trazado_103284" data-name="Trazado 103284" d="M161.628,139.026a1.628,1.628,0,0,0,1.628-1.628,8.141,8.141,0,1,1,16.282,0,1.628,1.628,0,1,0,3.256,0,11.4,11.4,0,1,0-22.8,0A1.628,1.628,0,0,0,161.628,139.026Zm0,0" transform="translate(-133.948 -105.484)"/>
      <path id="Trazado_103285" data-name="Trazado 103285" d="M161.628,72.513a1.628,1.628,0,0,0,1.628-1.628V67.628a1.628,1.628,0,0,0-3.256,0v3.256A1.628,1.628,0,0,0,161.628,72.513Zm0,0" transform="translate(-133.948 -55.254)"/>
      <path id="Trazado_103286" data-name="Trazado 103286" d="M281.628,72.513a1.628,1.628,0,0,0,1.628-1.628V67.628a1.628,1.628,0,1,0-3.256,0v3.256A1.628,1.628,0,0,0,281.628,72.513Zm0,0" transform="translate(-234.409 -55.254)"/>
    </g>
  </g>
</svg>
