<svg xmlns="http://www.w3.org/2000/svg" width="125" height="125" viewBox="0 0 125 125">
  <g id="Grupo_57179" data-name="Grupo 57179" transform="translate(5440 5113)">
    <g id="Elipse_4136" data-name="Elipse 4136" transform="translate(-5440 -5113)" fill="#fff" stroke="#ffb74d" stroke-width="1">
      <circle cx="62.5" cy="62.5" r="62.5" stroke="none"/>
      <circle cx="62.5" cy="62.5" r="62" fill="none"/>
    </g>
    <g id="filled_outline" data-name="filled outline" transform="translate(-5417 -5090)">
      <path id="Trazado_103323" data-name="Trazado 103323" d="M15.359,48.368h0A12.359,12.359,0,0,0,27.717,36.01V19.943A4.943,4.943,0,0,0,22.774,15H17.83A14.83,14.83,0,0,0,3,29.83V36.01A12.359,12.359,0,0,0,15.359,48.368Z" transform="translate(0.236 3.066)" fill="#327fb3"/>
      <circle id="Elipse_4141" data-name="Elipse 4141" cx="3.708" cy="3.708" r="3.708" transform="translate(27.953 3.236)" fill="#636363"/>
      <path id="Trazado_103324" data-name="Trazado 103324" d="M33.8,3h0a6.8,6.8,0,0,1,6.8,6.8V24.01H27V9.8A6.8,6.8,0,0,1,33.8,3Z" transform="translate(5.897 0.236)" fill="#737373"/>
      <path id="Trazado_103325" data-name="Trazado 103325" d="M64.793,44l4.943,16.066L74.68,61.3,63.557,65.01,57.378,51.415H38.84L28.953,62.538,9.179,55.123,3,57.594l6.179-9.887,14.83,6.179L27.717,44Z" transform="translate(0.236 9.906)" fill="#636363"/>
      <path id="Trazado_103326" data-name="Trazado 103326" d="M33.472,9h6.179v4.943H33.472A2.472,2.472,0,0,1,31,11.472h0A2.472,2.472,0,0,1,33.472,9Z" transform="translate(6.84 1.651)" fill="#f5c09a"/>
      <path id="Trazado_103327" data-name="Trazado 103327" d="M65.613,20,61.906,31.123,56.692,23.3A7.415,7.415,0,0,0,50.522,20H26.066l-9.905.763A6.674,6.674,0,0,0,10,27.415v4.325a3.09,3.09,0,0,0,3.09,3.09h0a3.09,3.09,0,0,0,3.09-3.09V27.415h9.887V49.661H48.312V27.415l6.523,9.318a7.127,7.127,0,0,0,5.836,3.04h0a7.126,7.126,0,0,0,6.674-4.626L73.029,20Z" transform="translate(1.887 4.245)" fill="#a6a6a6"/>
      <path id="Trazado_103328" data-name="Trazado 103328" d="M13.708,26a3.708,3.708,0,1,0,0,7.415H24.83V26Z" transform="translate(1.887 5.661)" fill="#a6a6a6"/>
      <rect id="Rectángulo_7777" data-name="Rectángulo 7777" width="22.245" height="2.472" transform="translate(27.953 37.84)" fill="#636363"/>
      <rect id="Rectángulo_7778" data-name="Rectángulo 7778" width="22.245" height="2.472" transform="translate(27.953 42.783)" fill="#636363"/>
      <rect id="Rectángulo_7779" data-name="Rectángulo 7779" width="22.245" height="2.472" transform="translate(27.953 47.727)" fill="#636363"/>
      <path id="Trazado_103329" data-name="Trazado 103329" d="M53.626,23.3a7.487,7.487,0,0,0-.455-.6l-6.69,5.577V20H44.01v3.708H23v2.472H44.01v2.472H23v2.472H45.245V27.415L47.5,30.643l7.081-5.9Z" transform="translate(4.953 4.245)" fill="#636363"/>
      <path id="Trazado_103330" data-name="Trazado 103330" d="M53.757,29.762l-2.19-3.285-7.016,5.846,1.42,2.033,6.55-5.459v9.516h0a7.066,7.066,0,0,0,2.472-.46v-9.53l5.346,2.323L61.2,28.43l-6.12-2.661Z" transform="translate(10.036 5.606)" fill="#636363"/>
      <path id="Trazado_103331" data-name="Trazado 103331" d="M54.18,22.931l-.821,2.463,7.132.077.924-2.463Z" transform="translate(12.113 4.937)" fill="#636363"/>
      <rect id="Rectángulo_7780" data-name="Rectángulo 7780" width="2.472" height="7.415" transform="translate(24.246 31.661)" fill="#636363"/>
      <rect id="Rectángulo_7781" data-name="Rectángulo 7781" width="2.472" height="7.415" transform="translate(16.83 31.661)" fill="#636363"/>
      <path id="Trazado_103332" data-name="Trazado 103332" d="M11.8,22.254l3.955,5.181v-.247h2.917l-4.751-6.224A6.613,6.613,0,0,0,11.8,22.254Z" transform="translate(2.312 4.473)" fill="#636363"/>
      <rect id="Rectángulo_7782" data-name="Rectángulo 7782" width="6.179" height="7.415" transform="translate(26.717 31.661)" fill="#f5c09a"/>
      <path id="Trazado_103333" data-name="Trazado 103333" d="M62.651,20H55.236L54,23.708h7.261Z" transform="translate(12.265 4.245)" fill="#f5c09a"/>
      <path id="Trazado_103334" data-name="Trazado 103334" d="M24.887,28.594H18.708L15,15h4.943a4.943,4.943,0,0,1,4.943,4.943Z" transform="translate(3.066 3.066)" fill="#4398d1"/>
      <path id="Trazado_103335" data-name="Trazado 103335" d="M18.236,32,17,36.943h8.651L24.415,32Z" transform="translate(3.538 7.076)" fill="#4398d1"/>
      <path id="Trazado_103336" data-name="Trazado 103336" d="M75.216,70.009l-4.267-1.067-4.738-15.4a1.236,1.236,0,0,0-1.181-.873H51.434V35.583l4.277,6.105a8.373,8.373,0,0,0,6.845,3.567A7.985,7.985,0,0,0,64,45.131a8.353,8.353,0,0,0,6.388-5.3l5.685-15.149a1.236,1.236,0,0,0-1.157-1.676H67.5a1.236,1.236,0,0,0-1.173.845l-2.905,8.72L59.608,26.86a8.62,8.62,0,0,0-7.2-3.851H47.727V10.033a8.024,8.024,0,0,0-12.6-6.6,4.943,4.943,0,1,0-3.47,8.457V23.01H29.189A6.187,6.187,0,0,0,23.01,16.83H18.066A16.085,16.085,0,0,0,2,32.9v6.179a13.585,13.585,0,0,0,24.717,7.8v6.81l-3.179,8.478L9.891,56.474a1.236,1.236,0,0,0-1.524.486L2.188,66.847A1.236,1.236,0,0,0,3.7,68.65L9.43,66.355,28.755,73.6a1.236,1.236,0,0,0,1.359-.337l9.516-10.709H56.818l5.851,12.87a1.236,1.236,0,0,0,1.515.66L75.306,72.38a1.236,1.236,0,0,0-.09-2.37ZM68.392,25.481h4.741l-.927,2.472H67.567Zm-1.649,4.943h4.534L70.1,33.59l-3.889-1.558ZM65.029,35.57l.394-1.184,3.8,1.519-1.148,3.059a5.821,5.821,0,0,1-2.153,2.766,5.955,5.955,0,0,1-.891.5Zm-2.472.173v7.03a5.916,5.916,0,0,1-4.82-2.5l-.774-1.112,5.067-4.219Zm-3.973-5.959,2.064,3.09L55.54,37.135l-2.128-3.041Zm-7.149-4.3h.976a6.15,6.15,0,0,1,4.765,2.257l-5.191,4.325-.551-.792Zm-17.3-15.448a5.547,5.547,0,0,1,11.06-.618h-4.88a3.708,3.708,0,0,0,0,7.415h4.943V23.01H34.132Zm11.123,1.854v2.472H40.312a1.236,1.236,0,0,1,0-2.472ZM29.189,6.943a2.458,2.458,0,0,1,4.146-1.8,7.984,7.984,0,0,0-1.644,4.272h-.031A2.472,2.472,0,0,1,29.189,6.943Zm0,18.538H48.963v2.472H29.189Zm0,22.245V45.255H48.963v2.472ZM48.963,50.2V52.67H29.189V50.2ZM30.154,42.783l-.618-2.472H48.963v2.472Zm3.978-4.943V35.368h14.83V37.84Zm0-4.943V31.661A1.236,1.236,0,0,0,32.9,30.425H48.963V32.9Zm-6.179,0h3.708V37.84H26.717V32.9ZM23.01,19.3a3.708,3.708,0,0,1,3.708,3.708v7.415h-4L19.684,19.3ZM24.246,32.9V37.84H19.3V32.9Zm-4.089-2.472H19.92l-2.957-3.942a5.408,5.408,0,0,1,1.189-.239L19,26.177ZM15.595,50.2A11.135,11.135,0,0,1,4.472,39.076V32.9A13.6,13.6,0,0,1,17.136,19.349l1.2,4.4-.371.03a7.933,7.933,0,0,0-7.314,7.881v3.708a4.943,4.943,0,0,0,4.721,4.921h0c.075,0,.146.022.222.022h4.6l-.852,3.408a1.236,1.236,0,0,0,1.2,1.535h4.276A11.1,11.1,0,0,1,15.595,50.2Zm0-19.774a4.883,4.883,0,0,0-2.416.657,5.414,5.414,0,0,1,1.646-3.337l2.006,2.679ZM16.83,32.9V37.84H15.595a2.472,2.472,0,1,1,0-4.943Zm5.291,9.887.618-2.472h4.249l.618,2.472ZM64.458,73.392l-5.72-12.582a1.236,1.236,0,0,0-1.125-.724H39.076a1.236,1.236,0,0,0-.924.415L28.828,70.988,9.849,63.871a1.258,1.258,0,0,0-.894.01L6.289,64.948,9.91,59.157l13.863,5.776a1.236,1.236,0,0,0,1.634-.706l3.4-9.086H64.115l4.675,15.194a1.236,1.236,0,0,0,.881.835l.827.208Z" transform="translate(0 0)"/>
    </g>
  </g>
</svg>
