<svg id="Page-1" xmlns="http://www.w3.org/2000/svg" width="152.633" height="152.689" viewBox="0 0 152.633 152.689">
  <g id="_039---Track-Suitcase" data-name="039---Track-Suitcase">
    <g id="Icons_copy" transform="translate(2.545 2.545)">
      <path id="Shape" d="M3,41H20.814v5.09a5.09,5.09,0,0,1-5.09,5.09H8.09A5.09,5.09,0,0,1,3,46.09Z" transform="translate(4.634 63.337)" fill="#e8edfc"/>
      <path id="Shape-2" data-name="Shape" d="M114.517,15.09V35.8c-1.069-.153-2.163-.254-3.257-.305a38.172,38.172,0,0,0-40,38.121A50.349,50.349,0,0,0,73.7,88.889H5.09A5.1,5.1,0,0,1,0,83.8V15.09A5.1,5.1,0,0,1,5.09,10H109.427a5.1,5.1,0,0,1,5.09,5.09Z" transform="translate(0 15.448)" fill="#e0d6ff"/>
      <path id="Shape-3" data-name="Shape" d="M67.015,20.235c-.669-.069-1.333-.158-2.01-.188A38.172,38.172,0,0,0,25,58.168a50.349,50.349,0,0,0,2.443,15.269h7.634a50.349,50.349,0,0,1-2.443-15.269,38.137,38.137,0,0,1,34.38-37.933Z" transform="translate(38.62 30.9)" fill="#8c6df2"/>
      <path id="Shape-4" data-name="Shape" d="M47.634,10H40a5.1,5.1,0,0,1,5.09,5.09V35.553a38.538,38.538,0,0,1,4.377-.053c1.094.051,2.189.153,3.257.305V15.09A5.1,5.1,0,0,0,47.634,10Z" transform="translate(61.793 15.448)" fill="#8c6df2"/>
      <path id="Shape-5" data-name="Shape" d="M72.076,15.269V25.448H59.352V15.269a2.545,2.545,0,0,0-2.545-2.545H26.269a2.545,2.545,0,0,0-2.545,2.545V25.448H11V15.269A15.269,15.269,0,0,1,26.269,0H56.807A15.269,15.269,0,0,1,72.076,15.269Z" transform="translate(16.993)" fill="#e8edfc"/>
      <path id="Shape-6" data-name="Shape" d="M33.634,0H26A15.269,15.269,0,0,1,41.269,15.269V25.448H48.9V15.269A15.269,15.269,0,0,0,33.634,0Z" transform="translate(40.165)" fill="#cad9fc"/>
      <path id="Shape-7" data-name="Shape" d="M9.545,39.808H19.724a2.545,2.545,0,0,0,2.545-2.545V23.048a2.545,2.545,0,0,0-.746-1.8l-5.09-5.09a2.545,2.545,0,0,0-3.6,0l-5.09,5.09A2.545,2.545,0,0,0,7,23.048V37.263a2.545,2.545,0,0,0,2.545,2.545Z" transform="translate(10.814 23.812)" fill="#e8edfc"/>
      <path id="Shape-8" data-name="Shape" d="M19.206,21.249l-5.09-5.09a2.545,2.545,0,0,0-3.6,0L8.5,18.177l3.072,3.072a2.545,2.545,0,0,1,.746,1.8V37.263a2.545,2.545,0,0,1-2.545,2.545h7.634a2.545,2.545,0,0,0,2.545-2.545V23.048a2.545,2.545,0,0,0-.746-1.8Z" transform="translate(13.131 23.812)" fill="#cad9fc"/>
      <path id="Shape-9" data-name="Shape" d="M104.065,63.258c-3.028,27.917-30.207,49.166-36.569,53.059a2.53,2.53,0,0,1-2.672,0c-5.6-3.461-27.077-19.9-34.38-42.88A50.349,50.349,0,0,1,28,58.168,38.172,38.172,0,0,1,68,20.047c1.094.051,2.189.153,3.257.305a38.982,38.982,0,0,1,32.8,42.906Z" transform="translate(43.255 30.9)" fill="#e8edfc"/>
      <path id="Shape-10" data-name="Shape" d="M50.422,20.344c-1.069-.153-2.163-.254-3.257-.305a38.52,38.52,0,0,0-5.624.188c.415.043.837.059,1.247.117a38.982,38.982,0,0,1,32.8,42.906c-2.731,25.178-25.061,44.888-34.1,51.377,1,.713,1.853,1.29,2.486,1.682a2.53,2.53,0,0,0,2.672,0c6.37-3.894,33.548-25.143,36.577-53.059a38.982,38.982,0,0,0-32.8-42.906Z" transform="translate(64.094 30.909)" fill="#cad9fc"/>
    </g>
    <g id="Icons_copy_2" transform="translate(2.545 2.545)">
      <path id="Shape-11" data-name="Shape" d="M5.09,88.889H7.634v5.09a5.09,5.09,0,0,0,5.09,5.09h7.634a5.09,5.09,0,0,1-5.09-5.09v-5.09H12.724a5.1,5.1,0,0,1-5.09-5.09V15.09A5.1,5.1,0,0,1,12.724,10H5.09A5.1,5.1,0,0,0,0,15.09V83.8A5.1,5.1,0,0,0,5.09,88.889Z" transform="translate(0 15.448)" fill="#fff"/>
      <path id="Shape-12" data-name="Shape" d="M18.634,15.269A15.269,15.269,0,0,1,33.9,0H26.269A15.269,15.269,0,0,0,11,15.269V25.448h7.634Z" transform="translate(16.993)" fill="#fff"/>
    </g>
    <g id="Layer_12">
      <path id="Rectangle-path" d="M0,32H5.09V52.359H0Z" transform="translate(0 49.434)" fill="#fff"/>
      <g id="Grupo_57181" data-name="Grupo 57181">
        <circle id="Oval" cx="2.474" cy="2.474" r="2.474" transform="translate(0 89.068)" fill="#5038a1"/>
        <path id="Shape-13" data-name="Shape" d="M7.634,109.427v2.545a7.634,7.634,0,0,0,7.634,7.634H22.9a7.634,7.634,0,0,0,7.634-7.634v-2.545H66.165a2.545,2.545,0,1,0,0-5.09H30.538V68.71h2.545a5.09,5.09,0,0,0,5.09-5.09V49.405a5.054,5.054,0,0,0-1.491-3.6l-5.09-5.09a5.006,5.006,0,0,0-1.054-.786V30.538h81.434a2.545,2.545,0,0,1,2.545,2.545V43.262a2.545,2.545,0,1,0,5.09,0V33.083a7.634,7.634,0,0,0-7.634-7.634H94.158V17.814A17.834,17.834,0,0,0,76.344,0H45.807A17.834,17.834,0,0,0,27.993,17.814v7.634H7.634A7.634,7.634,0,0,0,0,33.083V81.434a2.545,2.545,0,0,0,5.09,0V33.083a2.545,2.545,0,0,1,2.545-2.545H25.448v9.393a5.006,5.006,0,0,0-1.054.786l-5.09,5.09a5.054,5.054,0,0,0-1.491,3.6V63.62a5.09,5.09,0,0,0,5.09,5.09h2.545v35.627H7.634a2.545,2.545,0,0,1-2.545-2.545,2.545,2.545,0,0,0-5.09,0A7.634,7.634,0,0,0,7.634,109.427Zm68.71-83.979H45.807V17.814H76.344ZM33.083,17.814A12.739,12.739,0,0,1,45.807,5.09H76.344A12.739,12.739,0,0,1,89.069,17.814v7.634H81.434V17.814a5.09,5.09,0,0,0-5.09-5.09H45.807a5.09,5.09,0,0,0-5.09,5.09v7.634H33.083ZM22.9,49.405l5.077-5.09h.025l5.077,5.09V63.62H22.9Zm2.545,60.022v2.545a2.545,2.545,0,0,1-2.545,2.545H15.269a2.545,2.545,0,0,1-2.545-2.545v-2.545Z" fill="#5038a1"/>
        <path id="Shape-14" data-name="Shape" d="M99.24,34.185A39.781,39.781,0,0,0,70.666,20.046,40.717,40.717,0,0,0,28,60.718c0,35.864,37.663,60.075,38.037,60.312a5.12,5.12,0,0,0,2.68.763,5.051,5.051,0,0,0,2.649-.763c8.848-5.436,34.76-27.23,37.778-54.945a42.244,42.244,0,0,0-9.9-31.9Zm4.835,31.352C101.24,91.68,75.453,112.55,68.717,116.7c-9.24-5.7-35.627-28.2-35.627-55.986A35.627,35.627,0,0,1,68.7,25.09q.86,0,1.725.041A34.744,34.744,0,0,1,95.366,37.5a37.129,37.129,0,0,1,8.724,28.041Z" transform="translate(43.255 30.896)" fill="#5038a1"/>
        <path id="Shape-15" data-name="Shape" d="M68.2,33.075a2.545,2.545,0,0,0,2.2-4.581A25.43,25.43,0,0,0,36.49,62.4a2.545,2.545,0,0,0,4.581-2.2A20.338,20.338,0,0,1,68.2,33.075Z" transform="translate(52.53 40.175)" fill="#5038a1"/>
        <path id="Shape-16" data-name="Shape" d="M71.018,31.377a2.545,2.545,0,0,0-1.194,3.395A20.338,20.338,0,0,1,42.7,61.894a2.545,2.545,0,0,0-2.2,4.581A25.43,25.43,0,0,0,74.413,32.568a2.545,2.545,0,0,0-3.395-1.191Z" transform="translate(60.51 48.083)" fill="#5038a1"/>
        <path id="Shape-17" data-name="Shape" d="M56.4,49.425,50.18,53.578,43.958,49.43a2.545,2.545,0,1,0-2.825,4.235l7.634,5.09a2.545,2.545,0,0,0,2.825,0l7.634-5.09A2.545,2.545,0,0,0,56.4,49.43Z" transform="translate(61.792 75.699)" fill="#5038a1"/>
      </g>
    </g>
  </g>
</svg>
