<svg xmlns="http://www.w3.org/2000/svg" xmlns:xlink="http://www.w3.org/1999/xlink" width="184" height="184" viewBox="0 0 184 184">
  <defs>
    <clipPath id="clip-path">
      <rect id="Rect치ngulo_7674" data-name="Rect치ngulo 7674" width="184" height="184" transform="translate(228 4031)" fill="#fff" stroke="#707070" stroke-width="1"/>
    </clipPath>
  </defs>
  <g id="Enmascarar_grupo_47" data-name="Enmascarar grupo 47" transform="translate(-228 -4031)" clip-path="url(#clip-path)">
    <g id="equipaje" transform="translate(237.143 4031)">
      <path id="Trazado_100785" data-name="Trazado 100785" d="M163.273,169.625a16.379,16.379,0,1,1,0,32.759l-127.614,0a16.379,16.379,0,1,1,0-32.759Z" transform="translate(-16.609 -20.863)" fill="#b0b5ca"/>
      <path id="Trazado_100786" data-name="Trazado 100786" d="M106.161,138.7H46.329a5.526,5.526,0,0,1-5.391-5.651v18.839a5.524,5.524,0,0,0,5.391,5.651h59.832a5.524,5.524,0,0,0,5.391-5.651V133.052A5.526,5.526,0,0,1,106.161,138.7Z" transform="translate(-18.539 -17.604)" fill="#ed6337"/>
      <path id="Trazado_100787" data-name="Trazado 100787" d="M111.552,130.149a5.526,5.526,0,0,1-5.391,5.651H46.329a5.526,5.526,0,0,1-5.391-5.651V106.128a5.524,5.524,0,0,1,5.391-5.651h59.832a5.524,5.524,0,0,1,5.391,5.651Z" transform="translate(-18.539 -14.701)" fill="#c24e38"/>
      <path id="Trazado_100788" data-name="Trazado 100788" d="M48.574,151.891V138.7H46.329a5.526,5.526,0,0,1-5.391-5.651v18.839a5.524,5.524,0,0,0,5.391,5.651h7.637a5.524,5.524,0,0,1-5.391-5.651Z" transform="translate(-18.539 -17.604)" fill="#f97d89"/>
      <path id="Trazado_100789" data-name="Trazado 100789" d="M48.574,130.149V106.128a5.524,5.524,0,0,1,5.391-5.651H46.328a5.524,5.524,0,0,0-5.391,5.651v24.021a5.526,5.526,0,0,0,5.391,5.651h7.637a5.526,5.526,0,0,1-5.391-5.651Z" transform="translate(-18.539 -14.701)" fill="#ed6337"/>
      <path id="Trazado_100790" data-name="Trazado 100790" d="M73,132.637v10.6a6.105,6.105,0,0,0,12.211,0v-10.6Z" transform="translate(-21.396 -17.567)" fill="#b9c8db"/>
      <path id="Trazado_100791" data-name="Trazado 100791" d="M166,147.61v6.709H155.746v-6.495h8.545A6.992,6.992,0,0,0,166,147.61Z" transform="translate(-28.77 -18.901)" fill="#5f6a78"/>
      <path id="Trazado_100792" data-name="Trazado 100792" d="M177.736,178.617a8.188,8.188,0,1,1-8.19,8.188,8.188,8.188,0,0,1,8.19-8.188Z" transform="translate(-29.999 -21.664)" fill="#6d7486"/>
      <path id="Trazado_100793" data-name="Trazado 100793" d="M149.924,178.617a8.188,8.188,0,1,1-8.186,8.187,8.189,8.189,0,0,1,8.186-8.187Z" transform="translate(-27.521 -21.664)" fill="#6d7486"/>
      <path id="Trazado_100794" data-name="Trazado 100794" d="M122.115,178.617a8.188,8.188,0,1,1-8.19,8.188,8.188,8.188,0,0,1,8.19-8.188Z" transform="translate(-25.043 -21.664)" fill="#6d7486"/>
      <path id="Trazado_100795" data-name="Trazado 100795" d="M94.3,178.617a8.188,8.188,0,1,1-8.19,8.188,8.188,8.188,0,0,1,8.19-8.188Z" transform="translate(-22.565 -21.664)" fill="#6d7486"/>
      <path id="Trazado_100796" data-name="Trazado 100796" d="M66.494,178.617A8.188,8.188,0,1,1,58.3,186.8a8.188,8.188,0,0,1,8.19-8.188Z" transform="translate(-20.087 -21.664)" fill="#6d7486"/>
      <path id="Trazado_100797" data-name="Trazado 100797" d="M38.681,178.617a8.188,8.188,0,1,1-8.19,8.188,8.188,8.188,0,0,1,8.19-8.188Z" transform="translate(-17.608 -21.664)" fill="#6d7486"/>
      <path id="Trazado_100798" data-name="Trazado 100798" d="M159.813,137.6a6.991,6.991,0,0,1-1.707.214h-8.545V84.844a6.835,6.835,0,0,0-6.835-6.835H108.549a6.835,6.835,0,0,0-6.835,6.835v9.824H94.036V90.239a5.524,5.524,0,0,0-5.391-5.651h-2.31V42.121a6.838,6.838,0,0,1,6.835-6.835h64.937a6.838,6.838,0,0,1,6.835,6.835V130.98a6.842,6.842,0,0,1-5.128,6.621Zm-10.252-72.41V51.522a3.416,3.416,0,0,0-3.417-3.417H105.132a3.416,3.416,0,0,0-3.417,3.417V65.191a3.419,3.419,0,0,0,3.417,3.417h41.012a3.419,3.419,0,0,0,3.417-3.417Z" transform="translate(-22.584 -8.892)" fill="#50a6ea"/>
      <path id="Trazado_100799" data-name="Trazado 100799" d="M96.281,84.588h-2.31V42.121a6.838,6.838,0,0,1,6.835-6.835H93.169a6.838,6.838,0,0,0-6.835,6.835V84.588h2.31a5.524,5.524,0,0,1,5.391,5.651v4.429h7.637V90.239A5.524,5.524,0,0,0,96.281,84.588Z" transform="translate(-22.584 -8.892)" fill="#72bcef"/>
      <path id="Trazado_100800" data-name="Trazado 100800" d="M78.6,147.551a6.1,6.1,0,0,1-1.787-4.318v-10.6H73v10.6a6.1,6.1,0,0,0,8.015,5.8,6.13,6.13,0,0,1-2.41-1.478Z" transform="translate(-21.396 -17.567)" fill="#f4f8fc"/>
      <path id="Trazado_100801" data-name="Trazado 100801" d="M138.733,14.161v3.6a1.529,1.529,0,0,1-1.527,1.527H119.753a1.529,1.529,0,0,1-1.527-1.527v-7.2a1.527,1.527,0,0,1,1.527-1.527h17.453a1.527,1.527,0,0,1,1.527,1.527Z" transform="translate(-25.426 -6.553)" fill="#b9c8db"/>
      <rect id="Rect치ngulo_7675" data-name="Rect치ngulo 7675" width="47.847" height="20.504" rx="3.752" transform="translate(79.13 39.212)" fill="#72bcef"/>
      <path id="Trazado_100802" data-name="Trazado 100802" d="M144.231,82.189H110.054a6.835,6.835,0,0,0-6.835,6.835v9.824h8.492A5.524,5.524,0,0,1,117.1,104.5v37.5h33.964V89.023a6.835,6.835,0,0,0-6.835-6.835Z" transform="translate(-24.089 -13.071)" fill="#72bcef"/>
      <g id="Grupo_53918" data-name="Grupo 53918" transform="translate(0 0)">
        <path id="Trazado_100803" data-name="Trazado 100803" d="M106.412,71.72h41.012a5.715,5.715,0,0,0,5.708-5.709V52.342a5.715,5.715,0,0,0-5.708-5.709H106.412a5.715,5.715,0,0,0-5.708,5.709v13.67a5.715,5.715,0,0,0,5.708,5.709Zm-1.126-19.379a1.128,1.128,0,0,1,1.126-1.127h41.012a1.128,1.128,0,0,1,1.127,1.127v13.67a1.128,1.128,0,0,1-1.127,1.127H106.412a1.128,1.128,0,0,1-1.126-1.127Z" transform="translate(-23.865 -9.903)" fill="#284268"/>
        <path id="Trazado_100804" data-name="Trazado 100804" d="M66.231,175.471a10.862,10.862,0,1,0,10.861,10.862A10.862,10.862,0,0,0,66.231,175.471Zm0,16.378a5.516,5.516,0,1,1,5.516-5.516A5.516,5.516,0,0,1,66.231,191.849Z" transform="translate(-19.825 -21.384)" fill="#284268"/>
        <path id="Trazado_100805" data-name="Trazado 100805" d="M121.852,175.471a10.862,10.862,0,1,0,10.862,10.862A10.862,10.862,0,0,0,121.852,175.471Zm0,16.378a5.516,5.516,0,1,1,5.516-5.516,5.516,5.516,0,0,1-5.516,5.516Z" transform="translate(-24.781 -21.384)" fill="#284268"/>
        <path id="Trazado_100806" data-name="Trazado 100806" d="M149.663,175.471a10.862,10.862,0,1,0,10.862,10.862A10.862,10.862,0,0,0,149.663,175.471Zm0,16.378a5.516,5.516,0,1,1,5.517-5.516A5.516,5.516,0,0,1,149.663,191.849Z" transform="translate(-27.26 -21.384)" fill="#284268"/>
        <path id="Trazado_100807" data-name="Trazado 100807" d="M177.474,175.471a10.862,10.862,0,1,0,10.862,10.862,10.862,10.862,0,0,0-10.862-10.862Zm0,16.378a5.516,5.516,0,1,1,5.516-5.516A5.516,5.516,0,0,1,177.474,191.849Z" transform="translate(-29.738 -21.384)" fill="#284268"/>
        <path id="Trazado_100808" data-name="Trazado 100808" d="M38.42,175.471a10.862,10.862,0,1,0,10.862,10.862A10.862,10.862,0,0,0,38.42,175.471Zm0,16.378a5.516,5.516,0,1,1,5.516-5.516,5.516,5.516,0,0,1-5.516,5.516Z" transform="translate(-17.347 -21.384)" fill="#284268"/>
        <path id="Trazado_100809" data-name="Trazado 100809" d="M94.042,175.471A10.862,10.862,0,1,0,104.9,186.333,10.862,10.862,0,0,0,94.042,175.471Zm0,16.378a5.516,5.516,0,1,1,5.516-5.516A5.516,5.516,0,0,1,94.042,191.849Z" transform="translate(-22.303 -21.384)" fill="#284268"/>
        <path id="Trazado_100810" data-name="Trazado 100810" d="M163.01,166.481H35.4a19.051,19.051,0,1,0,0,38.1H163.01a19.051,19.051,0,1,0,0-38.1Zm0,32.756H35.4a13.705,13.705,0,1,1,0-27.41H163.01a13.705,13.705,0,1,1,0,27.41Z" transform="translate(-16.348 -20.583)" fill="#284268"/>
        <path id="Trazado_100811" data-name="Trazado 100811" d="M46.1,148.35h59.832a7.824,7.824,0,0,0,7.682-7.942v-3.075H143v4.2a2.291,2.291,0,0,0,2.291,2.291h10.252a2.291,2.291,0,0,0,2.291-2.291v-5.127a9.136,9.136,0,0,0,5.127-8.2V39.349a9.136,9.136,0,0,0-9.126-9.126H142.457V13.729a2.291,2.291,0,0,0-2.291-2.291h-6.254v-1.31a3.822,3.822,0,0,0-3.818-3.818h-17.45a3.822,3.822,0,0,0-3.818,3.818v1.308h-6.254a2.291,2.291,0,0,0-2.291,2.291V30.222H88.9a9.136,9.136,0,0,0-9.126,9.126V79.524H67.665a7.824,7.824,0,0,0-7.681,7.942V89.6H46.1a7.824,7.824,0,0,0-7.681,7.942v42.86A7.825,7.825,0,0,0,46.1,148.35Zm96.9-15.6H113.619v-35.2a7.823,7.823,0,0,0-7.682-7.942h-6.2V82.069a4.549,4.549,0,0,1,4.544-4.544h34.176A4.549,4.549,0,0,1,143,82.069Zm10.252,6.494h-5.67v-1.912h5.67ZM113.406,10.892h15.922v5.671H113.406Zm-8.544,5.126h3.962v1.308a3.822,3.822,0,0,0,3.818,3.818h17.449a3.822,3.822,0,0,0,3.818-3.818V16.018h3.962v14.2h-33.01Zm-20.5,23.33A4.549,4.549,0,0,1,88.9,34.8h64.933a4.549,4.549,0,0,1,4.544,4.544v88.859a4.549,4.549,0,0,1-4.544,4.544h-6.253V82.069a9.136,9.136,0,0,0-9.126-9.126H104.28a9.136,9.136,0,0,0-9.126,9.126V89.6h-3.1V87.466a7.823,7.823,0,0,0-7.681-7.942h-.018ZM64.566,87.466a3.241,3.241,0,0,1,3.1-3.36h16.71a3.242,3.242,0,0,1,3.1,3.36V89.6H64.565ZM43,97.546a3.241,3.241,0,0,1,3.1-3.36h59.832a3.242,3.242,0,0,1,3.1,3.36v24.02a3.241,3.241,0,0,1-3.1,3.36H84.416v-3.738a2.291,2.291,0,0,0-2.291-2.291H69.915a2.291,2.291,0,0,0-2.291,2.291v3.738H46.1a3.242,3.242,0,0,1-3.1-3.36Zm36.83,25.935v8.3a3.814,3.814,0,1,1-7.629,0v-8.3ZM43,128.827a7.418,7.418,0,0,0,3.1.681H67.624v2.275a8.4,8.4,0,1,0,16.793,0v-2.275h21.52a7.417,7.417,0,0,0,3.1-.681v11.579a3.241,3.241,0,0,1-3.1,3.36H46.1a3.242,3.242,0,0,1-3.1-3.36Z" transform="translate(-18.315 -6.31)" fill="#284268"/>
      </g>
    </g>
  </g>
</svg>
