<svg xmlns="http://www.w3.org/2000/svg" xmlns:xlink="http://www.w3.org/1999/xlink" width="128" height="119" viewBox="0 0 128 119">
  <defs>
    <clipPath id="clip-path">
      <rect id="Rectángulo_7679" data-name="Rectángulo 7679" width="128" height="119" transform="translate(1082 5998.988)" fill="#ffdc72" stroke="#707070" stroke-width="1"/>
    </clipPath>
  </defs>
  <g id="Enmascarar_grupo_49" data-name="Enmascarar grupo 49" transform="translate(-1082 -5998.988)" clip-path="url(#clip-path)">
    <g id="equipaje_1_" data-name="equipaje (1)" transform="translate(1086.5 5998.988)">
      <path id="Trazado_101442" data-name="Trazado 101442" d="M12.31,96.431H106.69v20.517A2.052,2.052,0,0,1,104.638,119H14.362a2.052,2.052,0,0,1-2.052-2.052V96.431Z" fill="#41767f"/>
      <path id="Trazado_101443" data-name="Trazado 101443" d="M90.276,112.845H28.724a2.052,2.052,0,1,1,0-4.1H90.276a2.052,2.052,0,1,1,0,4.1Z" fill="#67b9cc"/>
      <path id="Trazado_101444" data-name="Trazado 101444" d="M98.483,47.189a2.052,2.052,0,0,1-2.052-2.052V38.982a4.1,4.1,0,0,0-4.1-4.1H84.121a4.1,4.1,0,0,0-4.1,4.1v6.155a2.052,2.052,0,0,1-4.1,0V38.982a8.207,8.207,0,0,1,8.207-8.207h8.207a8.207,8.207,0,0,1,8.207,8.207v6.155A2.051,2.051,0,0,1,98.483,47.189Z" fill="#d25627"/>
      <g id="Grupo_54713" data-name="Grupo 54713">
        <path id="Trazado_101445" data-name="Trazado 101445" d="M22.569,34.879a2.052,2.052,0,0,1-2.052-2.052V4.1a2.052,2.052,0,0,1,4.1,0V32.827A2.052,2.052,0,0,1,22.569,34.879Z" fill="#d1d4d1"/>
        <path id="Trazado_101446" data-name="Trazado 101446" d="M43.086,34.879a2.052,2.052,0,0,1-2.052-2.052V4.1a2.052,2.052,0,0,1,4.1,0V32.827A2.052,2.052,0,0,1,43.086,34.879Z" fill="#d1d4d1"/>
      </g>
      <path id="Trazado_101447" data-name="Trazado 101447" d="M16.414,28.724H49.241A6.155,6.155,0,0,1,55.4,34.879V71.81a6.155,6.155,0,0,1-6.155,6.155H16.414a6.155,6.155,0,0,1-6.155-6.155V34.879A6.155,6.155,0,0,1,16.414,28.724Z" fill="#ff5364"/>
      <path id="Trazado_101448" data-name="Trazado 101448" d="M20.517,0H45.138a4.1,4.1,0,0,1,4.1,4.1h0a4.1,4.1,0,0,1-4.1,4.1H20.517a4.1,4.1,0,0,1-4.1-4.1h0A4.1,4.1,0,0,1,20.517,0Z" fill="#802d40"/>
      <path id="Trazado_101449" data-name="Trazado 101449" d="M47.189,43.086V53.345H18.465V43.086a6.155,6.155,0,0,1,6.155-6.155H41.034A6.155,6.155,0,0,1,47.189,43.086Z" fill="#df4d60"/>
      <g id="Grupo_54714" data-name="Grupo 54714">
        <path id="Trazado_101450" data-name="Trazado 101450" d="M47.189,53.345v8.207a6.155,6.155,0,0,1-6.155,6.155H24.62a6.155,6.155,0,0,1-6.155-6.155V53.345Z" fill="#802d40"/>
        <path id="Trazado_101451" data-name="Trazado 101451" d="M32.827,47.189a2.052,2.052,0,0,1-.78-.164,1.847,1.847,0,0,1-1.108-1.108,2.053,2.053,0,0,1-.164-.78,3.039,3.039,0,0,1,.041-.41,1.3,1.3,0,0,1,.123-.369,1.555,1.555,0,0,1,.185-.369,3.236,3.236,0,0,1,.246-.308,2.373,2.373,0,0,1,.677-.431,1.962,1.962,0,0,1,1.19-.123,1.3,1.3,0,0,1,.369.123,1.555,1.555,0,0,1,.369.185l.308.246a3.229,3.229,0,0,1,.246.308,1.547,1.547,0,0,1,.185.369,1.3,1.3,0,0,1,.123.369,3.116,3.116,0,0,1,.041.41,2.052,2.052,0,0,1-.164.78,2.37,2.37,0,0,1-.431.677l-.308.246a1.547,1.547,0,0,1-.369.185,1.3,1.3,0,0,1-.369.123A2.733,2.733,0,0,1,32.827,47.189Z" fill="#802d40"/>
      </g>
      <path id="Trazado_101452" data-name="Trazado 101452" d="M108.741,57.448v12.31a8.207,8.207,0,0,1-8.207,8.207H75.914a8.207,8.207,0,0,1-8.207-8.207V57.448Z" fill="#e57e25"/>
      <path id="Trazado_101453" data-name="Trazado 101453" d="M108.741,51.293V59.5H67.707V51.293a8.207,8.207,0,0,1,8.207-8.207h24.621A8.207,8.207,0,0,1,108.741,51.293Z" fill="#f29c1f"/>
      <path id="Trazado_101454" data-name="Trazado 101454" d="M80.017,51.293V59.5h-4.1V51.293a2.052,2.052,0,1,1,4.1,0Z" fill="#e57e25"/>
      <g id="Grupo_54715" data-name="Grupo 54715">
        <path id="Trazado_101455" data-name="Trazado 101455" d="M75.914,59.5h4.1v6.155a2.052,2.052,0,0,1-4.1,0V59.5Z" fill="#d25627"/>
        <path id="Trazado_101456" data-name="Trazado 101456" d="M100.534,59.5v6.155a2.052,2.052,0,0,1-4.1,0V59.5Z" fill="#d25627"/>
      </g>
      <path id="Trazado_101457" data-name="Trazado 101457" d="M100.534,51.293V59.5h-4.1V51.293a2.052,2.052,0,1,1,4.1,0Z" fill="#e57e25"/>
      <path id="Trazado_101458" data-name="Trazado 101458" d="M12.31,77.965H106.69A12.31,12.31,0,0,1,119,90.276h0a12.31,12.31,0,0,1-12.31,12.31H12.31A12.311,12.311,0,0,1,0,90.276H0A12.31,12.31,0,0,1,12.31,77.965Z" fill="#2c3e50"/>
      <g id="Grupo_54716" data-name="Grupo 54716">
        <circle id="Elipse_4113" data-name="Elipse 4113" cx="4.103" cy="4.103" r="4.103" transform="translate(47.19 86.172)" fill="#3f5c6c"/>
        <circle id="Elipse_4114" data-name="Elipse 4114" cx="4.103" cy="4.103" r="4.103" transform="translate(30.776 86.172)" fill="#3f5c6c"/>
        <circle id="Elipse_4115" data-name="Elipse 4115" cx="4.103" cy="4.103" r="4.103" transform="translate(14.362 86.172)" fill="#3f5c6c"/>
        <circle id="Elipse_4116" data-name="Elipse 4116" cx="4.103" cy="4.103" r="4.103" transform="translate(63.603 86.172)" fill="#3f5c6c"/>
        <circle id="Elipse_4117" data-name="Elipse 4117" cx="4.103" cy="4.103" r="4.103" transform="translate(80.017 86.172)" fill="#3f5c6c"/>
        <circle id="Elipse_4118" data-name="Elipse 4118" cx="4.103" cy="4.103" r="4.103" transform="translate(96.431 86.172)" fill="#3f5c6c"/>
      </g>
    </g>
  </g>
</svg>
