<svg xmlns="http://www.w3.org/2000/svg" xmlns:xlink="http://www.w3.org/1999/xlink" width="128" height="119" viewBox="0 0 128 119">
  <defs>
    <clipPath id="clip-path">
      <rect id="Rectángulo_7683" data-name="Rectángulo 7683" width="128" height="119" transform="translate(1082 6720.148)" fill="#ffdc72" stroke="#707070" stroke-width="1"/>
    </clipPath>
  </defs>
  <g id="Enmascarar_grupo_53" data-name="Enmascarar grupo 53" transform="translate(-1082 -6720.148)" clip-path="url(#clip-path)">
    <g id="aeropuerto_1_" data-name="aeropuerto (1)" transform="translate(1082 6715.648)">
      <path id="Trazado_101519" data-name="Trazado 101519" d="M83.62,55.687H95.829V67.9H83.62Z" fill="#373c41"/>
      <g id="Grupo_54744" data-name="Grupo 54744">
        <circle id="Elipse_4128" data-name="Elipse 4128" cx="10.797" cy="10.797" r="10.797" transform="translate(24.806 5.817)" fill="#ffb69e"/>
        <path id="Trazado_101520" data-name="Trazado 101520" d="M35.908,80.465l-.035-46.612c-.023,0-7.45-3.314-7.45-3.314H21.729A12.4,12.4,0,0,0,9.308,42.806V61.434a5.209,5.209,0,0,0,10.419,0V42.85a1.987,1.987,0,0,1,2-1.892h.278V80.465h13.9Z" fill="#1d5073"/>
        <path id="Trazado_101521" data-name="Trazado 101521" d="M62.3,42.806A12.4,12.4,0,0,0,49.88,30.54l-6.629,0s-7.435,1.786-7.447,1.786-.035,48.138-.035,48.138H49.6V40.958h.278a1.987,1.987,0,0,1,2,1.893V78.537a5.209,5.209,0,1,0,10.419,0V42.806Z" fill="#194664"/>
        <path id="Trazado_101522" data-name="Trazado 101522" d="M28.424,30.54S30.1,40.572,33.829,43.407h4.016c3.726-2.835,5.406-12.867,5.406-12.867Z" fill="#fff"/>
        <path id="Trazado_101523" data-name="Trazado 101523" d="M37.857,30.54h-4.04a.813.813,0,0,0-.8.96l.665,3.6a.812.812,0,0,0,.8.665h2.71a.813.813,0,0,0,.8-.665l.665-3.6A.812.812,0,0,0,37.857,30.54Z" fill="#64afff"/>
        <path id="Trazado_101524" data-name="Trazado 101524" d="M37.749,37.151a.666.666,0,0,0-.654-.538H34.579a.666.666,0,0,0-.654.538l-.656,3.336a.665.665,0,0,0,0,.266l.559,2.654a3.1,3.1,0,0,0,4.016,0l.559-2.654a.665.665,0,0,0,0-.266Z" fill="#64afff"/>
        <g id="Grupo_54741" data-name="Grupo 54741">
          <path id="Trazado_101525" data-name="Trazado 101525" d="M32.1,56.961H14.517a5.209,5.209,0,1,0,0,10.419H32.1l1.878-5.209Z" fill="#1d5073"/>
        </g>
        <g id="Grupo_54742" data-name="Grupo 54742">
          <path id="Trazado_101526" data-name="Trazado 101526" d="M35.6,56.961H32.1V67.379h3.5l1.91-5.209Z" fill="#fff"/>
        </g>
        <g id="Grupo_54743" data-name="Grupo 54743">
          <path id="Trazado_101527" data-name="Trazado 101527" d="M35.6,56.961V67.379a5.209,5.209,0,1,0,0-10.418Z" fill="#ffb69e"/>
        </g>
      </g>
      <g id="Grupo_54745" data-name="Grupo 54745">
        <path id="Trazado_101528" data-name="Trazado 101528" d="M4.478,67.9H123.246v54.287H4.478Z" fill="#55879b"/>
      </g>
      <g id="Grupo_54746" data-name="Grupo 54746">
        <path id="Trazado_101529" data-name="Trazado 101529" d="M0,69.606v3.423a2.227,2.227,0,0,0,2.227,2.227H125.773A2.227,2.227,0,0,0,128,73.029V69.606a2.227,2.227,0,0,0-2.227-2.227H2.227A2.227,2.227,0,0,0,0,69.606Z" fill="#6c9baa"/>
      </g>
      <path id="Trazado_101530" data-name="Trazado 101530" d="M108.993,30.851H70.581a3.024,3.024,0,0,0-3.024,3.024V58.64a3.024,3.024,0,0,0,3.024,3.024h38.412a3.024,3.024,0,0,0,3.024-3.024V33.876a3.024,3.024,0,0,0-3.024-3.024Z" fill="#50555a"/>
      <circle id="Elipse_4129" data-name="Elipse 4129" cx="4.096" cy="4.096" r="4.096" transform="matrix(0.383, -0.924, 0.924, 0.383, 84.469, 48.477)" fill="#fff"/>
      <g id="Grupo_54749" data-name="Grupo 54749">
        <path id="Trazado_101531" data-name="Trazado 101531" d="M89.176,91.808l-1.067-1.327a13.639,13.639,0,0,0-8.466-2.111L48.3,90.8l-.671-1.838A4.4,4.4,0,0,0,43.5,86.071h-6.31a2.444,2.444,0,0,0-2.262,3.37l2.4,5.864a8.321,8.321,0,0,0,7.025,5.14l35.291,2.874a13.637,13.637,0,0,0,10.066-3.311l1.557-1.356a3.724,3.724,0,0,0,.31-5.312Z" fill="#fff"/>
        <g id="Grupo_54747" data-name="Grupo 54747">
          <path id="Trazado_101532" data-name="Trazado 101532" d="M71.148,95.5H60.86a7.179,7.179,0,0,0-3.912,1.159l-10.387,6.748a1.234,1.234,0,0,0,.662,2.268l4.27.036a9.875,9.875,0,0,0,4.331-.96l15.721-7.487a.927.927,0,0,0-.4-1.764Z" fill="#b4d7dc"/>
        </g>
        <g id="Grupo_54748" data-name="Grupo 54748">
          <path id="Trazado_101533" data-name="Trazado 101533" d="M91.267,93.038,89.71,91.681a13.649,13.649,0,0,0-1.6-1.2h-3.4a1.429,1.429,0,0,0,0,2.859h6.87a3.809,3.809,0,0,0-.309-.3Z" fill="#b4d7dc"/>
        </g>
      </g>
    </g>
  </g>
</svg>
