<svg xmlns="http://www.w3.org/2000/svg" width="148.667" height="95.254" viewBox="0 0 148.667 95.254">
  <path id="Trazado_101433" data-name="Trazado 101433" d="M86.287,57.154a22.938,22.938,0,0,1,12.651,5.389,15.638,15.638,0,0,1-1.844,1.527,19.351,19.351,0,0,1-4.117,2.2,47.526,47.526,0,0,0-6.689-9.114Zm-54.97,95.215,5.508-30.1h9.838l-5.508,30.1Zm29.1-10.3h6.07l-1.092-10.423-4.977,10.423ZM46.1,152.369h9.509l1.893-3.977h9.587l.4,3.977h9.586l-5.083-30.1H62.2l-16.1,30.1Zm40.58,0,4.06-22.187H82.072l1.448-7.912h27l-1.448,7.912h-8.665l-4.06,22.187Zm33.346-10.3h6.07L125,131.647l-4.978,10.423Zm-14.317,10.3h9.509l1.893-3.977h9.587l.4,3.977h9.587l-5.083-30.1h-9.8l-16.1,30.1Zm52.628-64.9H111.519c-.545,2.085-.61,4.08-1.577,5.956A29.247,29.247,0,0,1,92.2,108.076h0c2.473,6.715,9.1,7.967,12.448,8.159h20.2c5.717,0,7.833-.626,11.014-6.136H110.489l.049-.078a.706.706,0,0,1-.384-.626h0a.706.706,0,0,1,.7-.7h21.474c5.717,0,7.833-.625,11.014-6.135H114.391a.706.706,0,0,1-.7-.7h0a.706.706,0,0,1,.7-.7h25.435c5.717,0,7.833-.625,11.014-6.136H117.925a.706.706,0,0,1-.7-.7h0a.706.706,0,0,1,.7-.7h29.4c5.717,0,7.833-.625,11.014-6.136Zm-148.667,0H56.482c.544,2.085.61,4.08,1.577,5.956a29.246,29.246,0,0,0,17.747,14.653h0c-2.473,6.715-9.1,7.967-12.448,8.159h-20.2c-5.717,0-7.833-.626-11.014-6.136H57.511l-.049-.078a.706.706,0,0,0,.384-.626h0a.707.707,0,0,0-.7-.7H35.668c-5.717,0-7.833-.625-11.014-6.135H53.61a.706.706,0,0,0,.7-.7h0a.706.706,0,0,0-.7-.7H28.175c-5.717,0-7.833-.625-11.014-6.136H50.076a.706.706,0,0,0,.7-.7h0a.706.706,0,0,0-.7-.7h-29.4c-5.717,0-7.833-.625-11.014-6.136Zm90.17-24.119a16.808,16.808,0,0,1-2.045,1.7,20.506,20.506,0,0,1-4.248,2.288,28.1,28.1,0,0,1,3.224,12.133h10.26a22.965,22.965,0,0,0-7.19-16.122Zm7.19,17.33A22.969,22.969,0,0,1,99.837,96.8a16.806,16.806,0,0,0-2.045-1.7,20.478,20.478,0,0,0-4.248-2.288,28.108,28.108,0,0,0,3.224-12.133ZM98.938,97.607A22.938,22.938,0,0,1,86.287,103a47.526,47.526,0,0,0,6.689-9.114,19.351,19.351,0,0,1,4.117,2.2,15.689,15.689,0,0,1,1.844,1.526ZM81.713,103a47.546,47.546,0,0,1-6.689-9.114,19.323,19.323,0,0,0-4.117,2.2,15.643,15.643,0,0,0-1.844,1.526A22.935,22.935,0,0,0,81.713,103ZM68.164,96.8a16.8,16.8,0,0,1,2.045-1.7,20.483,20.483,0,0,1,4.249-2.288,28.092,28.092,0,0,1-3.224-12.133H60.974A22.967,22.967,0,0,0,68.164,96.8Zm-7.19-17.33a22.968,22.968,0,0,1,7.19-16.122,16.8,16.8,0,0,0,2.045,1.7,20.51,20.51,0,0,0,4.249,2.288,28.092,28.092,0,0,0-3.224,12.133Zm8.089-16.929a15.592,15.592,0,0,0,1.844,1.527,19.323,19.323,0,0,0,4.117,2.2,47.546,47.546,0,0,1,6.689-9.114,22.936,22.936,0,0,0-12.651,5.389ZM92.4,67.759A27.009,27.009,0,0,1,95.56,79.472H84.6V69.1a26.027,26.027,0,0,0,7.8-1.346ZM83.4,69.1a26.031,26.031,0,0,1-7.8-1.346,27,27,0,0,0-3.155,11.713H83.4V69.1Zm-7.224-2.422A47.753,47.753,0,0,1,83.4,57.115V67.9a24.9,24.9,0,0,1-7.224-1.214ZM84.6,67.9a24.893,24.893,0,0,0,7.224-1.214A47.744,47.744,0,0,0,84.6,57.115V67.9Zm0,23.15V80.679H95.56A27.007,27.007,0,0,1,92.4,92.391a26.044,26.044,0,0,0-7.8-1.345ZM75.6,92.391a26.048,26.048,0,0,1,7.8-1.345V80.679H72.441A27,27,0,0,0,75.6,92.391Zm16.231,1.077A24.912,24.912,0,0,0,84.6,92.253v10.781a47.726,47.726,0,0,0,7.224-9.567ZM83.4,92.253v10.781a47.726,47.726,0,0,1-7.224-9.567A24.908,24.908,0,0,1,83.4,92.253Z" transform="translate(-9.667 -57.115)" fill="#053c65" fill-rule="evenodd"/>
</svg>
