<svg xmlns="http://www.w3.org/2000/svg" width="146.667" height="110.831" viewBox="0 0 146.667 110.831">
  <g id="Grupo_54709" data-name="Grupo 54709" transform="translate(-53 -236.89)">
    <path id="Trazado_101378" data-name="Trazado 101378" d="M233.927,443.64a19.42,19.42,0,0,1,7.16-1.366,28.273,28.273,0,0,1,8.584.924c3.7.847,4.735,1.309,6.814,1.309a10.211,10.211,0,0,0,4.2-1.155,16.678,16.678,0,0,1-10.663,3.58c-5.467,0-10.587-3.156-13.34-3.079-.539.015-1.789.192-1.789.192a22.97,22.97,0,0,1,9.335,5.851c-.539.385-1.4,1.018-1.4,1.018a18.156,18.156,0,0,0-4.928-4.829c-3.041-1.925-3.965-1.848-3.965-1.848s-.924-.077-3.965,1.848a18.152,18.152,0,0,0-4.927,4.829s-.866-.633-1.405-1.018a22.97,22.97,0,0,1,9.335-5.851s-1.251-.177-1.789-.192c-2.752-.077-7.873,3.079-13.34,3.079a16.677,16.677,0,0,1-10.663-3.58,10.211,10.211,0,0,0,4.2,1.155c2.079,0,3.118-.462,6.814-1.309a28.274,28.274,0,0,1,8.584-.924,19.42,19.42,0,0,1,7.16,1.366Z" transform="translate(-107.791 -143.596)" fill="#3188d8"/>
    <path id="Trazado_101379" data-name="Trazado 101379" d="M338.2,410a13.387,13.387,0,0,1,2.695.308c1.848.346,5,1.578,8.546.116a16.385,16.385,0,0,0,8.431-7.045,10.956,10.956,0,0,1-4.5,2.541c-3.311,1.155-3.657.77-6.313,1.655s-5.159,1.5-5.159,1.5a9.81,9.81,0,0,0,3.349-2.541,21.55,21.55,0,0,0,2.425-5.159c.616-1.848,1.5-4.273,1.5-4.273a82.921,82.921,0,0,0-5.505,6.429c-1.116,1.732-2.158,4.04-2.81,4.773A5.5,5.5,0,0,1,338.2,410Z" transform="translate(-199.404 -112.015)" fill="#3188d8" fill-rule="evenodd"/>
    <path id="Trazado_101380" data-name="Trazado 101380" d="M369.684,390.161a24.775,24.775,0,0,0,3.619-.847,20.536,20.536,0,0,0,6.7-4.042,19.148,19.148,0,0,0,3.58-5.313,10.356,10.356,0,0,0,.962-3.079s-.5.616-1.694,1.963a61.394,61.394,0,0,1-5.274,4.542,41.614,41.614,0,0,0-4.157,3.888,3.762,3.762,0,0,1-1.694,1.309,22.471,22.471,0,0,0,3.041-5.351,21.024,21.024,0,0,0,.886-6.313c-.039-1.694-.077-2.849-.077-2.849s-3.2,5.428-4.042,8.585a30.611,30.611,0,0,0-.808,5.236,6.35,6.35,0,0,1-1.039,2.271Z" transform="translate(-221.413 -95.911)" fill="#3188d8"/>
    <path id="Trazado_101381" data-name="Trazado 101381" d="M392.918,360.8a16.593,16.593,0,0,1,1.886-1.963c1.27-1.155,3.927-2.618,5.428-4.966a14.725,14.725,0,0,0,2.233-5.89,14.289,14.289,0,0,0,.231-2.618,19.561,19.561,0,0,1-1.963,3.542c-1.529,2.15-2.857,3.251-3.7,4.465a43.921,43.921,0,0,0-2.541,4.2c0-.361,1.154-4.418.809-6.467a34.74,34.74,0,0,0-1.078-4.427c-.308-1.386-.5-2.541-.5-2.541a32.333,32.333,0,0,0-1.271,6.968c-.039,2.849.616,3.465.539,5.928s-.077,3.773-.077,3.773Z" transform="translate(-237.333 -74.976)" fill="#3188d8"/>
    <path id="Trazado_101382" data-name="Trazado 101382" d="M399.828,326.11a31.435,31.435,0,0,0,2.887-3.965c1.54-2.464,2.464-4,2.849-6.467a18.7,18.7,0,0,0,.438-4.311,12.1,12.1,0,0,0-.669-3.58,13.7,13.7,0,0,1-.539,2.964c-.5,1.771-1.694,3.08-2.579,5.774a33.224,33.224,0,0,0-1.232,5.582,25.442,25.442,0,0,0-1.386-5.544,47.909,47.909,0,0,0-3.041-5.274,33.749,33.749,0,0,0,.731,6.929c.732,2.772,2.079,3.619,2.425,5.274a6.552,6.552,0,0,1,.116,2.618Z" transform="translate(-240.2 -49.568)" fill="#3188d8"/>
    <path id="Trazado_101383" data-name="Trazado 101383" d="M393.991,293.71s.193.308.616-1.54,1.347-2.695,1.463-4.312a15.532,15.532,0,0,0,.077-5.081,22.778,22.778,0,0,0-2.117-5.851,7.327,7.327,0,0,0-1.231-1.771,22.349,22.349,0,0,1,.538,2.425,27.385,27.385,0,0,1,.115,3c-.014,1.124-.335,2.171-.423,3.387a24.052,24.052,0,0,0,.693,5.621,14.416,14.416,0,0,0-2.579-4.543c-1.579-1.617-4.7-4.543-4.7-4.543a52.23,52.23,0,0,0,2.926,6.583c1.116,1.733,3.2,3.657,3.657,4.466a18.391,18.391,0,0,1,.962,2.156Z" transform="translate(-233.132 -26.754)" fill="#3188d8"/>
    <path id="Trazado_101384" data-name="Trazado 101384" d="M382.443,271.36s.077-1.54.154-2.733a14.415,14.415,0,0,0-.809-6.544,14.907,14.907,0,0,0-3.388-4.465c-.577-.655-1.578-1.347-.423.693s1.155,3.811,1.655,5.467,1.27,4.388,1.27,4.388a18.7,18.7,0,0,0-2.926-3.58c-1.309-1.039-2.425-1.347-3.349-2.194s-2-2.079-2-2.079a17.22,17.22,0,0,0,2.04,4.158,16.813,16.813,0,0,0,3.5,3.349c.808.578,1.915,1.347,2.348,1.694a24.643,24.643,0,0,1,1.925,1.848Z" transform="translate(-223.47 -14.028)" fill="#3188d8"/>
    <path id="Trazado_101385" data-name="Trazado 101385" d="M374.632,260.555a8.77,8.77,0,0,0-2.233-5.081,24,24,0,0,0-5.659-3.734,24.235,24.235,0,0,0,2.733,4.427,18.742,18.742,0,0,0,3.7,3.426c.732.462,1.463.962,1.463.962Z" transform="translate(-219.354 -10.382)" fill="#3188d8"/>
    <path id="Trazado_101386" data-name="Trazado 101386" d="M208.289,410a13.385,13.385,0,0,0-2.695.308c-1.848.346-5,1.578-8.546.116a16.383,16.383,0,0,1-8.43-7.045,10.954,10.954,0,0,0,4.5,2.541c3.311,1.155,3.657.77,6.313,1.655s5.159,1.5,5.159,1.5a9.807,9.807,0,0,1-3.349-2.541,21.549,21.549,0,0,1-2.425-5.159c-.616-1.848-1.5-4.273-1.5-4.273a82.934,82.934,0,0,1,5.5,6.429c1.116,1.732,2.158,4.04,2.81,4.773A5.5,5.5,0,0,0,208.289,410Z" transform="translate(-94.819 -112.015)" fill="#3188d8" fill-rule="evenodd"/>
    <path id="Trazado_101387" data-name="Trazado 101387" d="M187.993,390.161a24.775,24.775,0,0,1-3.619-.847,20.537,20.537,0,0,1-6.7-4.042,19.162,19.162,0,0,1-3.58-5.313,10.356,10.356,0,0,1-.962-3.079s.5.616,1.694,1.963a61.387,61.387,0,0,0,5.274,4.542,41.584,41.584,0,0,1,4.158,3.888,3.762,3.762,0,0,0,1.694,1.309,22.468,22.468,0,0,1-3.042-5.351,21.023,21.023,0,0,1-.885-6.313c.039-1.694.077-2.849.077-2.849s3.2,5.428,4.042,8.585a30.589,30.589,0,0,1,.808,5.236,6.344,6.344,0,0,0,1.039,2.271Z" transform="translate(-83.993 -95.911)" fill="#3188d8"/>
    <path id="Trazado_101388" data-name="Trazado 101388" d="M175.486,360.8a16.616,16.616,0,0,0-1.887-1.963c-1.27-1.155-3.926-2.618-5.428-4.966a14.731,14.731,0,0,1-2.233-5.89,14.291,14.291,0,0,1-.231-2.618,19.574,19.574,0,0,0,1.963,3.542c1.529,2.15,2.857,3.251,3.7,4.465a43.923,43.923,0,0,1,2.541,4.2c0-.361-1.154-4.418-.808-6.467a34.635,34.635,0,0,1,1.078-4.427c.308-1.386.5-2.541.5-2.541a32.323,32.323,0,0,1,1.27,6.968c.039,2.849-.616,3.465-.539,5.928s.077,3.773.077,3.773Z" transform="translate(-78.799 -74.976)" fill="#3188d8"/>
    <path id="Trazado_101389" data-name="Trazado 101389" d="M170.427,326.11a31.4,31.4,0,0,1-2.887-3.965c-1.54-2.464-2.464-4-2.849-6.467a18.683,18.683,0,0,1-.438-4.311,12.11,12.11,0,0,1,.669-3.58,13.7,13.7,0,0,0,.539,2.964c.5,1.771,1.694,3.08,2.579,5.774a33.189,33.189,0,0,1,1.232,5.582,25.442,25.442,0,0,1,1.386-5.544,47.947,47.947,0,0,1,3.041-5.274,33.736,33.736,0,0,1-.731,6.929c-.731,2.772-2.079,3.619-2.425,5.274a6.545,6.545,0,0,0-.116,2.618Z" transform="translate(-77.782 -49.568)" fill="#3188d8"/>
    <path id="Trazado_101390" data-name="Trazado 101390" d="M175.223,293.71s-.193.308-.616-1.54-1.347-2.695-1.463-4.312a15.54,15.54,0,0,1-.077-5.081,22.789,22.789,0,0,1,2.117-5.851,7.344,7.344,0,0,1,1.231-1.771,22.394,22.394,0,0,0-.538,2.425,27.418,27.418,0,0,0-.116,3c.014,1.124.335,2.171.424,3.387a24.087,24.087,0,0,1-.693,5.621,14.416,14.416,0,0,1,2.579-4.543c1.578-1.617,4.7-4.543,4.7-4.543a52.277,52.277,0,0,1-2.926,6.583c-1.116,1.733-3.2,3.657-3.657,4.466a18.416,18.416,0,0,0-.962,2.156Z" transform="translate(-83.81 -26.754)" fill="#3188d8"/>
    <path id="Trazado_101391" data-name="Trazado 101391" d="M186.447,271.36s-.077-1.54-.154-2.733a14.41,14.41,0,0,1,.808-6.544,14.912,14.912,0,0,1,3.388-4.465c.578-.655,1.578-1.347.424.693s-1.155,3.811-1.656,5.467-1.27,4.388-1.27,4.388a18.7,18.7,0,0,1,2.926-3.58c1.309-1.039,2.425-1.347,3.349-2.194s2-2.079,2-2.079a17.22,17.22,0,0,1-2.04,4.158,16.821,16.821,0,0,1-3.5,3.349c-.808.578-1.915,1.347-2.348,1.694a24.681,24.681,0,0,0-1.925,1.848Z" transform="translate(-93.148 -14.028)" fill="#3188d8"/>
    <path id="Trazado_101392" data-name="Trazado 101392" d="M199.238,260.555a8.767,8.767,0,0,1,2.233-5.081,24,24,0,0,1,5.659-3.734,24.214,24.214,0,0,1-2.733,4.427,18.734,18.734,0,0,1-3.7,3.426c-.732.462-1.463.962-1.463.962Z" transform="translate(-102.244 -10.382)" fill="#3188d8"/>
    <path id="Trazado_101393" data-name="Trazado 101393" d="M299.433,350.414a1.424,1.424,0,1,1,1.424,1.424,1.424,1.424,0,0,1-1.424-1.424Z" transform="translate(-172.296 -78.376)" fill="#3188d8"/>
    <path id="Trazado_101394" data-name="Trazado 101394" d="M271.885,238.945a1.039,1.039,0,0,1-1.626.291c-4.1,3.255-8.641,12.76-11.072,24.831-3.122,15.5-1.3,27.963,3.317,28.667,4.665.71,10.962-10.387,14.078-25.854,3.122-15.5,1.58-27.438-3.042-28.141a3.281,3.281,0,0,0-1.655.206Zm-1.964-.476a1.041,1.041,0,0,1,1.159-1.033,4.14,4.14,0,0,1,2.575-.507c5.547.844,7.122,14.77,4.081,29.873-3.048,15.136-9.841,27.5-15.344,26.665-5.546-.844-6.975-14.444-3.933-29.547,2.38-11.816,6.948-21.9,11.466-25.362,0-.029,0-.059,0-.089Z" transform="translate(-142.554)" fill="#3188d8"/>
    <path id="Trazado_101395" data-name="Trazado 101395" d="M256.281,282.614a.886.886,0,0,1-.4,1.283c.461,4.576,2.431,10.915,5.652,17.2,5.35,10.436,11.324,15.349,13.487,12.891,2.4-2.732.489-13.064-4.733-23.251-5.35-10.436-11.151-15.209-13.314-12.751-.767.872-.782,2.461-.693,4.631Zm-1.636.47a.882.882,0,0,1,.134-.468c-.075-2.328.469-4.439,1.367-5.46,3.036-3.451,9.782,3.445,14.8,13.24,5.149,10.045,7.425,20.9,4.63,24.08-3.036,3.451-9.683-3.248-14.7-13.043-3.183-6.21-5.286-12.732-5.739-17.556a.886.886,0,0,1-.491-.793Z" transform="translate(-140.982 -27.522)" fill="#3188d8"/>
    <path id="Trazado_101396" data-name="Trazado 101396" d="M233.717,330.61a.886.886,0,0,1-1.257.444c-7.768.067-14.116-1.882-14.618-4.968-.691-4.248,9.346-8.887,21.238-10.72s22.744-.426,23.434,3.813-9.189,8.848-21.082,10.681a67.463,67.463,0,0,1-7.716.748Zm-1.265-1.1a.886.886,0,0,1,1.227.357,66.608,66.608,0,0,0,7.641-.744c12.289-1.894,21.008-6.476,20.462-9.829s-10.306-5.093-22.589-3.2-20.684,6.4-20.138,9.755c.4,2.461,5.737,3.735,13.4,3.66Z" transform="translate(-115.228 -54.317)" fill="#3188d8"/>
    <path id="Trazado_101397" data-name="Trazado 101397" d="M272.858,324.206a.886.886,0,0,1,.714,1.319c.07,1.876-1.879,2.978-4.139,2.875-2.463-.112-6.033-1.386-10-3.365-7.867-3.928-14.926-10.113-15.557-13.925-.363-2.194,1.37-3.069,3.8-2.958,2.462.112,5.964,1.189,9.927,3.167,7.187,3.588,13.691,9.061,15.251,12.886Zm-.942.884a.883.883,0,0,1,.257-.624c-1.426-3.488-7.653-8.865-14.9-12.482-3.922-1.958-7.316-2.984-9.629-3.089-2.347-.107-3.268.686-3.034,2.1.563,3.4,7.254,9.437,15.156,13.382a23.991,23.991,0,0,0,9.375,2.816c2.191.1,2.983-.389,2.908-1.626a.882.882,0,0,1-.136-.472Z" transform="translate(-133.423 -49.818)" fill="#3188d8"/>
    <path id="Trazado_101398" data-name="Trazado 101398" d="M186.7,521.725h-4.531V503.537H186.7v18.188Z" transform="translate(-90.31 -186.429)" fill="#3188d8"/>
    <path id="Trazado_101399" data-name="Trazado 101399" d="M213.744,514.852h5.538l-2.724-7.157-2.813,7.157Zm.282-11.315h5.153l7.729,18.188h-4.946l-1.407-3.739h-8.04L211,521.725h-4.768l7.788-18.188Z" transform="translate(-107.137 -186.429)" fill="#3188d8" fill-rule="evenodd"/>
    <path id="Trazado_101400" data-name="Trazado 101400" d="M300.6,506.758H289.05v3.862h10.6v3.159h-10.6v4.677h12.083v3.27H284.593V503.537H300.6v3.221Z" transform="translate(-161.92 -186.429)" fill="#3188d8"/>
    <path id="Trazado_101401" data-name="Trazado 101401" d="M353.771,514.852h5.538l-2.724-7.157-2.813,7.157Zm.281-11.315h5.153l7.729,18.188h-4.946l-1.407-3.739h-8.04l-1.511,3.739h-4.768l7.788-18.188Z" transform="translate(-205.038 -186.429)" fill="#3188d8" fill-rule="evenodd"/>
    <path id="Trazado_101402" data-name="Trazado 101402" d="M54.284,585.1H53v-6.063h1.284V585.1Z" transform="translate(0 -239.219)" fill="#3188d8"/>
    <path id="Trazado_101403" data-name="Trazado 101403" d="M64.66,584.3a1.455,1.455,0,0,1,.453,1.205v3.019H63.889V585.8a1.224,1.224,0,0,0-.1-.543.681.681,0,0,0-.671-.345.833.833,0,0,0-.835.506,1.706,1.706,0,0,0-.117.683v2.427H60.977v-4.475H62.13v.654a2.006,2.006,0,0,1,.437-.5,1.537,1.537,0,0,1,.936-.272,1.775,1.775,0,0,1,1.158.366Z" transform="translate(-5.577 -242.641)" fill="#3188d8"/>
    <path id="Trazado_101404" data-name="Trazado 101404" d="M76.833,582.357v-.835h.637v-1.251h1.183v1.251H79.4v.835h-.742v2.369a.534.534,0,0,0,.071.345.815.815,0,0,0,.436.066h.113l.122-.008v.876l-.566.02a1.541,1.541,0,0,1-1.158-.288.846.846,0,0,1-.2-.621v-2.76Z" transform="translate(-16.663 -240.079)" fill="#3188d8"/>
    <path id="Trazado_101405" data-name="Trazado 101405" d="M88.225,585.117a1.267,1.267,0,0,0-.285.691H89.8a1,1,0,0,0-.29-.7.893.893,0,0,0-.637-.243.828.828,0,0,0-.646.255ZM89.9,584.1a1.792,1.792,0,0,1,.755.662,2.24,2.24,0,0,1,.348.925,5.859,5.859,0,0,1,.038.888H87.91a1.106,1.106,0,0,0,.432.946,1.031,1.031,0,0,0,.6.168.868.868,0,0,0,.6-.206.976.976,0,0,0,.222-.309h1.221a1.475,1.475,0,0,1-.424.81,2.1,2.1,0,0,1-1.645.654,2.346,2.346,0,0,1-1.54-.551,2.2,2.2,0,0,1-.667-1.793,2.468,2.468,0,0,1,.6-1.785,2.088,2.088,0,0,1,1.565-.621,2.436,2.436,0,0,1,1.028.21Z" transform="translate(-23.566 -242.612)" fill="#3188d8" fill-rule="evenodd"/>
    <path id="Trazado_101406" data-name="Trazado 101406" d="M106.3,583.94l.1,0v1.2c-.076-.008-.143-.014-.2-.017s-.106,0-.143,0a1,1,0,0,0-.969.461,1.76,1.76,0,0,0-.139.8v2.143h-1.2v-4.483h1.141v.782a2.493,2.493,0,0,1,.483-.613,1.334,1.334,0,0,1,.873-.276.3.3,0,0,1,.054,0Z" transform="translate(-35.48 -242.641)" fill="#3188d8"/>
    <path id="Trazado_101407" data-name="Trazado 101407" d="M118.615,584.3a1.456,1.456,0,0,1,.453,1.205v3.019h-1.225V585.8a1.229,1.229,0,0,0-.1-.543.682.682,0,0,0-.671-.345.834.834,0,0,0-.835.506,1.711,1.711,0,0,0-.117.683v2.427h-1.192v-4.475h1.154v.654a2,2,0,0,1,.437-.5,1.537,1.537,0,0,1,.936-.272,1.776,1.776,0,0,1,1.158.366Z" transform="translate(-43.3 -242.641)" fill="#3188d8"/>
    <path id="Trazado_101408" data-name="Trazado 101408" d="M134.149,586.346a1.377,1.377,0,0,1-.231.115,2.021,2.021,0,0,1-.315.078l-.268.049a1.768,1.768,0,0,0-.541.16.535.535,0,0,0-.277.5.528.528,0,0,0,.168.436.665.665,0,0,0,.415.131,1.226,1.226,0,0,0,.709-.222.936.936,0,0,0,.34-.81v-.436Zm-.726-.547a1.882,1.882,0,0,0,.474-.1.353.353,0,0,0,.256-.333.388.388,0,0,0-.2-.378,1.21,1.21,0,0,0-.571-.107.755.755,0,0,0-.6.206.847.847,0,0,0-.168.411h-1.154a1.7,1.7,0,0,1,.336-.967,1.973,1.973,0,0,1,1.628-.592,2.944,2.944,0,0,1,1.334.292,1.117,1.117,0,0,1,.583,1.1v2.057q0,.214.008.518a.641.641,0,0,0,.072.313.425.425,0,0,0,.176.136v.173h-1.3a1.272,1.272,0,0,1-.076-.255c-.014-.079-.025-.17-.033-.272a2.446,2.446,0,0,1-.571.448,1.74,1.74,0,0,1-.872.218,1.533,1.533,0,0,1-1.028-.345,1.238,1.238,0,0,1-.4-.987,1.273,1.273,0,0,1,.65-1.2,2.941,2.941,0,0,1,1.049-.288l.407-.049Z" transform="translate(-54.756 -242.641)" fill="#3188d8" fill-rule="evenodd"/>
    <path id="Trazado_101409" data-name="Trazado 101409" d="M146.671,582.357v-.835h.638v-1.251h1.183v1.251h.742v.835h-.742v2.369a.534.534,0,0,0,.071.345.817.817,0,0,0,.437.066h.113l.122-.008v.876l-.566.02a1.541,1.541,0,0,1-1.158-.288.846.846,0,0,1-.2-.621v-2.76Z" transform="translate(-65.491 -240.079)" fill="#3188d8"/>
    <path id="Trazado_101410" data-name="Trazado 101410" d="M159.012,580H157.8v-1.082h1.212V580Zm-1.212.535h1.212v4.483H157.8v-4.483Z" transform="translate(-73.272 -239.133)" fill="#3188d8" fill-rule="evenodd"/>
    <path id="Trazado_101411" data-name="Trazado 101411" d="M167.882,587.247a1.679,1.679,0,0,0,.281-1.041,1.66,1.66,0,0,0-.281-1.036.957.957,0,0,0-.805-.366.967.967,0,0,0-.81.366,2.058,2.058,0,0,0,0,2.077.965.965,0,0,0,.81.366.954.954,0,0,0,.805-.366Zm.957.65a2.56,2.56,0,0,1-3.516,0,2.746,2.746,0,0,1,0-3.373,2.527,2.527,0,0,1,3.516,0,2.746,2.746,0,0,1,0,3.373Z" transform="translate(-78.127 -242.555)" fill="#3188d8" fill-rule="evenodd"/>
    <path id="Trazado_101412" data-name="Trazado 101412" d="M186.835,584.3a1.455,1.455,0,0,1,.453,1.205v3.019h-1.225V585.8a1.224,1.224,0,0,0-.1-.543.681.681,0,0,0-.671-.345.834.834,0,0,0-.835.506,1.711,1.711,0,0,0-.117.683v2.427h-1.192v-4.475h1.154v.654a2,2,0,0,1,.436-.5,1.537,1.537,0,0,1,.936-.272,1.775,1.775,0,0,1,1.158.366Z" transform="translate(-90.997 -242.641)" fill="#3188d8"/>
    <path id="Trazado_101413" data-name="Trazado 101413" d="M202.37,586.346a1.388,1.388,0,0,1-.231.115,2.031,2.031,0,0,1-.315.078l-.268.049a1.767,1.767,0,0,0-.541.16.535.535,0,0,0-.277.5.528.528,0,0,0,.168.436.664.664,0,0,0,.415.131,1.225,1.225,0,0,0,.709-.222.936.936,0,0,0,.34-.81v-.436Zm-.726-.547a1.876,1.876,0,0,0,.474-.1.353.353,0,0,0,.256-.333.388.388,0,0,0-.2-.378,1.21,1.21,0,0,0-.571-.107.755.755,0,0,0-.6.206.847.847,0,0,0-.168.411h-1.154a1.7,1.7,0,0,1,.336-.967,1.973,1.973,0,0,1,1.628-.592,2.946,2.946,0,0,1,1.334.292,1.117,1.117,0,0,1,.583,1.1v2.057q0,.214.008.518a.641.641,0,0,0,.071.313.427.427,0,0,0,.176.136v.173h-1.3a1.275,1.275,0,0,1-.076-.255q-.021-.119-.034-.272a2.438,2.438,0,0,1-.57.448,1.741,1.741,0,0,1-.873.218,1.534,1.534,0,0,1-1.028-.345,1.238,1.238,0,0,1-.4-.987,1.273,1.273,0,0,1,.65-1.2,2.94,2.94,0,0,1,1.049-.288l.407-.049Z" transform="translate(-102.453 -242.641)" fill="#3188d8" fill-rule="evenodd"/>
    <path id="Trazado_101414" data-name="Trazado 101414" d="M217.733,585.1h-1.2v-6.063h1.2V585.1Z" transform="translate(-114.339 -239.219)" fill="#3188d8"/>
    <path id="Trazado_101415" data-name="Trazado 101415" d="M232.265,582.814h1.569l-.772-2.386-.8,2.386Zm.08-3.772h1.46l2.19,6.063h-1.4l-.4-1.246h-2.278l-.428,1.246h-1.351l2.207-6.063Z" transform="translate(-123.848 -239.219)" fill="#3188d8" fill-rule="evenodd"/>
    <path id="Trazado_101416" data-name="Trazado 101416" d="M250.331,582.357v-.835h.637v-1.251h1.183v1.251h.742v.835h-.742v2.369a.532.532,0,0,0,.071.345.815.815,0,0,0,.436.066h.113l.122-.008v.876l-.566.02a1.54,1.54,0,0,1-1.158-.288.845.845,0,0,1-.2-.621v-2.76Z" transform="translate(-137.966 -240.079)" fill="#3188d8"/>
    <path id="Trazado_101417" data-name="Trazado 101417" d="M263.607,587.247a2.059,2.059,0,0,0,0-2.077.957.957,0,0,0-.805-.366.967.967,0,0,0-.81.366,2.06,2.06,0,0,0,0,2.077.966.966,0,0,0,.81.366.954.954,0,0,0,.805-.366Zm.956.65a2.559,2.559,0,0,1-3.516,0,2.746,2.746,0,0,1,0-3.373,2.526,2.526,0,0,1,3.516,0,2.745,2.745,0,0,1,0,3.373Z" transform="translate(-145.054 -242.555)" fill="#3188d8" fill-rule="evenodd"/>
    <path id="Trazado_101418" data-name="Trazado 101418" d="M284.505,584.079a1.33,1.33,0,0,1,.533.4,1.281,1.281,0,0,1,.26.576,3.939,3.939,0,0,1,.042.662l-.009,2.825h-1.225v-2.854a.928.928,0,0,0-.084-.42.6.6,0,0,0-.588-.313.689.689,0,0,0-.684.4,1.245,1.245,0,0,0-.1.514v2.669h-1.2v-2.669a1.474,1.474,0,0,0-.084-.58.589.589,0,0,0-.591-.325.711.711,0,0,0-.688.325,1.231,1.231,0,0,0-.1.551v2.7h-1.212v-4.475h1.162v.654a1.9,1.9,0,0,1,.419-.5,1.688,1.688,0,0,1,1.75-.037,1.32,1.32,0,0,1,.394.539,1.5,1.5,0,0,1,.583-.58,1.809,1.809,0,0,1,.822-.185,1.619,1.619,0,0,1,.6.115Z" transform="translate(-157.855 -242.66)" fill="#3188d8"/>
    <path id="Trazado_101419" data-name="Trazado 101419" d="M305.511,580H304.3v-1.082h1.212V580Zm-1.212.535h1.212v4.483H304.3v-4.483Z" transform="translate(-175.698 -239.133)" fill="#3188d8" fill-rule="evenodd"/>
    <path id="Trazado_101420" data-name="Trazado 101420" d="M314.3,585.651a1.031,1.031,0,0,0-.172-.452.727.727,0,0,0-.625-.272.823.823,0,0,0-.827.588,2.428,2.428,0,0,0-.117.831,2.231,2.231,0,0,0,.117.794.8.8,0,0,0,.806.559.718.718,0,0,0,.6-.222,1.094,1.094,0,0,0,.214-.576h1.221a1.963,1.963,0,0,1-2.06,1.781,1.966,1.966,0,0,1-1.623-.642,2.562,2.562,0,0,1-.52-1.666,2.6,2.6,0,0,1,.575-1.8,2.019,2.019,0,0,1,1.585-.642,2.415,2.415,0,0,1,1.406.378,1.745,1.745,0,0,1,.65,1.337Z" transform="translate(-180.602 -242.641)" fill="#3188d8"/>
    <path id="Trazado_101421" data-name="Trazado 101421" d="M340.978,580.115h-3.272V581.4h3v1.053h-3v1.559h3.424v1.09h-4.686v-6.063h4.535v1.074Z" transform="translate(-198.172 -239.219)" fill="#3188d8"/>
    <path id="Trazado_101422" data-name="Trazado 101422" d="M358.758,584.3a1.455,1.455,0,0,1,.453,1.205v3.019h-1.225V585.8a1.233,1.233,0,0,0-.1-.543.682.682,0,0,0-.671-.345.834.834,0,0,0-.835.506,1.705,1.705,0,0,0-.118.683v2.427h-1.191v-4.475h1.154v.654a2,2,0,0,1,.436-.5,1.538,1.538,0,0,1,.936-.272,1.775,1.775,0,0,1,1.158.366Z" transform="translate(-211.198 -242.641)" fill="#3188d8"/>
    <path id="Trazado_101423" data-name="Trazado 101423" d="M372.812,585.117a1.267,1.267,0,0,0-.285.691h1.858a1,1,0,0,0-.289-.7.893.893,0,0,0-.638-.243.828.828,0,0,0-.646.255Zm1.674-1.012a1.791,1.791,0,0,1,.755.662,2.236,2.236,0,0,1,.348.925,5.806,5.806,0,0,1,.038.888H372.5a1.106,1.106,0,0,0,.432.946,1.032,1.032,0,0,0,.6.168.868.868,0,0,0,.6-.206.981.981,0,0,0,.222-.309h1.221a1.479,1.479,0,0,1-.424.81,2.1,2.1,0,0,1-1.645.654,2.345,2.345,0,0,1-1.54-.551,2.2,2.2,0,0,1-.667-1.793,2.467,2.467,0,0,1,.6-1.785,2.088,2.088,0,0,1,1.565-.621,2.436,2.436,0,0,1,1.028.21Z" transform="translate(-222.538 -242.612)" fill="#3188d8" fill-rule="evenodd"/>
    <path id="Trazado_101424" data-name="Trazado 101424" d="M390.885,583.94l.1,0v1.2c-.076-.008-.143-.014-.2-.017s-.106,0-.143,0a1,1,0,0,0-.969.461,1.761,1.761,0,0,0-.138.8v2.143h-1.2v-4.483h1.141v.782a2.486,2.486,0,0,1,.482-.613,1.334,1.334,0,0,1,.873-.276.3.3,0,0,1,.054,0Z" transform="translate(-234.452 -242.641)" fill="#3188d8"/>
    <path id="Trazado_101425" data-name="Trazado 101425" d="M401.509,587.255a1.425,1.425,0,0,0,.29-.991,1.486,1.486,0,0,0-.277-.971.9.9,0,0,0-.734-.333.867.867,0,0,0-.869.58,2.029,2.029,0,0,0-.126.761,1.7,1.7,0,0,0,.134.695.875.875,0,0,0,.873.568.935.935,0,0,0,.709-.308Zm-.407-3.217a1.427,1.427,0,0,1,.7.65v-.646h1.162V588.3a2.346,2.346,0,0,1-.3,1.308,2.211,2.211,0,0,1-1.963.757,2.72,2.72,0,0,1-1.431-.337,1.241,1.241,0,0,1-.612-1.008h1.3a.525.525,0,0,0,.164.3,1.027,1.027,0,0,0,.65.16.878.878,0,0,0,.864-.424,2.109,2.109,0,0,0,.143-.913v-.288a1.434,1.434,0,0,1-.369.432,1.5,1.5,0,0,1-.927.267,1.779,1.779,0,0,1-1.409-.6,2.435,2.435,0,0,1-.524-1.645,2.722,2.722,0,0,1,.508-1.678,1.688,1.688,0,0,1,1.439-.683,1.607,1.607,0,0,1,.6.1Z" transform="translate(-241.599 -242.641)" fill="#3188d8" fill-rule="evenodd"/>
    <path id="Trazado_101426" data-name="Trazado 101426" d="M416.028,589.635l.151.008a1.89,1.89,0,0,0,.335-.012.613.613,0,0,0,.269-.094.626.626,0,0,0,.193-.292.605.605,0,0,0,.076-.272l-1.678-4.68h1.33l1,3.307.944-3.307h1.271l-1.569,4.409a6.084,6.084,0,0,1-.717,1.579,1.374,1.374,0,0,1-1.057.309q-.159,0-.256,0t-.29-.012v-.938Z" transform="translate(-253.357 -242.89)" fill="#3188d8"/>
    <path id="Trazado_101427" data-name="Trazado 101427" d="M440.7,582.814h1.569l-.772-2.386-.8,2.386Zm.079-3.772h1.46l2.19,6.063h-1.4l-.4-1.246h-2.278l-.428,1.246h-1.351l2.207-6.063Z" transform="translate(-269.573 -239.219)" fill="#3188d8" fill-rule="evenodd"/>
    <path id="Trazado_101428" data-name="Trazado 101428" d="M462.342,587.255a1.425,1.425,0,0,0,.29-.991,1.485,1.485,0,0,0-.277-.971.9.9,0,0,0-.734-.333.867.867,0,0,0-.869.58,2.029,2.029,0,0,0-.126.761,1.7,1.7,0,0,0,.134.695.875.875,0,0,0,.873.568.935.935,0,0,0,.709-.308Zm-.407-3.217a1.427,1.427,0,0,1,.7.65v-.646H463.8V588.3a2.344,2.344,0,0,1-.3,1.308,2.211,2.211,0,0,1-1.963.757,2.72,2.72,0,0,1-1.431-.337,1.24,1.24,0,0,1-.612-1.008h1.3a.527.527,0,0,0,.164.3,1.027,1.027,0,0,0,.65.16.878.878,0,0,0,.864-.424,2.11,2.11,0,0,0,.143-.913v-.288a1.434,1.434,0,0,1-.369.432,1.5,1.5,0,0,1-.927.267,1.779,1.779,0,0,1-1.409-.6,2.435,2.435,0,0,1-.524-1.645,2.722,2.722,0,0,1,.508-1.678,1.688,1.688,0,0,1,1.439-.683,1.607,1.607,0,0,1,.6.1Z" transform="translate(-284.131 -242.641)" fill="#3188d8" fill-rule="evenodd"/>
    <path id="Trazado_101429" data-name="Trazado 101429" d="M478.088,585.117a1.269,1.269,0,0,0-.285.691h1.859a1,1,0,0,0-.29-.7.894.894,0,0,0-.638-.243.828.828,0,0,0-.646.255Zm1.674-1.012a1.791,1.791,0,0,1,.755.662,2.236,2.236,0,0,1,.348.925,5.97,5.97,0,0,1,.038.888h-3.13a1.106,1.106,0,0,0,.432.946,1.031,1.031,0,0,0,.6.168.867.867,0,0,0,.6-.206.972.972,0,0,0,.223-.309h1.221a1.476,1.476,0,0,1-.424.81,2.1,2.1,0,0,1-1.644.654,2.346,2.346,0,0,1-1.54-.551,2.2,2.2,0,0,1-.667-1.793,2.468,2.468,0,0,1,.6-1.785,2.089,2.089,0,0,1,1.565-.621,2.438,2.438,0,0,1,1.028.21Z" transform="translate(-296.142 -242.612)" fill="#3188d8" fill-rule="evenodd"/>
    <path id="Trazado_101430" data-name="Trazado 101430" d="M497.365,584.3a1.455,1.455,0,0,1,.453,1.205v3.019h-1.225V585.8a1.229,1.229,0,0,0-.1-.543.682.682,0,0,0-.671-.345.834.834,0,0,0-.835.506,1.7,1.7,0,0,0-.117.683v2.427h-1.191v-4.475h1.154v.654a1.994,1.994,0,0,1,.436-.5,1.537,1.537,0,0,1,.936-.272,1.776,1.776,0,0,1,1.158.366Z" transform="translate(-308.106 -242.641)" fill="#3188d8"/>
    <path id="Trazado_101431" data-name="Trazado 101431" d="M513.225,585.651a1.03,1.03,0,0,0-.172-.452.727.727,0,0,0-.625-.272.822.822,0,0,0-.826.588,2.411,2.411,0,0,0-.118.831,2.215,2.215,0,0,0,.118.794.8.8,0,0,0,.805.559.717.717,0,0,0,.6-.222,1.089,1.089,0,0,0,.214-.576h1.221a1.963,1.963,0,0,1-2.06,1.781,1.966,1.966,0,0,1-1.623-.642,2.562,2.562,0,0,1-.52-1.666,2.6,2.6,0,0,1,.575-1.8,2.021,2.021,0,0,1,1.586-.642,2.415,2.415,0,0,1,1.405.378,1.747,1.747,0,0,1,.65,1.337Z" transform="translate(-319.679 -242.641)" fill="#3188d8"/>
    <path id="Trazado_101432" data-name="Trazado 101432" d="M526.075,589.635l.151.008a1.888,1.888,0,0,0,.335-.012.609.609,0,0,0,.268-.094.622.622,0,0,0,.193-.292.6.6,0,0,0,.076-.272l-1.678-4.68h1.33l1,3.307.944-3.307h1.271l-1.569,4.409a6.093,6.093,0,0,1-.718,1.579,1.375,1.375,0,0,1-1.057.309c-.106,0-.192,0-.256,0s-.161,0-.289-.012v-.938Z" transform="translate(-330.297 -242.89)" fill="#3188d8"/>
  </g>
</svg>
